<?xml version="1.0" encoding="UTF-8" standalone="no"?>
<!DOCTYPE svg PUBLIC "-//W3C//DTD SVG 1.1//EN"
 "http://www.w3.org/Graphics/SVG/1.1/DTD/svg11.dtd">
<!-- Generated by graphviz version 2.43.0 (0)
 -->
<!-- Title: dump_graph Pages: 1 -->
<svg width="801pt" height="536pt"
 viewBox="0.00 0.00 801.00 536.00" xmlns="http://www.w3.org/2000/svg" xmlns:xlink="http://www.w3.org/1999/xlink">
<g id="graph0" class="graph" transform="scale(1 1) rotate(0) translate(4 532)">
<title>dump_graph</title>
<polygon fill="white" stroke="transparent" points="-4,4 -4,-532 797,-532 797,4 -4,4"/>
<!-- node0x55e3e8b1b1c0 -->
<g id="node1" class="node">
<title>node0x55e3e8b1b1c0</title>
<polygon fill="pink" stroke="transparent" points="225,-406 225,-427 425,-427 425,-406 225,-406"/>
<polygon fill="none" stroke="black" points="225,-406 225,-427 425,-427 425,-406 225,-406"/>
<text text-anchor="start" x="286" y="-412.8" font-family="Times,serif" font-size="14.00"> statement</text>
<polygon fill="none" stroke="black" points="225,-383 225,-404 274,-404 274,-383 225,-383"/>
<text text-anchor="start" x="228" y="-389.8" font-family="Times,serif" font-size="14.00">L:(nil)</text>
<polygon fill="none" stroke="black" points="276,-383 276,-404 425,-404 425,-383 276,-383"/>
<text text-anchor="start" x="279" y="-389.8" font-family="Times,serif" font-size="14.00">R: 0x55e3e8b1ad40</text>
<polygon fill="none" stroke="black" points="222,-380 222,-430 428,-430 428,-380 222,-380"/>
</g>
<!-- node0x55e3e8b1ad40 -->
<g id="node2" class="node">
<title>node0x55e3e8b1ad40</title>
<polygon fill="#cd4f39" stroke="transparent" points="176,-312 176,-333 470,-333 470,-312 176,-312"/>
<polygon fill="none" stroke="black" points="176,-312 176,-333 470,-333 470,-312 176,-312"/>
<text text-anchor="start" x="301.5" y="-318.8" font-family="Times,serif" font-size="14.00"> while</text>
<polygon fill="none" stroke="black" points="176,-289 176,-310 320,-310 320,-289 176,-289"/>
<text text-anchor="start" x="179" y="-295.8" font-family="Times,serif" font-size="14.00">L:0x55e3e8b1b000</text>
<polygon fill="none" stroke="black" points="322,-289 322,-310 470,-310 470,-289 322,-289"/>
<text text-anchor="start" x="325" y="-295.8" font-family="Times,serif" font-size="14.00">R: 0x55e3e8b1adc0</text>
<polygon fill="none" stroke="black" points="173,-286 173,-336 473,-336 473,-286 173,-286"/>
</g>
<!-- node0x55e3e8b1b1c0&#45;&gt;node0x55e3e8b1ad40 -->
<g id="edge1" class="edge">
<title>node0x55e3e8b1b1c0:rchild&#45;&gt;node0x55e3e8b1ad40</title>
<path fill="none" stroke="black" stroke-width="2" d="M351,-382C351,-371.09 348.03,-359.86 344.03,-349.68"/>
<polygon fill="black" stroke="black" stroke-width="2" points="339.93,-340.29 348.05,-347.66 342.39,-344.67 344.39,-349.25 343.93,-349.45 343.47,-349.65 341.47,-345.07 339.8,-351.25 339.93,-340.29 339.93,-340.29"/>
</g>
<!-- node0x55e3e8b1b000 -->
<g id="node4" class="node">
<title>node0x55e3e8b1b000</title>
<polygon fill="orchid" stroke="transparent" points="11,-218 11,-239 301,-239 301,-218 11,-218"/>
<polygon fill="none" stroke="black" points="11,-218 11,-239 301,-239 301,-218 11,-218"/>
<text text-anchor="start" x="148" y="-224.8" font-family="Times,serif" font-size="14.00"> G</text>
<polygon fill="none" stroke="black" points="11,-195 11,-216 149,-216 149,-195 11,-195"/>
<text text-anchor="start" x="14" y="-201.8" font-family="Times,serif" font-size="14.00">L:0x55e3e8b1afc0</text>
<polygon fill="none" stroke="black" points="151,-195 151,-216 301,-216 301,-195 151,-195"/>
<text text-anchor="start" x="154" y="-201.8" font-family="Times,serif" font-size="14.00">R: 0x55e3e8b1b040</text>
<polygon fill="none" stroke="black" points="8,-192 8,-242 304,-242 304,-192 8,-192"/>
</g>
<!-- node0x55e3e8b1ad40&#45;&gt;node0x55e3e8b1b000 -->
<g id="edge4" class="edge">
<title>node0x55e3e8b1ad40:lchild&#45;&gt;node0x55e3e8b1b000</title>
<path fill="none" stroke="black" stroke-width="2" d="M175,-299C155.88,-299 151.45,-277.35 151.64,-256.44"/>
<polygon fill="black" stroke="black" stroke-width="2" points="152.05,-246.33 156.14,-256.51 152.35,-251.35 152.14,-256.34 151.64,-256.32 151.14,-256.3 151.35,-251.31 147.14,-256.14 152.05,-246.33 152.05,-246.33"/>
</g>
<!-- node0x55e3e8b1adc0 -->
<g id="node6" class="node">
<title>node0x55e3e8b1adc0</title>
<polygon fill="#9acd32" stroke="transparent" points="342,-218 342,-239 635,-239 635,-218 342,-218"/>
<polygon fill="none" stroke="black" points="342,-218 342,-239 635,-239 635,-218 342,-218"/>
<text text-anchor="start" x="480" y="-224.8" font-family="Times,serif" font-size="14.00"> =</text>
<polygon fill="none" stroke="black" points="342,-195 342,-216 485,-216 485,-195 342,-195"/>
<text text-anchor="start" x="345" y="-201.8" font-family="Times,serif" font-size="14.00">L:0x55e3e8b1ad80</text>
<polygon fill="none" stroke="black" points="487,-195 487,-216 635,-216 635,-195 487,-195"/>
<text text-anchor="start" x="490" y="-201.8" font-family="Times,serif" font-size="14.00">R: 0x55e3e8b1ae40</text>
<polygon fill="none" stroke="black" points="338.5,-192 338.5,-242 637.5,-242 637.5,-192 338.5,-192"/>
</g>
<!-- node0x55e3e8b1ad40&#45;&gt;node0x55e3e8b1adc0 -->
<g id="edge5" class="edge">
<title>node0x55e3e8b1ad40:rchild&#45;&gt;node0x55e3e8b1adc0</title>
<path fill="none" stroke="black" stroke-width="2" d="M471,-299C480.51,-299 484.73,-277.35 486.59,-256.44"/>
<polygon fill="black" stroke="black" stroke-width="2" points="487.32,-246.33 491.09,-256.63 487.46,-251.35 487.1,-256.34 486.6,-256.3 486.1,-256.27 486.46,-251.28 482.11,-255.98 487.32,-246.33 487.32,-246.33"/>
</g>
<!-- node0x55e3e8b1afc0 -->
<g id="node3" class="node">
<title>node0x55e3e8b1afc0</title>
<polygon fill="orchid" stroke="transparent" points="27,-124 27,-145 133,-145 133,-124 27,-124"/>
<polygon fill="none" stroke="black" points="27,-124 27,-145 133,-145 133,-124 27,-124"/>
<text text-anchor="start" x="73.5" y="-130.8" font-family="Times,serif" font-size="14.00"> x</text>
<polygon fill="none" stroke="black" points="27,-101 27,-122 76,-122 76,-101 27,-101"/>
<text text-anchor="start" x="30" y="-107.8" font-family="Times,serif" font-size="14.00">L:(nil)</text>
<polygon fill="none" stroke="black" points="78,-101 78,-122 133,-122 133,-101 78,-101"/>
<text text-anchor="start" x="81" y="-107.8" font-family="Times,serif" font-size="14.00">R: (nil)</text>
<polygon fill="none" stroke="black" points="24,-98 24,-148 136,-148 136,-98 24,-98"/>
</g>
<!-- node0x55e3e8b1b000&#45;&gt;node0x55e3e8b1afc0 -->
<g id="edge2" class="edge">
<title>node0x55e3e8b1b000:lchild&#45;&gt;node0x55e3e8b1afc0</title>
<path fill="none" stroke="black" stroke-width="2" d="M80,-194C80,-183.81 80,-172.78 80,-162.56"/>
<polygon fill="black" stroke="black" stroke-width="2" points="80,-152.27 84.5,-162.27 80.5,-157.27 80.5,-162.27 80,-162.27 79.5,-162.27 79.5,-157.27 75.5,-162.27 80,-152.27 80,-152.27"/>
</g>
<!-- node0x55e3e8b1b040 -->
<g id="node5" class="node">
<title>node0x55e3e8b1b040</title>
<polygon fill="lightskyblue" stroke="transparent" points="173,-124 173,-145 279,-145 279,-124 173,-124"/>
<polygon fill="none" stroke="black" points="173,-124 173,-145 279,-145 279,-124 173,-124"/>
<text text-anchor="start" x="221" y="-130.8" font-family="Times,serif" font-size="14.00">2</text>
<polygon fill="none" stroke="black" points="173,-101 173,-122 222,-122 222,-101 173,-101"/>
<text text-anchor="start" x="176" y="-107.8" font-family="Times,serif" font-size="14.00">L:(nil)</text>
<polygon fill="none" stroke="black" points="224,-101 224,-122 279,-122 279,-101 224,-101"/>
<text text-anchor="start" x="227" y="-107.8" font-family="Times,serif" font-size="14.00">R: (nil)</text>
<polygon fill="none" stroke="black" points="170,-98 170,-148 282,-148 282,-98 170,-98"/>
</g>
<!-- node0x55e3e8b1b000&#45;&gt;node0x55e3e8b1b040 -->
<g id="edge3" class="edge">
<title>node0x55e3e8b1b000:rchild&#45;&gt;node0x55e3e8b1b040</title>
<path fill="none" stroke="black" stroke-width="2" d="M226,-194C226,-183.81 226,-172.78 226,-162.56"/>
<polygon fill="black" stroke="black" stroke-width="2" points="226,-152.27 230.5,-162.27 226.5,-157.27 226.5,-162.27 226,-162.27 225.5,-162.27 225.5,-157.27 221.5,-162.27 226,-152.27 226,-152.27"/>
</g>
<!-- node0x55e3e8b1ad80 -->
<g id="node7" class="node">
<title>node0x55e3e8b1ad80</title>
<polygon fill="orchid" stroke="transparent" points="339,-124 339,-145 445,-145 445,-124 339,-124"/>
<polygon fill="none" stroke="black" points="339,-124 339,-145 445,-145 445,-124 339,-124"/>
<text text-anchor="start" x="385.5" y="-130.8" font-family="Times,serif" font-size="14.00"> x</text>
<polygon fill="none" stroke="black" points="339,-101 339,-122 388,-122 388,-101 339,-101"/>
<text text-anchor="start" x="342" y="-107.8" font-family="Times,serif" font-size="14.00">L:(nil)</text>
<polygon fill="none" stroke="black" points="390,-101 390,-122 445,-122 445,-101 390,-101"/>
<text text-anchor="start" x="393" y="-107.8" font-family="Times,serif" font-size="14.00">R: (nil)</text>
<polygon fill="none" stroke="black" points="336,-98 336,-148 448,-148 448,-98 336,-98"/>
</g>
<!-- node0x55e3e8b1adc0&#45;&gt;node0x55e3e8b1ad80 -->
<g id="edge6" class="edge">
<title>node0x55e3e8b1adc0:lchild&#45;&gt;node0x55e3e8b1ad80</title>
<path fill="none" stroke="black" stroke-width="2" d="M413,-194C413,-183.23 410.69,-171.91 407.61,-161.58"/>
<polygon fill="black" stroke="black" stroke-width="2" points="404.46,-152.04 411.86,-160.13 406.5,-156.63 408.07,-161.38 407.59,-161.54 407.12,-161.69 405.55,-156.94 403.32,-162.95 404.46,-152.04 404.46,-152.04"/>
</g>
<!-- node0x55e3e8b1ae40 -->
<g id="node8" class="node">
<title>node0x55e3e8b1ae40</title>
<polygon fill="#9acd32" stroke="transparent" points="485,-124 485,-145 777,-145 777,-124 485,-124"/>
<polygon fill="none" stroke="black" points="485,-124 485,-145 777,-145 777,-124 485,-124"/>
<text text-anchor="start" x="626" y="-130.8" font-family="Times,serif" font-size="14.00"> &#45;</text>
<polygon fill="none" stroke="black" points="485,-101 485,-122 627,-122 627,-101 485,-101"/>
<text text-anchor="start" x="488" y="-107.8" font-family="Times,serif" font-size="14.00">L:0x55e3e8b1ae00</text>
<polygon fill="none" stroke="black" points="629,-101 629,-122 777,-122 777,-101 629,-101"/>
<text text-anchor="start" x="632" y="-107.8" font-family="Times,serif" font-size="14.00">R: 0x55e3e8b1ae80</text>
<polygon fill="none" stroke="black" points="482,-98 482,-148 780,-148 780,-98 482,-98"/>
</g>
<!-- node0x55e3e8b1adc0&#45;&gt;node0x55e3e8b1ae40 -->
<g id="edge7" class="edge">
<title>node0x55e3e8b1adc0:rchild&#45;&gt;node0x55e3e8b1ae40</title>
<path fill="none" stroke="black" stroke-width="2" d="M636,-205C654.82,-205 652.64,-182.96 646.25,-161.87"/>
<polygon fill="black" stroke="black" stroke-width="2" points="643.08,-152.33 650.51,-160.4 645.13,-156.92 646.71,-161.66 646.24,-161.82 645.76,-161.98 644.18,-157.23 641.97,-163.24 643.08,-152.33 643.08,-152.33"/>
</g>
<!-- node0x55e3e8b1ae00 -->
<g id="node9" class="node">
<title>node0x55e3e8b1ae00</title>
<polygon fill="orchid" stroke="transparent" points="503,-30 503,-51 609,-51 609,-30 503,-30"/>
<polygon fill="none" stroke="black" points="503,-30 503,-51 609,-51 609,-30 503,-30"/>
<text text-anchor="start" x="549.5" y="-36.8" font-family="Times,serif" font-size="14.00"> x</text>
<polygon fill="none" stroke="black" points="503,-7 503,-28 552,-28 552,-7 503,-7"/>
<text text-anchor="start" x="506" y="-13.8" font-family="Times,serif" font-size="14.00">L:(nil)</text>
<polygon fill="none" stroke="black" points="554,-7 554,-28 609,-28 609,-7 554,-7"/>
<text text-anchor="start" x="557" y="-13.8" font-family="Times,serif" font-size="14.00">R: (nil)</text>
<polygon fill="none" stroke="black" points="500,-4 500,-54 612,-54 612,-4 500,-4"/>
</g>
<!-- node0x55e3e8b1ae40&#45;&gt;node0x55e3e8b1ae00 -->
<g id="edge8" class="edge">
<title>node0x55e3e8b1ae40:lchild&#45;&gt;node0x55e3e8b1ae00</title>
<path fill="none" stroke="black" stroke-width="2" d="M556,-100C556,-89.81 556,-78.78 556,-68.56"/>
<polygon fill="black" stroke="black" stroke-width="2" points="556,-58.27 560.5,-68.27 556.5,-63.27 556.5,-68.27 556,-68.27 555.5,-68.27 555.5,-63.27 551.5,-68.27 556,-58.27 556,-58.27"/>
</g>
<!-- node0x55e3e8b1ae80 -->
<g id="node10" class="node">
<title>node0x55e3e8b1ae80</title>
<polygon fill="lightskyblue" stroke="transparent" points="650,-30 650,-51 756,-51 756,-30 650,-30"/>
<polygon fill="none" stroke="black" points="650,-30 650,-51 756,-51 756,-30 650,-30"/>
<text text-anchor="start" x="698" y="-36.8" font-family="Times,serif" font-size="14.00">1</text>
<polygon fill="none" stroke="black" points="650,-7 650,-28 699,-28 699,-7 650,-7"/>
<text text-anchor="start" x="653" y="-13.8" font-family="Times,serif" font-size="14.00">L:(nil)</text>
<polygon fill="none" stroke="black" points="701,-7 701,-28 756,-28 756,-7 701,-7"/>
<text text-anchor="start" x="704" y="-13.8" font-family="Times,serif" font-size="14.00">R: (nil)</text>
<polygon fill="none" stroke="black" points="647,-4 647,-54 759,-54 759,-4 647,-4"/>
</g>
<!-- node0x55e3e8b1ae40&#45;&gt;node0x55e3e8b1ae80 -->
<g id="edge9" class="edge">
<title>node0x55e3e8b1ae40:rchild&#45;&gt;node0x55e3e8b1ae80</title>
<path fill="none" stroke="black" stroke-width="2" d="M703,-100C703,-89.81 703,-78.78 703,-68.56"/>
<polygon fill="black" stroke="black" stroke-width="2" points="703,-58.27 707.5,-68.27 703.5,-63.27 703.5,-68.27 703,-68.27 702.5,-68.27 702.5,-63.27 698.5,-68.27 703,-58.27 703,-58.27"/>
</g>
<!-- node0x55e3e8b1b180 -->
<g id="node11" class="node">
<title>node0x55e3e8b1b180</title>
<polygon fill="pink" stroke="transparent" points="323,-500 323,-521 615,-521 615,-500 323,-500"/>
<polygon fill="none" stroke="black" points="323,-500 323,-521 615,-521 615,-500 323,-500"/>
<text text-anchor="start" x="430" y="-506.8" font-family="Times,serif" font-size="14.00"> statement</text>
<polygon fill="none" stroke="black" points="323,-477 323,-498 465,-498 465,-477 323,-477"/>
<text text-anchor="start" x="326" y="-483.8" font-family="Times,serif" font-size="14.00">L:0x55e3e8b1b1c0</text>
<polygon fill="none" stroke="black" points="467,-477 467,-498 615,-498 615,-477 467,-477"/>
<text text-anchor="start" x="470" y="-483.8" font-family="Times,serif" font-size="14.00">R: 0x55e3e8b1ac80</text>
<polygon fill="none" stroke="black" points="320,-474 320,-524 618,-524 618,-474 320,-474"/>
</g>
<!-- node0x55e3e8b1b180&#45;&gt;node0x55e3e8b1b1c0 -->
<g id="edge10" class="edge">
<title>node0x55e3e8b1b180:lchild&#45;&gt;node0x55e3e8b1b1c0</title>
<path fill="none" stroke="black" stroke-width="2" d="M322,-487C303.29,-487 304.82,-465.16 310.62,-444.15"/>
<polygon fill="black" stroke="black" stroke-width="2" points="313.63,-434.33 315,-445.21 312.64,-439.26 311.18,-444.04 310.7,-443.89 310.22,-443.74 311.69,-438.96 306.4,-442.57 313.63,-434.33 313.63,-434.33"/>
</g>
<!-- node0x55e3e8b1ac80 -->
<g id="node12" class="node">
<title>node0x55e3e8b1ac80</title>
<polygon fill="#9acd32" stroke="transparent" points="492,-406 492,-427 782,-427 782,-406 492,-406"/>
<polygon fill="none" stroke="black" points="492,-406 492,-427 782,-427 782,-406 492,-406"/>
<text text-anchor="start" x="628.5" y="-412.8" font-family="Times,serif" font-size="14.00"> =</text>
<polygon fill="none" stroke="black" points="492,-383 492,-404 634,-404 634,-383 492,-383"/>
<text text-anchor="start" x="495" y="-389.8" font-family="Times,serif" font-size="14.00">L:0x55e3e8b1ac40</text>
<polygon fill="none" stroke="black" points="636,-383 636,-404 782,-404 782,-383 636,-383"/>
<text text-anchor="start" x="639" y="-389.8" font-family="Times,serif" font-size="14.00">R: 0x55e3e8b1acc0</text>
<polygon fill="none" stroke="black" points="489,-380 489,-430 785,-430 785,-380 489,-380"/>
</g>
<!-- node0x55e3e8b1b180&#45;&gt;node0x55e3e8b1ac80 -->
<g id="edge11" class="edge">
<title>node0x55e3e8b1b180:rchild&#45;&gt;node0x55e3e8b1ac80</title>
<path fill="none" stroke="black" stroke-width="2" d="M616,-487C635.23,-487 640.19,-465.35 640.49,-444.44"/>
<polygon fill="black" stroke="black" stroke-width="2" points="640.31,-434.33 644.99,-444.25 640.9,-439.32 640.99,-444.32 640.49,-444.33 639.99,-444.34 639.9,-439.34 635.99,-444.41 640.31,-434.33 640.31,-434.33"/>
</g>
<!-- node0x55e3e8b1ac40 -->
<g id="node13" class="node">
<title>node0x55e3e8b1ac40</title>
<polygon fill="orchid" stroke="transparent" points="510,-312 510,-333 616,-333 616,-312 510,-312"/>
<polygon fill="none" stroke="black" points="510,-312 510,-333 616,-333 616,-312 510,-312"/>
<text text-anchor="start" x="556.5" y="-318.8" font-family="Times,serif" font-size="14.00"> x</text>
<polygon fill="none" stroke="black" points="510,-289 510,-310 559,-310 559,-289 510,-289"/>
<text text-anchor="start" x="513" y="-295.8" font-family="Times,serif" font-size="14.00">L:(nil)</text>
<polygon fill="none" stroke="black" points="561,-289 561,-310 616,-310 616,-289 561,-289"/>
<text text-anchor="start" x="564" y="-295.8" font-family="Times,serif" font-size="14.00">R: (nil)</text>
<polygon fill="none" stroke="black" points="507,-286 507,-336 619,-336 619,-286 507,-286"/>
</g>
<!-- node0x55e3e8b1ac80&#45;&gt;node0x55e3e8b1ac40 -->
<g id="edge12" class="edge">
<title>node0x55e3e8b1ac80:lchild&#45;&gt;node0x55e3e8b1ac40</title>
<path fill="none" stroke="black" stroke-width="2" d="M563,-382C563,-371.81 563,-360.78 563,-350.56"/>
<polygon fill="black" stroke="black" stroke-width="2" points="563,-340.27 567.5,-350.27 563.5,-345.27 563.5,-350.27 563,-350.27 562.5,-350.27 562.5,-345.27 558.5,-350.27 563,-340.27 563,-340.27"/>
</g>
<!-- node0x55e3e8b1acc0 -->
<g id="node14" class="node">
<title>node0x55e3e8b1acc0</title>
<polygon fill="lightskyblue" stroke="transparent" points="656,-312 656,-333 762,-333 762,-312 656,-312"/>
<polygon fill="none" stroke="black" points="656,-312 656,-333 762,-333 762,-312 656,-312"/>
<text text-anchor="start" x="699.5" y="-318.8" font-family="Times,serif" font-size="14.00">99</text>
<polygon fill="none" stroke="black" points="656,-289 656,-310 705,-310 705,-289 656,-289"/>
<text text-anchor="start" x="659" y="-295.8" font-family="Times,serif" font-size="14.00">L:(nil)</text>
<polygon fill="none" stroke="black" points="707,-289 707,-310 762,-310 762,-289 707,-289"/>
<text text-anchor="start" x="710" y="-295.8" font-family="Times,serif" font-size="14.00">R: (nil)</text>
<polygon fill="none" stroke="black" points="653,-286 653,-336 765,-336 765,-286 653,-286"/>
</g>
<!-- node0x55e3e8b1ac80&#45;&gt;node0x55e3e8b1acc0 -->
<g id="edge13" class="edge">
<title>node0x55e3e8b1ac80:rchild&#45;&gt;node0x55e3e8b1acc0</title>
<path fill="none" stroke="black" stroke-width="2" d="M709,-382C709,-371.81 709,-360.78 709,-350.56"/>
<polygon fill="black" stroke="black" stroke-width="2" points="709,-340.27 713.5,-350.27 709.5,-345.27 709.5,-350.27 709,-350.27 708.5,-350.27 708.5,-345.27 704.5,-350.27 709,-340.27 709,-340.27"/>
</g>
</g>
</svg>
