<?xml version="1.0" encoding="UTF-8" standalone="no"?>
<!DOCTYPE svg PUBLIC "-//W3C//DTD SVG 1.1//EN"
 "http://www.w3.org/Graphics/SVG/1.1/DTD/svg11.dtd">
<!-- Generated by graphviz version 2.43.0 (0)
 -->
<!-- Title: dump_graph Pages: 1 -->
<svg width="976pt" height="442pt"
 viewBox="0.00 0.00 976.00 442.00" xmlns="http://www.w3.org/2000/svg" xmlns:xlink="http://www.w3.org/1999/xlink">
<g id="graph0" class="graph" transform="scale(1 1) rotate(0) translate(4 438)">
<title>dump_graph</title>
<polygon fill="white" stroke="transparent" points="-4,4 -4,-438 972,-438 972,4 -4,4"/>
<!-- node0x55fa57f70c70 -->
<g id="node1" class="node">
<title>node0x55fa57f70c70</title>
<polygon fill="orchid" stroke="transparent" points="19,-124 19,-145 125,-145 125,-124 19,-124"/>
<polygon fill="none" stroke="black" points="19,-124 19,-145 125,-145 125,-124 19,-124"/>
<text text-anchor="start" x="65.5" y="-130.8" font-family="Times,serif" font-size="14.00"> x</text>
<polygon fill="none" stroke="black" points="19,-101 19,-122 68,-122 68,-101 19,-101"/>
<text text-anchor="start" x="22" y="-107.8" font-family="Times,serif" font-size="14.00">L:(nil)</text>
<polygon fill="none" stroke="black" points="70,-101 70,-122 125,-122 125,-101 70,-101"/>
<text text-anchor="start" x="73" y="-107.8" font-family="Times,serif" font-size="14.00">R: (nil)</text>
<polygon fill="none" stroke="black" points="16,-98 16,-148 128,-148 128,-98 16,-98"/>
</g>
<!-- node0x55fa57f70cb0 -->
<g id="node2" class="node">
<title>node0x55fa57f70cb0</title>
<polygon fill="#9acd32" stroke="transparent" points="11,-218 11,-239 287,-239 287,-218 11,-218"/>
<polygon fill="none" stroke="black" points="11,-218 11,-239 287,-239 287,-218 11,-218"/>
<text text-anchor="start" x="140.5" y="-224.8" font-family="Times,serif" font-size="14.00"> +</text>
<polygon fill="none" stroke="black" points="11,-195 11,-216 147,-216 147,-195 11,-195"/>
<text text-anchor="start" x="14" y="-201.8" font-family="Times,serif" font-size="14.00">L:0x55fa57f70c70</text>
<polygon fill="none" stroke="black" points="149,-195 149,-216 287,-216 287,-195 149,-195"/>
<text text-anchor="start" x="152" y="-201.8" font-family="Times,serif" font-size="14.00">R: 0x55fa57f70cf0</text>
<polygon fill="none" stroke="black" points="8,-192 8,-242 290,-242 290,-192 8,-192"/>
</g>
<!-- node0x55fa57f70cb0&#45;&gt;node0x55fa57f70c70 -->
<g id="edge1" class="edge">
<title>node0x55fa57f70cb0:lchild&#45;&gt;node0x55fa57f70c70</title>
<path fill="none" stroke="black" stroke-width="2" d="M79,-194C79,-183.65 78.23,-172.48 77.21,-162.17"/>
<polygon fill="black" stroke="black" stroke-width="2" points="76.11,-152.21 81.68,-161.65 77.16,-157.12 77.7,-162.09 77.2,-162.15 76.71,-162.2 76.16,-157.23 72.73,-162.64 76.11,-152.21 76.11,-152.21"/>
</g>
<!-- node0x55fa57f70cf0 -->
<g id="node3" class="node">
<title>node0x55fa57f70cf0</title>
<polygon fill="lightskyblue" stroke="transparent" points="165,-124 165,-145 271,-145 271,-124 165,-124"/>
<polygon fill="none" stroke="black" points="165,-124 165,-145 271,-145 271,-124 165,-124"/>
<text text-anchor="start" x="213" y="-130.8" font-family="Times,serif" font-size="14.00">2</text>
<polygon fill="none" stroke="black" points="165,-101 165,-122 214,-122 214,-101 165,-101"/>
<text text-anchor="start" x="168" y="-107.8" font-family="Times,serif" font-size="14.00">L:(nil)</text>
<polygon fill="none" stroke="black" points="216,-101 216,-122 271,-122 271,-101 216,-101"/>
<text text-anchor="start" x="219" y="-107.8" font-family="Times,serif" font-size="14.00">R: (nil)</text>
<polygon fill="none" stroke="black" points="162,-98 162,-148 274,-148 274,-98 162,-98"/>
</g>
<!-- node0x55fa57f70cb0&#45;&gt;node0x55fa57f70cf0 -->
<g id="edge2" class="edge">
<title>node0x55fa57f70cb0:rchild&#45;&gt;node0x55fa57f70cf0</title>
<path fill="none" stroke="black" stroke-width="2" d="M218,-194C218,-183.81 218,-172.78 218,-162.56"/>
<polygon fill="black" stroke="black" stroke-width="2" points="218,-152.27 222.5,-162.27 218.5,-157.27 218.5,-162.27 218,-162.27 217.5,-162.27 217.5,-157.27 213.5,-162.27 218,-152.27 218,-152.27"/>
</g>
<!-- node0x55fa57f70d30 -->
<g id="node4" class="node">
<title>node0x55fa57f70d30</title>
<polygon fill="orchid" stroke="transparent" points="314,-312 314,-333 594,-333 594,-312 314,-312"/>
<polygon fill="none" stroke="black" points="314,-312 314,-333 594,-333 594,-312 314,-312"/>
<text text-anchor="start" x="439.5" y="-318.8" font-family="Times,serif" font-size="14.00"> ==</text>
<polygon fill="none" stroke="black" points="314,-289 314,-310 450,-310 450,-289 314,-289"/>
<text text-anchor="start" x="317" y="-295.8" font-family="Times,serif" font-size="14.00">L:0x55fa57f70cb0</text>
<polygon fill="none" stroke="black" points="452,-289 452,-310 594,-310 594,-289 452,-289"/>
<text text-anchor="start" x="455" y="-295.8" font-family="Times,serif" font-size="14.00">R: 0x55fa57f70eb0</text>
<polygon fill="none" stroke="black" points="311,-286 311,-336 597,-336 597,-286 311,-286"/>
</g>
<!-- node0x55fa57f70d30&#45;&gt;node0x55fa57f70cb0 -->
<g id="edge3" class="edge">
<title>node0x55fa57f70d30:lchild&#45;&gt;node0x55fa57f70cb0</title>
<path fill="none" stroke="black" stroke-width="2" d="M313,-299C267.96,-299 222.49,-274.14 190.89,-251.96"/>
<polygon fill="black" stroke="black" stroke-width="2" points="182.76,-246.1 193.5,-248.3 187.11,-248.62 191.17,-251.55 190.87,-251.95 190.58,-252.36 186.52,-249.43 188.24,-255.6 182.76,-246.1 182.76,-246.1"/>
</g>
<!-- node0x55fa57f70eb0 -->
<g id="node5" class="node">
<title>node0x55fa57f70eb0</title>
<polygon fill="#9acd32" stroke="transparent" points="386,-218 386,-239 660,-239 660,-218 386,-218"/>
<polygon fill="none" stroke="black" points="386,-218 386,-239 660,-239 660,-218 386,-218"/>
<text text-anchor="start" x="517" y="-224.8" font-family="Times,serif" font-size="14.00"> *</text>
<polygon fill="none" stroke="black" points="386,-195 386,-216 519,-216 519,-195 386,-195"/>
<text text-anchor="start" x="389" y="-201.8" font-family="Times,serif" font-size="14.00">L:0x55fa57f70df0</text>
<polygon fill="none" stroke="black" points="521,-195 521,-216 660,-216 660,-195 521,-195"/>
<text text-anchor="start" x="524" y="-201.8" font-family="Times,serif" font-size="14.00">R: 0x55fa57f70ef0</text>
<polygon fill="none" stroke="black" points="383,-192 383,-242 663,-242 663,-192 383,-192"/>
</g>
<!-- node0x55fa57f70d30&#45;&gt;node0x55fa57f70eb0 -->
<g id="edge4" class="edge">
<title>node0x55fa57f70d30:rchild&#45;&gt;node0x55fa57f70eb0</title>
<path fill="none" stroke="black" stroke-width="2" d="M523,-288C523,-277.81 523,-266.78 523,-256.56"/>
<polygon fill="black" stroke="black" stroke-width="2" points="523,-246.27 527.5,-256.27 523.5,-251.27 523.5,-256.27 523,-256.27 522.5,-256.27 522.5,-251.27 518.5,-256.27 523,-246.27 523,-246.27"/>
</g>
<!-- node0x55fa57f70df0 -->
<g id="node7" class="node">
<title>node0x55fa57f70df0</title>
<polygon fill="orchid" stroke="transparent" points="312,-124 312,-145 593,-145 593,-124 312,-124"/>
<polygon fill="none" stroke="black" points="312,-124 312,-145 593,-145 593,-124 312,-124"/>
<text text-anchor="start" x="438" y="-130.8" font-family="Times,serif" font-size="14.00"> ==</text>
<polygon fill="none" stroke="black" points="312,-101 312,-122 449,-122 449,-101 312,-101"/>
<text text-anchor="start" x="315" y="-107.8" font-family="Times,serif" font-size="14.00">L:0x55fa57f70db0</text>
<polygon fill="none" stroke="black" points="451,-101 451,-122 593,-122 593,-101 451,-101"/>
<text text-anchor="start" x="454" y="-107.8" font-family="Times,serif" font-size="14.00">R: 0x55fa57f70e30</text>
<polygon fill="none" stroke="black" points="308.5,-98 308.5,-148 595.5,-148 595.5,-98 308.5,-98"/>
</g>
<!-- node0x55fa57f70eb0&#45;&gt;node0x55fa57f70df0 -->
<g id="edge7" class="edge">
<title>node0x55fa57f70eb0:lchild&#45;&gt;node0x55fa57f70df0</title>
<path fill="none" stroke="black" stroke-width="2" d="M452,-194C452,-183.81 452,-172.78 452,-162.56"/>
<polygon fill="black" stroke="black" stroke-width="2" points="452,-152.27 456.5,-162.27 452.5,-157.27 452.5,-162.27 452,-162.27 451.5,-162.27 451.5,-157.27 447.5,-162.27 452,-152.27 452,-152.27"/>
</g>
<!-- node0x55fa57f70ef0 -->
<g id="node9" class="node">
<title>node0x55fa57f70ef0</title>
<polygon fill="orchid" stroke="transparent" points="633,-124 633,-145 739,-145 739,-124 633,-124"/>
<polygon fill="none" stroke="black" points="633,-124 633,-145 739,-145 739,-124 633,-124"/>
<text text-anchor="start" x="669.5" y="-130.8" font-family="Times,serif" font-size="14.00"> size</text>
<polygon fill="none" stroke="black" points="633,-101 633,-122 682,-122 682,-101 633,-101"/>
<text text-anchor="start" x="636" y="-107.8" font-family="Times,serif" font-size="14.00">L:(nil)</text>
<polygon fill="none" stroke="black" points="684,-101 684,-122 739,-122 739,-101 684,-101"/>
<text text-anchor="start" x="687" y="-107.8" font-family="Times,serif" font-size="14.00">R: (nil)</text>
<polygon fill="none" stroke="black" points="630,-98 630,-148 742,-148 742,-98 630,-98"/>
</g>
<!-- node0x55fa57f70eb0&#45;&gt;node0x55fa57f70ef0 -->
<g id="edge8" class="edge">
<title>node0x55fa57f70eb0:rchild&#45;&gt;node0x55fa57f70ef0</title>
<path fill="none" stroke="black" stroke-width="2" d="M661,-205C670.74,-205 677.09,-183.35 680.95,-162.44"/>
<polygon fill="black" stroke="black" stroke-width="2" points="682.65,-152.33 685.43,-162.94 682.32,-157.34 681.49,-162.27 680.99,-162.19 680.5,-162.11 681.33,-157.18 676.56,-161.44 682.65,-152.33 682.65,-152.33"/>
</g>
<!-- node0x55fa57f70db0 -->
<g id="node6" class="node">
<title>node0x55fa57f70db0</title>
<polygon fill="lightskyblue" stroke="transparent" points="325,-30 325,-51 431,-51 431,-30 325,-30"/>
<polygon fill="none" stroke="black" points="325,-30 325,-51 431,-51 431,-30 325,-30"/>
<text text-anchor="start" x="373" y="-36.8" font-family="Times,serif" font-size="14.00">2</text>
<polygon fill="none" stroke="black" points="325,-7 325,-28 374,-28 374,-7 325,-7"/>
<text text-anchor="start" x="328" y="-13.8" font-family="Times,serif" font-size="14.00">L:(nil)</text>
<polygon fill="none" stroke="black" points="376,-7 376,-28 431,-28 431,-7 376,-7"/>
<text text-anchor="start" x="379" y="-13.8" font-family="Times,serif" font-size="14.00">R: (nil)</text>
<polygon fill="none" stroke="black" points="322,-4 322,-54 434,-54 434,-4 322,-4"/>
</g>
<!-- node0x55fa57f70df0&#45;&gt;node0x55fa57f70db0 -->
<g id="edge5" class="edge">
<title>node0x55fa57f70df0:lchild&#45;&gt;node0x55fa57f70db0</title>
<path fill="none" stroke="black" stroke-width="2" d="M380,-100C380,-89.8 379.79,-78.78 379.5,-68.55"/>
<polygon fill="black" stroke="black" stroke-width="2" points="379.17,-58.26 383.99,-68.12 379.83,-63.25 379.99,-68.24 379.49,-68.26 378.99,-68.27 378.83,-63.28 374.99,-68.4 379.17,-58.26 379.17,-58.26"/>
</g>
<!-- node0x55fa57f70e30 -->
<g id="node8" class="node">
<title>node0x55fa57f70e30</title>
<polygon fill="lightskyblue" stroke="transparent" points="471,-30 471,-51 577,-51 577,-30 471,-30"/>
<polygon fill="none" stroke="black" points="471,-30 471,-51 577,-51 577,-30 471,-30"/>
<text text-anchor="start" x="519" y="-36.8" font-family="Times,serif" font-size="14.00">1</text>
<polygon fill="none" stroke="black" points="471,-7 471,-28 520,-28 520,-7 471,-7"/>
<text text-anchor="start" x="474" y="-13.8" font-family="Times,serif" font-size="14.00">L:(nil)</text>
<polygon fill="none" stroke="black" points="522,-7 522,-28 577,-28 577,-7 522,-7"/>
<text text-anchor="start" x="525" y="-13.8" font-family="Times,serif" font-size="14.00">R: (nil)</text>
<polygon fill="none" stroke="black" points="468,-4 468,-54 580,-54 580,-4 468,-4"/>
</g>
<!-- node0x55fa57f70df0&#45;&gt;node0x55fa57f70e30 -->
<g id="edge6" class="edge">
<title>node0x55fa57f70df0:rchild&#45;&gt;node0x55fa57f70e30</title>
<path fill="none" stroke="black" stroke-width="2" d="M522,-100C522,-89.8 522.21,-78.78 522.5,-68.55"/>
<polygon fill="black" stroke="black" stroke-width="2" points="522.83,-58.26 527.01,-68.4 523.17,-63.28 523.01,-68.27 522.51,-68.26 522.01,-68.24 522.17,-63.25 518.01,-68.12 522.83,-58.26 522.83,-58.26"/>
</g>
<!-- node0x55fa57f70bf0 -->
<g id="node10" class="node">
<title>node0x55fa57f70bf0</title>
<polygon fill="orchid" stroke="transparent" points="499,-406 499,-427 777,-427 777,-406 499,-406"/>
<polygon fill="none" stroke="black" points="499,-406 499,-427 777,-427 777,-406 499,-406"/>
<text text-anchor="start" x="630.5" y="-412.8" font-family="Times,serif" font-size="14.00"> if</text>
<polygon fill="none" stroke="black" points="499,-383 499,-404 636,-404 636,-383 499,-383"/>
<text text-anchor="start" x="502" y="-389.8" font-family="Times,serif" font-size="14.00">L:0x55fa57f70d30</text>
<polygon fill="none" stroke="black" points="638,-383 638,-404 777,-404 777,-383 638,-383"/>
<text text-anchor="start" x="641" y="-389.8" font-family="Times,serif" font-size="14.00">R: 0x55fa57f70fb0</text>
<polygon fill="none" stroke="black" points="496,-380 496,-430 780,-430 780,-380 496,-380"/>
</g>
<!-- node0x55fa57f70bf0&#45;&gt;node0x55fa57f70d30 -->
<g id="edge9" class="edge">
<title>node0x55fa57f70bf0:lchild&#45;&gt;node0x55fa57f70d30</title>
<path fill="none" stroke="black" stroke-width="2" d="M498,-393C476.72,-393 465.68,-371.16 459.98,-350.15"/>
<polygon fill="black" stroke="black" stroke-width="2" points="457.65,-340.33 464.33,-349.02 459.29,-345.08 460.44,-349.95 459.96,-350.06 459.47,-350.18 458.32,-345.31 455.58,-351.1 457.65,-340.33 457.65,-340.33"/>
</g>
<!-- node0x55fa57f70fb0 -->
<g id="node11" class="node">
<title>node0x55fa57f70fb0</title>
<polygon fill="#9acd32" stroke="transparent" points="687,-312 687,-333 957,-333 957,-312 687,-312"/>
<polygon fill="none" stroke="black" points="687,-312 687,-333 957,-333 957,-312 687,-312"/>
<text text-anchor="start" x="813.5" y="-318.8" font-family="Times,serif" font-size="14.00"> =</text>
<polygon fill="none" stroke="black" points="687,-289 687,-310 820,-310 820,-289 687,-289"/>
<text text-anchor="start" x="690" y="-295.8" font-family="Times,serif" font-size="14.00">L:0x55fa57f70f70</text>
<polygon fill="none" stroke="black" points="822,-289 822,-310 957,-310 957,-289 822,-289"/>
<text text-anchor="start" x="825" y="-295.8" font-family="Times,serif" font-size="14.00">R: 0x55fa57f70ff0</text>
<polygon fill="none" stroke="black" points="684,-286 684,-336 960,-336 960,-286 684,-286"/>
</g>
<!-- node0x55fa57f70bf0&#45;&gt;node0x55fa57f70fb0 -->
<g id="edge10" class="edge">
<title>node0x55fa57f70bf0:rchild&#45;&gt;node0x55fa57f70fb0</title>
<path fill="none" stroke="black" stroke-width="2" d="M778,-393C799.28,-393 810.32,-371.16 816.02,-350.15"/>
<polygon fill="black" stroke="black" stroke-width="2" points="818.35,-340.33 820.42,-351.1 817.68,-345.31 816.53,-350.18 816.04,-350.06 815.56,-349.95 816.71,-345.08 811.67,-349.02 818.35,-340.33 818.35,-340.33"/>
</g>
<!-- node0x55fa57f70f70 -->
<g id="node12" class="node">
<title>node0x55fa57f70f70</title>
<polygon fill="orchid" stroke="transparent" points="700,-218 700,-239 806,-239 806,-218 700,-218"/>
<polygon fill="none" stroke="black" points="700,-218 700,-239 806,-239 806,-218 700,-218"/>
<text text-anchor="start" x="746.5" y="-224.8" font-family="Times,serif" font-size="14.00"> x</text>
<polygon fill="none" stroke="black" points="700,-195 700,-216 749,-216 749,-195 700,-195"/>
<text text-anchor="start" x="703" y="-201.8" font-family="Times,serif" font-size="14.00">L:(nil)</text>
<polygon fill="none" stroke="black" points="751,-195 751,-216 806,-216 806,-195 751,-195"/>
<text text-anchor="start" x="754" y="-201.8" font-family="Times,serif" font-size="14.00">R: (nil)</text>
<polygon fill="none" stroke="black" points="697,-192 697,-242 809,-242 809,-192 697,-192"/>
</g>
<!-- node0x55fa57f70fb0&#45;&gt;node0x55fa57f70f70 -->
<g id="edge11" class="edge">
<title>node0x55fa57f70fb0:lchild&#45;&gt;node0x55fa57f70f70</title>
<path fill="none" stroke="black" stroke-width="2" d="M753,-288C753,-277.81 753,-266.78 753,-256.56"/>
<polygon fill="black" stroke="black" stroke-width="2" points="753,-246.27 757.5,-256.27 753.5,-251.27 753.5,-256.27 753,-256.27 752.5,-256.27 752.5,-251.27 748.5,-256.27 753,-246.27 753,-246.27"/>
</g>
<!-- node0x55fa57f70ff0 -->
<g id="node13" class="node">
<title>node0x55fa57f70ff0</title>
<polygon fill="lightskyblue" stroke="transparent" points="846,-218 846,-239 952,-239 952,-218 846,-218"/>
<polygon fill="none" stroke="black" points="846,-218 846,-239 952,-239 952,-218 846,-218"/>
<text text-anchor="start" x="894" y="-224.8" font-family="Times,serif" font-size="14.00">1</text>
<polygon fill="none" stroke="black" points="846,-195 846,-216 895,-216 895,-195 846,-195"/>
<text text-anchor="start" x="849" y="-201.8" font-family="Times,serif" font-size="14.00">L:(nil)</text>
<polygon fill="none" stroke="black" points="897,-195 897,-216 952,-216 952,-195 897,-195"/>
<text text-anchor="start" x="900" y="-201.8" font-family="Times,serif" font-size="14.00">R: (nil)</text>
<polygon fill="none" stroke="black" points="843,-192 843,-242 955,-242 955,-192 843,-192"/>
</g>
<!-- node0x55fa57f70fb0&#45;&gt;node0x55fa57f70ff0 -->
<g id="edge12" class="edge">
<title>node0x55fa57f70fb0:rchild&#45;&gt;node0x55fa57f70ff0</title>
<path fill="none" stroke="black" stroke-width="2" d="M890,-288C890,-277.62 890.99,-266.44 892.31,-256.12"/>
<polygon fill="black" stroke="black" stroke-width="2" points="893.71,-246.16 896.77,-256.69 893.51,-251.18 892.81,-256.14 892.31,-256.07 891.82,-256 892.52,-251.04 887.86,-255.44 893.71,-246.16 893.71,-246.16"/>
</g>
</g>
</svg>
