<?xml version="1.0" encoding="UTF-8" standalone="no"?>
<!DOCTYPE svg PUBLIC "-//W3C//DTD SVG 1.1//EN"
 "http://www.w3.org/Graphics/SVG/1.1/DTD/svg11.dtd">
<!-- Generated by graphviz version 2.43.0 (0)
 -->
<!-- Title: dump_graph Pages: 1 -->
<svg width="762pt" height="630pt"
 viewBox="0.00 0.00 762.00 630.00" xmlns="http://www.w3.org/2000/svg" xmlns:xlink="http://www.w3.org/1999/xlink">
<g id="graph0" class="graph" transform="scale(1 1) rotate(0) translate(4 626)">
<title>dump_graph</title>
<polygon fill="white" stroke="transparent" points="-4,4 -4,-626 758,-626 758,4 -4,4"/>
<!-- node0x55732bbc3cd0 -->
<g id="node1" class="node">
<title>node0x55732bbc3cd0</title>
<polygon fill="pink" stroke="transparent" points="325,-594 325,-615 526,-615 526,-594 325,-594"/>
<polygon fill="none" stroke="black" points="325,-594 325,-615 526,-615 526,-594 325,-594"/>
<text text-anchor="start" x="386.5" y="-600.8" font-family="Times,serif" font-size="14.00"> statement</text>
<polygon fill="none" stroke="black" points="325,-571 325,-592 374,-592 374,-571 325,-571"/>
<text text-anchor="start" x="328" y="-577.8" font-family="Times,serif" font-size="14.00">L:(nil)</text>
<polygon fill="none" stroke="black" points="376,-571 376,-592 526,-592 526,-571 376,-571"/>
<text text-anchor="start" x="379" y="-577.8" font-family="Times,serif" font-size="14.00">R: 0x55732bbc3850</text>
<polygon fill="none" stroke="black" points="321.5,-568 321.5,-618 528.5,-618 528.5,-568 321.5,-568"/>
</g>
<!-- node0x55732bbc3850 -->
<g id="node2" class="node">
<title>node0x55732bbc3850</title>
<polygon fill="#9acd32" stroke="transparent" points="303,-500 303,-521 599,-521 599,-500 303,-500"/>
<polygon fill="none" stroke="black" points="303,-500 303,-521 599,-521 599,-500 303,-500"/>
<text text-anchor="start" x="442.5" y="-506.8" font-family="Times,serif" font-size="14.00"> =</text>
<polygon fill="none" stroke="black" points="303,-477 303,-498 447,-498 447,-477 303,-477"/>
<text text-anchor="start" x="306" y="-483.8" font-family="Times,serif" font-size="14.00">L:0x55732bbc3810</text>
<polygon fill="none" stroke="black" points="449,-477 449,-498 599,-498 599,-477 449,-477"/>
<text text-anchor="start" x="452" y="-483.8" font-family="Times,serif" font-size="14.00">R: 0x55732bbc3bd0</text>
<polygon fill="none" stroke="black" points="300,-474 300,-524 602,-524 602,-474 300,-474"/>
</g>
<!-- node0x55732bbc3cd0&#45;&gt;node0x55732bbc3850 -->
<g id="edge1" class="edge">
<title>node0x55732bbc3cd0:rchild&#45;&gt;node0x55732bbc3850</title>
<path fill="none" stroke="black" stroke-width="2" d="M451,-570C451,-559.81 451,-548.78 451,-538.56"/>
<polygon fill="black" stroke="black" stroke-width="2" points="451,-528.27 455.5,-538.27 451.5,-533.27 451.5,-538.27 451,-538.27 450.5,-538.27 450.5,-533.27 446.5,-538.27 451,-528.27 451,-528.27"/>
</g>
<!-- node0x55732bbc3810 -->
<g id="node3" class="node">
<title>node0x55732bbc3810</title>
<polygon fill="orchid" stroke="transparent" points="277,-406 277,-427 383,-427 383,-406 277,-406"/>
<polygon fill="none" stroke="black" points="277,-406 277,-427 383,-427 383,-406 277,-406"/>
<text text-anchor="start" x="323.5" y="-412.8" font-family="Times,serif" font-size="14.00"> a</text>
<polygon fill="none" stroke="black" points="277,-383 277,-404 326,-404 326,-383 277,-383"/>
<text text-anchor="start" x="280" y="-389.8" font-family="Times,serif" font-size="14.00">L:(nil)</text>
<polygon fill="none" stroke="black" points="328,-383 328,-404 383,-404 383,-383 328,-383"/>
<text text-anchor="start" x="331" y="-389.8" font-family="Times,serif" font-size="14.00">R: (nil)</text>
<polygon fill="none" stroke="black" points="274,-380 274,-430 386,-430 386,-380 274,-380"/>
</g>
<!-- node0x55732bbc3850&#45;&gt;node0x55732bbc3810 -->
<g id="edge2" class="edge">
<title>node0x55732bbc3850:lchild&#45;&gt;node0x55732bbc3810</title>
<path fill="none" stroke="black" stroke-width="2" d="M375,-476C375,-464.16 370.38,-452.72 364.11,-442.64"/>
<polygon fill="black" stroke="black" stroke-width="2" points="358.24,-434.16 367.63,-439.83 361.5,-437.99 364.34,-442.1 363.93,-442.39 363.52,-442.67 360.68,-438.56 360.23,-444.95 358.24,-434.16 358.24,-434.16"/>
</g>
<!-- node0x55732bbc3bd0 -->
<g id="node4" class="node">
<title>node0x55732bbc3bd0</title>
<polygon fill="#9acd32" stroke="transparent" points="423,-406 423,-427 717,-427 717,-406 423,-406"/>
<polygon fill="none" stroke="black" points="423,-406 423,-427 717,-427 717,-406 423,-406"/>
<text text-anchor="start" x="565" y="-412.8" font-family="Times,serif" font-size="14.00"> /</text>
<polygon fill="none" stroke="black" points="423,-383 423,-404 567,-404 567,-383 423,-383"/>
<text text-anchor="start" x="426" y="-389.8" font-family="Times,serif" font-size="14.00">L:0x55732bbc3b50</text>
<polygon fill="none" stroke="black" points="569,-383 569,-404 717,-404 717,-383 569,-383"/>
<text text-anchor="start" x="572" y="-389.8" font-family="Times,serif" font-size="14.00">R: 0x55732bbc3c10</text>
<polygon fill="none" stroke="black" points="420,-380 420,-430 720,-430 720,-380 420,-380"/>
</g>
<!-- node0x55732bbc3850&#45;&gt;node0x55732bbc3bd0 -->
<g id="edge3" class="edge">
<title>node0x55732bbc3850:rchild&#45;&gt;node0x55732bbc3bd0</title>
<path fill="none" stroke="black" stroke-width="2" d="M524,-476C524,-463.96 528.81,-452.38 535.33,-442.23"/>
<polygon fill="black" stroke="black" stroke-width="2" points="541.13,-434.06 539.01,-444.82 538.64,-438.42 535.75,-442.5 535.34,-442.21 534.93,-441.92 537.83,-437.85 531.67,-439.61 541.13,-434.06 541.13,-434.06"/>
</g>
<!-- node0x55732bbc3b50 -->
<g id="node12" class="node">
<title>node0x55732bbc3b50</title>
<polygon fill="#9acd32" stroke="transparent" points="301,-312 301,-333 597,-333 597,-312 301,-312"/>
<polygon fill="none" stroke="black" points="301,-312 301,-333 597,-333 597,-312 301,-312"/>
<text text-anchor="start" x="443" y="-318.8" font-family="Times,serif" font-size="14.00"> *</text>
<polygon fill="none" stroke="black" points="301,-289 301,-310 445,-310 445,-289 301,-289"/>
<text text-anchor="start" x="304" y="-295.8" font-family="Times,serif" font-size="14.00">L:0x55732bbc39d0</text>
<polygon fill="none" stroke="black" points="447,-289 447,-310 597,-310 597,-289 447,-289"/>
<text text-anchor="start" x="450" y="-295.8" font-family="Times,serif" font-size="14.00">R: 0x55732bbc3b90</text>
<polygon fill="none" stroke="black" points="298,-286 298,-336 600,-336 600,-286 298,-286"/>
</g>
<!-- node0x55732bbc3bd0&#45;&gt;node0x55732bbc3b50 -->
<g id="edge12" class="edge">
<title>node0x55732bbc3bd0:lchild&#45;&gt;node0x55732bbc3b50</title>
<path fill="none" stroke="black" stroke-width="2" d="M495,-382C495,-369.96 490.19,-358.38 483.67,-348.23"/>
<polygon fill="black" stroke="black" stroke-width="2" points="477.87,-340.06 487.33,-345.61 481.17,-343.85 484.07,-347.92 483.66,-348.21 483.25,-348.5 480.36,-344.42 479.99,-350.82 477.87,-340.06 477.87,-340.06"/>
</g>
<!-- node0x55732bbc3c10 -->
<g id="node14" class="node">
<title>node0x55732bbc3c10</title>
<polygon fill="lightskyblue" stroke="transparent" points="637,-312 637,-333 743,-333 743,-312 637,-312"/>
<polygon fill="none" stroke="black" points="637,-312 637,-333 743,-333 743,-312 637,-312"/>
<text text-anchor="start" x="680.5" y="-318.8" font-family="Times,serif" font-size="14.00">15</text>
<polygon fill="none" stroke="black" points="637,-289 637,-310 686,-310 686,-289 637,-289"/>
<text text-anchor="start" x="640" y="-295.8" font-family="Times,serif" font-size="14.00">L:(nil)</text>
<polygon fill="none" stroke="black" points="688,-289 688,-310 743,-310 743,-289 688,-289"/>
<text text-anchor="start" x="691" y="-295.8" font-family="Times,serif" font-size="14.00">R: (nil)</text>
<polygon fill="none" stroke="black" points="634,-286 634,-336 746,-336 746,-286 634,-286"/>
</g>
<!-- node0x55732bbc3bd0&#45;&gt;node0x55732bbc3c10 -->
<g id="edge13" class="edge">
<title>node0x55732bbc3bd0:rchild&#45;&gt;node0x55732bbc3c10</title>
<path fill="none" stroke="black" stroke-width="2" d="M643,-382C643,-369.99 647.83,-358.49 654.38,-348.41"/>
<polygon fill="black" stroke="black" stroke-width="2" points="660.23,-340.29 658.04,-351.03 657.72,-344.64 654.79,-348.7 654.39,-348.4 653.98,-348.11 656.91,-344.05 650.74,-345.77 660.23,-340.29 660.23,-340.29"/>
</g>
<!-- node0x55732bbc38d0 -->
<g id="node5" class="node">
<title>node0x55732bbc38d0</title>
<polygon fill="lightskyblue" stroke="transparent" points="30,-30 30,-51 136,-51 136,-30 30,-30"/>
<polygon fill="none" stroke="black" points="30,-30 30,-51 136,-51 136,-30 30,-30"/>
<text text-anchor="start" x="73.5" y="-36.8" font-family="Times,serif" font-size="14.00">10</text>
<polygon fill="none" stroke="black" points="30,-7 30,-28 79,-28 79,-7 30,-7"/>
<text text-anchor="start" x="33" y="-13.8" font-family="Times,serif" font-size="14.00">L:(nil)</text>
<polygon fill="none" stroke="black" points="81,-7 81,-28 136,-28 136,-7 81,-7"/>
<text text-anchor="start" x="84" y="-13.8" font-family="Times,serif" font-size="14.00">R: (nil)</text>
<polygon fill="none" stroke="black" points="27,-4 27,-54 139,-54 139,-4 27,-4"/>
</g>
<!-- node0x55732bbc3910 -->
<g id="node6" class="node">
<title>node0x55732bbc3910</title>
<polygon fill="#9acd32" stroke="transparent" points="11,-124 11,-145 307,-145 307,-124 11,-124"/>
<polygon fill="none" stroke="black" points="11,-124 11,-145 307,-145 307,-124 11,-124"/>
<text text-anchor="start" x="150.5" y="-130.8" font-family="Times,serif" font-size="14.00"> +</text>
<polygon fill="none" stroke="black" points="11,-101 11,-122 155,-122 155,-101 11,-101"/>
<text text-anchor="start" x="14" y="-107.8" font-family="Times,serif" font-size="14.00">L:0x55732bbc38d0</text>
<polygon fill="none" stroke="black" points="157,-101 157,-122 307,-122 307,-101 157,-101"/>
<text text-anchor="start" x="160" y="-107.8" font-family="Times,serif" font-size="14.00">R: 0x55732bbc3950</text>
<polygon fill="none" stroke="black" points="8,-98 8,-148 310,-148 310,-98 8,-98"/>
</g>
<!-- node0x55732bbc3910&#45;&gt;node0x55732bbc38d0 -->
<g id="edge4" class="edge">
<title>node0x55732bbc3910:lchild&#45;&gt;node0x55732bbc38d0</title>
<path fill="none" stroke="black" stroke-width="2" d="M83,-100C83,-89.81 83,-78.78 83,-68.56"/>
<polygon fill="black" stroke="black" stroke-width="2" points="83,-58.27 87.5,-68.27 83.5,-63.27 83.5,-68.27 83,-68.27 82.5,-68.27 82.5,-63.27 78.5,-68.27 83,-58.27 83,-58.27"/>
</g>
<!-- node0x55732bbc3950 -->
<g id="node7" class="node">
<title>node0x55732bbc3950</title>
<polygon fill="lightskyblue" stroke="transparent" points="179,-30 179,-51 285,-51 285,-30 179,-30"/>
<polygon fill="none" stroke="black" points="179,-30 179,-51 285,-51 285,-30 179,-30"/>
<text text-anchor="start" x="222.5" y="-36.8" font-family="Times,serif" font-size="14.00">10</text>
<polygon fill="none" stroke="black" points="179,-7 179,-28 228,-28 228,-7 179,-7"/>
<text text-anchor="start" x="182" y="-13.8" font-family="Times,serif" font-size="14.00">L:(nil)</text>
<polygon fill="none" stroke="black" points="230,-7 230,-28 285,-28 285,-7 230,-7"/>
<text text-anchor="start" x="233" y="-13.8" font-family="Times,serif" font-size="14.00">R: (nil)</text>
<polygon fill="none" stroke="black" points="176,-4 176,-54 288,-54 288,-4 176,-4"/>
</g>
<!-- node0x55732bbc3910&#45;&gt;node0x55732bbc3950 -->
<g id="edge5" class="edge">
<title>node0x55732bbc3910:rchild&#45;&gt;node0x55732bbc3950</title>
<path fill="none" stroke="black" stroke-width="2" d="M232,-100C232,-89.81 232,-78.78 232,-68.56"/>
<polygon fill="black" stroke="black" stroke-width="2" points="232,-58.27 236.5,-68.27 232.5,-63.27 232.5,-68.27 232,-68.27 231.5,-68.27 231.5,-63.27 227.5,-68.27 232,-58.27 232,-58.27"/>
</g>
<!-- node0x55732bbc39d0 -->
<g id="node8" class="node">
<title>node0x55732bbc39d0</title>
<polygon fill="#9acd32" stroke="transparent" points="180,-218 180,-239 475,-239 475,-218 180,-218"/>
<polygon fill="none" stroke="black" points="180,-218 180,-239 475,-239 475,-218 180,-218"/>
<text text-anchor="start" x="322.5" y="-224.8" font-family="Times,serif" font-size="14.00"> /</text>
<polygon fill="none" stroke="black" points="180,-195 180,-216 324,-216 324,-195 180,-195"/>
<text text-anchor="start" x="183" y="-201.8" font-family="Times,serif" font-size="14.00">L:0x55732bbc3910</text>
<polygon fill="none" stroke="black" points="326,-195 326,-216 475,-216 475,-195 326,-195"/>
<text text-anchor="start" x="329" y="-201.8" font-family="Times,serif" font-size="14.00">R: 0x55732bbc3a90</text>
<polygon fill="none" stroke="black" points="176.5,-192 176.5,-242 477.5,-242 477.5,-192 176.5,-192"/>
</g>
<!-- node0x55732bbc39d0&#45;&gt;node0x55732bbc3910 -->
<g id="edge6" class="edge">
<title>node0x55732bbc39d0:lchild&#45;&gt;node0x55732bbc3910</title>
<path fill="none" stroke="black" stroke-width="2" d="M179,-205C159.83,-205 155.14,-183.35 155.07,-162.44"/>
<polygon fill="black" stroke="black" stroke-width="2" points="155.37,-152.33 159.57,-162.46 155.72,-157.34 155.58,-162.34 155.08,-162.33 154.58,-162.31 154.72,-157.31 150.58,-162.19 155.37,-152.33 155.37,-152.33"/>
</g>
<!-- node0x55732bbc3a90 -->
<g id="node9" class="node">
<title>node0x55732bbc3a90</title>
<polygon fill="#9acd32" stroke="transparent" points="347,-124 347,-145 641,-145 641,-124 347,-124"/>
<polygon fill="none" stroke="black" points="347,-124 347,-145 641,-145 641,-124 347,-124"/>
<text text-anchor="start" x="485.5" y="-130.8" font-family="Times,serif" font-size="14.00"> +</text>
<polygon fill="none" stroke="black" points="347,-101 347,-122 490,-122 490,-101 347,-101"/>
<text text-anchor="start" x="350" y="-107.8" font-family="Times,serif" font-size="14.00">L:0x55732bbc3a50</text>
<polygon fill="none" stroke="black" points="492,-101 492,-122 641,-122 641,-101 492,-101"/>
<text text-anchor="start" x="495" y="-107.8" font-family="Times,serif" font-size="14.00">R: 0x55732bbc3ad0</text>
<polygon fill="none" stroke="black" points="344,-98 344,-148 644,-148 644,-98 344,-98"/>
</g>
<!-- node0x55732bbc39d0&#45;&gt;node0x55732bbc3a90 -->
<g id="edge7" class="edge">
<title>node0x55732bbc39d0:rchild&#45;&gt;node0x55732bbc3a90</title>
<path fill="none" stroke="black" stroke-width="2" d="M476,-205C485.53,-205 490.02,-183.35 492.13,-162.44"/>
<polygon fill="black" stroke="black" stroke-width="2" points="492.99,-152.33 496.63,-162.67 493.06,-157.35 492.64,-162.34 492.14,-162.29 491.64,-162.25 492.07,-157.27 487.66,-161.91 492.99,-152.33 492.99,-152.33"/>
</g>
<!-- node0x55732bbc3a50 -->
<g id="node10" class="node">
<title>node0x55732bbc3a50</title>
<polygon fill="lightskyblue" stroke="transparent" points="365,-30 365,-51 471,-51 471,-30 365,-30"/>
<polygon fill="none" stroke="black" points="365,-30 365,-51 471,-51 471,-30 365,-30"/>
<text text-anchor="start" x="413" y="-36.8" font-family="Times,serif" font-size="14.00">2</text>
<polygon fill="none" stroke="black" points="365,-7 365,-28 414,-28 414,-7 365,-7"/>
<text text-anchor="start" x="368" y="-13.8" font-family="Times,serif" font-size="14.00">L:(nil)</text>
<polygon fill="none" stroke="black" points="416,-7 416,-28 471,-28 471,-7 416,-7"/>
<text text-anchor="start" x="419" y="-13.8" font-family="Times,serif" font-size="14.00">R: (nil)</text>
<polygon fill="none" stroke="black" points="362,-4 362,-54 474,-54 474,-4 362,-4"/>
</g>
<!-- node0x55732bbc3a90&#45;&gt;node0x55732bbc3a50 -->
<g id="edge8" class="edge">
<title>node0x55732bbc3a90:lchild&#45;&gt;node0x55732bbc3a50</title>
<path fill="none" stroke="black" stroke-width="2" d="M418,-100C418,-89.81 418,-78.78 418,-68.56"/>
<polygon fill="black" stroke="black" stroke-width="2" points="418,-58.27 422.5,-68.27 418.5,-63.27 418.5,-68.27 418,-68.27 417.5,-68.27 417.5,-63.27 413.5,-68.27 418,-58.27 418,-58.27"/>
</g>
<!-- node0x55732bbc3ad0 -->
<g id="node11" class="node">
<title>node0x55732bbc3ad0</title>
<polygon fill="lightskyblue" stroke="transparent" points="514,-30 514,-51 620,-51 620,-30 514,-30"/>
<polygon fill="none" stroke="black" points="514,-30 514,-51 620,-51 620,-30 514,-30"/>
<text text-anchor="start" x="562" y="-36.8" font-family="Times,serif" font-size="14.00">2</text>
<polygon fill="none" stroke="black" points="514,-7 514,-28 563,-28 563,-7 514,-7"/>
<text text-anchor="start" x="517" y="-13.8" font-family="Times,serif" font-size="14.00">L:(nil)</text>
<polygon fill="none" stroke="black" points="565,-7 565,-28 620,-28 620,-7 565,-7"/>
<text text-anchor="start" x="568" y="-13.8" font-family="Times,serif" font-size="14.00">R: (nil)</text>
<polygon fill="none" stroke="black" points="511,-4 511,-54 623,-54 623,-4 511,-4"/>
</g>
<!-- node0x55732bbc3a90&#45;&gt;node0x55732bbc3ad0 -->
<g id="edge9" class="edge">
<title>node0x55732bbc3a90:rchild&#45;&gt;node0x55732bbc3ad0</title>
<path fill="none" stroke="black" stroke-width="2" d="M567,-100C567,-89.81 567,-78.78 567,-68.56"/>
<polygon fill="black" stroke="black" stroke-width="2" points="567,-58.27 571.5,-68.27 567.5,-63.27 567.5,-68.27 567,-68.27 566.5,-68.27 566.5,-63.27 562.5,-68.27 567,-58.27 567,-58.27"/>
</g>
<!-- node0x55732bbc3b50&#45;&gt;node0x55732bbc39d0 -->
<g id="edge10" class="edge">
<title>node0x55732bbc3b50:lchild&#45;&gt;node0x55732bbc39d0</title>
<path fill="none" stroke="black" stroke-width="2" d="M373,-288C373,-275.96 368.19,-264.38 361.67,-254.23"/>
<polygon fill="black" stroke="black" stroke-width="2" points="355.87,-246.06 365.33,-251.61 359.17,-249.85 362.07,-253.92 361.66,-254.21 361.25,-254.5 358.36,-250.42 357.99,-256.82 355.87,-246.06 355.87,-246.06"/>
</g>
<!-- node0x55732bbc3b90 -->
<g id="node13" class="node">
<title>node0x55732bbc3b90</title>
<polygon fill="lightskyblue" stroke="transparent" points="515,-218 515,-239 621,-239 621,-218 515,-218"/>
<polygon fill="none" stroke="black" points="515,-218 515,-239 621,-239 621,-218 515,-218"/>
<text text-anchor="start" x="563" y="-224.8" font-family="Times,serif" font-size="14.00">3</text>
<polygon fill="none" stroke="black" points="515,-195 515,-216 564,-216 564,-195 515,-195"/>
<text text-anchor="start" x="518" y="-201.8" font-family="Times,serif" font-size="14.00">L:(nil)</text>
<polygon fill="none" stroke="black" points="566,-195 566,-216 621,-216 621,-195 566,-195"/>
<text text-anchor="start" x="569" y="-201.8" font-family="Times,serif" font-size="14.00">R: (nil)</text>
<polygon fill="none" stroke="black" points="512,-192 512,-242 624,-242 624,-192 512,-192"/>
</g>
<!-- node0x55732bbc3b50&#45;&gt;node0x55732bbc3b90 -->
<g id="edge11" class="edge">
<title>node0x55732bbc3b50:rchild&#45;&gt;node0x55732bbc3b90</title>
<path fill="none" stroke="black" stroke-width="2" d="M522,-288C522,-275.96 526.81,-264.38 533.33,-254.23"/>
<polygon fill="black" stroke="black" stroke-width="2" points="539.13,-246.06 537.01,-256.82 536.64,-250.42 533.75,-254.5 533.34,-254.21 532.93,-253.92 535.83,-249.85 529.67,-251.61 539.13,-246.06 539.13,-246.06"/>
</g>
</g>
</svg>
