<?xml version="1.0" encoding="UTF-8" standalone="no"?>
<!DOCTYPE svg PUBLIC "-//W3C//DTD SVG 1.1//EN"
 "http://www.w3.org/Graphics/SVG/1.1/DTD/svg11.dtd">
<!-- Generated by graphviz version 2.43.0 (0)
 -->
<!-- Title: dump_graph Pages: 1 -->
<svg width="1085pt" height="724pt"
 viewBox="0.00 0.00 1085.00 724.00" xmlns="http://www.w3.org/2000/svg" xmlns:xlink="http://www.w3.org/1999/xlink">
<g id="graph0" class="graph" transform="scale(1 1) rotate(0) translate(4 720)">
<title>dump_graph</title>
<polygon fill="white" stroke="transparent" points="-4,4 -4,-720 1081,-720 1081,4 -4,4"/>
<!-- node0x55d7f7785fa0 -->
<g id="node1" class="node">
<title>node0x55d7f7785fa0</title>
<polygon fill="pink" stroke="transparent" points="199.5,-500 199.5,-521 397.5,-521 397.5,-500 199.5,-500"/>
<polygon fill="none" stroke="black" points="199.5,-500 199.5,-521 397.5,-521 397.5,-500 199.5,-500"/>
<text text-anchor="start" x="259.5" y="-506.8" font-family="Times,serif" font-size="14.00"> statement</text>
<polygon fill="none" stroke="black" points="199.5,-477 199.5,-498 248.5,-498 248.5,-477 199.5,-477"/>
<text text-anchor="start" x="202.5" y="-483.8" font-family="Times,serif" font-size="14.00">L:(nil)</text>
<polygon fill="none" stroke="black" points="250.5,-477 250.5,-498 397.5,-498 397.5,-477 250.5,-477"/>
<text text-anchor="start" x="253.5" y="-483.8" font-family="Times,serif" font-size="14.00">R: 0x55d7f7785a60</text>
<polygon fill="none" stroke="black" points="196.5,-474 196.5,-524 400.5,-524 400.5,-474 196.5,-474"/>
</g>
<!-- node0x55d7f7785a60 -->
<g id="node2" class="node">
<title>node0x55d7f7785a60</title>
<polygon fill="#cd4f39" stroke="transparent" points="156.5,-406 156.5,-427 442.5,-427 442.5,-406 156.5,-406"/>
<polygon fill="none" stroke="black" points="156.5,-406 156.5,-427 442.5,-427 442.5,-406 156.5,-406"/>
<text text-anchor="start" x="278" y="-412.8" font-family="Times,serif" font-size="14.00"> while</text>
<polygon fill="none" stroke="black" points="156.5,-383 156.5,-404 297.5,-404 297.5,-383 156.5,-383"/>
<text text-anchor="start" x="159.5" y="-389.8" font-family="Times,serif" font-size="14.00">L:0x55d7f7785da0</text>
<polygon fill="none" stroke="black" points="299.5,-383 299.5,-404 442.5,-404 442.5,-383 299.5,-383"/>
<text text-anchor="start" x="302.5" y="-389.8" font-family="Times,serif" font-size="14.00">R: 0x55d7f7785fe0</text>
<polygon fill="none" stroke="black" points="153.5,-380 153.5,-430 445.5,-430 445.5,-380 153.5,-380"/>
</g>
<!-- node0x55d7f7785fa0&#45;&gt;node0x55d7f7785a60 -->
<g id="edge1" class="edge">
<title>node0x55d7f7785fa0:rchild&#45;&gt;node0x55d7f7785a60</title>
<path fill="none" stroke="black" stroke-width="2" d="M324.5,-476C324.5,-465.15 321.8,-453.87 318.18,-443.61"/>
<polygon fill="black" stroke="black" stroke-width="2" points="314.48,-434.15 322.31,-441.82 316.76,-438.62 318.58,-443.28 318.12,-443.46 317.65,-443.64 315.83,-438.98 313.92,-445.1 314.48,-434.15 314.48,-434.15"/>
</g>
<!-- node0x55d7f7785da0 -->
<g id="node4" class="node">
<title>node0x55d7f7785da0</title>
<polygon fill="orchid" stroke="transparent" points="11.5,-312 11.5,-333 302.5,-333 302.5,-312 11.5,-312"/>
<polygon fill="none" stroke="black" points="11.5,-312 11.5,-333 302.5,-333 302.5,-312 11.5,-312"/>
<text text-anchor="start" x="150" y="-318.8" font-family="Times,serif" font-size="14.00"> L</text>
<polygon fill="none" stroke="black" points="11.5,-289 11.5,-310 153.5,-310 153.5,-289 11.5,-289"/>
<text text-anchor="start" x="14.5" y="-295.8" font-family="Times,serif" font-size="14.00">L:0x55d7f7785d60</text>
<polygon fill="none" stroke="black" points="155.5,-289 155.5,-310 302.5,-310 302.5,-289 155.5,-289"/>
<text text-anchor="start" x="158.5" y="-295.8" font-family="Times,serif" font-size="14.00">R: 0x55d7f7785de0</text>
<polygon fill="none" stroke="black" points="8,-286 8,-336 305,-336 305,-286 8,-286"/>
</g>
<!-- node0x55d7f7785a60&#45;&gt;node0x55d7f7785da0 -->
<g id="edge4" class="edge">
<title>node0x55d7f7785a60:lchild&#45;&gt;node0x55d7f7785da0</title>
<path fill="none" stroke="black" stroke-width="2" d="M155.5,-393C136.8,-393 137.8,-371.16 143.07,-350.15"/>
<polygon fill="black" stroke="black" stroke-width="2" points="145.84,-340.33 147.46,-351.18 144.96,-345.28 143.61,-350.09 143.12,-349.96 142.64,-349.82 144,-345.01 138.79,-348.74 145.84,-340.33 145.84,-340.33"/>
</g>
<!-- node0x55d7f7785fe0 -->
<g id="node6" class="node">
<title>node0x55d7f7785fe0</title>
<polygon fill="pink" stroke="transparent" points="342.5,-312 342.5,-333 541.5,-333 541.5,-312 342.5,-312"/>
<polygon fill="none" stroke="black" points="342.5,-312 342.5,-333 541.5,-333 541.5,-312 342.5,-312"/>
<text text-anchor="start" x="403" y="-318.8" font-family="Times,serif" font-size="14.00"> statement</text>
<polygon fill="none" stroke="black" points="342.5,-289 342.5,-310 391.5,-310 391.5,-289 342.5,-289"/>
<text text-anchor="start" x="345.5" y="-295.8" font-family="Times,serif" font-size="14.00">L:(nil)</text>
<polygon fill="none" stroke="black" points="393.5,-289 393.5,-310 541.5,-310 541.5,-289 393.5,-289"/>
<text text-anchor="start" x="396.5" y="-295.8" font-family="Times,serif" font-size="14.00">R: 0x55d7f7785b20</text>
<polygon fill="none" stroke="black" points="339,-286 339,-336 544,-336 544,-286 339,-286"/>
</g>
<!-- node0x55d7f7785a60&#45;&gt;node0x55d7f7785fe0 -->
<g id="edge5" class="edge">
<title>node0x55d7f7785a60:rchild&#45;&gt;node0x55d7f7785fe0</title>
<path fill="none" stroke="black" stroke-width="2" d="M443.5,-393C462.2,-393 460.94,-371.16 455.41,-350.15"/>
<polygon fill="black" stroke="black" stroke-width="2" points="452.52,-340.33 459.65,-348.65 454.41,-344.99 455.82,-349.78 455.34,-349.92 454.86,-350.06 453.45,-345.27 451.02,-351.19 452.52,-340.33 452.52,-340.33"/>
</g>
<!-- node0x55d7f7785d60 -->
<g id="node3" class="node">
<title>node0x55d7f7785d60</title>
<polygon fill="orchid" stroke="transparent" points="29.5,-218 29.5,-239 135.5,-239 135.5,-218 29.5,-218"/>
<polygon fill="none" stroke="black" points="29.5,-218 29.5,-239 135.5,-239 135.5,-218 29.5,-218"/>
<text text-anchor="start" x="75.5" y="-224.8" font-family="Times,serif" font-size="14.00"> b</text>
<polygon fill="none" stroke="black" points="29.5,-195 29.5,-216 78.5,-216 78.5,-195 29.5,-195"/>
<text text-anchor="start" x="32.5" y="-201.8" font-family="Times,serif" font-size="14.00">L:(nil)</text>
<polygon fill="none" stroke="black" points="80.5,-195 80.5,-216 135.5,-216 135.5,-195 80.5,-195"/>
<text text-anchor="start" x="83.5" y="-201.8" font-family="Times,serif" font-size="14.00">R: (nil)</text>
<polygon fill="none" stroke="black" points="26.5,-192 26.5,-242 138.5,-242 138.5,-192 26.5,-192"/>
</g>
<!-- node0x55d7f7785da0&#45;&gt;node0x55d7f7785d60 -->
<g id="edge2" class="edge">
<title>node0x55d7f7785da0:lchild&#45;&gt;node0x55d7f7785d60</title>
<path fill="none" stroke="black" stroke-width="2" d="M82.5,-288C82.5,-277.81 82.5,-266.78 82.5,-256.56"/>
<polygon fill="black" stroke="black" stroke-width="2" points="82.5,-246.27 87,-256.27 83,-251.27 83,-256.27 82.5,-256.27 82,-256.27 82,-251.27 78,-256.27 82.5,-246.27 82.5,-246.27"/>
</g>
<!-- node0x55d7f7785de0 -->
<g id="node5" class="node">
<title>node0x55d7f7785de0</title>
<polygon fill="lightskyblue" stroke="transparent" points="176.5,-218 176.5,-239 282.5,-239 282.5,-218 176.5,-218"/>
<polygon fill="none" stroke="black" points="176.5,-218 176.5,-239 282.5,-239 282.5,-218 176.5,-218"/>
<text text-anchor="start" x="224.5" y="-224.8" font-family="Times,serif" font-size="14.00">5</text>
<polygon fill="none" stroke="black" points="176.5,-195 176.5,-216 225.5,-216 225.5,-195 176.5,-195"/>
<text text-anchor="start" x="179.5" y="-201.8" font-family="Times,serif" font-size="14.00">L:(nil)</text>
<polygon fill="none" stroke="black" points="227.5,-195 227.5,-216 282.5,-216 282.5,-195 227.5,-195"/>
<text text-anchor="start" x="230.5" y="-201.8" font-family="Times,serif" font-size="14.00">R: (nil)</text>
<polygon fill="none" stroke="black" points="173.5,-192 173.5,-242 285.5,-242 285.5,-192 173.5,-192"/>
</g>
<!-- node0x55d7f7785da0&#45;&gt;node0x55d7f7785de0 -->
<g id="edge3" class="edge">
<title>node0x55d7f7785da0:rchild&#45;&gt;node0x55d7f7785de0</title>
<path fill="none" stroke="black" stroke-width="2" d="M229.5,-288C229.5,-277.81 229.5,-266.78 229.5,-256.56"/>
<polygon fill="black" stroke="black" stroke-width="2" points="229.5,-246.27 234,-256.27 230,-251.27 230,-256.27 229.5,-256.27 229,-256.27 229,-251.27 225,-256.27 229.5,-246.27 229.5,-246.27"/>
</g>
<!-- node0x55d7f7785b20 -->
<g id="node7" class="node">
<title>node0x55d7f7785b20</title>
<polygon fill="#9acd32" stroke="transparent" points="323.5,-218 323.5,-239 612.5,-239 612.5,-218 323.5,-218"/>
<polygon fill="none" stroke="black" points="323.5,-218 323.5,-239 612.5,-239 612.5,-218 323.5,-218"/>
<text text-anchor="start" x="459.5" y="-224.8" font-family="Times,serif" font-size="14.00"> =</text>
<polygon fill="none" stroke="black" points="323.5,-195 323.5,-216 463.5,-216 463.5,-195 323.5,-195"/>
<text text-anchor="start" x="326.5" y="-201.8" font-family="Times,serif" font-size="14.00">L:0x55d7f7785ae0</text>
<polygon fill="none" stroke="black" points="465.5,-195 465.5,-216 612.5,-216 612.5,-195 465.5,-195"/>
<text text-anchor="start" x="468.5" y="-201.8" font-family="Times,serif" font-size="14.00">R: 0x55d7f7785ba0</text>
<polygon fill="none" stroke="black" points="320,-192 320,-242 615,-242 615,-192 320,-192"/>
</g>
<!-- node0x55d7f7785fe0&#45;&gt;node0x55d7f7785b20 -->
<g id="edge6" class="edge">
<title>node0x55d7f7785fe0:rchild&#45;&gt;node0x55d7f7785b20</title>
<path fill="none" stroke="black" stroke-width="2" d="M467.5,-288C467.5,-277.81 467.5,-266.78 467.5,-256.56"/>
<polygon fill="black" stroke="black" stroke-width="2" points="467.5,-246.27 472,-256.27 468,-251.27 468,-256.27 467.5,-256.27 467,-256.27 467,-251.27 463,-256.27 467.5,-246.27 467.5,-246.27"/>
</g>
<!-- node0x55d7f7785ae0 -->
<g id="node8" class="node">
<title>node0x55d7f7785ae0</title>
<polygon fill="orchid" stroke="transparent" points="293.5,-124 293.5,-145 399.5,-145 399.5,-124 293.5,-124"/>
<polygon fill="none" stroke="black" points="293.5,-124 293.5,-145 399.5,-145 399.5,-124 293.5,-124"/>
<text text-anchor="start" x="339.5" y="-130.8" font-family="Times,serif" font-size="14.00"> b</text>
<polygon fill="none" stroke="black" points="293.5,-101 293.5,-122 342.5,-122 342.5,-101 293.5,-101"/>
<text text-anchor="start" x="296.5" y="-107.8" font-family="Times,serif" font-size="14.00">L:(nil)</text>
<polygon fill="none" stroke="black" points="344.5,-101 344.5,-122 399.5,-122 399.5,-101 344.5,-101"/>
<text text-anchor="start" x="347.5" y="-107.8" font-family="Times,serif" font-size="14.00">R: (nil)</text>
<polygon fill="none" stroke="black" points="290.5,-98 290.5,-148 402.5,-148 402.5,-98 290.5,-98"/>
</g>
<!-- node0x55d7f7785b20&#45;&gt;node0x55d7f7785ae0 -->
<g id="edge7" class="edge">
<title>node0x55d7f7785b20:lchild&#45;&gt;node0x55d7f7785ae0</title>
<path fill="none" stroke="black" stroke-width="2" d="M393.5,-194C393.5,-181.99 388.67,-170.49 382.12,-160.41"/>
<polygon fill="black" stroke="black" stroke-width="2" points="376.27,-152.29 385.76,-157.77 379.59,-156.05 382.52,-160.11 382.11,-160.4 381.71,-160.7 378.78,-156.64 378.46,-163.03 376.27,-152.29 376.27,-152.29"/>
</g>
<!-- node0x55d7f7785ba0 -->
<g id="node9" class="node">
<title>node0x55d7f7785ba0</title>
<polygon fill="#9acd32" stroke="transparent" points="440.5,-124 440.5,-145 731.5,-145 731.5,-124 440.5,-124"/>
<polygon fill="none" stroke="black" points="440.5,-124 440.5,-145 731.5,-145 731.5,-124 440.5,-124"/>
<text text-anchor="start" x="577.5" y="-130.8" font-family="Times,serif" font-size="14.00"> +</text>
<polygon fill="none" stroke="black" points="440.5,-101 440.5,-122 582.5,-122 582.5,-101 440.5,-101"/>
<text text-anchor="start" x="443.5" y="-107.8" font-family="Times,serif" font-size="14.00">L:0x55d7f7785b60</text>
<polygon fill="none" stroke="black" points="584.5,-101 584.5,-122 731.5,-122 731.5,-101 584.5,-101"/>
<text text-anchor="start" x="587.5" y="-107.8" font-family="Times,serif" font-size="14.00">R: 0x55d7f7785be0</text>
<polygon fill="none" stroke="black" points="437,-98 437,-148 734,-148 734,-98 437,-98"/>
</g>
<!-- node0x55d7f7785b20&#45;&gt;node0x55d7f7785ba0 -->
<g id="edge8" class="edge">
<title>node0x55d7f7785b20:rchild&#45;&gt;node0x55d7f7785ba0</title>
<path fill="none" stroke="black" stroke-width="2" d="M539.5,-194C539.5,-181.96 544.31,-170.38 550.83,-160.23"/>
<polygon fill="black" stroke="black" stroke-width="2" points="556.63,-152.06 554.51,-162.82 554.14,-156.42 551.25,-160.5 550.84,-160.21 550.43,-159.92 553.33,-155.85 547.17,-157.61 556.63,-152.06 556.63,-152.06"/>
</g>
<!-- node0x55d7f7785b60 -->
<g id="node10" class="node">
<title>node0x55d7f7785b60</title>
<polygon fill="orchid" stroke="transparent" points="458.5,-30 458.5,-51 564.5,-51 564.5,-30 458.5,-30"/>
<polygon fill="none" stroke="black" points="458.5,-30 458.5,-51 564.5,-51 564.5,-30 458.5,-30"/>
<text text-anchor="start" x="504.5" y="-36.8" font-family="Times,serif" font-size="14.00"> b</text>
<polygon fill="none" stroke="black" points="458.5,-7 458.5,-28 507.5,-28 507.5,-7 458.5,-7"/>
<text text-anchor="start" x="461.5" y="-13.8" font-family="Times,serif" font-size="14.00">L:(nil)</text>
<polygon fill="none" stroke="black" points="509.5,-7 509.5,-28 564.5,-28 564.5,-7 509.5,-7"/>
<text text-anchor="start" x="512.5" y="-13.8" font-family="Times,serif" font-size="14.00">R: (nil)</text>
<polygon fill="none" stroke="black" points="455.5,-4 455.5,-54 567.5,-54 567.5,-4 455.5,-4"/>
</g>
<!-- node0x55d7f7785ba0&#45;&gt;node0x55d7f7785b60 -->
<g id="edge9" class="edge">
<title>node0x55d7f7785ba0:lchild&#45;&gt;node0x55d7f7785b60</title>
<path fill="none" stroke="black" stroke-width="2" d="M511.5,-100C511.5,-89.81 511.5,-78.78 511.5,-68.56"/>
<polygon fill="black" stroke="black" stroke-width="2" points="511.5,-58.27 516,-68.27 512,-63.27 512,-68.27 511.5,-68.27 511,-68.27 511,-63.27 507,-68.27 511.5,-58.27 511.5,-58.27"/>
</g>
<!-- node0x55d7f7785be0 -->
<g id="node11" class="node">
<title>node0x55d7f7785be0</title>
<polygon fill="lightskyblue" stroke="transparent" points="605.5,-30 605.5,-51 711.5,-51 711.5,-30 605.5,-30"/>
<polygon fill="none" stroke="black" points="605.5,-30 605.5,-51 711.5,-51 711.5,-30 605.5,-30"/>
<text text-anchor="start" x="653.5" y="-36.8" font-family="Times,serif" font-size="14.00">1</text>
<polygon fill="none" stroke="black" points="605.5,-7 605.5,-28 654.5,-28 654.5,-7 605.5,-7"/>
<text text-anchor="start" x="608.5" y="-13.8" font-family="Times,serif" font-size="14.00">L:(nil)</text>
<polygon fill="none" stroke="black" points="656.5,-7 656.5,-28 711.5,-28 711.5,-7 656.5,-7"/>
<text text-anchor="start" x="659.5" y="-13.8" font-family="Times,serif" font-size="14.00">R: (nil)</text>
<polygon fill="none" stroke="black" points="602.5,-4 602.5,-54 714.5,-54 714.5,-4 602.5,-4"/>
</g>
<!-- node0x55d7f7785ba0&#45;&gt;node0x55d7f7785be0 -->
<g id="edge10" class="edge">
<title>node0x55d7f7785ba0:rchild&#45;&gt;node0x55d7f7785be0</title>
<path fill="none" stroke="black" stroke-width="2" d="M658.5,-100C658.5,-89.81 658.5,-78.78 658.5,-68.56"/>
<polygon fill="black" stroke="black" stroke-width="2" points="658.5,-58.27 663,-68.27 659,-63.27 659,-68.27 658.5,-68.27 658,-68.27 658,-63.27 654,-68.27 658.5,-58.27 658.5,-58.27"/>
</g>
<!-- node0x55d7f7785f60 -->
<g id="node12" class="node">
<title>node0x55d7f7785f60</title>
<polygon fill="pink" stroke="transparent" points="395.5,-594 395.5,-615 681.5,-615 681.5,-594 395.5,-594"/>
<polygon fill="none" stroke="black" points="395.5,-594 395.5,-615 681.5,-615 681.5,-594 395.5,-594"/>
<text text-anchor="start" x="499.5" y="-600.8" font-family="Times,serif" font-size="14.00"> statement</text>
<polygon fill="none" stroke="black" points="395.5,-571 395.5,-592 532.5,-592 532.5,-571 395.5,-571"/>
<text text-anchor="start" x="398.5" y="-577.8" font-family="Times,serif" font-size="14.00">L:0x55d7f7785fa0</text>
<polygon fill="none" stroke="black" points="534.5,-571 534.5,-592 681.5,-592 681.5,-571 534.5,-571"/>
<text text-anchor="start" x="537.5" y="-577.8" font-family="Times,serif" font-size="14.00">R: 0x55d7f77859a0</text>
<polygon fill="none" stroke="black" points="392.5,-568 392.5,-618 684.5,-618 684.5,-568 392.5,-568"/>
</g>
<!-- node0x55d7f7785f60&#45;&gt;node0x55d7f7785fa0 -->
<g id="edge11" class="edge">
<title>node0x55d7f7785f60:lchild&#45;&gt;node0x55d7f7785fa0</title>
<path fill="none" stroke="black" stroke-width="2" d="M394.5,-581C364.72,-581 339.4,-557.95 322.25,-536.45"/>
<polygon fill="black" stroke="black" stroke-width="2" points="316.08,-528.33 325.71,-533.57 319.5,-532.01 322.53,-535.99 322.13,-536.29 321.73,-536.6 318.71,-532.61 318.55,-539.02 316.08,-528.33 316.08,-528.33"/>
</g>
<!-- node0x55d7f77859a0 -->
<g id="node13" class="node">
<title>node0x55d7f77859a0</title>
<polygon fill="#9acd32" stroke="transparent" points="463.5,-500 463.5,-521 754.5,-521 754.5,-500 463.5,-500"/>
<polygon fill="none" stroke="black" points="463.5,-500 463.5,-521 754.5,-521 754.5,-500 463.5,-500"/>
<text text-anchor="start" x="600.5" y="-506.8" font-family="Times,serif" font-size="14.00"> =</text>
<polygon fill="none" stroke="black" points="463.5,-477 463.5,-498 605.5,-498 605.5,-477 463.5,-477"/>
<text text-anchor="start" x="466.5" y="-483.8" font-family="Times,serif" font-size="14.00">L:0x55d7f7785960</text>
<polygon fill="none" stroke="black" points="607.5,-477 607.5,-498 754.5,-498 754.5,-477 607.5,-477"/>
<text text-anchor="start" x="610.5" y="-483.8" font-family="Times,serif" font-size="14.00">R: 0x55d7f77859e0</text>
<polygon fill="none" stroke="black" points="460,-474 460,-524 757,-524 757,-474 460,-474"/>
</g>
<!-- node0x55d7f7785f60&#45;&gt;node0x55d7f77859a0 -->
<g id="edge12" class="edge">
<title>node0x55d7f7785f60:rchild&#45;&gt;node0x55d7f77859a0</title>
<path fill="none" stroke="black" stroke-width="2" d="M608.5,-570C608.5,-559.81 608.5,-548.78 608.5,-538.56"/>
<polygon fill="black" stroke="black" stroke-width="2" points="608.5,-528.27 613,-538.27 609,-533.27 609,-538.27 608.5,-538.27 608,-538.27 608,-533.27 604,-538.27 608.5,-528.27 608.5,-528.27"/>
</g>
<!-- node0x55d7f7785960 -->
<g id="node14" class="node">
<title>node0x55d7f7785960</title>
<polygon fill="orchid" stroke="transparent" points="482.5,-406 482.5,-427 588.5,-427 588.5,-406 482.5,-406"/>
<polygon fill="none" stroke="black" points="482.5,-406 482.5,-427 588.5,-427 588.5,-406 482.5,-406"/>
<text text-anchor="start" x="528.5" y="-412.8" font-family="Times,serif" font-size="14.00"> b</text>
<polygon fill="none" stroke="black" points="482.5,-383 482.5,-404 531.5,-404 531.5,-383 482.5,-383"/>
<text text-anchor="start" x="485.5" y="-389.8" font-family="Times,serif" font-size="14.00">L:(nil)</text>
<polygon fill="none" stroke="black" points="533.5,-383 533.5,-404 588.5,-404 588.5,-383 533.5,-383"/>
<text text-anchor="start" x="536.5" y="-389.8" font-family="Times,serif" font-size="14.00">R: (nil)</text>
<polygon fill="none" stroke="black" points="479.5,-380 479.5,-430 591.5,-430 591.5,-380 479.5,-380"/>
</g>
<!-- node0x55d7f77859a0&#45;&gt;node0x55d7f7785960 -->
<g id="edge13" class="edge">
<title>node0x55d7f77859a0:lchild&#45;&gt;node0x55d7f7785960</title>
<path fill="none" stroke="black" stroke-width="2" d="M534.5,-476C534.5,-465.81 534.61,-454.78 534.75,-444.56"/>
<polygon fill="black" stroke="black" stroke-width="2" points="534.91,-434.27 539.26,-444.34 535.33,-439.28 535.26,-444.27 534.76,-444.27 534.26,-444.26 534.33,-439.26 530.26,-444.2 534.91,-434.27 534.91,-434.27"/>
</g>
<!-- node0x55d7f77859e0 -->
<g id="node15" class="node">
<title>node0x55d7f77859e0</title>
<polygon fill="lightskyblue" stroke="transparent" points="628.5,-406 628.5,-427 734.5,-427 734.5,-406 628.5,-406"/>
<polygon fill="none" stroke="black" points="628.5,-406 628.5,-427 734.5,-427 734.5,-406 628.5,-406"/>
<text text-anchor="start" x="676.5" y="-412.8" font-family="Times,serif" font-size="14.00">0</text>
<polygon fill="none" stroke="black" points="628.5,-383 628.5,-404 677.5,-404 677.5,-383 628.5,-383"/>
<text text-anchor="start" x="631.5" y="-389.8" font-family="Times,serif" font-size="14.00">L:(nil)</text>
<polygon fill="none" stroke="black" points="679.5,-383 679.5,-404 734.5,-404 734.5,-383 679.5,-383"/>
<text text-anchor="start" x="682.5" y="-389.8" font-family="Times,serif" font-size="14.00">R: (nil)</text>
<polygon fill="none" stroke="black" points="625.5,-380 625.5,-430 737.5,-430 737.5,-380 625.5,-380"/>
</g>
<!-- node0x55d7f77859a0&#45;&gt;node0x55d7f77859e0 -->
<g id="edge14" class="edge">
<title>node0x55d7f77859a0:rchild&#45;&gt;node0x55d7f77859e0</title>
<path fill="none" stroke="black" stroke-width="2" d="M681.5,-476C681.5,-465.81 681.5,-454.78 681.5,-444.56"/>
<polygon fill="black" stroke="black" stroke-width="2" points="681.5,-434.27 686,-444.27 682,-439.27 682,-444.27 681.5,-444.27 681,-444.27 681,-439.27 677,-444.27 681.5,-434.27 681.5,-434.27"/>
</g>
<!-- node0x55d7f7785f20 -->
<g id="node16" class="node">
<title>node0x55d7f7785f20</title>
<polygon fill="pink" stroke="transparent" points="587.5,-688 587.5,-709 874.5,-709 874.5,-688 587.5,-688"/>
<polygon fill="none" stroke="black" points="587.5,-688 587.5,-709 874.5,-709 874.5,-688 587.5,-688"/>
<text text-anchor="start" x="692" y="-694.8" font-family="Times,serif" font-size="14.00"> statement</text>
<polygon fill="none" stroke="black" points="587.5,-665 587.5,-686 725.5,-686 725.5,-665 587.5,-665"/>
<text text-anchor="start" x="590.5" y="-671.8" font-family="Times,serif" font-size="14.00">L:0x55d7f7785f60</text>
<polygon fill="none" stroke="black" points="727.5,-665 727.5,-686 874.5,-686 874.5,-665 727.5,-665"/>
<text text-anchor="start" x="730.5" y="-671.8" font-family="Times,serif" font-size="14.00">R: 0x55d7f77858a0</text>
<polygon fill="none" stroke="black" points="584,-662 584,-712 877,-712 877,-662 584,-662"/>
</g>
<!-- node0x55d7f7785f20&#45;&gt;node0x55d7f7785f60 -->
<g id="edge15" class="edge">
<title>node0x55d7f7785f20:lchild&#45;&gt;node0x55d7f7785f60</title>
<path fill="none" stroke="black" stroke-width="2" d="M586.5,-675C564.77,-675 552.66,-653.16 546.05,-632.15"/>
<polygon fill="black" stroke="black" stroke-width="2" points="543.3,-622.33 550.33,-630.75 545.13,-627.01 546.47,-631.83 545.99,-631.96 545.51,-632.1 544.16,-627.28 541.66,-633.17 543.3,-622.33 543.3,-622.33"/>
</g>
<!-- node0x55d7f77858a0 -->
<g id="node17" class="node">
<title>node0x55d7f77858a0</title>
<polygon fill="#9acd32" stroke="transparent" points="775.5,-594 775.5,-615 1066.5,-615 1066.5,-594 775.5,-594"/>
<polygon fill="none" stroke="black" points="775.5,-594 775.5,-615 1066.5,-615 1066.5,-594 775.5,-594"/>
<text text-anchor="start" x="912.5" y="-600.8" font-family="Times,serif" font-size="14.00"> =</text>
<polygon fill="none" stroke="black" points="775.5,-571 775.5,-592 917.5,-592 917.5,-571 775.5,-571"/>
<text text-anchor="start" x="778.5" y="-577.8" font-family="Times,serif" font-size="14.00">L:0x55d7f7785860</text>
<polygon fill="none" stroke="black" points="919.5,-571 919.5,-592 1066.5,-592 1066.5,-571 919.5,-571"/>
<text text-anchor="start" x="922.5" y="-577.8" font-family="Times,serif" font-size="14.00">R: 0x55d7f77858e0</text>
<polygon fill="none" stroke="black" points="772,-568 772,-618 1069,-618 1069,-568 772,-568"/>
</g>
<!-- node0x55d7f7785f20&#45;&gt;node0x55d7f77858a0 -->
<g id="edge16" class="edge">
<title>node0x55d7f7785f20:rchild&#45;&gt;node0x55d7f77858a0</title>
<path fill="none" stroke="black" stroke-width="2" d="M875.5,-675C896.89,-675 908.2,-653.16 914.13,-632.15"/>
<polygon fill="black" stroke="black" stroke-width="2" points="916.56,-622.33 918.53,-633.12 915.84,-627.3 914.64,-632.16 914.16,-632.04 913.67,-631.92 914.87,-627.06 909.79,-630.96 916.56,-622.33 916.56,-622.33"/>
</g>
<!-- node0x55d7f7785860 -->
<g id="node18" class="node">
<title>node0x55d7f7785860</title>
<polygon fill="orchid" stroke="transparent" points="794.5,-500 794.5,-521 900.5,-521 900.5,-500 794.5,-500"/>
<polygon fill="none" stroke="black" points="794.5,-500 794.5,-521 900.5,-521 900.5,-500 794.5,-500"/>
<text text-anchor="start" x="841" y="-506.8" font-family="Times,serif" font-size="14.00"> a</text>
<polygon fill="none" stroke="black" points="794.5,-477 794.5,-498 843.5,-498 843.5,-477 794.5,-477"/>
<text text-anchor="start" x="797.5" y="-483.8" font-family="Times,serif" font-size="14.00">L:(nil)</text>
<polygon fill="none" stroke="black" points="845.5,-477 845.5,-498 900.5,-498 900.5,-477 845.5,-477"/>
<text text-anchor="start" x="848.5" y="-483.8" font-family="Times,serif" font-size="14.00">R: (nil)</text>
<polygon fill="none" stroke="black" points="791.5,-474 791.5,-524 903.5,-524 903.5,-474 791.5,-474"/>
</g>
<!-- node0x55d7f77858a0&#45;&gt;node0x55d7f7785860 -->
<g id="edge17" class="edge">
<title>node0x55d7f77858a0:lchild&#45;&gt;node0x55d7f7785860</title>
<path fill="none" stroke="black" stroke-width="2" d="M846.5,-570C846.5,-559.81 846.61,-548.78 846.75,-538.56"/>
<polygon fill="black" stroke="black" stroke-width="2" points="846.91,-528.27 851.26,-538.34 847.33,-533.28 847.26,-538.27 846.76,-538.27 846.26,-538.26 846.33,-533.26 842.26,-538.2 846.91,-528.27 846.91,-528.27"/>
</g>
<!-- node0x55d7f77858e0 -->
<g id="node19" class="node">
<title>node0x55d7f77858e0</title>
<polygon fill="lightskyblue" stroke="transparent" points="940.5,-500 940.5,-521 1046.5,-521 1046.5,-500 940.5,-500"/>
<polygon fill="none" stroke="black" points="940.5,-500 940.5,-521 1046.5,-521 1046.5,-500 940.5,-500"/>
<text text-anchor="start" x="988.5" y="-506.8" font-family="Times,serif" font-size="14.00">4</text>
<polygon fill="none" stroke="black" points="940.5,-477 940.5,-498 989.5,-498 989.5,-477 940.5,-477"/>
<text text-anchor="start" x="943.5" y="-483.8" font-family="Times,serif" font-size="14.00">L:(nil)</text>
<polygon fill="none" stroke="black" points="991.5,-477 991.5,-498 1046.5,-498 1046.5,-477 991.5,-477"/>
<text text-anchor="start" x="994.5" y="-483.8" font-family="Times,serif" font-size="14.00">R: (nil)</text>
<polygon fill="none" stroke="black" points="937.5,-474 937.5,-524 1049.5,-524 1049.5,-474 937.5,-474"/>
</g>
<!-- node0x55d7f77858a0&#45;&gt;node0x55d7f77858e0 -->
<g id="edge18" class="edge">
<title>node0x55d7f77858a0:rchild&#45;&gt;node0x55d7f77858e0</title>
<path fill="none" stroke="black" stroke-width="2" d="M993.5,-570C993.5,-559.81 993.5,-548.78 993.5,-538.56"/>
<polygon fill="black" stroke="black" stroke-width="2" points="993.5,-528.27 998,-538.27 994,-533.27 994,-538.27 993.5,-538.27 993,-538.27 993,-533.27 989,-538.27 993.5,-528.27 993.5,-528.27"/>
</g>
</g>
</svg>
