<?xml version="1.0" encoding="UTF-8" standalone="no"?>
<!DOCTYPE svg PUBLIC "-//W3C//DTD SVG 1.1//EN"
 "http://www.w3.org/Graphics/SVG/1.1/DTD/svg11.dtd">
<!-- Generated by graphviz version 2.43.0 (0)
 -->
<!-- Title: dump_graph Pages: 1 -->
<svg width="946pt" height="442pt"
 viewBox="0.00 0.00 946.00 442.00" xmlns="http://www.w3.org/2000/svg" xmlns:xlink="http://www.w3.org/1999/xlink">
<g id="graph0" class="graph" transform="scale(1 1) rotate(0) translate(4 438)">
<title>dump_graph</title>
<polygon fill="white" stroke="transparent" points="-4,4 -4,-438 942,-438 942,4 -4,4"/>
<!-- node0x55622f58bbc0 -->
<g id="node1" class="node">
<title>node0x55622f58bbc0</title>
<polygon fill="pink" stroke="transparent" points="57,-218 57,-239 255,-239 255,-218 57,-218"/>
<polygon fill="none" stroke="black" points="57,-218 57,-239 255,-239 255,-218 57,-218"/>
<text text-anchor="start" x="117" y="-224.8" font-family="Times,serif" font-size="14.00"> statement</text>
<polygon fill="none" stroke="black" points="57,-195 57,-216 106,-216 106,-195 57,-195"/>
<text text-anchor="start" x="60" y="-201.8" font-family="Times,serif" font-size="14.00">L:(nil)</text>
<polygon fill="none" stroke="black" points="108,-195 108,-216 255,-216 255,-195 108,-195"/>
<text text-anchor="start" x="111" y="-201.8" font-family="Times,serif" font-size="14.00">R: 0x55622f58ba40</text>
<polygon fill="none" stroke="black" points="54,-192 54,-242 258,-242 258,-192 54,-192"/>
</g>
<!-- node0x55622f58ba40 -->
<g id="node2" class="node">
<title>node0x55622f58ba40</title>
<polygon fill="#9acd32" stroke="transparent" points="11,-124 11,-145 301,-145 301,-124 11,-124"/>
<polygon fill="none" stroke="black" points="11,-124 11,-145 301,-145 301,-124 11,-124"/>
<text text-anchor="start" x="147.5" y="-130.8" font-family="Times,serif" font-size="14.00"> =</text>
<polygon fill="none" stroke="black" points="11,-101 11,-122 152,-122 152,-101 11,-101"/>
<text text-anchor="start" x="14" y="-107.8" font-family="Times,serif" font-size="14.00">L:0x55622f58ba00</text>
<polygon fill="none" stroke="black" points="154,-101 154,-122 301,-122 301,-101 154,-101"/>
<text text-anchor="start" x="157" y="-107.8" font-family="Times,serif" font-size="14.00">R: 0x55622f58ba80</text>
<polygon fill="none" stroke="black" points="8,-98 8,-148 304,-148 304,-98 8,-98"/>
</g>
<!-- node0x55622f58bbc0&#45;&gt;node0x55622f58ba40 -->
<g id="edge1" class="edge">
<title>node0x55622f58bbc0:rchild&#45;&gt;node0x55622f58ba40</title>
<path fill="none" stroke="black" stroke-width="2" d="M182,-194C182,-183.1 179.19,-171.8 175.42,-161.55"/>
<polygon fill="black" stroke="black" stroke-width="2" points="171.57,-152.08 179.51,-159.65 173.92,-156.53 175.81,-161.16 175.34,-161.35 174.88,-161.53 173,-156.9 171.17,-163.04 171.57,-152.08 171.57,-152.08"/>
</g>
<!-- node0x55622f58ba00 -->
<g id="node3" class="node">
<title>node0x55622f58ba00</title>
<polygon fill="orchid" stroke="transparent" points="28,-30 28,-51 134,-51 134,-30 28,-30"/>
<polygon fill="none" stroke="black" points="28,-30 28,-51 134,-51 134,-30 28,-30"/>
<text text-anchor="start" x="74.5" y="-36.8" font-family="Times,serif" font-size="14.00"> c</text>
<polygon fill="none" stroke="black" points="28,-7 28,-28 77,-28 77,-7 28,-7"/>
<text text-anchor="start" x="31" y="-13.8" font-family="Times,serif" font-size="14.00">L:(nil)</text>
<polygon fill="none" stroke="black" points="79,-7 79,-28 134,-28 134,-7 79,-7"/>
<text text-anchor="start" x="82" y="-13.8" font-family="Times,serif" font-size="14.00">R: (nil)</text>
<polygon fill="none" stroke="black" points="25,-4 25,-54 137,-54 137,-4 25,-4"/>
</g>
<!-- node0x55622f58ba40&#45;&gt;node0x55622f58ba00 -->
<g id="edge2" class="edge">
<title>node0x55622f58ba40:lchild&#45;&gt;node0x55622f58ba00</title>
<path fill="none" stroke="black" stroke-width="2" d="M81,-100C81,-89.81 81,-78.78 81,-68.56"/>
<polygon fill="black" stroke="black" stroke-width="2" points="81,-58.27 85.5,-68.27 81.5,-63.27 81.5,-68.27 81,-68.27 80.5,-68.27 80.5,-63.27 76.5,-68.27 81,-58.27 81,-58.27"/>
</g>
<!-- node0x55622f58ba80 -->
<g id="node4" class="node">
<title>node0x55622f58ba80</title>
<polygon fill="lightskyblue" stroke="transparent" points="175,-30 175,-51 281,-51 281,-30 175,-30"/>
<polygon fill="none" stroke="black" points="175,-30 175,-51 281,-51 281,-30 175,-30"/>
<text text-anchor="start" x="223" y="-36.8" font-family="Times,serif" font-size="14.00">3</text>
<polygon fill="none" stroke="black" points="175,-7 175,-28 224,-28 224,-7 175,-7"/>
<text text-anchor="start" x="178" y="-13.8" font-family="Times,serif" font-size="14.00">L:(nil)</text>
<polygon fill="none" stroke="black" points="226,-7 226,-28 281,-28 281,-7 226,-7"/>
<text text-anchor="start" x="229" y="-13.8" font-family="Times,serif" font-size="14.00">R: (nil)</text>
<polygon fill="none" stroke="black" points="172,-4 172,-54 284,-54 284,-4 172,-4"/>
</g>
<!-- node0x55622f58ba40&#45;&gt;node0x55622f58ba80 -->
<g id="edge3" class="edge">
<title>node0x55622f58ba40:rchild&#45;&gt;node0x55622f58ba80</title>
<path fill="none" stroke="black" stroke-width="2" d="M228,-100C228,-89.81 228,-78.78 228,-68.56"/>
<polygon fill="black" stroke="black" stroke-width="2" points="228,-58.27 232.5,-68.27 228.5,-63.27 228.5,-68.27 228,-68.27 227.5,-68.27 227.5,-63.27 223.5,-68.27 228,-58.27 228,-58.27"/>
</g>
<!-- node0x55622f58bb80 -->
<g id="node5" class="node">
<title>node0x55622f58bb80</title>
<polygon fill="pink" stroke="transparent" points="252,-312 252,-333 542,-333 542,-312 252,-312"/>
<polygon fill="none" stroke="black" points="252,-312 252,-333 542,-333 542,-312 252,-312"/>
<text text-anchor="start" x="358" y="-318.8" font-family="Times,serif" font-size="14.00"> statement</text>
<polygon fill="none" stroke="black" points="252,-289 252,-310 392,-310 392,-289 252,-289"/>
<text text-anchor="start" x="255" y="-295.8" font-family="Times,serif" font-size="14.00">L:0x55622f58bbc0</text>
<polygon fill="none" stroke="black" points="394,-289 394,-310 542,-310 542,-289 394,-289"/>
<text text-anchor="start" x="397" y="-295.8" font-family="Times,serif" font-size="14.00">R: 0x55622f58b940</text>
<polygon fill="none" stroke="black" points="249,-286 249,-336 545,-336 545,-286 249,-286"/>
</g>
<!-- node0x55622f58bb80&#45;&gt;node0x55622f58bbc0 -->
<g id="edge4" class="edge">
<title>node0x55622f58bb80:lchild&#45;&gt;node0x55622f58bbc0</title>
<path fill="none" stroke="black" stroke-width="2" d="M251,-299C221.4,-299 196.35,-275.95 179.42,-254.45"/>
<polygon fill="black" stroke="black" stroke-width="2" points="173.33,-246.33 182.93,-251.63 176.73,-250.03 179.73,-254.03 179.33,-254.33 178.93,-254.63 175.93,-250.63 175.73,-257.03 173.33,-246.33 173.33,-246.33"/>
</g>
<!-- node0x55622f58b940 -->
<g id="node6" class="node">
<title>node0x55622f58b940</title>
<polygon fill="#9acd32" stroke="transparent" points="322,-218 322,-239 614,-239 614,-218 322,-218"/>
<polygon fill="none" stroke="black" points="322,-218 322,-239 614,-239 614,-218 322,-218"/>
<text text-anchor="start" x="459.5" y="-224.8" font-family="Times,serif" font-size="14.00"> =</text>
<polygon fill="none" stroke="black" points="322,-195 322,-216 464,-216 464,-195 322,-195"/>
<text text-anchor="start" x="325" y="-201.8" font-family="Times,serif" font-size="14.00">L:0x55622f58b900</text>
<polygon fill="none" stroke="black" points="466,-195 466,-216 614,-216 614,-195 466,-195"/>
<text text-anchor="start" x="469" y="-201.8" font-family="Times,serif" font-size="14.00">R: 0x55622f58b980</text>
<polygon fill="none" stroke="black" points="319,-192 319,-242 617,-242 617,-192 319,-192"/>
</g>
<!-- node0x55622f58bb80&#45;&gt;node0x55622f58b940 -->
<g id="edge5" class="edge">
<title>node0x55622f58bb80:rchild&#45;&gt;node0x55622f58b940</title>
<path fill="none" stroke="black" stroke-width="2" d="M468,-288C468,-277.81 468,-266.78 468,-256.56"/>
<polygon fill="black" stroke="black" stroke-width="2" points="468,-246.27 472.5,-256.27 468.5,-251.27 468.5,-256.27 468,-256.27 467.5,-256.27 467.5,-251.27 463.5,-256.27 468,-246.27 468,-246.27"/>
</g>
<!-- node0x55622f58b900 -->
<g id="node7" class="node">
<title>node0x55622f58b900</title>
<polygon fill="orchid" stroke="transparent" points="341,-124 341,-145 447,-145 447,-124 341,-124"/>
<polygon fill="none" stroke="black" points="341,-124 341,-145 447,-145 447,-124 341,-124"/>
<text text-anchor="start" x="387" y="-130.8" font-family="Times,serif" font-size="14.00"> b</text>
<polygon fill="none" stroke="black" points="341,-101 341,-122 390,-122 390,-101 341,-101"/>
<text text-anchor="start" x="344" y="-107.8" font-family="Times,serif" font-size="14.00">L:(nil)</text>
<polygon fill="none" stroke="black" points="392,-101 392,-122 447,-122 447,-101 392,-101"/>
<text text-anchor="start" x="395" y="-107.8" font-family="Times,serif" font-size="14.00">R: (nil)</text>
<polygon fill="none" stroke="black" points="338,-98 338,-148 450,-148 450,-98 338,-98"/>
</g>
<!-- node0x55622f58b940&#45;&gt;node0x55622f58b900 -->
<g id="edge6" class="edge">
<title>node0x55622f58b940:lchild&#45;&gt;node0x55622f58b900</title>
<path fill="none" stroke="black" stroke-width="2" d="M393,-194C393,-183.81 393.11,-172.78 393.25,-162.56"/>
<polygon fill="black" stroke="black" stroke-width="2" points="393.41,-152.27 397.76,-162.34 393.83,-157.28 393.76,-162.27 393.26,-162.27 392.76,-162.26 392.83,-157.26 388.76,-162.2 393.41,-152.27 393.41,-152.27"/>
</g>
<!-- node0x55622f58b980 -->
<g id="node8" class="node">
<title>node0x55622f58b980</title>
<polygon fill="lightskyblue" stroke="transparent" points="487,-124 487,-145 593,-145 593,-124 487,-124"/>
<polygon fill="none" stroke="black" points="487,-124 487,-145 593,-145 593,-124 487,-124"/>
<text text-anchor="start" x="535" y="-130.8" font-family="Times,serif" font-size="14.00">2</text>
<polygon fill="none" stroke="black" points="487,-101 487,-122 536,-122 536,-101 487,-101"/>
<text text-anchor="start" x="490" y="-107.8" font-family="Times,serif" font-size="14.00">L:(nil)</text>
<polygon fill="none" stroke="black" points="538,-101 538,-122 593,-122 593,-101 538,-101"/>
<text text-anchor="start" x="541" y="-107.8" font-family="Times,serif" font-size="14.00">R: (nil)</text>
<polygon fill="none" stroke="black" points="484,-98 484,-148 596,-148 596,-98 484,-98"/>
</g>
<!-- node0x55622f58b940&#45;&gt;node0x55622f58b980 -->
<g id="edge7" class="edge">
<title>node0x55622f58b940:rchild&#45;&gt;node0x55622f58b980</title>
<path fill="none" stroke="black" stroke-width="2" d="M540,-194C540,-183.81 540,-172.78 540,-162.56"/>
<polygon fill="black" stroke="black" stroke-width="2" points="540,-152.27 544.5,-162.27 540.5,-157.27 540.5,-162.27 540,-162.27 539.5,-162.27 539.5,-157.27 535.5,-162.27 540,-152.27 540,-152.27"/>
</g>
<!-- node0x55622f58bb40 -->
<g id="node9" class="node">
<title>node0x55622f58bb40</title>
<polygon fill="pink" stroke="transparent" points="444,-406 444,-427 736,-427 736,-406 444,-406"/>
<polygon fill="none" stroke="black" points="444,-406 444,-427 736,-427 736,-406 444,-406"/>
<text text-anchor="start" x="551" y="-412.8" font-family="Times,serif" font-size="14.00"> statement</text>
<polygon fill="none" stroke="black" points="444,-383 444,-404 586,-404 586,-383 444,-383"/>
<text text-anchor="start" x="447" y="-389.8" font-family="Times,serif" font-size="14.00">L:0x55622f58bb80</text>
<polygon fill="none" stroke="black" points="588,-383 588,-404 736,-404 736,-383 588,-383"/>
<text text-anchor="start" x="591" y="-389.8" font-family="Times,serif" font-size="14.00">R: 0x55622f58b840</text>
<polygon fill="none" stroke="black" points="441,-380 441,-430 739,-430 739,-380 441,-380"/>
</g>
<!-- node0x55622f58bb40&#45;&gt;node0x55622f58bb80 -->
<g id="edge8" class="edge">
<title>node0x55622f58bb40:lchild&#45;&gt;node0x55622f58bb80</title>
<path fill="none" stroke="black" stroke-width="2" d="M443,-393C421.5,-393 409.93,-371.16 403.76,-350.15"/>
<polygon fill="black" stroke="black" stroke-width="2" points="401.23,-340.33 408.09,-348.89 402.96,-345.05 404.21,-349.89 403.73,-350.01 403.24,-350.14 401.99,-345.3 399.37,-351.14 401.23,-340.33 401.23,-340.33"/>
</g>
<!-- node0x55622f58b840 -->
<g id="node10" class="node">
<title>node0x55622f58b840</title>
<polygon fill="#9acd32" stroke="transparent" points="635,-312 635,-333 927,-333 927,-312 635,-312"/>
<polygon fill="none" stroke="black" points="635,-312 635,-333 927,-333 927,-312 635,-312"/>
<text text-anchor="start" x="772.5" y="-318.8" font-family="Times,serif" font-size="14.00"> =</text>
<polygon fill="none" stroke="black" points="635,-289 635,-310 777,-310 777,-289 635,-289"/>
<text text-anchor="start" x="638" y="-295.8" font-family="Times,serif" font-size="14.00">L:0x55622f58b800</text>
<polygon fill="none" stroke="black" points="779,-289 779,-310 927,-310 927,-289 779,-289"/>
<text text-anchor="start" x="782" y="-295.8" font-family="Times,serif" font-size="14.00">R: 0x55622f58b880</text>
<polygon fill="none" stroke="black" points="632,-286 632,-336 930,-336 930,-286 632,-286"/>
</g>
<!-- node0x55622f58bb40&#45;&gt;node0x55622f58b840 -->
<g id="edge9" class="edge">
<title>node0x55622f58bb40:rchild&#45;&gt;node0x55622f58b840</title>
<path fill="none" stroke="black" stroke-width="2" d="M737,-393C758.28,-393 769.32,-371.16 775.02,-350.15"/>
<polygon fill="black" stroke="black" stroke-width="2" points="777.35,-340.33 779.42,-351.1 776.68,-345.31 775.53,-350.18 775.04,-350.06 774.56,-349.95 775.71,-345.08 770.67,-349.02 777.35,-340.33 777.35,-340.33"/>
</g>
<!-- node0x55622f58b800 -->
<g id="node11" class="node">
<title>node0x55622f58b800</title>
<polygon fill="orchid" stroke="transparent" points="654,-218 654,-239 760,-239 760,-218 654,-218"/>
<polygon fill="none" stroke="black" points="654,-218 654,-239 760,-239 760,-218 654,-218"/>
<text text-anchor="start" x="700.5" y="-224.8" font-family="Times,serif" font-size="14.00"> a</text>
<polygon fill="none" stroke="black" points="654,-195 654,-216 703,-216 703,-195 654,-195"/>
<text text-anchor="start" x="657" y="-201.8" font-family="Times,serif" font-size="14.00">L:(nil)</text>
<polygon fill="none" stroke="black" points="705,-195 705,-216 760,-216 760,-195 705,-195"/>
<text text-anchor="start" x="708" y="-201.8" font-family="Times,serif" font-size="14.00">R: (nil)</text>
<polygon fill="none" stroke="black" points="651,-192 651,-242 763,-242 763,-192 651,-192"/>
</g>
<!-- node0x55622f58b840&#45;&gt;node0x55622f58b800 -->
<g id="edge10" class="edge">
<title>node0x55622f58b840:lchild&#45;&gt;node0x55622f58b800</title>
<path fill="none" stroke="black" stroke-width="2" d="M706,-288C706,-277.81 706.11,-266.78 706.25,-256.56"/>
<polygon fill="black" stroke="black" stroke-width="2" points="706.41,-246.27 710.76,-256.34 706.83,-251.28 706.76,-256.27 706.26,-256.27 705.76,-256.26 705.83,-251.26 701.76,-256.2 706.41,-246.27 706.41,-246.27"/>
</g>
<!-- node0x55622f58b880 -->
<g id="node12" class="node">
<title>node0x55622f58b880</title>
<polygon fill="lightskyblue" stroke="transparent" points="800,-218 800,-239 906,-239 906,-218 800,-218"/>
<polygon fill="none" stroke="black" points="800,-218 800,-239 906,-239 906,-218 800,-218"/>
<text text-anchor="start" x="848" y="-224.8" font-family="Times,serif" font-size="14.00">1</text>
<polygon fill="none" stroke="black" points="800,-195 800,-216 849,-216 849,-195 800,-195"/>
<text text-anchor="start" x="803" y="-201.8" font-family="Times,serif" font-size="14.00">L:(nil)</text>
<polygon fill="none" stroke="black" points="851,-195 851,-216 906,-216 906,-195 851,-195"/>
<text text-anchor="start" x="854" y="-201.8" font-family="Times,serif" font-size="14.00">R: (nil)</text>
<polygon fill="none" stroke="black" points="797,-192 797,-242 909,-242 909,-192 797,-192"/>
</g>
<!-- node0x55622f58b840&#45;&gt;node0x55622f58b880 -->
<g id="edge11" class="edge">
<title>node0x55622f58b840:rchild&#45;&gt;node0x55622f58b880</title>
<path fill="none" stroke="black" stroke-width="2" d="M853,-288C853,-277.81 853,-266.78 853,-256.56"/>
<polygon fill="black" stroke="black" stroke-width="2" points="853,-246.27 857.5,-256.27 853.5,-251.27 853.5,-256.27 853,-256.27 852.5,-256.27 852.5,-251.27 848.5,-256.27 853,-246.27 853,-246.27"/>
</g>
</g>
</svg>
