<?xml version="1.0" encoding="UTF-8" standalone="no"?>
<!DOCTYPE svg PUBLIC "-//W3C//DTD SVG 1.1//EN"
 "http://www.w3.org/Graphics/SVG/1.1/DTD/svg11.dtd">
<!-- Generated by graphviz version 2.43.0 (0)
 -->
<!-- Title: dump_graph Pages: 1 -->
<svg width="768pt" height="630pt"
 viewBox="0.00 0.00 768.00 630.00" xmlns="http://www.w3.org/2000/svg" xmlns:xlink="http://www.w3.org/1999/xlink">
<g id="graph0" class="graph" transform="scale(1 1) rotate(0) translate(4 626)">
<title>dump_graph</title>
<polygon fill="white" stroke="transparent" points="-4,4 -4,-626 764,-626 764,4 -4,4"/>
<!-- node0x55f1a4155130 -->
<g id="node1" class="node">
<title>node0x55f1a4155130</title>
<polygon fill="pink" stroke="transparent" points="197,-500 197,-521 393,-521 393,-500 197,-500"/>
<polygon fill="none" stroke="black" points="197,-500 197,-521 393,-521 393,-500 197,-500"/>
<text text-anchor="start" x="256" y="-506.8" font-family="Times,serif" font-size="14.00"> statement</text>
<polygon fill="none" stroke="black" points="197,-477 197,-498 246,-498 246,-477 197,-477"/>
<text text-anchor="start" x="200" y="-483.8" font-family="Times,serif" font-size="14.00">L:(nil)</text>
<polygon fill="none" stroke="black" points="248,-477 248,-498 393,-498 393,-477 248,-477"/>
<text text-anchor="start" x="251" y="-483.8" font-family="Times,serif" font-size="14.00">R: 0x55f1a4154c30</text>
<polygon fill="none" stroke="black" points="194,-474 194,-524 396,-524 396,-474 194,-474"/>
</g>
<!-- node0x55f1a4154c30 -->
<g id="node2" class="node">
<title>node0x55f1a4154c30</title>
<polygon fill="#cd4f39" stroke="transparent" points="151,-406 151,-427 437,-427 437,-406 151,-406"/>
<polygon fill="none" stroke="black" points="151,-406 151,-427 437,-427 437,-406 151,-406"/>
<text text-anchor="start" x="272.5" y="-412.8" font-family="Times,serif" font-size="14.00"> while</text>
<polygon fill="none" stroke="black" points="151,-383 151,-404 288,-404 288,-383 151,-383"/>
<text text-anchor="start" x="154" y="-389.8" font-family="Times,serif" font-size="14.00">L:0x55f1a4154f70</text>
<polygon fill="none" stroke="black" points="290,-383 290,-404 437,-404 437,-383 290,-383"/>
<text text-anchor="start" x="293" y="-389.8" font-family="Times,serif" font-size="14.00">R: 0x55f1a4155170</text>
<polygon fill="none" stroke="black" points="148,-380 148,-430 440,-430 440,-380 148,-380"/>
</g>
<!-- node0x55f1a4155130&#45;&gt;node0x55f1a4154c30 -->
<g id="edge1" class="edge">
<title>node0x55f1a4155130:rchild&#45;&gt;node0x55f1a4154c30</title>
<path fill="none" stroke="black" stroke-width="2" d="M321,-476C321,-465.04 318.08,-453.73 314.17,-443.48"/>
<polygon fill="black" stroke="black" stroke-width="2" points="310.17,-434.02 318.21,-441.48 312.58,-438.43 314.53,-443.03 314.07,-443.23 313.61,-443.42 311.66,-438.82 309.92,-444.98 310.17,-434.02 310.17,-434.02"/>
</g>
<!-- node0x55f1a4154f70 -->
<g id="node4" class="node">
<title>node0x55f1a4154f70</title>
<polygon fill="orchid" stroke="transparent" points="11,-312 11,-333 293,-333 293,-312 11,-312"/>
<polygon fill="none" stroke="black" points="11,-312 11,-333 293,-333 293,-312 11,-312"/>
<text text-anchor="start" x="145" y="-318.8" font-family="Times,serif" font-size="14.00"> L</text>
<polygon fill="none" stroke="black" points="11,-289 11,-310 148,-310 148,-289 11,-289"/>
<text text-anchor="start" x="14" y="-295.8" font-family="Times,serif" font-size="14.00">L:0x55f1a4154f30</text>
<polygon fill="none" stroke="black" points="150,-289 150,-310 293,-310 293,-289 150,-289"/>
<text text-anchor="start" x="153" y="-295.8" font-family="Times,serif" font-size="14.00">R: 0x55f1a4154fb0</text>
<polygon fill="none" stroke="black" points="8,-286 8,-336 296,-336 296,-286 8,-286"/>
</g>
<!-- node0x55f1a4154c30&#45;&gt;node0x55f1a4154f70 -->
<g id="edge4" class="edge">
<title>node0x55f1a4154c30:lchild&#45;&gt;node0x55f1a4154f70</title>
<path fill="none" stroke="black" stroke-width="2" d="M150,-393C131.3,-393 132.56,-371.16 138.09,-350.15"/>
<polygon fill="black" stroke="black" stroke-width="2" points="140.98,-340.33 142.48,-351.19 140.05,-345.27 138.64,-350.06 138.16,-349.92 137.68,-349.78 139.09,-344.99 133.85,-348.65 140.98,-340.33 140.98,-340.33"/>
</g>
<!-- node0x55f1a4155170 -->
<g id="node6" class="node">
<title>node0x55f1a4155170</title>
<polygon fill="pink" stroke="transparent" points="335,-312 335,-333 528,-333 528,-312 335,-312"/>
<polygon fill="none" stroke="black" points="335,-312 335,-333 528,-333 528,-312 335,-312"/>
<text text-anchor="start" x="392.5" y="-318.8" font-family="Times,serif" font-size="14.00"> statement</text>
<polygon fill="none" stroke="black" points="335,-289 335,-310 384,-310 384,-289 335,-289"/>
<text text-anchor="start" x="338" y="-295.8" font-family="Times,serif" font-size="14.00">L:(nil)</text>
<polygon fill="none" stroke="black" points="386,-289 386,-310 528,-310 528,-289 386,-289"/>
<text text-anchor="start" x="389" y="-295.8" font-family="Times,serif" font-size="14.00">R: 0x55f1a4154cf0</text>
<polygon fill="none" stroke="black" points="331.5,-286 331.5,-336 530.5,-336 530.5,-286 331.5,-286"/>
</g>
<!-- node0x55f1a4154c30&#45;&gt;node0x55f1a4155170 -->
<g id="edge5" class="edge">
<title>node0x55f1a4154c30:rchild&#45;&gt;node0x55f1a4155170</title>
<path fill="none" stroke="black" stroke-width="2" d="M438,-393C456.85,-393 454.13,-370.96 447.21,-349.87"/>
<polygon fill="black" stroke="black" stroke-width="2" points="443.8,-340.33 451.4,-348.23 445.95,-344.87 447.64,-349.58 447.17,-349.75 446.7,-349.91 445.01,-345.21 442.93,-351.26 443.8,-340.33 443.8,-340.33"/>
</g>
<!-- node0x55f1a4154f30 -->
<g id="node3" class="node">
<title>node0x55f1a4154f30</title>
<polygon fill="orchid" stroke="transparent" points="23,-218 23,-239 129,-239 129,-218 23,-218"/>
<polygon fill="none" stroke="black" points="23,-218 23,-239 129,-239 129,-218 23,-218"/>
<text text-anchor="start" x="69.5" y="-224.8" font-family="Times,serif" font-size="14.00"> x</text>
<polygon fill="none" stroke="black" points="23,-195 23,-216 72,-216 72,-195 23,-195"/>
<text text-anchor="start" x="26" y="-201.8" font-family="Times,serif" font-size="14.00">L:(nil)</text>
<polygon fill="none" stroke="black" points="74,-195 74,-216 129,-216 129,-195 74,-195"/>
<text text-anchor="start" x="77" y="-201.8" font-family="Times,serif" font-size="14.00">R: (nil)</text>
<polygon fill="none" stroke="black" points="20,-192 20,-242 132,-242 132,-192 20,-192"/>
</g>
<!-- node0x55f1a4154f70&#45;&gt;node0x55f1a4154f30 -->
<g id="edge2" class="edge">
<title>node0x55f1a4154f70:lchild&#45;&gt;node0x55f1a4154f30</title>
<path fill="none" stroke="black" stroke-width="2" d="M79,-288C79,-277.8 78.68,-266.77 78.25,-256.55"/>
<polygon fill="black" stroke="black" stroke-width="2" points="77.76,-246.26 82.73,-256.04 78.5,-251.23 78.73,-256.22 78.23,-256.25 77.73,-256.27 77.5,-251.28 73.74,-256.46 77.76,-246.26 77.76,-246.26"/>
</g>
<!-- node0x55f1a4154fb0 -->
<g id="node5" class="node">
<title>node0x55f1a4154fb0</title>
<polygon fill="lightskyblue" stroke="transparent" points="169,-218 169,-239 275,-239 275,-218 169,-218"/>
<polygon fill="none" stroke="black" points="169,-218 169,-239 275,-239 275,-218 169,-218"/>
<text text-anchor="start" x="208" y="-224.8" font-family="Times,serif" font-size="14.00">255</text>
<polygon fill="none" stroke="black" points="169,-195 169,-216 218,-216 218,-195 169,-195"/>
<text text-anchor="start" x="172" y="-201.8" font-family="Times,serif" font-size="14.00">L:(nil)</text>
<polygon fill="none" stroke="black" points="220,-195 220,-216 275,-216 275,-195 220,-195"/>
<text text-anchor="start" x="223" y="-201.8" font-family="Times,serif" font-size="14.00">R: (nil)</text>
<polygon fill="none" stroke="black" points="166,-192 166,-242 278,-242 278,-192 166,-192"/>
</g>
<!-- node0x55f1a4154f70&#45;&gt;node0x55f1a4154fb0 -->
<g id="edge3" class="edge">
<title>node0x55f1a4154f70:rchild&#45;&gt;node0x55f1a4154fb0</title>
<path fill="none" stroke="black" stroke-width="2" d="M222,-288C222,-277.81 222,-266.78 222,-256.56"/>
<polygon fill="black" stroke="black" stroke-width="2" points="222,-246.27 226.5,-256.27 222.5,-251.27 222.5,-256.27 222,-256.27 221.5,-256.27 221.5,-251.27 217.5,-256.27 222,-246.27 222,-246.27"/>
</g>
<!-- node0x55f1a4154cf0 -->
<g id="node7" class="node">
<title>node0x55f1a4154cf0</title>
<polygon fill="#9acd32" stroke="transparent" points="315,-218 315,-239 603,-239 603,-218 315,-218"/>
<polygon fill="none" stroke="black" points="315,-218 315,-239 603,-239 603,-218 315,-218"/>
<text text-anchor="start" x="450.5" y="-224.8" font-family="Times,serif" font-size="14.00"> =</text>
<polygon fill="none" stroke="black" points="315,-195 315,-216 454,-216 454,-195 315,-195"/>
<text text-anchor="start" x="318" y="-201.8" font-family="Times,serif" font-size="14.00">L:0x55f1a4154cb0</text>
<polygon fill="none" stroke="black" points="456,-195 456,-216 603,-216 603,-195 456,-195"/>
<text text-anchor="start" x="459" y="-201.8" font-family="Times,serif" font-size="14.00">R: 0x55f1a4154d70</text>
<polygon fill="none" stroke="black" points="312,-192 312,-242 606,-242 606,-192 312,-192"/>
</g>
<!-- node0x55f1a4155170&#45;&gt;node0x55f1a4154cf0 -->
<g id="edge6" class="edge">
<title>node0x55f1a4155170:rchild&#45;&gt;node0x55f1a4154cf0</title>
<path fill="none" stroke="black" stroke-width="2" d="M457,-288C457,-277.8 457.21,-266.78 457.5,-256.55"/>
<polygon fill="black" stroke="black" stroke-width="2" points="457.83,-246.26 462.01,-256.4 458.17,-251.28 458.01,-256.27 457.51,-256.26 457.01,-256.24 457.17,-251.25 453.01,-256.12 457.83,-246.26 457.83,-246.26"/>
</g>
<!-- node0x55f1a4154cb0 -->
<g id="node8" class="node">
<title>node0x55f1a4154cb0</title>
<polygon fill="orchid" stroke="transparent" points="285,-124 285,-145 391,-145 391,-124 285,-124"/>
<polygon fill="none" stroke="black" points="285,-124 285,-145 391,-145 391,-124 285,-124"/>
<text text-anchor="start" x="331.5" y="-130.8" font-family="Times,serif" font-size="14.00"> x</text>
<polygon fill="none" stroke="black" points="285,-101 285,-122 334,-122 334,-101 285,-101"/>
<text text-anchor="start" x="288" y="-107.8" font-family="Times,serif" font-size="14.00">L:(nil)</text>
<polygon fill="none" stroke="black" points="336,-101 336,-122 391,-122 391,-101 336,-101"/>
<text text-anchor="start" x="339" y="-107.8" font-family="Times,serif" font-size="14.00">R: (nil)</text>
<polygon fill="none" stroke="black" points="282,-98 282,-148 394,-148 394,-98 282,-98"/>
</g>
<!-- node0x55f1a4154cf0&#45;&gt;node0x55f1a4154cb0 -->
<g id="edge7" class="edge">
<title>node0x55f1a4154cf0:lchild&#45;&gt;node0x55f1a4154cb0</title>
<path fill="none" stroke="black" stroke-width="2" d="M384,-194C384,-181.96 379.19,-170.38 372.67,-160.23"/>
<polygon fill="black" stroke="black" stroke-width="2" points="366.87,-152.06 376.33,-157.61 370.17,-155.85 373.07,-159.92 372.66,-160.21 372.25,-160.5 369.36,-156.42 368.99,-162.82 366.87,-152.06 366.87,-152.06"/>
</g>
<!-- node0x55f1a4154d70 -->
<g id="node9" class="node">
<title>node0x55f1a4154d70</title>
<polygon fill="#9acd32" stroke="transparent" points="431,-124 431,-145 721,-145 721,-124 431,-124"/>
<polygon fill="none" stroke="black" points="431,-124 431,-145 721,-145 721,-124 431,-124"/>
<text text-anchor="start" x="567.5" y="-130.8" font-family="Times,serif" font-size="14.00"> +</text>
<polygon fill="none" stroke="black" points="431,-101 431,-122 572,-122 572,-101 431,-101"/>
<text text-anchor="start" x="434" y="-107.8" font-family="Times,serif" font-size="14.00">L:0x55f1a4154d30</text>
<polygon fill="none" stroke="black" points="574,-101 574,-122 721,-122 721,-101 574,-101"/>
<text text-anchor="start" x="577" y="-107.8" font-family="Times,serif" font-size="14.00">R: 0x55f1a4154db0</text>
<polygon fill="none" stroke="black" points="428,-98 428,-148 724,-148 724,-98 428,-98"/>
</g>
<!-- node0x55f1a4154cf0&#45;&gt;node0x55f1a4154d70 -->
<g id="edge8" class="edge">
<title>node0x55f1a4154cf0:rchild&#45;&gt;node0x55f1a4154d70</title>
<path fill="none" stroke="black" stroke-width="2" d="M530,-194C530,-181.96 534.81,-170.38 541.33,-160.23"/>
<polygon fill="black" stroke="black" stroke-width="2" points="547.13,-152.06 545.01,-162.82 544.64,-156.42 541.75,-160.5 541.34,-160.21 540.93,-159.92 543.83,-155.85 537.67,-157.61 547.13,-152.06 547.13,-152.06"/>
</g>
<!-- node0x55f1a4154d30 -->
<g id="node10" class="node">
<title>node0x55f1a4154d30</title>
<polygon fill="orchid" stroke="transparent" points="448,-30 448,-51 554,-51 554,-30 448,-30"/>
<polygon fill="none" stroke="black" points="448,-30 448,-51 554,-51 554,-30 448,-30"/>
<text text-anchor="start" x="494.5" y="-36.8" font-family="Times,serif" font-size="14.00"> x</text>
<polygon fill="none" stroke="black" points="448,-7 448,-28 497,-28 497,-7 448,-7"/>
<text text-anchor="start" x="451" y="-13.8" font-family="Times,serif" font-size="14.00">L:(nil)</text>
<polygon fill="none" stroke="black" points="499,-7 499,-28 554,-28 554,-7 499,-7"/>
<text text-anchor="start" x="502" y="-13.8" font-family="Times,serif" font-size="14.00">R: (nil)</text>
<polygon fill="none" stroke="black" points="445,-4 445,-54 557,-54 557,-4 445,-4"/>
</g>
<!-- node0x55f1a4154d70&#45;&gt;node0x55f1a4154d30 -->
<g id="edge9" class="edge">
<title>node0x55f1a4154d70:lchild&#45;&gt;node0x55f1a4154d30</title>
<path fill="none" stroke="black" stroke-width="2" d="M501,-100C501,-89.81 501,-78.78 501,-68.56"/>
<polygon fill="black" stroke="black" stroke-width="2" points="501,-58.27 505.5,-68.27 501.5,-63.27 501.5,-68.27 501,-68.27 500.5,-68.27 500.5,-63.27 496.5,-68.27 501,-58.27 501,-58.27"/>
</g>
<!-- node0x55f1a4154db0 -->
<g id="node11" class="node">
<title>node0x55f1a4154db0</title>
<polygon fill="lightskyblue" stroke="transparent" points="595,-30 595,-51 701,-51 701,-30 595,-30"/>
<polygon fill="none" stroke="black" points="595,-30 595,-51 701,-51 701,-30 595,-30"/>
<text text-anchor="start" x="643" y="-36.8" font-family="Times,serif" font-size="14.00">1</text>
<polygon fill="none" stroke="black" points="595,-7 595,-28 644,-28 644,-7 595,-7"/>
<text text-anchor="start" x="598" y="-13.8" font-family="Times,serif" font-size="14.00">L:(nil)</text>
<polygon fill="none" stroke="black" points="646,-7 646,-28 701,-28 701,-7 646,-7"/>
<text text-anchor="start" x="649" y="-13.8" font-family="Times,serif" font-size="14.00">R: (nil)</text>
<polygon fill="none" stroke="black" points="592,-4 592,-54 704,-54 704,-4 592,-4"/>
</g>
<!-- node0x55f1a4154d70&#45;&gt;node0x55f1a4154db0 -->
<g id="edge10" class="edge">
<title>node0x55f1a4154d70:rchild&#45;&gt;node0x55f1a4154db0</title>
<path fill="none" stroke="black" stroke-width="2" d="M648,-100C648,-89.81 648,-78.78 648,-68.56"/>
<polygon fill="black" stroke="black" stroke-width="2" points="648,-58.27 652.5,-68.27 648.5,-63.27 648.5,-68.27 648,-68.27 647.5,-68.27 647.5,-63.27 643.5,-68.27 648,-58.27 648,-58.27"/>
</g>
<!-- node0x55f1a41550f0 -->
<g id="node12" class="node">
<title>node0x55f1a41550f0</title>
<polygon fill="pink" stroke="transparent" points="293,-594 293,-615 583,-615 583,-594 293,-594"/>
<polygon fill="none" stroke="black" points="293,-594 293,-615 583,-615 583,-594 293,-594"/>
<text text-anchor="start" x="399" y="-600.8" font-family="Times,serif" font-size="14.00"> statement</text>
<polygon fill="none" stroke="black" points="293,-571 293,-592 434,-592 434,-571 293,-571"/>
<text text-anchor="start" x="296" y="-577.8" font-family="Times,serif" font-size="14.00">L:0x55f1a4155130</text>
<polygon fill="none" stroke="black" points="436,-571 436,-592 583,-592 583,-571 436,-571"/>
<text text-anchor="start" x="439" y="-577.8" font-family="Times,serif" font-size="14.00">R: 0x55f1a4154b70</text>
<polygon fill="none" stroke="black" points="290,-568 290,-618 586,-618 586,-568 290,-568"/>
</g>
<!-- node0x55f1a41550f0&#45;&gt;node0x55f1a4155130 -->
<g id="edge11" class="edge">
<title>node0x55f1a41550f0:lchild&#45;&gt;node0x55f1a4155130</title>
<path fill="none" stroke="black" stroke-width="2" d="M292,-581C273.29,-581 274.82,-559.16 280.62,-538.15"/>
<polygon fill="black" stroke="black" stroke-width="2" points="283.63,-528.33 285,-539.21 282.64,-533.26 281.18,-538.04 280.7,-537.89 280.22,-537.74 281.69,-532.96 276.4,-536.57 283.63,-528.33 283.63,-528.33"/>
</g>
<!-- node0x55f1a4154b70 -->
<g id="node13" class="node">
<title>node0x55f1a4154b70</title>
<polygon fill="#9acd32" stroke="transparent" points="459,-500 459,-521 749,-521 749,-500 459,-500"/>
<polygon fill="none" stroke="black" points="459,-500 459,-521 749,-521 749,-500 459,-500"/>
<text text-anchor="start" x="595.5" y="-506.8" font-family="Times,serif" font-size="14.00"> =</text>
<polygon fill="none" stroke="black" points="459,-477 459,-498 600,-498 600,-477 459,-477"/>
<text text-anchor="start" x="462" y="-483.8" font-family="Times,serif" font-size="14.00">L:0x55f1a4154b30</text>
<polygon fill="none" stroke="black" points="602,-477 602,-498 749,-498 749,-477 602,-477"/>
<text text-anchor="start" x="605" y="-483.8" font-family="Times,serif" font-size="14.00">R: 0x55f1a4154bb0</text>
<polygon fill="none" stroke="black" points="456,-474 456,-524 752,-524 752,-474 456,-474"/>
</g>
<!-- node0x55f1a41550f0&#45;&gt;node0x55f1a4154b70 -->
<g id="edge12" class="edge">
<title>node0x55f1a41550f0:rchild&#45;&gt;node0x55f1a4154b70</title>
<path fill="none" stroke="black" stroke-width="2" d="M584,-581C603.17,-581 607.86,-559.35 607.93,-538.44"/>
<polygon fill="black" stroke="black" stroke-width="2" points="607.63,-528.33 612.42,-538.19 608.28,-533.31 608.42,-538.31 607.92,-538.33 607.42,-538.34 607.28,-533.34 603.43,-538.46 607.63,-528.33 607.63,-528.33"/>
</g>
<!-- node0x55f1a4154b30 -->
<g id="node14" class="node">
<title>node0x55f1a4154b30</title>
<polygon fill="orchid" stroke="transparent" points="477,-406 477,-427 583,-427 583,-406 477,-406"/>
<polygon fill="none" stroke="black" points="477,-406 477,-427 583,-427 583,-406 477,-406"/>
<text text-anchor="start" x="523.5" y="-412.8" font-family="Times,serif" font-size="14.00"> x</text>
<polygon fill="none" stroke="black" points="477,-383 477,-404 526,-404 526,-383 477,-383"/>
<text text-anchor="start" x="480" y="-389.8" font-family="Times,serif" font-size="14.00">L:(nil)</text>
<polygon fill="none" stroke="black" points="528,-383 528,-404 583,-404 583,-383 528,-383"/>
<text text-anchor="start" x="531" y="-389.8" font-family="Times,serif" font-size="14.00">R: (nil)</text>
<polygon fill="none" stroke="black" points="474,-380 474,-430 586,-430 586,-380 474,-380"/>
</g>
<!-- node0x55f1a4154b70&#45;&gt;node0x55f1a4154b30 -->
<g id="edge13" class="edge">
<title>node0x55f1a4154b70:lchild&#45;&gt;node0x55f1a4154b30</title>
<path fill="none" stroke="black" stroke-width="2" d="M529,-476C529,-465.81 529.11,-454.78 529.25,-444.56"/>
<polygon fill="black" stroke="black" stroke-width="2" points="529.41,-434.27 533.76,-444.34 529.83,-439.28 529.76,-444.27 529.26,-444.27 528.76,-444.26 528.83,-439.26 524.76,-444.2 529.41,-434.27 529.41,-434.27"/>
</g>
<!-- node0x55f1a4154bb0 -->
<g id="node15" class="node">
<title>node0x55f1a4154bb0</title>
<polygon fill="lightskyblue" stroke="transparent" points="623,-406 623,-427 729,-427 729,-406 623,-406"/>
<polygon fill="none" stroke="black" points="623,-406 623,-427 729,-427 729,-406 623,-406"/>
<text text-anchor="start" x="671" y="-412.8" font-family="Times,serif" font-size="14.00">0</text>
<polygon fill="none" stroke="black" points="623,-383 623,-404 672,-404 672,-383 623,-383"/>
<text text-anchor="start" x="626" y="-389.8" font-family="Times,serif" font-size="14.00">L:(nil)</text>
<polygon fill="none" stroke="black" points="674,-383 674,-404 729,-404 729,-383 674,-383"/>
<text text-anchor="start" x="677" y="-389.8" font-family="Times,serif" font-size="14.00">R: (nil)</text>
<polygon fill="none" stroke="black" points="620,-380 620,-430 732,-430 732,-380 620,-380"/>
</g>
<!-- node0x55f1a4154b70&#45;&gt;node0x55f1a4154bb0 -->
<g id="edge14" class="edge">
<title>node0x55f1a4154b70:rchild&#45;&gt;node0x55f1a4154bb0</title>
<path fill="none" stroke="black" stroke-width="2" d="M676,-476C676,-465.81 676,-454.78 676,-444.56"/>
<polygon fill="black" stroke="black" stroke-width="2" points="676,-434.27 680.5,-444.27 676.5,-439.27 676.5,-444.27 676,-444.27 675.5,-444.27 675.5,-439.27 671.5,-444.27 676,-434.27 676,-434.27"/>
</g>
</g>
</svg>
