<?xml version="1.0" encoding="UTF-8" standalone="no"?>
<!DOCTYPE svg PUBLIC "-//W3C//DTD SVG 1.1//EN"
 "http://www.w3.org/Graphics/SVG/1.1/DTD/svg11.dtd">
<!-- Generated by graphviz version 2.43.0 (0)
 -->
<!-- Title: dump_graph Pages: 1 -->
<svg width="1085pt" height="724pt"
 viewBox="0.00 0.00 1084.50 724.00" xmlns="http://www.w3.org/2000/svg" xmlns:xlink="http://www.w3.org/1999/xlink">
<g id="graph0" class="graph" transform="scale(1 1) rotate(0) translate(4 720)">
<title>dump_graph</title>
<polygon fill="white" stroke="transparent" points="-4,4 -4,-720 1080.5,-720 1080.5,4 -4,4"/>
<!-- node0x559bfa3dd710 -->
<g id="node1" class="node">
<title>node0x559bfa3dd710</title>
<polygon fill="pink" stroke="transparent" points="201,-500 201,-521 399,-521 399,-500 201,-500"/>
<polygon fill="none" stroke="black" points="201,-500 201,-521 399,-521 399,-500 201,-500"/>
<text text-anchor="start" x="261" y="-506.8" font-family="Times,serif" font-size="14.00"> statement</text>
<polygon fill="none" stroke="black" points="201,-477 201,-498 250,-498 250,-477 201,-477"/>
<text text-anchor="start" x="204" y="-483.8" font-family="Times,serif" font-size="14.00">L:(nil)</text>
<polygon fill="none" stroke="black" points="252,-477 252,-498 399,-498 399,-477 252,-477"/>
<text text-anchor="start" x="255" y="-483.8" font-family="Times,serif" font-size="14.00">R: 0x559bfa3dd1d0</text>
<polygon fill="none" stroke="black" points="198,-474 198,-524 402,-524 402,-474 198,-474"/>
</g>
<!-- node0x559bfa3dd1d0 -->
<g id="node2" class="node">
<title>node0x559bfa3dd1d0</title>
<polygon fill="#cd4f39" stroke="transparent" points="154,-406 154,-427 444,-427 444,-406 154,-406"/>
<polygon fill="none" stroke="black" points="154,-406 154,-427 444,-427 444,-406 154,-406"/>
<text text-anchor="start" x="277.5" y="-412.8" font-family="Times,serif" font-size="14.00"> while</text>
<polygon fill="none" stroke="black" points="154,-383 154,-404 295,-404 295,-383 154,-383"/>
<text text-anchor="start" x="157" y="-389.8" font-family="Times,serif" font-size="14.00">L:0x559bfa3dd510</text>
<polygon fill="none" stroke="black" points="297,-383 297,-404 444,-404 444,-383 297,-383"/>
<text text-anchor="start" x="300" y="-389.8" font-family="Times,serif" font-size="14.00">R: 0x559bfa3dd750</text>
<polygon fill="none" stroke="black" points="151,-380 151,-430 447,-430 447,-380 151,-380"/>
</g>
<!-- node0x559bfa3dd710&#45;&gt;node0x559bfa3dd1d0 -->
<g id="edge1" class="edge">
<title>node0x559bfa3dd710:rchild&#45;&gt;node0x559bfa3dd1d0</title>
<path fill="none" stroke="black" stroke-width="2" d="M326,-476C326,-465.04 323.08,-453.73 319.17,-443.48"/>
<polygon fill="black" stroke="black" stroke-width="2" points="315.17,-434.02 323.21,-441.48 317.58,-438.43 319.53,-443.03 319.07,-443.23 318.61,-443.42 316.66,-438.82 314.92,-444.98 315.17,-434.02 315.17,-434.02"/>
</g>
<!-- node0x559bfa3dd510 -->
<g id="node4" class="node">
<title>node0x559bfa3dd510</title>
<polygon fill="orchid" stroke="transparent" points="11,-312 11,-333 301,-333 301,-312 11,-312"/>
<polygon fill="none" stroke="black" points="11,-312 11,-333 301,-333 301,-312 11,-312"/>
<text text-anchor="start" x="149" y="-318.8" font-family="Times,serif" font-size="14.00"> L</text>
<polygon fill="none" stroke="black" points="11,-289 11,-310 152,-310 152,-289 11,-289"/>
<text text-anchor="start" x="14" y="-295.8" font-family="Times,serif" font-size="14.00">L:0x559bfa3dd4d0</text>
<polygon fill="none" stroke="black" points="154,-289 154,-310 301,-310 301,-289 154,-289"/>
<text text-anchor="start" x="157" y="-295.8" font-family="Times,serif" font-size="14.00">R: 0x559bfa3dd550</text>
<polygon fill="none" stroke="black" points="8,-286 8,-336 304,-336 304,-286 8,-286"/>
</g>
<!-- node0x559bfa3dd1d0&#45;&gt;node0x559bfa3dd510 -->
<g id="edge4" class="edge">
<title>node0x559bfa3dd1d0:lchild&#45;&gt;node0x559bfa3dd510</title>
<path fill="none" stroke="black" stroke-width="2" d="M153,-393C134.29,-393 135.82,-371.16 141.62,-350.15"/>
<polygon fill="black" stroke="black" stroke-width="2" points="144.63,-340.33 146,-351.21 143.64,-345.26 142.18,-350.04 141.7,-349.89 141.22,-349.74 142.69,-344.96 137.4,-348.57 144.63,-340.33 144.63,-340.33"/>
</g>
<!-- node0x559bfa3dd750 -->
<g id="node6" class="node">
<title>node0x559bfa3dd750</title>
<polygon fill="pink" stroke="transparent" points="341,-312 341,-333 539,-333 539,-312 341,-312"/>
<polygon fill="none" stroke="black" points="341,-312 341,-333 539,-333 539,-312 341,-312"/>
<text text-anchor="start" x="401" y="-318.8" font-family="Times,serif" font-size="14.00"> statement</text>
<polygon fill="none" stroke="black" points="341,-289 341,-310 390,-310 390,-289 341,-289"/>
<text text-anchor="start" x="344" y="-295.8" font-family="Times,serif" font-size="14.00">L:(nil)</text>
<polygon fill="none" stroke="black" points="392,-289 392,-310 539,-310 539,-289 392,-289"/>
<text text-anchor="start" x="395" y="-295.8" font-family="Times,serif" font-size="14.00">R: 0x559bfa3dd290</text>
<polygon fill="none" stroke="black" points="338,-286 338,-336 542,-336 542,-286 338,-286"/>
</g>
<!-- node0x559bfa3dd1d0&#45;&gt;node0x559bfa3dd750 -->
<g id="edge5" class="edge">
<title>node0x559bfa3dd1d0:rchild&#45;&gt;node0x559bfa3dd750</title>
<path fill="none" stroke="black" stroke-width="2" d="M445,-393C463.82,-393 461.64,-370.96 455.25,-349.87"/>
<polygon fill="black" stroke="black" stroke-width="2" points="452.08,-340.33 459.51,-348.4 454.13,-344.92 455.71,-349.66 455.24,-349.82 454.76,-349.98 453.18,-345.23 450.97,-351.24 452.08,-340.33 452.08,-340.33"/>
</g>
<!-- node0x559bfa3dd4d0 -->
<g id="node3" class="node">
<title>node0x559bfa3dd4d0</title>
<polygon fill="orchid" stroke="transparent" points="28,-218 28,-239 134,-239 134,-218 28,-218"/>
<polygon fill="none" stroke="black" points="28,-218 28,-239 134,-239 134,-218 28,-218"/>
<text text-anchor="start" x="73" y="-224.8" font-family="Times,serif" font-size="14.00"> it</text>
<polygon fill="none" stroke="black" points="28,-195 28,-216 77,-216 77,-195 28,-195"/>
<text text-anchor="start" x="31" y="-201.8" font-family="Times,serif" font-size="14.00">L:(nil)</text>
<polygon fill="none" stroke="black" points="79,-195 79,-216 134,-216 134,-195 79,-195"/>
<text text-anchor="start" x="82" y="-201.8" font-family="Times,serif" font-size="14.00">R: (nil)</text>
<polygon fill="none" stroke="black" points="25,-192 25,-242 137,-242 137,-192 25,-192"/>
</g>
<!-- node0x559bfa3dd510&#45;&gt;node0x559bfa3dd4d0 -->
<g id="edge2" class="edge">
<title>node0x559bfa3dd510:lchild&#45;&gt;node0x559bfa3dd4d0</title>
<path fill="none" stroke="black" stroke-width="2" d="M81,-288C81,-277.81 81,-266.78 81,-256.56"/>
<polygon fill="black" stroke="black" stroke-width="2" points="81,-246.27 85.5,-256.27 81.5,-251.27 81.5,-256.27 81,-256.27 80.5,-256.27 80.5,-251.27 76.5,-256.27 81,-246.27 81,-246.27"/>
</g>
<!-- node0x559bfa3dd550 -->
<g id="node5" class="node">
<title>node0x559bfa3dd550</title>
<polygon fill="lightskyblue" stroke="transparent" points="175,-218 175,-239 281,-239 281,-218 175,-218"/>
<polygon fill="none" stroke="black" points="175,-218 175,-239 281,-239 281,-218 175,-218"/>
<text text-anchor="start" x="204" y="-224.8" font-family="Times,serif" font-size="14.00">8e+06</text>
<polygon fill="none" stroke="black" points="175,-195 175,-216 224,-216 224,-195 175,-195"/>
<text text-anchor="start" x="178" y="-201.8" font-family="Times,serif" font-size="14.00">L:(nil)</text>
<polygon fill="none" stroke="black" points="226,-195 226,-216 281,-216 281,-195 226,-195"/>
<text text-anchor="start" x="229" y="-201.8" font-family="Times,serif" font-size="14.00">R: (nil)</text>
<polygon fill="none" stroke="black" points="172,-192 172,-242 284,-242 284,-192 172,-192"/>
</g>
<!-- node0x559bfa3dd510&#45;&gt;node0x559bfa3dd550 -->
<g id="edge3" class="edge">
<title>node0x559bfa3dd510:rchild&#45;&gt;node0x559bfa3dd550</title>
<path fill="none" stroke="black" stroke-width="2" d="M228,-288C228,-277.81 228,-266.78 228,-256.56"/>
<polygon fill="black" stroke="black" stroke-width="2" points="228,-246.27 232.5,-256.27 228.5,-251.27 228.5,-256.27 228,-256.27 227.5,-256.27 227.5,-251.27 223.5,-256.27 228,-246.27 228,-246.27"/>
</g>
<!-- node0x559bfa3dd290 -->
<g id="node7" class="node">
<title>node0x559bfa3dd290</title>
<polygon fill="#9acd32" stroke="transparent" points="321,-218 321,-239 611,-239 611,-218 321,-218"/>
<polygon fill="none" stroke="black" points="321,-218 321,-239 611,-239 611,-218 321,-218"/>
<text text-anchor="start" x="457.5" y="-224.8" font-family="Times,serif" font-size="14.00"> =</text>
<polygon fill="none" stroke="black" points="321,-195 321,-216 462,-216 462,-195 321,-195"/>
<text text-anchor="start" x="324" y="-201.8" font-family="Times,serif" font-size="14.00">L:0x559bfa3dd250</text>
<polygon fill="none" stroke="black" points="464,-195 464,-216 611,-216 611,-195 464,-195"/>
<text text-anchor="start" x="467" y="-201.8" font-family="Times,serif" font-size="14.00">R: 0x559bfa3dd310</text>
<polygon fill="none" stroke="black" points="318,-192 318,-242 614,-242 614,-192 318,-192"/>
</g>
<!-- node0x559bfa3dd750&#45;&gt;node0x559bfa3dd290 -->
<g id="edge6" class="edge">
<title>node0x559bfa3dd750:rchild&#45;&gt;node0x559bfa3dd290</title>
<path fill="none" stroke="black" stroke-width="2" d="M466,-288C466,-277.81 466,-266.78 466,-256.56"/>
<polygon fill="black" stroke="black" stroke-width="2" points="466,-246.27 470.5,-256.27 466.5,-251.27 466.5,-256.27 466,-256.27 465.5,-256.27 465.5,-251.27 461.5,-256.27 466,-246.27 466,-246.27"/>
</g>
<!-- node0x559bfa3dd250 -->
<g id="node8" class="node">
<title>node0x559bfa3dd250</title>
<polygon fill="orchid" stroke="transparent" points="292,-124 292,-145 398,-145 398,-124 292,-124"/>
<polygon fill="none" stroke="black" points="292,-124 292,-145 398,-145 398,-124 292,-124"/>
<text text-anchor="start" x="337" y="-130.8" font-family="Times,serif" font-size="14.00"> it</text>
<polygon fill="none" stroke="black" points="292,-101 292,-122 341,-122 341,-101 292,-101"/>
<text text-anchor="start" x="295" y="-107.8" font-family="Times,serif" font-size="14.00">L:(nil)</text>
<polygon fill="none" stroke="black" points="343,-101 343,-122 398,-122 398,-101 343,-101"/>
<text text-anchor="start" x="346" y="-107.8" font-family="Times,serif" font-size="14.00">R: (nil)</text>
<polygon fill="none" stroke="black" points="289,-98 289,-148 401,-148 401,-98 289,-98"/>
</g>
<!-- node0x559bfa3dd290&#45;&gt;node0x559bfa3dd250 -->
<g id="edge7" class="edge">
<title>node0x559bfa3dd290:lchild&#45;&gt;node0x559bfa3dd250</title>
<path fill="none" stroke="black" stroke-width="2" d="M391,-194C391,-181.96 386.19,-170.38 379.67,-160.23"/>
<polygon fill="black" stroke="black" stroke-width="2" points="373.87,-152.06 383.33,-157.61 377.17,-155.85 380.07,-159.92 379.66,-160.21 379.25,-160.5 376.36,-156.42 375.99,-162.82 373.87,-152.06 373.87,-152.06"/>
</g>
<!-- node0x559bfa3dd310 -->
<g id="node9" class="node">
<title>node0x559bfa3dd310</title>
<polygon fill="#9acd32" stroke="transparent" points="438,-124 438,-145 728,-145 728,-124 438,-124"/>
<polygon fill="none" stroke="black" points="438,-124 438,-145 728,-145 728,-124 438,-124"/>
<text text-anchor="start" x="574.5" y="-130.8" font-family="Times,serif" font-size="14.00"> +</text>
<polygon fill="none" stroke="black" points="438,-101 438,-122 579,-122 579,-101 438,-101"/>
<text text-anchor="start" x="441" y="-107.8" font-family="Times,serif" font-size="14.00">L:0x559bfa3dd2d0</text>
<polygon fill="none" stroke="black" points="581,-101 581,-122 728,-122 728,-101 581,-101"/>
<text text-anchor="start" x="584" y="-107.8" font-family="Times,serif" font-size="14.00">R: 0x559bfa3dd350</text>
<polygon fill="none" stroke="black" points="435,-98 435,-148 731,-148 731,-98 435,-98"/>
</g>
<!-- node0x559bfa3dd290&#45;&gt;node0x559bfa3dd310 -->
<g id="edge8" class="edge">
<title>node0x559bfa3dd290:rchild&#45;&gt;node0x559bfa3dd310</title>
<path fill="none" stroke="black" stroke-width="2" d="M538,-194C538,-182.16 542.62,-170.72 548.89,-160.64"/>
<polygon fill="black" stroke="black" stroke-width="2" points="554.76,-152.16 552.77,-162.95 552.32,-156.56 549.48,-160.67 549.07,-160.39 548.66,-160.1 551.5,-155.99 545.37,-157.83 554.76,-152.16 554.76,-152.16"/>
</g>
<!-- node0x559bfa3dd2d0 -->
<g id="node10" class="node">
<title>node0x559bfa3dd2d0</title>
<polygon fill="orchid" stroke="transparent" points="455,-30 455,-51 561,-51 561,-30 455,-30"/>
<polygon fill="none" stroke="black" points="455,-30 455,-51 561,-51 561,-30 455,-30"/>
<text text-anchor="start" x="500" y="-36.8" font-family="Times,serif" font-size="14.00"> it</text>
<polygon fill="none" stroke="black" points="455,-7 455,-28 504,-28 504,-7 455,-7"/>
<text text-anchor="start" x="458" y="-13.8" font-family="Times,serif" font-size="14.00">L:(nil)</text>
<polygon fill="none" stroke="black" points="506,-7 506,-28 561,-28 561,-7 506,-7"/>
<text text-anchor="start" x="509" y="-13.8" font-family="Times,serif" font-size="14.00">R: (nil)</text>
<polygon fill="none" stroke="black" points="452,-4 452,-54 564,-54 564,-4 452,-4"/>
</g>
<!-- node0x559bfa3dd310&#45;&gt;node0x559bfa3dd2d0 -->
<g id="edge9" class="edge">
<title>node0x559bfa3dd310:lchild&#45;&gt;node0x559bfa3dd2d0</title>
<path fill="none" stroke="black" stroke-width="2" d="M508,-100C508,-89.81 508,-78.78 508,-68.56"/>
<polygon fill="black" stroke="black" stroke-width="2" points="508,-58.27 512.5,-68.27 508.5,-63.27 508.5,-68.27 508,-68.27 507.5,-68.27 507.5,-63.27 503.5,-68.27 508,-58.27 508,-58.27"/>
</g>
<!-- node0x559bfa3dd350 -->
<g id="node11" class="node">
<title>node0x559bfa3dd350</title>
<polygon fill="lightskyblue" stroke="transparent" points="602,-30 602,-51 708,-51 708,-30 602,-30"/>
<polygon fill="none" stroke="black" points="602,-30 602,-51 708,-51 708,-30 602,-30"/>
<text text-anchor="start" x="650" y="-36.8" font-family="Times,serif" font-size="14.00">1</text>
<polygon fill="none" stroke="black" points="602,-7 602,-28 651,-28 651,-7 602,-7"/>
<text text-anchor="start" x="605" y="-13.8" font-family="Times,serif" font-size="14.00">L:(nil)</text>
<polygon fill="none" stroke="black" points="653,-7 653,-28 708,-28 708,-7 653,-7"/>
<text text-anchor="start" x="656" y="-13.8" font-family="Times,serif" font-size="14.00">R: (nil)</text>
<polygon fill="none" stroke="black" points="599,-4 599,-54 711,-54 711,-4 599,-4"/>
</g>
<!-- node0x559bfa3dd310&#45;&gt;node0x559bfa3dd350 -->
<g id="edge10" class="edge">
<title>node0x559bfa3dd310:rchild&#45;&gt;node0x559bfa3dd350</title>
<path fill="none" stroke="black" stroke-width="2" d="M655,-100C655,-89.81 655,-78.78 655,-68.56"/>
<polygon fill="black" stroke="black" stroke-width="2" points="655,-58.27 659.5,-68.27 655.5,-63.27 655.5,-68.27 655,-68.27 654.5,-68.27 654.5,-63.27 650.5,-68.27 655,-58.27 655,-58.27"/>
</g>
<!-- node0x559bfa3dd6d0 -->
<g id="node12" class="node">
<title>node0x559bfa3dd6d0</title>
<polygon fill="pink" stroke="transparent" points="394,-594 394,-615 684,-615 684,-594 394,-594"/>
<polygon fill="none" stroke="black" points="394,-594 394,-615 684,-615 684,-594 394,-594"/>
<text text-anchor="start" x="500" y="-600.8" font-family="Times,serif" font-size="14.00"> statement</text>
<polygon fill="none" stroke="black" points="394,-571 394,-592 535,-592 535,-571 394,-571"/>
<text text-anchor="start" x="397" y="-577.8" font-family="Times,serif" font-size="14.00">L:0x559bfa3dd710</text>
<polygon fill="none" stroke="black" points="537,-571 537,-592 684,-592 684,-571 537,-571"/>
<text text-anchor="start" x="540" y="-577.8" font-family="Times,serif" font-size="14.00">R: 0x559bfa3dd110</text>
<polygon fill="none" stroke="black" points="391,-568 391,-618 687,-618 687,-568 391,-568"/>
</g>
<!-- node0x559bfa3dd6d0&#45;&gt;node0x559bfa3dd710 -->
<g id="edge11" class="edge">
<title>node0x559bfa3dd6d0:lchild&#45;&gt;node0x559bfa3dd710</title>
<path fill="none" stroke="black" stroke-width="2" d="M393,-581C363.76,-581 339.25,-557.95 322.75,-536.45"/>
<polygon fill="black" stroke="black" stroke-width="2" points="316.82,-528.33 326.35,-533.75 320.18,-532.07 323.12,-536.11 322.72,-536.41 322.32,-536.7 319.37,-532.66 319.09,-539.06 316.82,-528.33 316.82,-528.33"/>
</g>
<!-- node0x559bfa3dd110 -->
<g id="node13" class="node">
<title>node0x559bfa3dd110</title>
<polygon fill="#9acd32" stroke="transparent" points="466,-500 466,-521 756,-521 756,-500 466,-500"/>
<polygon fill="none" stroke="black" points="466,-500 466,-521 756,-521 756,-500 466,-500"/>
<text text-anchor="start" x="602.5" y="-506.8" font-family="Times,serif" font-size="14.00"> =</text>
<polygon fill="none" stroke="black" points="466,-477 466,-498 607,-498 607,-477 466,-477"/>
<text text-anchor="start" x="469" y="-483.8" font-family="Times,serif" font-size="14.00">L:0x559bfa3dd0d0</text>
<polygon fill="none" stroke="black" points="609,-477 609,-498 756,-498 756,-477 609,-477"/>
<text text-anchor="start" x="612" y="-483.8" font-family="Times,serif" font-size="14.00">R: 0x559bfa3dd150</text>
<polygon fill="none" stroke="black" points="463,-474 463,-524 759,-524 759,-474 463,-474"/>
</g>
<!-- node0x559bfa3dd6d0&#45;&gt;node0x559bfa3dd110 -->
<g id="edge12" class="edge">
<title>node0x559bfa3dd6d0:rchild&#45;&gt;node0x559bfa3dd110</title>
<path fill="none" stroke="black" stroke-width="2" d="M611,-570C611,-559.81 611,-548.78 611,-538.56"/>
<polygon fill="black" stroke="black" stroke-width="2" points="611,-528.27 615.5,-538.27 611.5,-533.27 611.5,-538.27 611,-538.27 610.5,-538.27 610.5,-533.27 606.5,-538.27 611,-528.27 611,-528.27"/>
</g>
<!-- node0x559bfa3dd0d0 -->
<g id="node14" class="node">
<title>node0x559bfa3dd0d0</title>
<polygon fill="orchid" stroke="transparent" points="484,-406 484,-427 590,-427 590,-406 484,-406"/>
<polygon fill="none" stroke="black" points="484,-406 484,-427 590,-427 590,-406 484,-406"/>
<text text-anchor="start" x="530.5" y="-412.8" font-family="Times,serif" font-size="14.00"> x</text>
<polygon fill="none" stroke="black" points="484,-383 484,-404 533,-404 533,-383 484,-383"/>
<text text-anchor="start" x="487" y="-389.8" font-family="Times,serif" font-size="14.00">L:(nil)</text>
<polygon fill="none" stroke="black" points="535,-383 535,-404 590,-404 590,-383 535,-383"/>
<text text-anchor="start" x="538" y="-389.8" font-family="Times,serif" font-size="14.00">R: (nil)</text>
<polygon fill="none" stroke="black" points="481,-380 481,-430 593,-430 593,-380 481,-380"/>
</g>
<!-- node0x559bfa3dd110&#45;&gt;node0x559bfa3dd0d0 -->
<g id="edge13" class="edge">
<title>node0x559bfa3dd110:lchild&#45;&gt;node0x559bfa3dd0d0</title>
<path fill="none" stroke="black" stroke-width="2" d="M536,-476C536,-465.81 536.11,-454.78 536.25,-444.56"/>
<polygon fill="black" stroke="black" stroke-width="2" points="536.41,-434.27 540.76,-444.34 536.83,-439.28 536.76,-444.27 536.26,-444.27 535.76,-444.26 535.83,-439.26 531.76,-444.2 536.41,-434.27 536.41,-434.27"/>
</g>
<!-- node0x559bfa3dd150 -->
<g id="node15" class="node">
<title>node0x559bfa3dd150</title>
<polygon fill="lightskyblue" stroke="transparent" points="630,-406 630,-427 736,-427 736,-406 630,-406"/>
<polygon fill="none" stroke="black" points="630,-406 630,-427 736,-427 736,-406 630,-406"/>
<text text-anchor="start" x="678" y="-412.8" font-family="Times,serif" font-size="14.00">0</text>
<polygon fill="none" stroke="black" points="630,-383 630,-404 679,-404 679,-383 630,-383"/>
<text text-anchor="start" x="633" y="-389.8" font-family="Times,serif" font-size="14.00">L:(nil)</text>
<polygon fill="none" stroke="black" points="681,-383 681,-404 736,-404 736,-383 681,-383"/>
<text text-anchor="start" x="684" y="-389.8" font-family="Times,serif" font-size="14.00">R: (nil)</text>
<polygon fill="none" stroke="black" points="627,-380 627,-430 739,-430 739,-380 627,-380"/>
</g>
<!-- node0x559bfa3dd110&#45;&gt;node0x559bfa3dd150 -->
<g id="edge14" class="edge">
<title>node0x559bfa3dd110:rchild&#45;&gt;node0x559bfa3dd150</title>
<path fill="none" stroke="black" stroke-width="2" d="M683,-476C683,-465.81 683,-454.78 683,-444.56"/>
<polygon fill="black" stroke="black" stroke-width="2" points="683,-434.27 687.5,-444.27 683.5,-439.27 683.5,-444.27 683,-444.27 682.5,-444.27 682.5,-439.27 678.5,-444.27 683,-434.27 683,-434.27"/>
</g>
<!-- node0x559bfa3dd690 -->
<g id="node16" class="node">
<title>node0x559bfa3dd690</title>
<polygon fill="pink" stroke="transparent" points="587,-688 587,-709 877,-709 877,-688 587,-688"/>
<polygon fill="none" stroke="black" points="587,-688 587,-709 877,-709 877,-688 587,-688"/>
<text text-anchor="start" x="693" y="-694.8" font-family="Times,serif" font-size="14.00"> statement</text>
<polygon fill="none" stroke="black" points="587,-665 587,-686 728,-686 728,-665 587,-665"/>
<text text-anchor="start" x="590" y="-671.8" font-family="Times,serif" font-size="14.00">L:0x559bfa3dd6d0</text>
<polygon fill="none" stroke="black" points="730,-665 730,-686 877,-686 877,-665 730,-665"/>
<text text-anchor="start" x="733" y="-671.8" font-family="Times,serif" font-size="14.00">R: 0x559bfa3dd010</text>
<polygon fill="none" stroke="black" points="584,-662 584,-712 880,-712 880,-662 584,-662"/>
</g>
<!-- node0x559bfa3dd690&#45;&gt;node0x559bfa3dd6d0 -->
<g id="edge15" class="edge">
<title>node0x559bfa3dd690:lchild&#45;&gt;node0x559bfa3dd6d0</title>
<path fill="none" stroke="black" stroke-width="2" d="M586,-675C564.39,-675 552.54,-653.16 546.16,-632.15"/>
<polygon fill="black" stroke="black" stroke-width="2" points="543.51,-622.33 550.46,-630.82 545.3,-627.03 546.59,-631.86 546.11,-631.99 545.63,-632.12 544.33,-627.29 541.77,-633.16 543.51,-622.33 543.51,-622.33"/>
</g>
<!-- node0x559bfa3dd010 -->
<g id="node17" class="node">
<title>node0x559bfa3dd010</title>
<polygon fill="#9acd32" stroke="transparent" points="781,-594 781,-615 1066,-615 1066,-594 781,-594"/>
<polygon fill="none" stroke="black" points="781,-594 781,-615 1066,-615 1066,-594 781,-594"/>
<text text-anchor="start" x="915" y="-600.8" font-family="Times,serif" font-size="14.00"> =</text>
<polygon fill="none" stroke="black" points="781,-571 781,-592 917,-592 917,-571 781,-571"/>
<text text-anchor="start" x="784" y="-577.8" font-family="Times,serif" font-size="14.00">L:0x559bfa3dcfd0</text>
<polygon fill="none" stroke="black" points="919,-571 919,-592 1066,-592 1066,-571 919,-571"/>
<text text-anchor="start" x="922" y="-577.8" font-family="Times,serif" font-size="14.00">R: 0x559bfa3dd050</text>
<polygon fill="none" stroke="black" points="777.5,-568 777.5,-618 1068.5,-618 1068.5,-568 777.5,-568"/>
</g>
<!-- node0x559bfa3dd690&#45;&gt;node0x559bfa3dd010 -->
<g id="edge16" class="edge">
<title>node0x559bfa3dd690:rchild&#45;&gt;node0x559bfa3dd010</title>
<path fill="none" stroke="black" stroke-width="2" d="M878,-675C899.39,-675 910.7,-653.16 916.63,-632.15"/>
<polygon fill="black" stroke="black" stroke-width="2" points="919.06,-622.33 921.03,-633.12 918.34,-627.3 917.14,-632.16 916.66,-632.04 916.17,-631.92 917.37,-627.06 912.29,-630.96 919.06,-622.33 919.06,-622.33"/>
</g>
<!-- node0x559bfa3dcfd0 -->
<g id="node18" class="node">
<title>node0x559bfa3dcfd0</title>
<polygon fill="orchid" stroke="transparent" points="796,-500 796,-521 902,-521 902,-500 796,-500"/>
<polygon fill="none" stroke="black" points="796,-500 796,-521 902,-521 902,-500 796,-500"/>
<text text-anchor="start" x="841" y="-506.8" font-family="Times,serif" font-size="14.00"> it</text>
<polygon fill="none" stroke="black" points="796,-477 796,-498 845,-498 845,-477 796,-477"/>
<text text-anchor="start" x="799" y="-483.8" font-family="Times,serif" font-size="14.00">L:(nil)</text>
<polygon fill="none" stroke="black" points="847,-477 847,-498 902,-498 902,-477 847,-477"/>
<text text-anchor="start" x="850" y="-483.8" font-family="Times,serif" font-size="14.00">R: (nil)</text>
<polygon fill="none" stroke="black" points="793,-474 793,-524 905,-524 905,-474 793,-474"/>
</g>
<!-- node0x559bfa3dd010&#45;&gt;node0x559bfa3dcfd0 -->
<g id="edge17" class="edge">
<title>node0x559bfa3dd010:lchild&#45;&gt;node0x559bfa3dcfd0</title>
<path fill="none" stroke="black" stroke-width="2" d="M849,-570C849,-559.81 849,-548.78 849,-538.56"/>
<polygon fill="black" stroke="black" stroke-width="2" points="849,-528.27 853.5,-538.27 849.5,-533.27 849.5,-538.27 849,-538.27 848.5,-538.27 848.5,-533.27 844.5,-538.27 849,-528.27 849,-528.27"/>
</g>
<!-- node0x559bfa3dd050 -->
<g id="node19" class="node">
<title>node0x559bfa3dd050</title>
<polygon fill="lightskyblue" stroke="transparent" points="942,-500 942,-521 1048,-521 1048,-500 942,-500"/>
<polygon fill="none" stroke="black" points="942,-500 942,-521 1048,-521 1048,-500 942,-500"/>
<text text-anchor="start" x="990" y="-506.8" font-family="Times,serif" font-size="14.00">0</text>
<polygon fill="none" stroke="black" points="942,-477 942,-498 991,-498 991,-477 942,-477"/>
<text text-anchor="start" x="945" y="-483.8" font-family="Times,serif" font-size="14.00">L:(nil)</text>
<polygon fill="none" stroke="black" points="993,-477 993,-498 1048,-498 1048,-477 993,-477"/>
<text text-anchor="start" x="996" y="-483.8" font-family="Times,serif" font-size="14.00">R: (nil)</text>
<polygon fill="none" stroke="black" points="939,-474 939,-524 1051,-524 1051,-474 939,-474"/>
</g>
<!-- node0x559bfa3dd010&#45;&gt;node0x559bfa3dd050 -->
<g id="edge18" class="edge">
<title>node0x559bfa3dd010:rchild&#45;&gt;node0x559bfa3dd050</title>
<path fill="none" stroke="black" stroke-width="2" d="M993,-570C993,-559.8 993.21,-548.78 993.5,-538.55"/>
<polygon fill="black" stroke="black" stroke-width="2" points="993.83,-528.26 998.01,-538.4 994.17,-533.28 994.01,-538.27 993.51,-538.26 993.01,-538.24 993.17,-533.25 989.01,-538.12 993.83,-528.26 993.83,-528.26"/>
</g>
</g>
</svg>
