<?xml version="1.0" encoding="UTF-8" standalone="no"?>
<!DOCTYPE svg PUBLIC "-//W3C//DTD SVG 1.1//EN"
 "http://www.w3.org/Graphics/SVG/1.1/DTD/svg11.dtd">
<!-- Generated by graphviz version 2.43.0 (0)
 -->
<!-- Title: dump_graph Pages: 1 -->
<svg width="757pt" height="630pt"
 viewBox="0.00 0.00 757.00 630.00" xmlns="http://www.w3.org/2000/svg" xmlns:xlink="http://www.w3.org/1999/xlink">
<g id="graph0" class="graph" transform="scale(1 1) rotate(0) translate(4 626)">
<title>dump_graph</title>
<polygon fill="white" stroke="transparent" points="-4,4 -4,-626 753,-626 753,4 -4,4"/>
<!-- node0x55fa5996f5e0 -->
<g id="node1" class="node">
<title>node0x55fa5996f5e0</title>
<polygon fill="pink" stroke="transparent" points="197.5,-500 197.5,-521 390.5,-521 390.5,-500 197.5,-500"/>
<polygon fill="none" stroke="black" points="197.5,-500 197.5,-521 390.5,-521 390.5,-500 197.5,-500"/>
<text text-anchor="start" x="255" y="-506.8" font-family="Times,serif" font-size="14.00"> statement</text>
<polygon fill="none" stroke="black" points="197.5,-477 197.5,-498 246.5,-498 246.5,-477 197.5,-477"/>
<text text-anchor="start" x="200.5" y="-483.8" font-family="Times,serif" font-size="14.00">L:(nil)</text>
<polygon fill="none" stroke="black" points="248.5,-477 248.5,-498 390.5,-498 390.5,-477 248.5,-477"/>
<text text-anchor="start" x="251.5" y="-483.8" font-family="Times,serif" font-size="14.00">R: 0x55fa5996f0e0</text>
<polygon fill="none" stroke="black" points="194,-474 194,-524 393,-524 393,-474 194,-474"/>
</g>
<!-- node0x55fa5996f0e0 -->
<g id="node2" class="node">
<title>node0x55fa5996f0e0</title>
<polygon fill="#cd4f39" stroke="transparent" points="150.5,-406 150.5,-427 432.5,-427 432.5,-406 150.5,-406"/>
<polygon fill="none" stroke="black" points="150.5,-406 150.5,-427 432.5,-427 432.5,-406 150.5,-406"/>
<text text-anchor="start" x="270" y="-412.8" font-family="Times,serif" font-size="14.00"> while</text>
<polygon fill="none" stroke="black" points="150.5,-383 150.5,-404 287.5,-404 287.5,-383 150.5,-383"/>
<text text-anchor="start" x="153.5" y="-389.8" font-family="Times,serif" font-size="14.00">L:0x55fa5996f420</text>
<polygon fill="none" stroke="black" points="289.5,-383 289.5,-404 432.5,-404 432.5,-383 289.5,-383"/>
<text text-anchor="start" x="292.5" y="-389.8" font-family="Times,serif" font-size="14.00">R: 0x55fa5996f620</text>
<polygon fill="none" stroke="black" points="147.5,-380 147.5,-430 435.5,-430 435.5,-380 147.5,-380"/>
</g>
<!-- node0x55fa5996f5e0&#45;&gt;node0x55fa5996f0e0 -->
<g id="edge1" class="edge">
<title>node0x55fa5996f5e0:rchild&#45;&gt;node0x55fa5996f0e0</title>
<path fill="none" stroke="black" stroke-width="2" d="M319.5,-476C319.5,-465.09 316.53,-453.86 312.53,-443.68"/>
<polygon fill="black" stroke="black" stroke-width="2" points="308.43,-434.29 316.55,-441.66 310.89,-438.67 312.89,-443.25 312.43,-443.45 311.97,-443.65 309.97,-439.07 308.3,-445.25 308.43,-434.29 308.43,-434.29"/>
</g>
<!-- node0x55fa5996f420 -->
<g id="node4" class="node">
<title>node0x55fa5996f420</title>
<polygon fill="orchid" stroke="transparent" points="11.5,-312 11.5,-333 292.5,-333 292.5,-312 11.5,-312"/>
<polygon fill="none" stroke="black" points="11.5,-312 11.5,-333 292.5,-333 292.5,-312 11.5,-312"/>
<text text-anchor="start" x="145" y="-318.8" font-family="Times,serif" font-size="14.00"> L</text>
<polygon fill="none" stroke="black" points="11.5,-289 11.5,-310 147.5,-310 147.5,-289 11.5,-289"/>
<text text-anchor="start" x="14.5" y="-295.8" font-family="Times,serif" font-size="14.00">L:0x55fa5996f3e0</text>
<polygon fill="none" stroke="black" points="149.5,-289 149.5,-310 292.5,-310 292.5,-289 149.5,-289"/>
<text text-anchor="start" x="152.5" y="-295.8" font-family="Times,serif" font-size="14.00">R: 0x55fa5996f460</text>
<polygon fill="none" stroke="black" points="8,-286 8,-336 295,-336 295,-286 8,-286"/>
</g>
<!-- node0x55fa5996f0e0&#45;&gt;node0x55fa5996f420 -->
<g id="edge4" class="edge">
<title>node0x55fa5996f0e0:lchild&#45;&gt;node0x55fa5996f420</title>
<path fill="none" stroke="black" stroke-width="2" d="M149.5,-393C130.8,-393 132.06,-371.16 137.59,-350.15"/>
<polygon fill="black" stroke="black" stroke-width="2" points="140.48,-340.33 141.98,-351.19 139.55,-345.27 138.14,-350.06 137.66,-349.92 137.18,-349.78 138.59,-344.99 133.35,-348.65 140.48,-340.33 140.48,-340.33"/>
</g>
<!-- node0x55fa5996f620 -->
<g id="node6" class="node">
<title>node0x55fa5996f620</title>
<polygon fill="pink" stroke="transparent" points="332.5,-312 332.5,-333 525.5,-333 525.5,-312 332.5,-312"/>
<polygon fill="none" stroke="black" points="332.5,-312 332.5,-333 525.5,-333 525.5,-312 332.5,-312"/>
<text text-anchor="start" x="390" y="-318.8" font-family="Times,serif" font-size="14.00"> statement</text>
<polygon fill="none" stroke="black" points="332.5,-289 332.5,-310 381.5,-310 381.5,-289 332.5,-289"/>
<text text-anchor="start" x="335.5" y="-295.8" font-family="Times,serif" font-size="14.00">L:(nil)</text>
<polygon fill="none" stroke="black" points="383.5,-289 383.5,-310 525.5,-310 525.5,-289 383.5,-289"/>
<text text-anchor="start" x="386.5" y="-295.8" font-family="Times,serif" font-size="14.00">R: 0x55fa5996f1a0</text>
<polygon fill="none" stroke="black" points="329,-286 329,-336 528,-336 528,-286 329,-286"/>
</g>
<!-- node0x55fa5996f0e0&#45;&gt;node0x55fa5996f620 -->
<g id="edge5" class="edge">
<title>node0x55fa5996f0e0:rchild&#45;&gt;node0x55fa5996f620</title>
<path fill="none" stroke="black" stroke-width="2" d="M433.5,-393C452.32,-393 450.14,-370.96 443.75,-349.87"/>
<polygon fill="black" stroke="black" stroke-width="2" points="440.58,-340.33 448.01,-348.4 442.63,-344.92 444.21,-349.66 443.74,-349.82 443.26,-349.98 441.68,-345.23 439.47,-351.24 440.58,-340.33 440.58,-340.33"/>
</g>
<!-- node0x55fa5996f3e0 -->
<g id="node3" class="node">
<title>node0x55fa5996f3e0</title>
<polygon fill="orchid" stroke="transparent" points="22.5,-218 22.5,-239 128.5,-239 128.5,-218 22.5,-218"/>
<polygon fill="none" stroke="black" points="22.5,-218 22.5,-239 128.5,-239 128.5,-218 22.5,-218"/>
<text text-anchor="start" x="69" y="-224.8" font-family="Times,serif" font-size="14.00"> x</text>
<polygon fill="none" stroke="black" points="22.5,-195 22.5,-216 71.5,-216 71.5,-195 22.5,-195"/>
<text text-anchor="start" x="25.5" y="-201.8" font-family="Times,serif" font-size="14.00">L:(nil)</text>
<polygon fill="none" stroke="black" points="73.5,-195 73.5,-216 128.5,-216 128.5,-195 73.5,-195"/>
<text text-anchor="start" x="76.5" y="-201.8" font-family="Times,serif" font-size="14.00">R: (nil)</text>
<polygon fill="none" stroke="black" points="19.5,-192 19.5,-242 131.5,-242 131.5,-192 19.5,-192"/>
</g>
<!-- node0x55fa5996f420&#45;&gt;node0x55fa5996f3e0 -->
<g id="edge2" class="edge">
<title>node0x55fa5996f420:lchild&#45;&gt;node0x55fa5996f3e0</title>
<path fill="none" stroke="black" stroke-width="2" d="M79.5,-288C79.5,-277.79 79.07,-266.76 78.49,-256.54"/>
<polygon fill="black" stroke="black" stroke-width="2" points="77.85,-246.25 82.97,-255.95 78.66,-251.21 78.97,-256.2 78.47,-256.23 77.98,-256.26 77.66,-251.27 73.98,-256.51 77.85,-246.25 77.85,-246.25"/>
</g>
<!-- node0x55fa5996f460 -->
<g id="node5" class="node">
<title>node0x55fa5996f460</title>
<polygon fill="lightskyblue" stroke="transparent" points="168.5,-218 168.5,-239 274.5,-239 274.5,-218 168.5,-218"/>
<polygon fill="none" stroke="black" points="168.5,-218 168.5,-239 274.5,-239 274.5,-218 168.5,-218"/>
<text text-anchor="start" x="207.5" y="-224.8" font-family="Times,serif" font-size="14.00">255</text>
<polygon fill="none" stroke="black" points="168.5,-195 168.5,-216 217.5,-216 217.5,-195 168.5,-195"/>
<text text-anchor="start" x="171.5" y="-201.8" font-family="Times,serif" font-size="14.00">L:(nil)</text>
<polygon fill="none" stroke="black" points="219.5,-195 219.5,-216 274.5,-216 274.5,-195 219.5,-195"/>
<text text-anchor="start" x="222.5" y="-201.8" font-family="Times,serif" font-size="14.00">R: (nil)</text>
<polygon fill="none" stroke="black" points="165.5,-192 165.5,-242 277.5,-242 277.5,-192 165.5,-192"/>
</g>
<!-- node0x55fa5996f420&#45;&gt;node0x55fa5996f460 -->
<g id="edge3" class="edge">
<title>node0x55fa5996f420:rchild&#45;&gt;node0x55fa5996f460</title>
<path fill="none" stroke="black" stroke-width="2" d="M221.5,-288C221.5,-277.81 221.5,-266.78 221.5,-256.56"/>
<polygon fill="black" stroke="black" stroke-width="2" points="221.5,-246.27 226,-256.27 222,-251.27 222,-256.27 221.5,-256.27 221,-256.27 221,-251.27 217,-256.27 221.5,-246.27 221.5,-246.27"/>
</g>
<!-- node0x55fa5996f1a0 -->
<g id="node7" class="node">
<title>node0x55fa5996f1a0</title>
<polygon fill="#9acd32" stroke="transparent" points="314.5,-218 314.5,-239 596.5,-239 596.5,-218 314.5,-218"/>
<polygon fill="none" stroke="black" points="314.5,-218 314.5,-239 596.5,-239 596.5,-218 314.5,-218"/>
<text text-anchor="start" x="447" y="-224.8" font-family="Times,serif" font-size="14.00"> =</text>
<polygon fill="none" stroke="black" points="314.5,-195 314.5,-216 451.5,-216 451.5,-195 314.5,-195"/>
<text text-anchor="start" x="317.5" y="-201.8" font-family="Times,serif" font-size="14.00">L:0x55fa5996f160</text>
<polygon fill="none" stroke="black" points="453.5,-195 453.5,-216 596.5,-216 596.5,-195 453.5,-195"/>
<text text-anchor="start" x="456.5" y="-201.8" font-family="Times,serif" font-size="14.00">R: 0x55fa5996f220</text>
<polygon fill="none" stroke="black" points="311.5,-192 311.5,-242 599.5,-242 599.5,-192 311.5,-192"/>
</g>
<!-- node0x55fa5996f620&#45;&gt;node0x55fa5996f1a0 -->
<g id="edge6" class="edge">
<title>node0x55fa5996f620:rchild&#45;&gt;node0x55fa5996f1a0</title>
<path fill="none" stroke="black" stroke-width="2" d="M454.5,-288C454.5,-277.81 454.61,-266.78 454.75,-256.56"/>
<polygon fill="black" stroke="black" stroke-width="2" points="454.91,-246.27 459.26,-256.34 455.33,-251.28 455.26,-256.27 454.76,-256.27 454.26,-256.26 454.33,-251.26 450.26,-256.2 454.91,-246.27 454.91,-246.27"/>
</g>
<!-- node0x55fa5996f160 -->
<g id="node8" class="node">
<title>node0x55fa5996f160</title>
<polygon fill="orchid" stroke="transparent" points="284.5,-124 284.5,-145 390.5,-145 390.5,-124 284.5,-124"/>
<polygon fill="none" stroke="black" points="284.5,-124 284.5,-145 390.5,-145 390.5,-124 284.5,-124"/>
<text text-anchor="start" x="331" y="-130.8" font-family="Times,serif" font-size="14.00"> x</text>
<polygon fill="none" stroke="black" points="284.5,-101 284.5,-122 333.5,-122 333.5,-101 284.5,-101"/>
<text text-anchor="start" x="287.5" y="-107.8" font-family="Times,serif" font-size="14.00">L:(nil)</text>
<polygon fill="none" stroke="black" points="335.5,-101 335.5,-122 390.5,-122 390.5,-101 335.5,-101"/>
<text text-anchor="start" x="338.5" y="-107.8" font-family="Times,serif" font-size="14.00">R: (nil)</text>
<polygon fill="none" stroke="black" points="281.5,-98 281.5,-148 393.5,-148 393.5,-98 281.5,-98"/>
</g>
<!-- node0x55fa5996f1a0&#45;&gt;node0x55fa5996f160 -->
<g id="edge7" class="edge">
<title>node0x55fa5996f1a0:lchild&#45;&gt;node0x55fa5996f160</title>
<path fill="none" stroke="black" stroke-width="2" d="M382.5,-194C382.5,-182.16 377.88,-170.72 371.61,-160.64"/>
<polygon fill="black" stroke="black" stroke-width="2" points="365.74,-152.16 375.13,-157.83 369,-155.99 371.84,-160.1 371.43,-160.39 371.02,-160.67 368.18,-156.56 367.73,-162.95 365.74,-152.16 365.74,-152.16"/>
</g>
<!-- node0x55fa5996f220 -->
<g id="node9" class="node">
<title>node0x55fa5996f220</title>
<polygon fill="#9acd32" stroke="transparent" points="431.5,-124 431.5,-145 712.5,-145 712.5,-124 431.5,-124"/>
<polygon fill="none" stroke="black" points="431.5,-124 431.5,-145 712.5,-145 712.5,-124 431.5,-124"/>
<text text-anchor="start" x="563.5" y="-130.8" font-family="Times,serif" font-size="14.00"> +</text>
<polygon fill="none" stroke="black" points="431.5,-101 431.5,-122 567.5,-122 567.5,-101 431.5,-101"/>
<text text-anchor="start" x="434.5" y="-107.8" font-family="Times,serif" font-size="14.00">L:0x55fa5996f1e0</text>
<polygon fill="none" stroke="black" points="569.5,-101 569.5,-122 712.5,-122 712.5,-101 569.5,-101"/>
<text text-anchor="start" x="572.5" y="-107.8" font-family="Times,serif" font-size="14.00">R: 0x55fa5996f260</text>
<polygon fill="none" stroke="black" points="428,-98 428,-148 715,-148 715,-98 428,-98"/>
</g>
<!-- node0x55fa5996f1a0&#45;&gt;node0x55fa5996f220 -->
<g id="edge8" class="edge">
<title>node0x55fa5996f1a0:rchild&#45;&gt;node0x55fa5996f220</title>
<path fill="none" stroke="black" stroke-width="2" d="M525.5,-194C525.5,-181.96 530.31,-170.38 536.83,-160.23"/>
<polygon fill="black" stroke="black" stroke-width="2" points="542.63,-152.06 540.51,-162.82 540.14,-156.42 537.25,-160.5 536.84,-160.21 536.43,-159.92 539.33,-155.85 533.17,-157.61 542.63,-152.06 542.63,-152.06"/>
</g>
<!-- node0x55fa5996f1e0 -->
<g id="node10" class="node">
<title>node0x55fa5996f1e0</title>
<polygon fill="orchid" stroke="transparent" points="444.5,-30 444.5,-51 550.5,-51 550.5,-30 444.5,-30"/>
<polygon fill="none" stroke="black" points="444.5,-30 444.5,-51 550.5,-51 550.5,-30 444.5,-30"/>
<text text-anchor="start" x="491" y="-36.8" font-family="Times,serif" font-size="14.00"> x</text>
<polygon fill="none" stroke="black" points="444.5,-7 444.5,-28 493.5,-28 493.5,-7 444.5,-7"/>
<text text-anchor="start" x="447.5" y="-13.8" font-family="Times,serif" font-size="14.00">L:(nil)</text>
<polygon fill="none" stroke="black" points="495.5,-7 495.5,-28 550.5,-28 550.5,-7 495.5,-7"/>
<text text-anchor="start" x="498.5" y="-13.8" font-family="Times,serif" font-size="14.00">R: (nil)</text>
<polygon fill="none" stroke="black" points="441.5,-4 441.5,-54 553.5,-54 553.5,-4 441.5,-4"/>
</g>
<!-- node0x55fa5996f220&#45;&gt;node0x55fa5996f1e0 -->
<g id="edge9" class="edge">
<title>node0x55fa5996f220:lchild&#45;&gt;node0x55fa5996f1e0</title>
<path fill="none" stroke="black" stroke-width="2" d="M499.5,-100C499.5,-89.8 499.29,-78.78 499,-68.55"/>
<polygon fill="black" stroke="black" stroke-width="2" points="498.67,-58.26 503.49,-68.12 499.33,-63.25 499.49,-68.24 498.99,-68.26 498.49,-68.27 498.33,-63.28 494.49,-68.4 498.67,-58.26 498.67,-58.26"/>
</g>
<!-- node0x55fa5996f260 -->
<g id="node11" class="node">
<title>node0x55fa5996f260</title>
<polygon fill="lightskyblue" stroke="transparent" points="590.5,-30 590.5,-51 696.5,-51 696.5,-30 590.5,-30"/>
<polygon fill="none" stroke="black" points="590.5,-30 590.5,-51 696.5,-51 696.5,-30 590.5,-30"/>
<text text-anchor="start" x="638.5" y="-36.8" font-family="Times,serif" font-size="14.00">1</text>
<polygon fill="none" stroke="black" points="590.5,-7 590.5,-28 639.5,-28 639.5,-7 590.5,-7"/>
<text text-anchor="start" x="593.5" y="-13.8" font-family="Times,serif" font-size="14.00">L:(nil)</text>
<polygon fill="none" stroke="black" points="641.5,-7 641.5,-28 696.5,-28 696.5,-7 641.5,-7"/>
<text text-anchor="start" x="644.5" y="-13.8" font-family="Times,serif" font-size="14.00">R: (nil)</text>
<polygon fill="none" stroke="black" points="587.5,-4 587.5,-54 699.5,-54 699.5,-4 587.5,-4"/>
</g>
<!-- node0x55fa5996f220&#45;&gt;node0x55fa5996f260 -->
<g id="edge10" class="edge">
<title>node0x55fa5996f220:rchild&#45;&gt;node0x55fa5996f260</title>
<path fill="none" stroke="black" stroke-width="2" d="M641.5,-100C641.5,-89.8 641.71,-78.78 642,-68.55"/>
<polygon fill="black" stroke="black" stroke-width="2" points="642.33,-58.26 646.51,-68.4 642.67,-63.28 642.51,-68.27 642.01,-68.26 641.51,-68.24 641.67,-63.25 637.51,-68.12 642.33,-58.26 642.33,-58.26"/>
</g>
<!-- node0x55fa5996f5a0 -->
<g id="node12" class="node">
<title>node0x55fa5996f5a0</title>
<polygon fill="pink" stroke="transparent" points="292.5,-594 292.5,-615 573.5,-615 573.5,-594 292.5,-594"/>
<polygon fill="none" stroke="black" points="292.5,-594 292.5,-615 573.5,-615 573.5,-594 292.5,-594"/>
<text text-anchor="start" x="394" y="-600.8" font-family="Times,serif" font-size="14.00"> statement</text>
<polygon fill="none" stroke="black" points="292.5,-571 292.5,-592 428.5,-592 428.5,-571 292.5,-571"/>
<text text-anchor="start" x="295.5" y="-577.8" font-family="Times,serif" font-size="14.00">L:0x55fa5996f5e0</text>
<polygon fill="none" stroke="black" points="430.5,-571 430.5,-592 573.5,-592 573.5,-571 430.5,-571"/>
<text text-anchor="start" x="433.5" y="-577.8" font-family="Times,serif" font-size="14.00">R: 0x55fa5996f020</text>
<polygon fill="none" stroke="black" points="289,-568 289,-618 576,-618 576,-568 289,-568"/>
</g>
<!-- node0x55fa5996f5a0&#45;&gt;node0x55fa5996f5e0 -->
<g id="edge11" class="edge">
<title>node0x55fa5996f5a0:lchild&#45;&gt;node0x55fa5996f5e0</title>
<path fill="none" stroke="black" stroke-width="2" d="M291.5,-581C272.8,-581 274.06,-559.16 279.59,-538.15"/>
<polygon fill="black" stroke="black" stroke-width="2" points="282.48,-528.33 283.98,-539.19 281.55,-533.27 280.14,-538.06 279.66,-537.92 279.18,-537.78 280.59,-532.99 275.35,-536.65 282.48,-528.33 282.48,-528.33"/>
</g>
<!-- node0x55fa5996f020 -->
<g id="node13" class="node">
<title>node0x55fa5996f020</title>
<polygon fill="#9acd32" stroke="transparent" points="457.5,-500 457.5,-521 738.5,-521 738.5,-500 457.5,-500"/>
<polygon fill="none" stroke="black" points="457.5,-500 457.5,-521 738.5,-521 738.5,-500 457.5,-500"/>
<text text-anchor="start" x="589.5" y="-506.8" font-family="Times,serif" font-size="14.00"> =</text>
<polygon fill="none" stroke="black" points="457.5,-477 457.5,-498 593.5,-498 593.5,-477 457.5,-477"/>
<text text-anchor="start" x="460.5" y="-483.8" font-family="Times,serif" font-size="14.00">L:0x55fa5996efe0</text>
<polygon fill="none" stroke="black" points="595.5,-477 595.5,-498 738.5,-498 738.5,-477 595.5,-477"/>
<text text-anchor="start" x="598.5" y="-483.8" font-family="Times,serif" font-size="14.00">R: 0x55fa5996f060</text>
<polygon fill="none" stroke="black" points="454,-474 454,-524 741,-524 741,-474 454,-474"/>
</g>
<!-- node0x55fa5996f5a0&#45;&gt;node0x55fa5996f020 -->
<g id="edge12" class="edge">
<title>node0x55fa5996f5a0:rchild&#45;&gt;node0x55fa5996f020</title>
<path fill="none" stroke="black" stroke-width="2" d="M574.5,-581C593.85,-581 599.34,-559.35 600.13,-538.44"/>
<polygon fill="black" stroke="black" stroke-width="2" points="600.18,-528.33 604.63,-538.35 600.65,-533.33 600.63,-538.33 600.13,-538.33 599.63,-538.33 599.65,-533.33 595.63,-538.31 600.18,-528.33 600.18,-528.33"/>
</g>
<!-- node0x55fa5996efe0 -->
<g id="node14" class="node">
<title>node0x55fa5996efe0</title>
<polygon fill="orchid" stroke="transparent" points="472.5,-406 472.5,-427 578.5,-427 578.5,-406 472.5,-406"/>
<polygon fill="none" stroke="black" points="472.5,-406 472.5,-427 578.5,-427 578.5,-406 472.5,-406"/>
<text text-anchor="start" x="519" y="-412.8" font-family="Times,serif" font-size="14.00"> x</text>
<polygon fill="none" stroke="black" points="472.5,-383 472.5,-404 521.5,-404 521.5,-383 472.5,-383"/>
<text text-anchor="start" x="475.5" y="-389.8" font-family="Times,serif" font-size="14.00">L:(nil)</text>
<polygon fill="none" stroke="black" points="523.5,-383 523.5,-404 578.5,-404 578.5,-383 523.5,-383"/>
<text text-anchor="start" x="526.5" y="-389.8" font-family="Times,serif" font-size="14.00">R: (nil)</text>
<polygon fill="none" stroke="black" points="469.5,-380 469.5,-430 581.5,-430 581.5,-380 469.5,-380"/>
</g>
<!-- node0x55fa5996f020&#45;&gt;node0x55fa5996efe0 -->
<g id="edge13" class="edge">
<title>node0x55fa5996f020:lchild&#45;&gt;node0x55fa5996efe0</title>
<path fill="none" stroke="black" stroke-width="2" d="M525.5,-476C525.5,-465.81 525.5,-454.78 525.5,-444.56"/>
<polygon fill="black" stroke="black" stroke-width="2" points="525.5,-434.27 530,-444.27 526,-439.27 526,-444.27 525.5,-444.27 525,-444.27 525,-439.27 521,-444.27 525.5,-434.27 525.5,-434.27"/>
</g>
<!-- node0x55fa5996f060 -->
<g id="node15" class="node">
<title>node0x55fa5996f060</title>
<polygon fill="lightskyblue" stroke="transparent" points="618.5,-406 618.5,-427 724.5,-427 724.5,-406 618.5,-406"/>
<polygon fill="none" stroke="black" points="618.5,-406 618.5,-427 724.5,-427 724.5,-406 618.5,-406"/>
<text text-anchor="start" x="666.5" y="-412.8" font-family="Times,serif" font-size="14.00">0</text>
<polygon fill="none" stroke="black" points="618.5,-383 618.5,-404 667.5,-404 667.5,-383 618.5,-383"/>
<text text-anchor="start" x="621.5" y="-389.8" font-family="Times,serif" font-size="14.00">L:(nil)</text>
<polygon fill="none" stroke="black" points="669.5,-383 669.5,-404 724.5,-404 724.5,-383 669.5,-383"/>
<text text-anchor="start" x="672.5" y="-389.8" font-family="Times,serif" font-size="14.00">R: (nil)</text>
<polygon fill="none" stroke="black" points="615.5,-380 615.5,-430 727.5,-430 727.5,-380 615.5,-380"/>
</g>
<!-- node0x55fa5996f020&#45;&gt;node0x55fa5996f060 -->
<g id="edge14" class="edge">
<title>node0x55fa5996f020:rchild&#45;&gt;node0x55fa5996f060</title>
<path fill="none" stroke="black" stroke-width="2" d="M667.5,-476C667.5,-465.79 667.93,-454.76 668.51,-444.54"/>
<polygon fill="black" stroke="black" stroke-width="2" points="669.15,-434.25 673.02,-444.51 669.34,-439.27 669.02,-444.26 668.53,-444.23 668.03,-444.2 668.34,-439.21 664.03,-443.95 669.15,-434.25 669.15,-434.25"/>
</g>
</g>
</svg>
