<?xml version="1.0" encoding="UTF-8" standalone="no"?>
<!DOCTYPE svg PUBLIC "-//W3C//DTD SVG 1.1//EN"
 "http://www.w3.org/Graphics/SVG/1.1/DTD/svg11.dtd">
<!-- Generated by graphviz version 2.43.0 (0)
 -->
<!-- Title: dump_graph Pages: 1 -->
<svg width="1027pt" height="630pt"
 viewBox="0.00 0.00 1026.50 630.00" xmlns="http://www.w3.org/2000/svg" xmlns:xlink="http://www.w3.org/1999/xlink">
<g id="graph0" class="graph" transform="scale(1 1) rotate(0) translate(4 626)">
<title>dump_graph</title>
<polygon fill="white" stroke="transparent" points="-4,4 -4,-626 1022.5,-626 1022.5,4 -4,4"/>
<!-- node0x55fa7bfe4250 -->
<g id="node1" class="node">
<title>node0x55fa7bfe4250</title>
<polygon fill="pink" stroke="transparent" points="273,-500 273,-521 466,-521 466,-500 273,-500"/>
<polygon fill="none" stroke="black" points="273,-500 273,-521 466,-521 466,-500 273,-500"/>
<text text-anchor="start" x="330.5" y="-506.8" font-family="Times,serif" font-size="14.00"> statement</text>
<polygon fill="none" stroke="black" points="273,-477 273,-498 322,-498 322,-477 273,-477"/>
<text text-anchor="start" x="276" y="-483.8" font-family="Times,serif" font-size="14.00">L:(nil)</text>
<polygon fill="none" stroke="black" points="324,-477 324,-498 466,-498 466,-477 324,-477"/>
<text text-anchor="start" x="327" y="-483.8" font-family="Times,serif" font-size="14.00">R: 0x55fa7bfe40d0</text>
<polygon fill="none" stroke="black" points="269.5,-474 269.5,-524 468.5,-524 468.5,-474 269.5,-474"/>
</g>
<!-- node0x55fa7bfe40d0 -->
<g id="node2" class="node">
<title>node0x55fa7bfe40d0</title>
<polygon fill="#cd4f39" stroke="transparent" points="227,-406 227,-427 507,-427 507,-406 227,-406"/>
<polygon fill="none" stroke="black" points="227,-406 227,-427 507,-427 507,-406 227,-406"/>
<text text-anchor="start" x="342.5" y="-412.8" font-family="Times,serif" font-size="14.00"> define</text>
<polygon fill="none" stroke="black" points="227,-383 227,-404 363,-404 363,-383 227,-383"/>
<text text-anchor="start" x="230" y="-389.8" font-family="Times,serif" font-size="14.00">L:0x55fa7bfe4090</text>
<polygon fill="none" stroke="black" points="365,-383 365,-404 507,-404 507,-383 365,-383"/>
<text text-anchor="start" x="368" y="-389.8" font-family="Times,serif" font-size="14.00">R: 0x55fa7bfe42d0</text>
<polygon fill="none" stroke="black" points="224,-380 224,-430 510,-430 510,-380 224,-380"/>
</g>
<!-- node0x55fa7bfe4250&#45;&gt;node0x55fa7bfe40d0 -->
<g id="edge1" class="edge">
<title>node0x55fa7bfe4250:rchild&#45;&gt;node0x55fa7bfe40d0</title>
<path fill="none" stroke="black" stroke-width="2" d="M395,-476C395,-465.09 392.03,-453.86 388.03,-443.68"/>
<polygon fill="black" stroke="black" stroke-width="2" points="383.93,-434.29 392.05,-441.66 386.39,-438.67 388.39,-443.25 387.93,-443.45 387.47,-443.65 385.47,-439.07 383.8,-445.25 383.93,-434.29 383.93,-434.29"/>
</g>
<!-- node0x55fa7bfe4090 -->
<g id="node4" class="node">
<title>node0x55fa7bfe4090</title>
<polygon fill="pink" stroke="transparent" points="45,-312 45,-333 325,-333 325,-312 45,-312"/>
<polygon fill="none" stroke="black" points="45,-312 45,-333 325,-333 325,-312 45,-312"/>
<text text-anchor="start" x="153" y="-318.8" font-family="Times,serif" font-size="14.00"> function</text>
<polygon fill="none" stroke="black" points="45,-289 45,-310 181,-310 181,-289 45,-289"/>
<text text-anchor="start" x="48" y="-295.8" font-family="Times,serif" font-size="14.00">L:0x55fa7bfe3dd0</text>
<polygon fill="none" stroke="black" points="183,-289 183,-310 325,-310 325,-289 183,-289"/>
<text text-anchor="start" x="186" y="-295.8" font-family="Times,serif" font-size="14.00">R: 0x55fa7bfe4290</text>
<polygon fill="none" stroke="black" points="42,-286 42,-336 328,-336 328,-286 42,-286"/>
</g>
<!-- node0x55fa7bfe40d0&#45;&gt;node0x55fa7bfe4090 -->
<g id="edge5" class="edge">
<title>node0x55fa7bfe40d0:lchild&#45;&gt;node0x55fa7bfe4090</title>
<path fill="none" stroke="black" stroke-width="2" d="M226,-393C205.05,-393 194.8,-371.16 189.79,-350.15"/>
<polygon fill="black" stroke="black" stroke-width="2" points="187.78,-340.33 194.19,-349.23 189.27,-345.13 190.27,-350.03 189.78,-350.13 189.29,-350.23 188.29,-345.33 185.37,-351.03 187.78,-340.33 187.78,-340.33"/>
</g>
<!-- node0x55fa7bfe42d0 -->
<g id="node7" class="node">
<title>node0x55fa7bfe42d0</title>
<polygon fill="pink" stroke="transparent" points="365,-312 365,-333 555,-333 555,-312 365,-312"/>
<polygon fill="none" stroke="black" points="365,-312 365,-333 555,-333 555,-312 365,-312"/>
<text text-anchor="start" x="421" y="-318.8" font-family="Times,serif" font-size="14.00"> statement</text>
<polygon fill="none" stroke="black" points="365,-289 365,-310 414,-310 414,-289 365,-289"/>
<text text-anchor="start" x="368" y="-295.8" font-family="Times,serif" font-size="14.00">L:(nil)</text>
<polygon fill="none" stroke="black" points="416,-289 416,-310 555,-310 555,-289 416,-289"/>
<text text-anchor="start" x="419" y="-295.8" font-family="Times,serif" font-size="14.00">R: 0x55fa7bfe3f10</text>
<polygon fill="none" stroke="black" points="362,-286 362,-336 558,-336 558,-286 362,-286"/>
</g>
<!-- node0x55fa7bfe40d0&#45;&gt;node0x55fa7bfe42d0 -->
<g id="edge6" class="edge">
<title>node0x55fa7bfe40d0:rchild&#45;&gt;node0x55fa7bfe42d0</title>
<path fill="none" stroke="black" stroke-width="2" d="M436,-382C436,-371.19 438.59,-359.93 442.07,-349.68"/>
<polygon fill="black" stroke="black" stroke-width="2" points="445.62,-340.21 446.32,-351.15 444.34,-345.06 442.58,-349.75 442.11,-349.57 441.64,-349.39 443.4,-344.71 437.9,-347.99 445.62,-340.21 445.62,-340.21"/>
</g>
<!-- node0x55fa7bfe3dd0 -->
<g id="node3" class="node">
<title>node0x55fa7bfe3dd0</title>
<polygon fill="orchid" stroke="transparent" points="11,-218 11,-239 117,-239 117,-218 11,-218"/>
<polygon fill="none" stroke="black" points="11,-218 11,-239 117,-239 117,-218 11,-218"/>
<text text-anchor="start" x="47.5" y="-224.8" font-family="Times,serif" font-size="14.00"> size</text>
<polygon fill="none" stroke="black" points="11,-195 11,-216 60,-216 60,-195 11,-195"/>
<text text-anchor="start" x="14" y="-201.8" font-family="Times,serif" font-size="14.00">L:(nil)</text>
<polygon fill="none" stroke="black" points="62,-195 62,-216 117,-216 117,-195 62,-195"/>
<text text-anchor="start" x="65" y="-201.8" font-family="Times,serif" font-size="14.00">R: (nil)</text>
<polygon fill="none" stroke="black" points="8,-192 8,-242 120,-242 120,-192 8,-192"/>
</g>
<!-- node0x55fa7bfe4090&#45;&gt;node0x55fa7bfe3dd0 -->
<g id="edge2" class="edge">
<title>node0x55fa7bfe4090:lchild&#45;&gt;node0x55fa7bfe3dd0</title>
<path fill="none" stroke="black" stroke-width="2" d="M44,-299C24.48,-299 31.05,-276.56 41.65,-255.3"/>
<polygon fill="black" stroke="black" stroke-width="2" points="46.38,-246.33 45.7,-257.27 44.49,-250.99 42.16,-255.41 41.72,-255.18 41.28,-254.94 43.61,-250.52 37.74,-253.08 46.38,-246.33 46.38,-246.33"/>
</g>
<!-- node0x55fa7bfe4290 -->
<g id="node5" class="node">
<title>node0x55fa7bfe4290</title>
<polygon fill="pink" stroke="transparent" points="158,-218 158,-239 351,-239 351,-218 158,-218"/>
<polygon fill="none" stroke="black" points="158,-218 158,-239 351,-239 351,-218 158,-218"/>
<text text-anchor="start" x="214.5" y="-224.8" font-family="Times,serif" font-size="14.00"> parameter</text>
<polygon fill="none" stroke="black" points="158,-195 158,-216 207,-216 207,-195 158,-195"/>
<text text-anchor="start" x="161" y="-201.8" font-family="Times,serif" font-size="14.00">L:(nil)</text>
<polygon fill="none" stroke="black" points="209,-195 209,-216 351,-216 351,-195 209,-195"/>
<text text-anchor="start" x="212" y="-201.8" font-family="Times,serif" font-size="14.00">R: 0x55fa7bfe3e50</text>
<polygon fill="none" stroke="black" points="154.5,-192 154.5,-242 353.5,-242 353.5,-192 154.5,-192"/>
</g>
<!-- node0x55fa7bfe4090&#45;&gt;node0x55fa7bfe4290 -->
<g id="edge3" class="edge">
<title>node0x55fa7bfe4090:rchild&#45;&gt;node0x55fa7bfe4290</title>
<path fill="none" stroke="black" stroke-width="2" d="M254,-288C254,-277.81 254,-266.78 254,-256.56"/>
<polygon fill="black" stroke="black" stroke-width="2" points="254,-246.27 258.5,-256.27 254.5,-251.27 254.5,-256.27 254,-256.27 253.5,-256.27 253.5,-251.27 249.5,-256.27 254,-246.27 254,-246.27"/>
</g>
<!-- node0x55fa7bfe3e50 -->
<g id="node6" class="node">
<title>node0x55fa7bfe3e50</title>
<polygon fill="orchid" stroke="transparent" points="227,-124 227,-145 333,-145 333,-124 227,-124"/>
<polygon fill="none" stroke="black" points="227,-124 227,-145 333,-145 333,-124 227,-124"/>
<text text-anchor="start" x="255" y="-130.8" font-family="Times,serif" font-size="14.00"> radius</text>
<polygon fill="none" stroke="black" points="227,-101 227,-122 276,-122 276,-101 227,-101"/>
<text text-anchor="start" x="230" y="-107.8" font-family="Times,serif" font-size="14.00">L:(nil)</text>
<polygon fill="none" stroke="black" points="278,-101 278,-122 333,-122 333,-101 278,-101"/>
<text text-anchor="start" x="281" y="-107.8" font-family="Times,serif" font-size="14.00">R: (nil)</text>
<polygon fill="none" stroke="black" points="224,-98 224,-148 336,-148 336,-98 224,-98"/>
</g>
<!-- node0x55fa7bfe4290&#45;&gt;node0x55fa7bfe3e50 -->
<g id="edge4" class="edge">
<title>node0x55fa7bfe4290:rchild&#45;&gt;node0x55fa7bfe3e50</title>
<path fill="none" stroke="black" stroke-width="2" d="M280,-194C280,-183.81 280,-172.78 280,-162.56"/>
<polygon fill="black" stroke="black" stroke-width="2" points="280,-152.27 284.5,-162.27 280.5,-157.27 280.5,-162.27 280,-162.27 279.5,-162.27 279.5,-157.27 275.5,-162.27 280,-152.27 280,-152.27"/>
</g>
<!-- node0x55fa7bfe3f10 -->
<g id="node8" class="node">
<title>node0x55fa7bfe3f10</title>
<polygon fill="pink" stroke="transparent" points="391,-218 391,-239 581,-239 581,-218 391,-218"/>
<polygon fill="none" stroke="black" points="391,-218 391,-239 581,-239 581,-218 391,-218"/>
<text text-anchor="start" x="460.5" y="-224.8" font-family="Times,serif" font-size="14.00"> return</text>
<polygon fill="none" stroke="black" points="391,-195 391,-216 440,-216 440,-195 391,-195"/>
<text text-anchor="start" x="394" y="-201.8" font-family="Times,serif" font-size="14.00">L:(nil)</text>
<polygon fill="none" stroke="black" points="442,-195 442,-216 581,-216 581,-195 442,-195"/>
<text text-anchor="start" x="445" y="-201.8" font-family="Times,serif" font-size="14.00">R: 0x55fa7bfe3fd0</text>
<polygon fill="none" stroke="black" points="388,-192 388,-242 584,-242 584,-192 388,-192"/>
</g>
<!-- node0x55fa7bfe42d0&#45;&gt;node0x55fa7bfe3f10 -->
<g id="edge7" class="edge">
<title>node0x55fa7bfe42d0:rchild&#45;&gt;node0x55fa7bfe3f10</title>
<path fill="none" stroke="black" stroke-width="2" d="M486,-288C486,-277.81 486,-266.78 486,-256.56"/>
<polygon fill="black" stroke="black" stroke-width="2" points="486,-246.27 490.5,-256.27 486.5,-251.27 486.5,-256.27 486,-256.27 485.5,-256.27 485.5,-251.27 481.5,-256.27 486,-246.27 486,-246.27"/>
</g>
<!-- node0x55fa7bfe3fd0 -->
<g id="node9" class="node">
<title>node0x55fa7bfe3fd0</title>
<polygon fill="#9acd32" stroke="transparent" points="374,-124 374,-145 651,-145 651,-124 374,-124"/>
<polygon fill="none" stroke="black" points="374,-124 374,-145 651,-145 651,-124 374,-124"/>
<text text-anchor="start" x="504" y="-130.8" font-family="Times,serif" font-size="14.00"> +</text>
<polygon fill="none" stroke="black" points="374,-101 374,-122 507,-122 507,-101 374,-101"/>
<text text-anchor="start" x="377" y="-107.8" font-family="Times,serif" font-size="14.00">L:0x55fa7bfe3f90</text>
<polygon fill="none" stroke="black" points="509,-101 509,-122 651,-122 651,-101 509,-101"/>
<text text-anchor="start" x="512" y="-107.8" font-family="Times,serif" font-size="14.00">R: 0x55fa7bfe4010</text>
<polygon fill="none" stroke="black" points="370.5,-98 370.5,-148 653.5,-148 653.5,-98 370.5,-98"/>
</g>
<!-- node0x55fa7bfe3f10&#45;&gt;node0x55fa7bfe3fd0 -->
<g id="edge8" class="edge">
<title>node0x55fa7bfe3f10:rchild&#45;&gt;node0x55fa7bfe3fd0</title>
<path fill="none" stroke="black" stroke-width="2" d="M512,-194C512,-183.81 512,-172.78 512,-162.56"/>
<polygon fill="black" stroke="black" stroke-width="2" points="512,-152.27 516.5,-162.27 512.5,-157.27 512.5,-162.27 512,-162.27 511.5,-162.27 511.5,-157.27 507.5,-162.27 512,-152.27 512,-152.27"/>
</g>
<!-- node0x55fa7bfe3f90 -->
<g id="node10" class="node">
<title>node0x55fa7bfe3f90</title>
<polygon fill="orchid" stroke="transparent" points="384,-30 384,-51 490,-51 490,-30 384,-30"/>
<polygon fill="none" stroke="black" points="384,-30 384,-51 490,-51 490,-30 384,-30"/>
<text text-anchor="start" x="412" y="-36.8" font-family="Times,serif" font-size="14.00"> radius</text>
<polygon fill="none" stroke="black" points="384,-7 384,-28 433,-28 433,-7 384,-7"/>
<text text-anchor="start" x="387" y="-13.8" font-family="Times,serif" font-size="14.00">L:(nil)</text>
<polygon fill="none" stroke="black" points="435,-7 435,-28 490,-28 490,-7 435,-7"/>
<text text-anchor="start" x="438" y="-13.8" font-family="Times,serif" font-size="14.00">R: (nil)</text>
<polygon fill="none" stroke="black" points="381,-4 381,-54 493,-54 493,-4 381,-4"/>
</g>
<!-- node0x55fa7bfe3fd0&#45;&gt;node0x55fa7bfe3f90 -->
<g id="edge9" class="edge">
<title>node0x55fa7bfe3fd0:lchild&#45;&gt;node0x55fa7bfe3f90</title>
<path fill="none" stroke="black" stroke-width="2" d="M440,-100C440,-89.8 439.68,-78.77 439.25,-68.55"/>
<polygon fill="black" stroke="black" stroke-width="2" points="438.76,-58.26 443.73,-68.04 439.5,-63.23 439.73,-68.22 439.23,-68.25 438.73,-68.27 438.5,-63.28 434.74,-68.46 438.76,-58.26 438.76,-58.26"/>
</g>
<!-- node0x55fa7bfe4010 -->
<g id="node11" class="node">
<title>node0x55fa7bfe4010</title>
<polygon fill="lightskyblue" stroke="transparent" points="530,-30 530,-51 636,-51 636,-30 530,-30"/>
<polygon fill="none" stroke="black" points="530,-30 530,-51 636,-51 636,-30 530,-30"/>
<text text-anchor="start" x="578" y="-36.8" font-family="Times,serif" font-size="14.00">2</text>
<polygon fill="none" stroke="black" points="530,-7 530,-28 579,-28 579,-7 530,-7"/>
<text text-anchor="start" x="533" y="-13.8" font-family="Times,serif" font-size="14.00">L:(nil)</text>
<polygon fill="none" stroke="black" points="581,-7 581,-28 636,-28 636,-7 581,-7"/>
<text text-anchor="start" x="584" y="-13.8" font-family="Times,serif" font-size="14.00">R: (nil)</text>
<polygon fill="none" stroke="black" points="527,-4 527,-54 639,-54 639,-4 527,-4"/>
</g>
<!-- node0x55fa7bfe3fd0&#45;&gt;node0x55fa7bfe4010 -->
<g id="edge10" class="edge">
<title>node0x55fa7bfe3fd0:rchild&#45;&gt;node0x55fa7bfe4010</title>
<path fill="none" stroke="black" stroke-width="2" d="M580,-100C580,-89.8 580.32,-78.77 580.75,-68.55"/>
<polygon fill="black" stroke="black" stroke-width="2" points="581.24,-58.26 585.26,-68.46 581.5,-63.28 581.27,-68.27 580.77,-68.25 580.27,-68.22 580.5,-63.23 576.27,-68.04 581.24,-58.26 581.24,-58.26"/>
</g>
<!-- node0x55fa7bfe4150 -->
<g id="node12" class="node">
<title>node0x55fa7bfe4150</title>
<polygon fill="pink" stroke="transparent" points="368,-594 368,-615 647,-615 647,-594 368,-594"/>
<polygon fill="none" stroke="black" points="368,-594 368,-615 647,-615 647,-594 368,-594"/>
<text text-anchor="start" x="468.5" y="-600.8" font-family="Times,serif" font-size="14.00"> statement</text>
<polygon fill="none" stroke="black" points="368,-571 368,-592 504,-592 504,-571 368,-571"/>
<text text-anchor="start" x="371" y="-577.8" font-family="Times,serif" font-size="14.00">L:0x55fa7bfe4250</text>
<polygon fill="none" stroke="black" points="506,-571 506,-592 647,-592 647,-571 506,-571"/>
<text text-anchor="start" x="509" y="-577.8" font-family="Times,serif" font-size="14.00">R: 0x55fa7bfe3c50</text>
<polygon fill="none" stroke="black" points="364.5,-568 364.5,-618 649.5,-618 649.5,-568 364.5,-568"/>
</g>
<!-- node0x55fa7bfe4150&#45;&gt;node0x55fa7bfe4250 -->
<g id="edge11" class="edge">
<title>node0x55fa7bfe4150:lchild&#45;&gt;node0x55fa7bfe4250</title>
<path fill="none" stroke="black" stroke-width="2" d="M367,-581C348.3,-581 349.56,-559.16 355.09,-538.15"/>
<polygon fill="black" stroke="black" stroke-width="2" points="357.98,-528.33 359.48,-539.19 357.05,-533.27 355.64,-538.06 355.16,-537.92 354.68,-537.78 356.09,-532.99 350.85,-536.65 357.98,-528.33 357.98,-528.33"/>
</g>
<!-- node0x55fa7bfe3c50 -->
<g id="node13" class="node">
<title>node0x55fa7bfe3c50</title>
<polygon fill="#9acd32" stroke="transparent" points="533,-500 533,-521 812,-521 812,-500 533,-500"/>
<polygon fill="none" stroke="black" points="533,-500 533,-521 812,-521 812,-500 533,-500"/>
<text text-anchor="start" x="664" y="-506.8" font-family="Times,serif" font-size="14.00"> =</text>
<polygon fill="none" stroke="black" points="533,-477 533,-498 668,-498 668,-477 533,-477"/>
<text text-anchor="start" x="536" y="-483.8" font-family="Times,serif" font-size="14.00">L:0x55fa7bfe3c10</text>
<polygon fill="none" stroke="black" points="670,-477 670,-498 812,-498 812,-477 670,-477"/>
<text text-anchor="start" x="673" y="-483.8" font-family="Times,serif" font-size="14.00">R: 0x55fa7bfe41d0</text>
<polygon fill="none" stroke="black" points="529.5,-474 529.5,-524 814.5,-524 814.5,-474 529.5,-474"/>
</g>
<!-- node0x55fa7bfe4150&#45;&gt;node0x55fa7bfe3c50 -->
<g id="edge12" class="edge">
<title>node0x55fa7bfe4150:rchild&#45;&gt;node0x55fa7bfe3c50</title>
<path fill="none" stroke="black" stroke-width="2" d="M648,-581C667.41,-581 673.17,-559.35 674.2,-538.44"/>
<polygon fill="black" stroke="black" stroke-width="2" points="674.36,-528.33 678.7,-538.4 674.78,-533.34 674.7,-538.34 674.2,-538.33 673.7,-538.32 673.78,-533.32 669.7,-538.25 674.36,-528.33 674.36,-528.33"/>
</g>
<!-- node0x55fa7bfe3c10 -->
<g id="node14" class="node">
<title>node0x55fa7bfe3c10</title>
<polygon fill="orchid" stroke="transparent" points="547,-406 547,-427 653,-427 653,-406 547,-406"/>
<polygon fill="none" stroke="black" points="547,-406 547,-427 653,-427 653,-406 547,-406"/>
<text text-anchor="start" x="587" y="-412.8" font-family="Times,serif" font-size="14.00"> vol</text>
<polygon fill="none" stroke="black" points="547,-383 547,-404 596,-404 596,-383 547,-383"/>
<text text-anchor="start" x="550" y="-389.8" font-family="Times,serif" font-size="14.00">L:(nil)</text>
<polygon fill="none" stroke="black" points="598,-383 598,-404 653,-404 653,-383 598,-383"/>
<text text-anchor="start" x="601" y="-389.8" font-family="Times,serif" font-size="14.00">R: (nil)</text>
<polygon fill="none" stroke="black" points="544,-380 544,-430 656,-430 656,-380 544,-380"/>
</g>
<!-- node0x55fa7bfe3c50&#45;&gt;node0x55fa7bfe3c10 -->
<g id="edge13" class="edge">
<title>node0x55fa7bfe3c50:lchild&#45;&gt;node0x55fa7bfe3c10</title>
<path fill="none" stroke="black" stroke-width="2" d="M600,-476C600,-465.81 600,-454.78 600,-444.56"/>
<polygon fill="black" stroke="black" stroke-width="2" points="600,-434.27 604.5,-444.27 600.5,-439.27 600.5,-444.27 600,-444.27 599.5,-444.27 599.5,-439.27 595.5,-444.27 600,-434.27 600,-434.27"/>
</g>
<!-- node0x55fa7bfe41d0 -->
<g id="node15" class="node">
<title>node0x55fa7bfe41d0</title>
<polygon fill="#cd4f39" stroke="transparent" points="694,-406 694,-427 887,-427 887,-406 694,-406"/>
<polygon fill="none" stroke="black" points="694,-406 694,-427 887,-427 887,-406 694,-406"/>
<text text-anchor="start" x="775.5" y="-412.8" font-family="Times,serif" font-size="14.00"> call</text>
<polygon fill="none" stroke="black" points="694,-383 694,-404 743,-404 743,-383 694,-383"/>
<text text-anchor="start" x="697" y="-389.8" font-family="Times,serif" font-size="14.00">L:(nil)</text>
<polygon fill="none" stroke="black" points="745,-383 745,-404 887,-404 887,-383 745,-383"/>
<text text-anchor="start" x="748" y="-389.8" font-family="Times,serif" font-size="14.00">R: 0x55fa7bfe4210</text>
<polygon fill="none" stroke="black" points="690.5,-380 690.5,-430 889.5,-430 889.5,-380 690.5,-380"/>
</g>
<!-- node0x55fa7bfe3c50&#45;&gt;node0x55fa7bfe41d0 -->
<g id="edge14" class="edge">
<title>node0x55fa7bfe3c50:rchild&#45;&gt;node0x55fa7bfe41d0</title>
<path fill="none" stroke="black" stroke-width="2" d="M813,-487C832.7,-487 825.29,-464.56 813.85,-443.3"/>
<polygon fill="black" stroke="black" stroke-width="2" points="808.77,-434.33 817.61,-440.81 811.67,-438.43 814.13,-442.78 813.7,-443.03 813.26,-443.28 810.8,-438.93 809.78,-445.25 808.77,-434.33 808.77,-434.33"/>
</g>
<!-- node0x55fa7bfe4210 -->
<g id="node16" class="node">
<title>node0x55fa7bfe4210</title>
<polygon fill="pink" stroke="transparent" points="677,-312 677,-333 956,-333 956,-312 677,-312"/>
<polygon fill="none" stroke="black" points="677,-312 677,-333 956,-333 956,-312 677,-312"/>
<text text-anchor="start" x="784.5" y="-318.8" font-family="Times,serif" font-size="14.00"> function</text>
<polygon fill="none" stroke="black" points="677,-289 677,-310 812,-310 812,-289 677,-289"/>
<text text-anchor="start" x="680" y="-295.8" font-family="Times,serif" font-size="14.00">L:0x55fa7bfe3c90</text>
<polygon fill="none" stroke="black" points="814,-289 814,-310 956,-310 956,-289 814,-289"/>
<text text-anchor="start" x="817" y="-295.8" font-family="Times,serif" font-size="14.00">R: 0x55fa7bfe4190</text>
<polygon fill="none" stroke="black" points="673.5,-286 673.5,-336 958.5,-336 958.5,-286 673.5,-286"/>
</g>
<!-- node0x55fa7bfe41d0&#45;&gt;node0x55fa7bfe4210 -->
<g id="edge15" class="edge">
<title>node0x55fa7bfe41d0:rchild&#45;&gt;node0x55fa7bfe4210</title>
<path fill="none" stroke="black" stroke-width="2" d="M816,-382C816,-371.81 816,-360.78 816,-350.56"/>
<polygon fill="black" stroke="black" stroke-width="2" points="816,-340.27 820.5,-350.27 816.5,-345.27 816.5,-350.27 816,-350.27 815.5,-350.27 815.5,-345.27 811.5,-350.27 816,-340.27 816,-340.27"/>
</g>
<!-- node0x55fa7bfe3c90 -->
<g id="node17" class="node">
<title>node0x55fa7bfe3c90</title>
<polygon fill="orchid" stroke="transparent" points="668,-218 668,-239 774,-239 774,-218 668,-218"/>
<polygon fill="none" stroke="black" points="668,-218 668,-239 774,-239 774,-218 668,-218"/>
<text text-anchor="start" x="704.5" y="-224.8" font-family="Times,serif" font-size="14.00"> size</text>
<polygon fill="none" stroke="black" points="668,-195 668,-216 717,-216 717,-195 668,-195"/>
<text text-anchor="start" x="671" y="-201.8" font-family="Times,serif" font-size="14.00">L:(nil)</text>
<polygon fill="none" stroke="black" points="719,-195 719,-216 774,-216 774,-195 719,-195"/>
<text text-anchor="start" x="722" y="-201.8" font-family="Times,serif" font-size="14.00">R: (nil)</text>
<polygon fill="none" stroke="black" points="665,-192 665,-242 777,-242 777,-192 665,-192"/>
</g>
<!-- node0x55fa7bfe4210&#45;&gt;node0x55fa7bfe3c90 -->
<g id="edge16" class="edge">
<title>node0x55fa7bfe4210:lchild&#45;&gt;node0x55fa7bfe3c90</title>
<path fill="none" stroke="black" stroke-width="2" d="M744,-288C744,-277.24 741.52,-265.99 738.18,-255.74"/>
<polygon fill="black" stroke="black" stroke-width="2" points="734.78,-246.27 742.39,-254.16 736.94,-250.8 738.63,-255.51 738.16,-255.68 737.69,-255.85 736,-251.14 733.92,-257.2 734.78,-246.27 734.78,-246.27"/>
</g>
<!-- node0x55fa7bfe4190 -->
<g id="node18" class="node">
<title>node0x55fa7bfe4190</title>
<polygon fill="pink" stroke="transparent" points="815,-218 815,-239 1008,-239 1008,-218 815,-218"/>
<polygon fill="none" stroke="black" points="815,-218 815,-239 1008,-239 1008,-218 815,-218"/>
<text text-anchor="start" x="871.5" y="-224.8" font-family="Times,serif" font-size="14.00"> parameter</text>
<polygon fill="none" stroke="black" points="815,-195 815,-216 864,-216 864,-195 815,-195"/>
<text text-anchor="start" x="818" y="-201.8" font-family="Times,serif" font-size="14.00">L:(nil)</text>
<polygon fill="none" stroke="black" points="866,-195 866,-216 1008,-216 1008,-195 866,-195"/>
<text text-anchor="start" x="869" y="-201.8" font-family="Times,serif" font-size="14.00">R: 0x55fa7bfe3d10</text>
<polygon fill="none" stroke="black" points="811.5,-192 811.5,-242 1010.5,-242 1010.5,-192 811.5,-192"/>
</g>
<!-- node0x55fa7bfe4210&#45;&gt;node0x55fa7bfe4190 -->
<g id="edge17" class="edge">
<title>node0x55fa7bfe4210:rchild&#45;&gt;node0x55fa7bfe4190</title>
<path fill="none" stroke="black" stroke-width="2" d="M885,-288C885,-277.1 887.81,-265.8 891.58,-255.55"/>
<polygon fill="black" stroke="black" stroke-width="2" points="895.43,-246.08 895.83,-257.04 894,-250.9 892.12,-255.53 891.66,-255.35 891.19,-255.16 893.08,-250.53 887.49,-253.65 895.43,-246.08 895.43,-246.08"/>
</g>
<!-- node0x55fa7bfe3d10 -->
<g id="node19" class="node">
<title>node0x55fa7bfe3d10</title>
<polygon fill="orchid" stroke="transparent" points="884,-124 884,-145 990,-145 990,-124 884,-124"/>
<polygon fill="none" stroke="black" points="884,-124 884,-145 990,-145 990,-124 884,-124"/>
<text text-anchor="start" x="931" y="-130.8" font-family="Times,serif" font-size="14.00"> r</text>
<polygon fill="none" stroke="black" points="884,-101 884,-122 933,-122 933,-101 884,-101"/>
<text text-anchor="start" x="887" y="-107.8" font-family="Times,serif" font-size="14.00">L:(nil)</text>
<polygon fill="none" stroke="black" points="935,-101 935,-122 990,-122 990,-101 935,-101"/>
<text text-anchor="start" x="938" y="-107.8" font-family="Times,serif" font-size="14.00">R: (nil)</text>
<polygon fill="none" stroke="black" points="881,-98 881,-148 993,-148 993,-98 881,-98"/>
</g>
<!-- node0x55fa7bfe4190&#45;&gt;node0x55fa7bfe3d10 -->
<g id="edge18" class="edge">
<title>node0x55fa7bfe4190:rchild&#45;&gt;node0x55fa7bfe3d10</title>
<path fill="none" stroke="black" stroke-width="2" d="M937,-194C937,-183.81 937,-172.78 937,-162.56"/>
<polygon fill="black" stroke="black" stroke-width="2" points="937,-152.27 941.5,-162.27 937.5,-157.27 937.5,-162.27 937,-162.27 936.5,-162.27 936.5,-157.27 932.5,-162.27 937,-152.27 937,-152.27"/>
</g>
</g>
</svg>
