<?xml version="1.0" encoding="UTF-8" standalone="no"?>
<!DOCTYPE svg PUBLIC "-//W3C//DTD SVG 1.1//EN"
 "http://www.w3.org/Graphics/SVG/1.1/DTD/svg11.dtd">
<!-- Generated by graphviz version 2.43.0 (0)
 -->
<!-- Title: dump_graph Pages: 1 -->
<svg width="461pt" height="348pt"
 viewBox="0.00 0.00 460.50 348.00" xmlns="http://www.w3.org/2000/svg" xmlns:xlink="http://www.w3.org/1999/xlink">
<g id="graph0" class="graph" transform="scale(1 1) rotate(0) translate(4 344)">
<title>dump_graph</title>
<polygon fill="white" stroke="transparent" points="-4,4 -4,-344 456.5,-344 456.5,4 -4,4"/>
<!-- node0x55679f8aada0 -->
<g id="node1" class="node">
<title>node0x55679f8aada0</title>
<polygon fill="pink" stroke="transparent" points="58,-312 58,-333 254,-333 254,-312 58,-312"/>
<polygon fill="none" stroke="black" points="58,-312 58,-333 254,-333 254,-312 58,-312"/>
<text text-anchor="start" x="117" y="-318.8" font-family="Times,serif" font-size="14.00"> statement</text>
<polygon fill="none" stroke="black" points="58,-289 58,-310 107,-310 107,-289 58,-289"/>
<text text-anchor="start" x="61" y="-295.8" font-family="Times,serif" font-size="14.00">L:(nil)</text>
<polygon fill="none" stroke="black" points="109,-289 109,-310 254,-310 254,-289 109,-289"/>
<text text-anchor="start" x="112" y="-295.8" font-family="Times,serif" font-size="14.00">R: 0x55679f8aac20</text>
<polygon fill="none" stroke="black" points="55,-286 55,-336 257,-336 257,-286 55,-286"/>
</g>
<!-- node0x55679f8aac20 -->
<g id="node2" class="node">
<title>node0x55679f8aac20</title>
<polygon fill="#9acd32" stroke="transparent" points="40,-218 40,-239 325,-239 325,-218 40,-218"/>
<polygon fill="none" stroke="black" points="40,-218 40,-239 325,-239 325,-218 40,-218"/>
<text text-anchor="start" x="174" y="-224.8" font-family="Times,serif" font-size="14.00"> =</text>
<polygon fill="none" stroke="black" points="40,-195 40,-216 179,-216 179,-195 40,-195"/>
<text text-anchor="start" x="43" y="-201.8" font-family="Times,serif" font-size="14.00">L:0x55679f8aabe0</text>
<polygon fill="none" stroke="black" points="181,-195 181,-216 325,-216 325,-195 181,-195"/>
<text text-anchor="start" x="184" y="-201.8" font-family="Times,serif" font-size="14.00">R: 0x55679f8aaca0</text>
<polygon fill="none" stroke="black" points="36.5,-192 36.5,-242 327.5,-242 327.5,-192 36.5,-192"/>
</g>
<!-- node0x55679f8aada0&#45;&gt;node0x55679f8aac20 -->
<g id="edge1" class="edge">
<title>node0x55679f8aada0:rchild&#45;&gt;node0x55679f8aac20</title>
<path fill="none" stroke="black" stroke-width="2" d="M182,-288C182,-277.81 182,-266.78 182,-256.56"/>
<polygon fill="black" stroke="black" stroke-width="2" points="182,-246.27 186.5,-256.27 182.5,-251.27 182.5,-256.27 182,-256.27 181.5,-256.27 181.5,-251.27 177.5,-256.27 182,-246.27 182,-246.27"/>
</g>
<!-- node0x55679f8aabe0 -->
<g id="node3" class="node">
<title>node0x55679f8aabe0</title>
<polygon fill="orchid" stroke="transparent" points="11,-124 11,-145 117,-145 117,-124 11,-124"/>
<polygon fill="none" stroke="black" points="11,-124 11,-145 117,-145 117,-124 11,-124"/>
<text text-anchor="start" x="57.5" y="-130.8" font-family="Times,serif" font-size="14.00"> x</text>
<polygon fill="none" stroke="black" points="11,-101 11,-122 60,-122 60,-101 11,-101"/>
<text text-anchor="start" x="14" y="-107.8" font-family="Times,serif" font-size="14.00">L:(nil)</text>
<polygon fill="none" stroke="black" points="62,-101 62,-122 117,-122 117,-101 62,-101"/>
<text text-anchor="start" x="65" y="-107.8" font-family="Times,serif" font-size="14.00">R: (nil)</text>
<polygon fill="none" stroke="black" points="8,-98 8,-148 120,-148 120,-98 8,-98"/>
</g>
<!-- node0x55679f8aac20&#45;&gt;node0x55679f8aabe0 -->
<g id="edge2" class="edge">
<title>node0x55679f8aac20:lchild&#45;&gt;node0x55679f8aabe0</title>
<path fill="none" stroke="black" stroke-width="2" d="M109,-194C109,-182.16 104.38,-170.72 98.11,-160.64"/>
<polygon fill="black" stroke="black" stroke-width="2" points="92.24,-152.16 101.63,-157.83 95.5,-155.99 98.34,-160.1 97.93,-160.39 97.52,-160.67 94.68,-156.56 94.23,-162.95 92.24,-152.16 92.24,-152.16"/>
</g>
<!-- node0x55679f8aaca0 -->
<g id="node4" class="node">
<title>node0x55679f8aaca0</title>
<polygon fill="#9acd32" stroke="transparent" points="157,-124 157,-145 442,-145 442,-124 157,-124"/>
<polygon fill="none" stroke="black" points="157,-124 157,-145 442,-145 442,-124 157,-124"/>
<text text-anchor="start" x="291" y="-130.8" font-family="Times,serif" font-size="14.00"> +</text>
<polygon fill="none" stroke="black" points="157,-101 157,-122 296,-122 296,-101 157,-101"/>
<text text-anchor="start" x="160" y="-107.8" font-family="Times,serif" font-size="14.00">L:0x55679f8aac60</text>
<polygon fill="none" stroke="black" points="298,-101 298,-122 442,-122 442,-101 298,-101"/>
<text text-anchor="start" x="301" y="-107.8" font-family="Times,serif" font-size="14.00">R: 0x55679f8aace0</text>
<polygon fill="none" stroke="black" points="153.5,-98 153.5,-148 444.5,-148 444.5,-98 153.5,-98"/>
</g>
<!-- node0x55679f8aac20&#45;&gt;node0x55679f8aaca0 -->
<g id="edge3" class="edge">
<title>node0x55679f8aac20:rchild&#45;&gt;node0x55679f8aaca0</title>
<path fill="none" stroke="black" stroke-width="2" d="M253,-194C253,-181.96 257.81,-170.38 264.33,-160.23"/>
<polygon fill="black" stroke="black" stroke-width="2" points="270.13,-152.06 268.01,-162.82 267.64,-156.42 264.75,-160.5 264.34,-160.21 263.93,-159.92 266.83,-155.85 260.67,-157.61 270.13,-152.06 270.13,-152.06"/>
</g>
<!-- node0x55679f8aac60 -->
<g id="node5" class="node">
<title>node0x55679f8aac60</title>
<polygon fill="lightskyblue" stroke="transparent" points="172,-30 172,-51 278,-51 278,-30 172,-30"/>
<polygon fill="none" stroke="black" points="172,-30 172,-51 278,-51 278,-30 172,-30"/>
<text text-anchor="start" x="220" y="-36.8" font-family="Times,serif" font-size="14.00">2</text>
<polygon fill="none" stroke="black" points="172,-7 172,-28 221,-28 221,-7 172,-7"/>
<text text-anchor="start" x="175" y="-13.8" font-family="Times,serif" font-size="14.00">L:(nil)</text>
<polygon fill="none" stroke="black" points="223,-7 223,-28 278,-28 278,-7 223,-7"/>
<text text-anchor="start" x="226" y="-13.8" font-family="Times,serif" font-size="14.00">R: (nil)</text>
<polygon fill="none" stroke="black" points="169,-4 169,-54 281,-54 281,-4 169,-4"/>
</g>
<!-- node0x55679f8aaca0&#45;&gt;node0x55679f8aac60 -->
<g id="edge4" class="edge">
<title>node0x55679f8aaca0:lchild&#45;&gt;node0x55679f8aac60</title>
<path fill="none" stroke="black" stroke-width="2" d="M226,-100C226,-89.81 225.89,-78.78 225.75,-68.56"/>
<polygon fill="black" stroke="black" stroke-width="2" points="225.59,-58.27 230.24,-68.2 226.17,-63.26 226.24,-68.26 225.74,-68.27 225.24,-68.27 225.17,-63.28 221.24,-68.34 225.59,-58.27 225.59,-58.27"/>
</g>
<!-- node0x55679f8aace0 -->
<g id="node6" class="node">
<title>node0x55679f8aace0</title>
<polygon fill="lightskyblue" stroke="transparent" points="318,-30 318,-51 424,-51 424,-30 318,-30"/>
<polygon fill="none" stroke="black" points="318,-30 318,-51 424,-51 424,-30 318,-30"/>
<text text-anchor="start" x="366" y="-36.8" font-family="Times,serif" font-size="14.00">2</text>
<polygon fill="none" stroke="black" points="318,-7 318,-28 367,-28 367,-7 318,-7"/>
<text text-anchor="start" x="321" y="-13.8" font-family="Times,serif" font-size="14.00">L:(nil)</text>
<polygon fill="none" stroke="black" points="369,-7 369,-28 424,-28 424,-7 369,-7"/>
<text text-anchor="start" x="372" y="-13.8" font-family="Times,serif" font-size="14.00">R: (nil)</text>
<polygon fill="none" stroke="black" points="315,-4 315,-54 427,-54 427,-4 315,-4"/>
</g>
<!-- node0x55679f8aaca0&#45;&gt;node0x55679f8aace0 -->
<g id="edge5" class="edge">
<title>node0x55679f8aaca0:rchild&#45;&gt;node0x55679f8aace0</title>
<path fill="none" stroke="black" stroke-width="2" d="M370,-100C370,-89.81 370.11,-78.78 370.25,-68.56"/>
<polygon fill="black" stroke="black" stroke-width="2" points="370.41,-58.27 374.76,-68.34 370.83,-63.28 370.76,-68.27 370.26,-68.27 369.76,-68.26 369.83,-63.26 365.76,-68.2 370.41,-58.27 370.41,-58.27"/>
</g>
</g>
</svg>
