<?xml version="1.0" encoding="UTF-8" standalone="no"?>
<!DOCTYPE svg PUBLIC "-//W3C//DTD SVG 1.1//EN"
 "http://www.w3.org/Graphics/SVG/1.1/DTD/svg11.dtd">
<!-- Generated by graphviz version 2.43.0 (0)
 -->
<!-- Title: dump_graph Pages: 1 -->
<svg width="772pt" height="630pt"
 viewBox="0.00 0.00 772.00 630.00" xmlns="http://www.w3.org/2000/svg" xmlns:xlink="http://www.w3.org/1999/xlink">
<g id="graph0" class="graph" transform="scale(1 1) rotate(0) translate(4 626)">
<title>dump_graph</title>
<polygon fill="white" stroke="transparent" points="-4,4 -4,-626 768,-626 768,4 -4,4"/>
<!-- node0x55f9e66b25e0 -->
<g id="node1" class="node">
<title>node0x55f9e66b25e0</title>
<polygon fill="pink" stroke="transparent" points="203.5,-500 203.5,-521 400.5,-521 400.5,-500 203.5,-500"/>
<polygon fill="none" stroke="black" points="203.5,-500 203.5,-521 400.5,-521 400.5,-500 203.5,-500"/>
<text text-anchor="start" x="263" y="-506.8" font-family="Times,serif" font-size="14.00"> statement</text>
<polygon fill="none" stroke="black" points="203.5,-477 203.5,-498 252.5,-498 252.5,-477 203.5,-477"/>
<text text-anchor="start" x="206.5" y="-483.8" font-family="Times,serif" font-size="14.00">L:(nil)</text>
<polygon fill="none" stroke="black" points="254.5,-477 254.5,-498 400.5,-498 400.5,-477 254.5,-477"/>
<text text-anchor="start" x="257.5" y="-483.8" font-family="Times,serif" font-size="14.00">R: 0x55f9e66b20e0</text>
<polygon fill="none" stroke="black" points="200,-474 200,-524 403,-524 403,-474 200,-474"/>
</g>
<!-- node0x55f9e66b20e0 -->
<g id="node2" class="node">
<title>node0x55f9e66b20e0</title>
<polygon fill="#cd4f39" stroke="transparent" points="153.5,-406 153.5,-427 443.5,-427 443.5,-406 153.5,-406"/>
<polygon fill="none" stroke="black" points="153.5,-406 153.5,-427 443.5,-427 443.5,-406 153.5,-406"/>
<text text-anchor="start" x="277" y="-412.8" font-family="Times,serif" font-size="14.00"> while</text>
<polygon fill="none" stroke="black" points="153.5,-383 153.5,-404 294.5,-404 294.5,-383 153.5,-383"/>
<text text-anchor="start" x="156.5" y="-389.8" font-family="Times,serif" font-size="14.00">L:0x55f9e66b2420</text>
<polygon fill="none" stroke="black" points="296.5,-383 296.5,-404 443.5,-404 443.5,-383 296.5,-383"/>
<text text-anchor="start" x="299.5" y="-389.8" font-family="Times,serif" font-size="14.00">R: 0x55f9e66b2620</text>
<polygon fill="none" stroke="black" points="150.5,-380 150.5,-430 446.5,-430 446.5,-380 150.5,-380"/>
</g>
<!-- node0x55f9e66b25e0&#45;&gt;node0x55f9e66b20e0 -->
<g id="edge1" class="edge">
<title>node0x55f9e66b25e0:rchild&#45;&gt;node0x55f9e66b20e0</title>
<path fill="none" stroke="black" stroke-width="2" d="M327.5,-476C327.5,-465.03 324.43,-453.79 320.28,-443.61"/>
<polygon fill="black" stroke="black" stroke-width="2" points="316.04,-434.21 324.25,-441.48 318.55,-438.57 320.61,-443.12 320.15,-443.33 319.7,-443.54 317.64,-438.98 316.05,-445.18 316.04,-434.21 316.04,-434.21"/>
</g>
<!-- node0x55f9e66b2420 -->
<g id="node4" class="node">
<title>node0x55f9e66b2420</title>
<polygon fill="orchid" stroke="transparent" points="11.5,-312 11.5,-333 300.5,-333 300.5,-312 11.5,-312"/>
<polygon fill="none" stroke="black" points="11.5,-312 11.5,-333 300.5,-333 300.5,-312 11.5,-312"/>
<text text-anchor="start" x="149" y="-318.8" font-family="Times,serif" font-size="14.00"> L</text>
<polygon fill="none" stroke="black" points="11.5,-289 11.5,-310 151.5,-310 151.5,-289 11.5,-289"/>
<text text-anchor="start" x="14.5" y="-295.8" font-family="Times,serif" font-size="14.00">L:0x55f9e66b23e0</text>
<polygon fill="none" stroke="black" points="153.5,-289 153.5,-310 300.5,-310 300.5,-289 153.5,-289"/>
<text text-anchor="start" x="156.5" y="-295.8" font-family="Times,serif" font-size="14.00">R: 0x55f9e66b2460</text>
<polygon fill="none" stroke="black" points="8,-286 8,-336 303,-336 303,-286 8,-286"/>
</g>
<!-- node0x55f9e66b20e0&#45;&gt;node0x55f9e66b2420 -->
<g id="edge4" class="edge">
<title>node0x55f9e66b20e0:lchild&#45;&gt;node0x55f9e66b2420</title>
<path fill="none" stroke="black" stroke-width="2" d="M152.5,-393C133.79,-393 135.32,-371.16 141.12,-350.15"/>
<polygon fill="black" stroke="black" stroke-width="2" points="144.13,-340.33 145.5,-351.21 143.14,-345.26 141.68,-350.04 141.2,-349.89 140.72,-349.74 142.19,-344.96 136.9,-348.57 144.13,-340.33 144.13,-340.33"/>
</g>
<!-- node0x55f9e66b2620 -->
<g id="node6" class="node">
<title>node0x55f9e66b2620</title>
<polygon fill="pink" stroke="transparent" points="340.5,-312 340.5,-333 537.5,-333 537.5,-312 340.5,-312"/>
<polygon fill="none" stroke="black" points="340.5,-312 340.5,-333 537.5,-333 537.5,-312 340.5,-312"/>
<text text-anchor="start" x="400" y="-318.8" font-family="Times,serif" font-size="14.00"> statement</text>
<polygon fill="none" stroke="black" points="340.5,-289 340.5,-310 389.5,-310 389.5,-289 340.5,-289"/>
<text text-anchor="start" x="343.5" y="-295.8" font-family="Times,serif" font-size="14.00">L:(nil)</text>
<polygon fill="none" stroke="black" points="391.5,-289 391.5,-310 537.5,-310 537.5,-289 391.5,-289"/>
<text text-anchor="start" x="394.5" y="-295.8" font-family="Times,serif" font-size="14.00">R: 0x55f9e66b21a0</text>
<polygon fill="none" stroke="black" points="337,-286 337,-336 540,-336 540,-286 337,-286"/>
</g>
<!-- node0x55f9e66b20e0&#45;&gt;node0x55f9e66b2620 -->
<g id="edge5" class="edge">
<title>node0x55f9e66b20e0:rchild&#45;&gt;node0x55f9e66b2620</title>
<path fill="none" stroke="black" stroke-width="2" d="M444.5,-393C463.33,-393 460.88,-370.96 454.23,-349.87"/>
<polygon fill="black" stroke="black" stroke-width="2" points="450.94,-340.33 458.46,-348.32 453.04,-344.89 454.67,-349.62 454.2,-349.78 453.73,-349.95 452.1,-345.22 449.95,-351.25 450.94,-340.33 450.94,-340.33"/>
</g>
<!-- node0x55f9e66b23e0 -->
<g id="node3" class="node">
<title>node0x55f9e66b23e0</title>
<polygon fill="orchid" stroke="transparent" points="28.5,-218 28.5,-239 134.5,-239 134.5,-218 28.5,-218"/>
<polygon fill="none" stroke="black" points="28.5,-218 28.5,-239 134.5,-239 134.5,-218 28.5,-218"/>
<text text-anchor="start" x="75" y="-224.8" font-family="Times,serif" font-size="14.00"> x</text>
<polygon fill="none" stroke="black" points="28.5,-195 28.5,-216 77.5,-216 77.5,-195 28.5,-195"/>
<text text-anchor="start" x="31.5" y="-201.8" font-family="Times,serif" font-size="14.00">L:(nil)</text>
<polygon fill="none" stroke="black" points="79.5,-195 79.5,-216 134.5,-216 134.5,-195 79.5,-195"/>
<text text-anchor="start" x="82.5" y="-201.8" font-family="Times,serif" font-size="14.00">R: (nil)</text>
<polygon fill="none" stroke="black" points="25.5,-192 25.5,-242 137.5,-242 137.5,-192 25.5,-192"/>
</g>
<!-- node0x55f9e66b2420&#45;&gt;node0x55f9e66b23e0 -->
<g id="edge2" class="edge">
<title>node0x55f9e66b2420:lchild&#45;&gt;node0x55f9e66b23e0</title>
<path fill="none" stroke="black" stroke-width="2" d="M81.5,-288C81.5,-277.81 81.5,-266.78 81.5,-256.56"/>
<polygon fill="black" stroke="black" stroke-width="2" points="81.5,-246.27 86,-256.27 82,-251.27 82,-256.27 81.5,-256.27 81,-256.27 81,-251.27 77,-256.27 81.5,-246.27 81.5,-246.27"/>
</g>
<!-- node0x55f9e66b2460 -->
<g id="node5" class="node">
<title>node0x55f9e66b2460</title>
<polygon fill="lightskyblue" stroke="transparent" points="174.5,-218 174.5,-239 280.5,-239 280.5,-218 174.5,-218"/>
<polygon fill="none" stroke="black" points="174.5,-218 174.5,-239 280.5,-239 280.5,-218 174.5,-218"/>
<text text-anchor="start" x="213.5" y="-224.8" font-family="Times,serif" font-size="14.00">255</text>
<polygon fill="none" stroke="black" points="174.5,-195 174.5,-216 223.5,-216 223.5,-195 174.5,-195"/>
<text text-anchor="start" x="177.5" y="-201.8" font-family="Times,serif" font-size="14.00">L:(nil)</text>
<polygon fill="none" stroke="black" points="225.5,-195 225.5,-216 280.5,-216 280.5,-195 225.5,-195"/>
<text text-anchor="start" x="228.5" y="-201.8" font-family="Times,serif" font-size="14.00">R: (nil)</text>
<polygon fill="none" stroke="black" points="171.5,-192 171.5,-242 283.5,-242 283.5,-192 171.5,-192"/>
</g>
<!-- node0x55f9e66b2420&#45;&gt;node0x55f9e66b2460 -->
<g id="edge3" class="edge">
<title>node0x55f9e66b2420:rchild&#45;&gt;node0x55f9e66b2460</title>
<path fill="none" stroke="black" stroke-width="2" d="M227.5,-288C227.5,-277.81 227.5,-266.78 227.5,-256.56"/>
<polygon fill="black" stroke="black" stroke-width="2" points="227.5,-246.27 232,-256.27 228,-251.27 228,-256.27 227.5,-256.27 227,-256.27 227,-251.27 223,-256.27 227.5,-246.27 227.5,-246.27"/>
</g>
<!-- node0x55f9e66b21a0 -->
<g id="node7" class="node">
<title>node0x55f9e66b21a0</title>
<polygon fill="#9acd32" stroke="transparent" points="320.5,-218 320.5,-239 610.5,-239 610.5,-218 320.5,-218"/>
<polygon fill="none" stroke="black" points="320.5,-218 320.5,-239 610.5,-239 610.5,-218 320.5,-218"/>
<text text-anchor="start" x="457" y="-224.8" font-family="Times,serif" font-size="14.00"> =</text>
<polygon fill="none" stroke="black" points="320.5,-195 320.5,-216 461.5,-216 461.5,-195 320.5,-195"/>
<text text-anchor="start" x="323.5" y="-201.8" font-family="Times,serif" font-size="14.00">L:0x55f9e66b2160</text>
<polygon fill="none" stroke="black" points="463.5,-195 463.5,-216 610.5,-216 610.5,-195 463.5,-195"/>
<text text-anchor="start" x="466.5" y="-201.8" font-family="Times,serif" font-size="14.00">R: 0x55f9e66b2220</text>
<polygon fill="none" stroke="black" points="317.5,-192 317.5,-242 613.5,-242 613.5,-192 317.5,-192"/>
</g>
<!-- node0x55f9e66b2620&#45;&gt;node0x55f9e66b21a0 -->
<g id="edge6" class="edge">
<title>node0x55f9e66b2620:rchild&#45;&gt;node0x55f9e66b21a0</title>
<path fill="none" stroke="black" stroke-width="2" d="M464.5,-288C464.5,-277.81 464.61,-266.78 464.75,-256.56"/>
<polygon fill="black" stroke="black" stroke-width="2" points="464.91,-246.27 469.26,-256.34 465.33,-251.28 465.26,-256.27 464.76,-256.27 464.26,-256.26 464.33,-251.26 460.26,-256.2 464.91,-246.27 464.91,-246.27"/>
</g>
<!-- node0x55f9e66b2160 -->
<g id="node8" class="node">
<title>node0x55f9e66b2160</title>
<polygon fill="orchid" stroke="transparent" points="292.5,-124 292.5,-145 398.5,-145 398.5,-124 292.5,-124"/>
<polygon fill="none" stroke="black" points="292.5,-124 292.5,-145 398.5,-145 398.5,-124 292.5,-124"/>
<text text-anchor="start" x="339" y="-130.8" font-family="Times,serif" font-size="14.00"> x</text>
<polygon fill="none" stroke="black" points="292.5,-101 292.5,-122 341.5,-122 341.5,-101 292.5,-101"/>
<text text-anchor="start" x="295.5" y="-107.8" font-family="Times,serif" font-size="14.00">L:(nil)</text>
<polygon fill="none" stroke="black" points="343.5,-101 343.5,-122 398.5,-122 398.5,-101 343.5,-101"/>
<text text-anchor="start" x="346.5" y="-107.8" font-family="Times,serif" font-size="14.00">R: (nil)</text>
<polygon fill="none" stroke="black" points="289.5,-98 289.5,-148 401.5,-148 401.5,-98 289.5,-98"/>
</g>
<!-- node0x55f9e66b21a0&#45;&gt;node0x55f9e66b2160 -->
<g id="edge7" class="edge">
<title>node0x55f9e66b21a0:lchild&#45;&gt;node0x55f9e66b2160</title>
<path fill="none" stroke="black" stroke-width="2" d="M390.5,-194C390.5,-182.16 385.88,-170.72 379.61,-160.64"/>
<polygon fill="black" stroke="black" stroke-width="2" points="373.74,-152.16 383.13,-157.83 377,-155.99 379.84,-160.1 379.43,-160.39 379.02,-160.67 376.18,-156.56 375.73,-162.95 373.74,-152.16 373.74,-152.16"/>
</g>
<!-- node0x55f9e66b2220 -->
<g id="node9" class="node">
<title>node0x55f9e66b2220</title>
<polygon fill="#9acd32" stroke="transparent" points="439.5,-124 439.5,-145 728.5,-145 728.5,-124 439.5,-124"/>
<polygon fill="none" stroke="black" points="439.5,-124 439.5,-145 728.5,-145 728.5,-124 439.5,-124"/>
<text text-anchor="start" x="575.5" y="-130.8" font-family="Times,serif" font-size="14.00"> +</text>
<polygon fill="none" stroke="black" points="439.5,-101 439.5,-122 579.5,-122 579.5,-101 439.5,-101"/>
<text text-anchor="start" x="442.5" y="-107.8" font-family="Times,serif" font-size="14.00">L:0x55f9e66b21e0</text>
<polygon fill="none" stroke="black" points="581.5,-101 581.5,-122 728.5,-122 728.5,-101 581.5,-101"/>
<text text-anchor="start" x="584.5" y="-107.8" font-family="Times,serif" font-size="14.00">R: 0x55f9e66b2260</text>
<polygon fill="none" stroke="black" points="436,-98 436,-148 731,-148 731,-98 436,-98"/>
</g>
<!-- node0x55f9e66b21a0&#45;&gt;node0x55f9e66b2220 -->
<g id="edge8" class="edge">
<title>node0x55f9e66b21a0:rchild&#45;&gt;node0x55f9e66b2220</title>
<path fill="none" stroke="black" stroke-width="2" d="M537.5,-194C537.5,-181.96 542.31,-170.38 548.83,-160.23"/>
<polygon fill="black" stroke="black" stroke-width="2" points="554.63,-152.06 552.51,-162.82 552.14,-156.42 549.25,-160.5 548.84,-160.21 548.43,-159.92 551.33,-155.85 545.17,-157.61 554.63,-152.06 554.63,-152.06"/>
</g>
<!-- node0x55f9e66b21e0 -->
<g id="node10" class="node">
<title>node0x55f9e66b21e0</title>
<polygon fill="orchid" stroke="transparent" points="456.5,-30 456.5,-51 562.5,-51 562.5,-30 456.5,-30"/>
<polygon fill="none" stroke="black" points="456.5,-30 456.5,-51 562.5,-51 562.5,-30 456.5,-30"/>
<text text-anchor="start" x="503" y="-36.8" font-family="Times,serif" font-size="14.00"> x</text>
<polygon fill="none" stroke="black" points="456.5,-7 456.5,-28 505.5,-28 505.5,-7 456.5,-7"/>
<text text-anchor="start" x="459.5" y="-13.8" font-family="Times,serif" font-size="14.00">L:(nil)</text>
<polygon fill="none" stroke="black" points="507.5,-7 507.5,-28 562.5,-28 562.5,-7 507.5,-7"/>
<text text-anchor="start" x="510.5" y="-13.8" font-family="Times,serif" font-size="14.00">R: (nil)</text>
<polygon fill="none" stroke="black" points="453.5,-4 453.5,-54 565.5,-54 565.5,-4 453.5,-4"/>
</g>
<!-- node0x55f9e66b2220&#45;&gt;node0x55f9e66b21e0 -->
<g id="edge9" class="edge">
<title>node0x55f9e66b2220:lchild&#45;&gt;node0x55f9e66b21e0</title>
<path fill="none" stroke="black" stroke-width="2" d="M509.5,-100C509.5,-89.81 509.5,-78.78 509.5,-68.56"/>
<polygon fill="black" stroke="black" stroke-width="2" points="509.5,-58.27 514,-68.27 510,-63.27 510,-68.27 509.5,-68.27 509,-68.27 509,-63.27 505,-68.27 509.5,-58.27 509.5,-58.27"/>
</g>
<!-- node0x55f9e66b2260 -->
<g id="node11" class="node">
<title>node0x55f9e66b2260</title>
<polygon fill="lightskyblue" stroke="transparent" points="602.5,-30 602.5,-51 708.5,-51 708.5,-30 602.5,-30"/>
<polygon fill="none" stroke="black" points="602.5,-30 602.5,-51 708.5,-51 708.5,-30 602.5,-30"/>
<text text-anchor="start" x="650.5" y="-36.8" font-family="Times,serif" font-size="14.00">1</text>
<polygon fill="none" stroke="black" points="602.5,-7 602.5,-28 651.5,-28 651.5,-7 602.5,-7"/>
<text text-anchor="start" x="605.5" y="-13.8" font-family="Times,serif" font-size="14.00">L:(nil)</text>
<polygon fill="none" stroke="black" points="653.5,-7 653.5,-28 708.5,-28 708.5,-7 653.5,-7"/>
<text text-anchor="start" x="656.5" y="-13.8" font-family="Times,serif" font-size="14.00">R: (nil)</text>
<polygon fill="none" stroke="black" points="599.5,-4 599.5,-54 711.5,-54 711.5,-4 599.5,-4"/>
</g>
<!-- node0x55f9e66b2220&#45;&gt;node0x55f9e66b2260 -->
<g id="edge10" class="edge">
<title>node0x55f9e66b2220:rchild&#45;&gt;node0x55f9e66b2260</title>
<path fill="none" stroke="black" stroke-width="2" d="M655.5,-100C655.5,-89.81 655.5,-78.78 655.5,-68.56"/>
<polygon fill="black" stroke="black" stroke-width="2" points="655.5,-58.27 660,-68.27 656,-63.27 656,-68.27 655.5,-68.27 655,-68.27 655,-63.27 651,-68.27 655.5,-58.27 655.5,-58.27"/>
</g>
<!-- node0x55f9e66b25a0 -->
<g id="node12" class="node">
<title>node0x55f9e66b25a0</title>
<polygon fill="pink" stroke="transparent" points="298.5,-594 298.5,-615 587.5,-615 587.5,-594 298.5,-594"/>
<polygon fill="none" stroke="black" points="298.5,-594 298.5,-615 587.5,-615 587.5,-594 298.5,-594"/>
<text text-anchor="start" x="404" y="-600.8" font-family="Times,serif" font-size="14.00"> statement</text>
<polygon fill="none" stroke="black" points="298.5,-571 298.5,-592 438.5,-592 438.5,-571 298.5,-571"/>
<text text-anchor="start" x="301.5" y="-577.8" font-family="Times,serif" font-size="14.00">L:0x55f9e66b25e0</text>
<polygon fill="none" stroke="black" points="440.5,-571 440.5,-592 587.5,-592 587.5,-571 440.5,-571"/>
<text text-anchor="start" x="443.5" y="-577.8" font-family="Times,serif" font-size="14.00">R: 0x55f9e66b2020</text>
<polygon fill="none" stroke="black" points="295,-568 295,-618 590,-618 590,-568 295,-568"/>
</g>
<!-- node0x55f9e66b25a0&#45;&gt;node0x55f9e66b25e0 -->
<g id="edge11" class="edge">
<title>node0x55f9e66b25a0:lchild&#45;&gt;node0x55f9e66b25e0</title>
<path fill="none" stroke="black" stroke-width="2" d="M297.5,-581C278.7,-581 280.6,-558.96 286.72,-537.87"/>
<polygon fill="black" stroke="black" stroke-width="2" points="289.77,-528.33 291.01,-539.23 288.73,-533.24 287.2,-538.01 286.73,-537.85 286.25,-537.7 287.78,-532.94 282.44,-536.48 289.77,-528.33 289.77,-528.33"/>
</g>
<!-- node0x55f9e66b2020 -->
<g id="node13" class="node">
<title>node0x55f9e66b2020</title>
<polygon fill="#9acd32" stroke="transparent" points="468.5,-500 468.5,-521 753.5,-521 753.5,-500 468.5,-500"/>
<polygon fill="none" stroke="black" points="468.5,-500 468.5,-521 753.5,-521 753.5,-500 468.5,-500"/>
<text text-anchor="start" x="602.5" y="-506.8" font-family="Times,serif" font-size="14.00"> =</text>
<polygon fill="none" stroke="black" points="468.5,-477 468.5,-498 604.5,-498 604.5,-477 468.5,-477"/>
<text text-anchor="start" x="471.5" y="-483.8" font-family="Times,serif" font-size="14.00">L:0x55f9e66b1fe0</text>
<polygon fill="none" stroke="black" points="606.5,-477 606.5,-498 753.5,-498 753.5,-477 606.5,-477"/>
<text text-anchor="start" x="609.5" y="-483.8" font-family="Times,serif" font-size="14.00">R: 0x55f9e66b2060</text>
<polygon fill="none" stroke="black" points="465,-474 465,-524 756,-524 756,-474 465,-474"/>
</g>
<!-- node0x55f9e66b25a0&#45;&gt;node0x55f9e66b2020 -->
<g id="edge12" class="edge">
<title>node0x55f9e66b25a0:rchild&#45;&gt;node0x55f9e66b2020</title>
<path fill="none" stroke="black" stroke-width="2" d="M588.5,-581C607.79,-581 613.01,-559.35 613.56,-538.44"/>
<polygon fill="black" stroke="black" stroke-width="2" points="613.49,-528.33 618.06,-538.3 614.03,-533.33 614.06,-538.33 613.56,-538.33 613.06,-538.33 613.03,-533.33 609.06,-538.36 613.49,-528.33 613.49,-528.33"/>
</g>
<!-- node0x55f9e66b1fe0 -->
<g id="node14" class="node">
<title>node0x55f9e66b1fe0</title>
<polygon fill="orchid" stroke="transparent" points="483.5,-406 483.5,-427 589.5,-427 589.5,-406 483.5,-406"/>
<polygon fill="none" stroke="black" points="483.5,-406 483.5,-427 589.5,-427 589.5,-406 483.5,-406"/>
<text text-anchor="start" x="530" y="-412.8" font-family="Times,serif" font-size="14.00"> x</text>
<polygon fill="none" stroke="black" points="483.5,-383 483.5,-404 532.5,-404 532.5,-383 483.5,-383"/>
<text text-anchor="start" x="486.5" y="-389.8" font-family="Times,serif" font-size="14.00">L:(nil)</text>
<polygon fill="none" stroke="black" points="534.5,-383 534.5,-404 589.5,-404 589.5,-383 534.5,-383"/>
<text text-anchor="start" x="537.5" y="-389.8" font-family="Times,serif" font-size="14.00">R: (nil)</text>
<polygon fill="none" stroke="black" points="480.5,-380 480.5,-430 592.5,-430 592.5,-380 480.5,-380"/>
</g>
<!-- node0x55f9e66b2020&#45;&gt;node0x55f9e66b1fe0 -->
<g id="edge13" class="edge">
<title>node0x55f9e66b2020:lchild&#45;&gt;node0x55f9e66b1fe0</title>
<path fill="none" stroke="black" stroke-width="2" d="M536.5,-476C536.5,-465.81 536.5,-454.78 536.5,-444.56"/>
<polygon fill="black" stroke="black" stroke-width="2" points="536.5,-434.27 541,-444.27 537,-439.27 537,-444.27 536.5,-444.27 536,-444.27 536,-439.27 532,-444.27 536.5,-434.27 536.5,-434.27"/>
</g>
<!-- node0x55f9e66b2060 -->
<g id="node15" class="node">
<title>node0x55f9e66b2060</title>
<polygon fill="lightskyblue" stroke="transparent" points="629.5,-406 629.5,-427 735.5,-427 735.5,-406 629.5,-406"/>
<polygon fill="none" stroke="black" points="629.5,-406 629.5,-427 735.5,-427 735.5,-406 629.5,-406"/>
<text text-anchor="start" x="677.5" y="-412.8" font-family="Times,serif" font-size="14.00">0</text>
<polygon fill="none" stroke="black" points="629.5,-383 629.5,-404 678.5,-404 678.5,-383 629.5,-383"/>
<text text-anchor="start" x="632.5" y="-389.8" font-family="Times,serif" font-size="14.00">L:(nil)</text>
<polygon fill="none" stroke="black" points="680.5,-383 680.5,-404 735.5,-404 735.5,-383 680.5,-383"/>
<text text-anchor="start" x="683.5" y="-389.8" font-family="Times,serif" font-size="14.00">R: (nil)</text>
<polygon fill="none" stroke="black" points="626.5,-380 626.5,-430 738.5,-430 738.5,-380 626.5,-380"/>
</g>
<!-- node0x55f9e66b2020&#45;&gt;node0x55f9e66b2060 -->
<g id="edge14" class="edge">
<title>node0x55f9e66b2020:rchild&#45;&gt;node0x55f9e66b2060</title>
<path fill="none" stroke="black" stroke-width="2" d="M680.5,-476C680.5,-465.8 680.71,-454.78 681,-444.55"/>
<polygon fill="black" stroke="black" stroke-width="2" points="681.33,-434.26 685.51,-444.4 681.67,-439.28 681.51,-444.27 681.01,-444.26 680.51,-444.24 680.67,-439.25 676.51,-444.12 681.33,-434.26 681.33,-434.26"/>
</g>
</g>
</svg>
