<?xml version="1.0" encoding="UTF-8" standalone="no"?>
<!DOCTYPE svg PUBLIC "-//W3C//DTD SVG 1.1//EN"
 "http://www.w3.org/Graphics/SVG/1.1/DTD/svg11.dtd">
<!-- Generated by graphviz version 2.43.0 (0)
 -->
<!-- Title: dump_graph Pages: 1 -->
<svg width="893pt" height="818pt"
 viewBox="0.00 0.00 892.50 818.00" xmlns="http://www.w3.org/2000/svg" xmlns:xlink="http://www.w3.org/1999/xlink">
<g id="graph0" class="graph" transform="scale(1 1) rotate(0) translate(4 814)">
<title>dump_graph</title>
<polygon fill="white" stroke="transparent" points="-4,4 -4,-814 888.5,-814 888.5,4 -4,4"/>
<!-- node0x564f6ef893a0 -->
<g id="node1" class="node">
<title>node0x564f6ef893a0</title>
<polygon fill="pink" stroke="transparent" points="440.5,-782 440.5,-803 633.5,-803 633.5,-782 440.5,-782"/>
<polygon fill="none" stroke="black" points="440.5,-782 440.5,-803 633.5,-803 633.5,-782 440.5,-782"/>
<text text-anchor="start" x="498" y="-788.8" font-family="Times,serif" font-size="14.00"> statement</text>
<polygon fill="none" stroke="black" points="440.5,-759 440.5,-780 489.5,-780 489.5,-759 440.5,-759"/>
<text text-anchor="start" x="443.5" y="-765.8" font-family="Times,serif" font-size="14.00">L:(nil)</text>
<polygon fill="none" stroke="black" points="491.5,-759 491.5,-780 633.5,-780 633.5,-759 491.5,-759"/>
<text text-anchor="start" x="494.5" y="-765.8" font-family="Times,serif" font-size="14.00">R: 0x564f6ef88c20</text>
<polygon fill="none" stroke="black" points="437,-756 437,-806 636,-806 636,-756 437,-756"/>
</g>
<!-- node0x564f6ef88c20 -->
<g id="node2" class="node">
<title>node0x564f6ef88c20</title>
<polygon fill="orchid" stroke="transparent" points="422.5,-688 422.5,-709 702.5,-709 702.5,-688 422.5,-688"/>
<polygon fill="none" stroke="black" points="422.5,-688 422.5,-709 702.5,-709 702.5,-688 422.5,-688"/>
<text text-anchor="start" x="555" y="-694.8" font-family="Times,serif" font-size="14.00"> if</text>
<polygon fill="none" stroke="black" points="422.5,-665 422.5,-686 559.5,-686 559.5,-665 422.5,-665"/>
<text text-anchor="start" x="425.5" y="-671.8" font-family="Times,serif" font-size="14.00">L:0x564f6ef89160</text>
<polygon fill="none" stroke="black" points="561.5,-665 561.5,-686 702.5,-686 702.5,-665 561.5,-665"/>
<text text-anchor="start" x="564.5" y="-671.8" font-family="Times,serif" font-size="14.00">R: 0x564f6ef88ce0</text>
<polygon fill="none" stroke="black" points="419.5,-662 419.5,-712 705.5,-712 705.5,-662 419.5,-662"/>
</g>
<!-- node0x564f6ef893a0&#45;&gt;node0x564f6ef88c20 -->
<g id="edge1" class="edge">
<title>node0x564f6ef893a0:rchild&#45;&gt;node0x564f6ef88c20</title>
<path fill="none" stroke="black" stroke-width="2" d="M562.5,-758C562.5,-747.81 562.5,-736.78 562.5,-726.56"/>
<polygon fill="black" stroke="black" stroke-width="2" points="562.5,-716.27 567,-726.27 563,-721.27 563,-726.27 562.5,-726.27 562,-726.27 562,-721.27 558,-726.27 562.5,-716.27 562.5,-716.27"/>
</g>
<!-- node0x564f6ef89160 -->
<g id="node7" class="node">
<title>node0x564f6ef89160</title>
<polygon fill="pink" stroke="transparent" points="255.5,-594 255.5,-615 535.5,-615 535.5,-594 255.5,-594"/>
<polygon fill="none" stroke="black" points="255.5,-594 255.5,-615 535.5,-615 535.5,-594 255.5,-594"/>
<text text-anchor="start" x="363.5" y="-600.8" font-family="Times,serif" font-size="14.00"> decision</text>
<polygon fill="none" stroke="black" points="255.5,-571 255.5,-592 391.5,-592 391.5,-571 255.5,-571"/>
<text text-anchor="start" x="258.5" y="-577.8" font-family="Times,serif" font-size="14.00">L:0x564f6ef891e0</text>
<polygon fill="none" stroke="black" points="393.5,-571 393.5,-592 535.5,-592 535.5,-571 393.5,-571"/>
<text text-anchor="start" x="396.5" y="-577.8" font-family="Times,serif" font-size="14.00">R: 0x564f6ef893e0</text>
<polygon fill="none" stroke="black" points="252.5,-568 252.5,-618 538.5,-618 538.5,-568 252.5,-568"/>
</g>
<!-- node0x564f6ef88c20&#45;&gt;node0x564f6ef89160 -->
<g id="edge17" class="edge">
<title>node0x564f6ef88c20:lchild&#45;&gt;node0x564f6ef89160</title>
<path fill="none" stroke="black" stroke-width="2" d="M421.5,-675C401.95,-675 395.67,-653.35 394.16,-632.44"/>
<polygon fill="black" stroke="black" stroke-width="2" points="393.76,-622.33 398.65,-632.15 394.46,-627.31 394.65,-632.3 394.15,-632.32 393.65,-632.34 393.46,-627.35 389.66,-632.5 393.76,-622.33 393.76,-622.33"/>
</g>
<!-- node0x564f6ef88ce0 -->
<g id="node19" class="node">
<title>node0x564f6ef88ce0</title>
<polygon fill="orchid" stroke="transparent" points="587.5,-594 587.5,-615 867.5,-615 867.5,-594 587.5,-594"/>
<polygon fill="none" stroke="black" points="587.5,-594 587.5,-615 867.5,-615 867.5,-594 587.5,-594"/>
<text text-anchor="start" x="713" y="-600.8" font-family="Times,serif" font-size="14.00"> ==</text>
<polygon fill="none" stroke="black" points="587.5,-571 587.5,-592 722.5,-592 722.5,-571 587.5,-571"/>
<text text-anchor="start" x="590.5" y="-577.8" font-family="Times,serif" font-size="14.00">L:0x564f6ef88ca0</text>
<polygon fill="none" stroke="black" points="724.5,-571 724.5,-592 867.5,-592 867.5,-571 724.5,-571"/>
<text text-anchor="start" x="727.5" y="-577.8" font-family="Times,serif" font-size="14.00">R: 0x564f6ef88d20</text>
<polygon fill="none" stroke="black" points="584.5,-568 584.5,-618 870.5,-618 870.5,-568 584.5,-568"/>
</g>
<!-- node0x564f6ef88c20&#45;&gt;node0x564f6ef88ce0 -->
<g id="edge18" class="edge">
<title>node0x564f6ef88c20:rchild&#45;&gt;node0x564f6ef88ce0</title>
<path fill="none" stroke="black" stroke-width="2" d="M703.5,-675C722.91,-675 728.67,-653.35 729.7,-632.44"/>
<polygon fill="black" stroke="black" stroke-width="2" points="729.86,-622.33 734.2,-632.4 730.28,-627.34 730.2,-632.34 729.7,-632.33 729.2,-632.32 729.28,-627.32 725.2,-632.25 729.86,-622.33 729.86,-622.33"/>
</g>
<!-- node0x564f6ef891e0 -->
<g id="node3" class="node">
<title>node0x564f6ef891e0</title>
<polygon fill="pink" stroke="transparent" points="98.5,-500 98.5,-521 292.5,-521 292.5,-500 98.5,-500"/>
<polygon fill="none" stroke="black" points="98.5,-500 98.5,-521 292.5,-521 292.5,-500 98.5,-500"/>
<text text-anchor="start" x="156.5" y="-506.8" font-family="Times,serif" font-size="14.00"> statement</text>
<polygon fill="none" stroke="black" points="98.5,-477 98.5,-498 147.5,-498 147.5,-477 98.5,-477"/>
<text text-anchor="start" x="101.5" y="-483.8" font-family="Times,serif" font-size="14.00">L:(nil)</text>
<polygon fill="none" stroke="black" points="149.5,-477 149.5,-498 292.5,-498 292.5,-477 149.5,-477"/>
<text text-anchor="start" x="152.5" y="-483.8" font-family="Times,serif" font-size="14.00">R: 0x564f6ef89260</text>
<polygon fill="none" stroke="black" points="95.5,-474 95.5,-524 295.5,-524 295.5,-474 95.5,-474"/>
</g>
<!-- node0x564f6ef89260 -->
<g id="node4" class="node">
<title>node0x564f6ef89260</title>
<polygon fill="#9acd32" stroke="transparent" points="11.5,-406 11.5,-427 292.5,-427 292.5,-406 11.5,-406"/>
<polygon fill="none" stroke="black" points="11.5,-406 11.5,-427 292.5,-427 292.5,-406 11.5,-406"/>
<text text-anchor="start" x="143.5" y="-412.8" font-family="Times,serif" font-size="14.00"> =</text>
<polygon fill="none" stroke="black" points="11.5,-383 11.5,-404 148.5,-404 148.5,-383 11.5,-383"/>
<text text-anchor="start" x="14.5" y="-389.8" font-family="Times,serif" font-size="14.00">L:0x564f6ef89220</text>
<polygon fill="none" stroke="black" points="150.5,-383 150.5,-404 292.5,-404 292.5,-383 150.5,-383"/>
<text text-anchor="start" x="153.5" y="-389.8" font-family="Times,serif" font-size="14.00">R: 0x564f6ef892a0</text>
<polygon fill="none" stroke="black" points="8,-380 8,-430 295,-430 295,-380 8,-380"/>
</g>
<!-- node0x564f6ef891e0&#45;&gt;node0x564f6ef89260 -->
<g id="edge2" class="edge">
<title>node0x564f6ef891e0:rchild&#45;&gt;node0x564f6ef89260</title>
<path fill="none" stroke="black" stroke-width="2" d="M221.5,-476C221.5,-462.72 215.12,-451.07 206.21,-441.29"/>
<polygon fill="black" stroke="black" stroke-width="2" points="198.97,-434.17 209.25,-437.97 202.88,-437.32 206.45,-440.82 206.1,-441.18 205.75,-441.54 202.18,-438.03 202.95,-444.39 198.97,-434.17 198.97,-434.17"/>
</g>
<!-- node0x564f6ef89220 -->
<g id="node5" class="node">
<title>node0x564f6ef89220</title>
<polygon fill="orchid" stroke="transparent" points="22.5,-312 22.5,-333 128.5,-333 128.5,-312 22.5,-312"/>
<polygon fill="none" stroke="black" points="22.5,-312 22.5,-333 128.5,-333 128.5,-312 22.5,-312"/>
<text text-anchor="start" x="69" y="-318.8" font-family="Times,serif" font-size="14.00"> x</text>
<polygon fill="none" stroke="black" points="22.5,-289 22.5,-310 71.5,-310 71.5,-289 22.5,-289"/>
<text text-anchor="start" x="25.5" y="-295.8" font-family="Times,serif" font-size="14.00">L:(nil)</text>
<polygon fill="none" stroke="black" points="73.5,-289 73.5,-310 128.5,-310 128.5,-289 73.5,-289"/>
<text text-anchor="start" x="76.5" y="-295.8" font-family="Times,serif" font-size="14.00">R: (nil)</text>
<polygon fill="none" stroke="black" points="19.5,-286 19.5,-336 131.5,-336 131.5,-286 19.5,-286"/>
</g>
<!-- node0x564f6ef89260&#45;&gt;node0x564f6ef89220 -->
<g id="edge3" class="edge">
<title>node0x564f6ef89260:lchild&#45;&gt;node0x564f6ef89220</title>
<path fill="none" stroke="black" stroke-width="2" d="M79.5,-382C79.5,-371.79 79.07,-360.76 78.49,-350.54"/>
<polygon fill="black" stroke="black" stroke-width="2" points="77.85,-340.25 82.97,-349.95 78.66,-345.21 78.97,-350.2 78.47,-350.23 77.98,-350.26 77.66,-345.27 73.98,-350.51 77.85,-340.25 77.85,-340.25"/>
</g>
<!-- node0x564f6ef892a0 -->
<g id="node6" class="node">
<title>node0x564f6ef892a0</title>
<polygon fill="lightskyblue" stroke="transparent" points="168.5,-312 168.5,-333 274.5,-333 274.5,-312 168.5,-312"/>
<polygon fill="none" stroke="black" points="168.5,-312 168.5,-333 274.5,-333 274.5,-312 168.5,-312"/>
<text text-anchor="start" x="216.5" y="-318.8" font-family="Times,serif" font-size="14.00">4</text>
<polygon fill="none" stroke="black" points="168.5,-289 168.5,-310 217.5,-310 217.5,-289 168.5,-289"/>
<text text-anchor="start" x="171.5" y="-295.8" font-family="Times,serif" font-size="14.00">L:(nil)</text>
<polygon fill="none" stroke="black" points="219.5,-289 219.5,-310 274.5,-310 274.5,-289 219.5,-289"/>
<text text-anchor="start" x="222.5" y="-295.8" font-family="Times,serif" font-size="14.00">R: (nil)</text>
<polygon fill="none" stroke="black" points="165.5,-286 165.5,-336 277.5,-336 277.5,-286 165.5,-286"/>
</g>
<!-- node0x564f6ef89260&#45;&gt;node0x564f6ef892a0 -->
<g id="edge4" class="edge">
<title>node0x564f6ef89260:rchild&#45;&gt;node0x564f6ef892a0</title>
<path fill="none" stroke="black" stroke-width="2" d="M221.5,-382C221.5,-371.81 221.5,-360.78 221.5,-350.56"/>
<polygon fill="black" stroke="black" stroke-width="2" points="221.5,-340.27 226,-350.27 222,-345.27 222,-350.27 221.5,-350.27 221,-350.27 221,-345.27 217,-350.27 221.5,-340.27 221.5,-340.27"/>
</g>
<!-- node0x564f6ef89160&#45;&gt;node0x564f6ef891e0 -->
<g id="edge5" class="edge">
<title>node0x564f6ef89160:lchild&#45;&gt;node0x564f6ef891e0</title>
<path fill="none" stroke="black" stroke-width="2" d="M254.5,-581C231.27,-581 216.22,-558.96 207.14,-537.87"/>
<polygon fill="black" stroke="black" stroke-width="2" points="203.38,-528.33 211.23,-535.98 205.67,-532.8 207.51,-537.45 207.04,-537.63 206.58,-537.82 204.74,-533.16 202.86,-539.28 203.38,-528.33 203.38,-528.33"/>
</g>
<!-- node0x564f6ef893e0 -->
<g id="node8" class="node">
<title>node0x564f6ef893e0</title>
<polygon fill="pink" stroke="transparent" points="368.5,-500 368.5,-521 561.5,-521 561.5,-500 368.5,-500"/>
<polygon fill="none" stroke="black" points="368.5,-500 368.5,-521 561.5,-521 561.5,-500 368.5,-500"/>
<text text-anchor="start" x="426" y="-506.8" font-family="Times,serif" font-size="14.00"> statement</text>
<polygon fill="none" stroke="black" points="368.5,-477 368.5,-498 417.5,-498 417.5,-477 368.5,-477"/>
<text text-anchor="start" x="371.5" y="-483.8" font-family="Times,serif" font-size="14.00">L:(nil)</text>
<polygon fill="none" stroke="black" points="419.5,-477 419.5,-498 561.5,-498 561.5,-477 419.5,-477"/>
<text text-anchor="start" x="422.5" y="-483.8" font-family="Times,serif" font-size="14.00">R: 0x564f6ef88de0</text>
<polygon fill="none" stroke="black" points="365,-474 365,-524 564,-524 564,-474 365,-474"/>
</g>
<!-- node0x564f6ef89160&#45;&gt;node0x564f6ef893e0 -->
<g id="edge6" class="edge">
<title>node0x564f6ef89160:rchild&#45;&gt;node0x564f6ef893e0</title>
<path fill="none" stroke="black" stroke-width="2" d="M464.5,-570C464.5,-559.81 464.5,-548.78 464.5,-538.56"/>
<polygon fill="black" stroke="black" stroke-width="2" points="464.5,-528.27 469,-538.27 465,-533.27 465,-538.27 464.5,-538.27 464,-538.27 464,-533.27 460,-538.27 464.5,-528.27 464.5,-528.27"/>
</g>
<!-- node0x564f6ef88de0 -->
<g id="node9" class="node">
<title>node0x564f6ef88de0</title>
<polygon fill="orchid" stroke="transparent" points="385.5,-406 385.5,-427 666.5,-427 666.5,-406 385.5,-406"/>
<polygon fill="none" stroke="black" points="385.5,-406 385.5,-427 666.5,-427 666.5,-406 385.5,-406"/>
<text text-anchor="start" x="504.5" y="-412.8" font-family="Times,serif" font-size="14.00"> while</text>
<polygon fill="none" stroke="black" points="385.5,-383 385.5,-404 522.5,-404 522.5,-383 385.5,-383"/>
<text text-anchor="start" x="388.5" y="-389.8" font-family="Times,serif" font-size="14.00">L:0x564f6ef89420</text>
<polygon fill="none" stroke="black" points="524.5,-383 524.5,-404 666.5,-404 666.5,-383 524.5,-383"/>
<text text-anchor="start" x="527.5" y="-389.8" font-family="Times,serif" font-size="14.00">R: 0x564f6ef88e60</text>
<polygon fill="none" stroke="black" points="382,-380 382,-430 669,-430 669,-380 382,-380"/>
</g>
<!-- node0x564f6ef893e0&#45;&gt;node0x564f6ef88de0 -->
<g id="edge7" class="edge">
<title>node0x564f6ef893e0:rchild&#45;&gt;node0x564f6ef88de0</title>
<path fill="none" stroke="black" stroke-width="2" d="M490.5,-476C490.5,-464.66 494.22,-453.28 499.23,-443.08"/>
<polygon fill="black" stroke="black" stroke-width="2" points="504.13,-434.09 503.3,-445.02 502.18,-438.72 499.79,-443.11 499.35,-442.87 498.91,-442.63 501.3,-438.24 495.4,-440.72 504.13,-434.09 504.13,-434.09"/>
</g>
<!-- node0x564f6ef89420 -->
<g id="node12" class="node">
<title>node0x564f6ef89420</title>
<polygon fill="pink" stroke="transparent" points="314.5,-312 314.5,-333 592.5,-333 592.5,-312 314.5,-312"/>
<polygon fill="none" stroke="black" points="314.5,-312 314.5,-333 592.5,-333 592.5,-312 314.5,-312"/>
<text text-anchor="start" x="414.5" y="-318.8" font-family="Times,serif" font-size="14.00"> statement</text>
<polygon fill="none" stroke="black" points="314.5,-289 314.5,-310 451.5,-310 451.5,-289 314.5,-289"/>
<text text-anchor="start" x="317.5" y="-295.8" font-family="Times,serif" font-size="14.00">L:0x564f6ef89460</text>
<polygon fill="none" stroke="black" points="453.5,-289 453.5,-310 592.5,-310 592.5,-289 453.5,-289"/>
<text text-anchor="start" x="456.5" y="-295.8" font-family="Times,serif" font-size="14.00">R: 0x564f6ef88f60</text>
<polygon fill="none" stroke="black" points="311.5,-286 311.5,-336 595.5,-336 595.5,-286 311.5,-286"/>
</g>
<!-- node0x564f6ef88de0&#45;&gt;node0x564f6ef89420 -->
<g id="edge15" class="edge">
<title>node0x564f6ef88de0:lchild&#45;&gt;node0x564f6ef89420</title>
<path fill="none" stroke="black" stroke-width="2" d="M453.5,-382C453.5,-371.81 453.5,-360.78 453.5,-350.56"/>
<polygon fill="black" stroke="black" stroke-width="2" points="453.5,-340.27 458,-350.27 454,-345.27 454,-350.27 453.5,-350.27 453,-350.27 453,-345.27 449,-350.27 453.5,-340.27 453.5,-340.27"/>
</g>
<!-- node0x564f6ef88e60 -->
<g id="node18" class="node">
<title>node0x564f6ef88e60</title>
<polygon fill="lightskyblue" stroke="transparent" points="632.5,-312 632.5,-333 738.5,-333 738.5,-312 632.5,-312"/>
<polygon fill="none" stroke="black" points="632.5,-312 632.5,-333 738.5,-333 738.5,-312 632.5,-312"/>
<text text-anchor="start" x="680.5" y="-318.8" font-family="Times,serif" font-size="14.00">1</text>
<polygon fill="none" stroke="black" points="632.5,-289 632.5,-310 681.5,-310 681.5,-289 632.5,-289"/>
<text text-anchor="start" x="635.5" y="-295.8" font-family="Times,serif" font-size="14.00">L:(nil)</text>
<polygon fill="none" stroke="black" points="683.5,-289 683.5,-310 738.5,-310 738.5,-289 683.5,-289"/>
<text text-anchor="start" x="686.5" y="-295.8" font-family="Times,serif" font-size="14.00">R: (nil)</text>
<polygon fill="none" stroke="black" points="629.5,-286 629.5,-336 741.5,-336 741.5,-286 629.5,-286"/>
</g>
<!-- node0x564f6ef88de0&#45;&gt;node0x564f6ef88e60 -->
<g id="edge16" class="edge">
<title>node0x564f6ef88de0:rchild&#45;&gt;node0x564f6ef88e60</title>
<path fill="none" stroke="black" stroke-width="2" d="M667.5,-393C686.56,-393 690.73,-371.35 690.3,-350.44"/>
<polygon fill="black" stroke="black" stroke-width="2" points="689.77,-340.33 694.79,-350.08 690.53,-345.3 690.8,-350.29 690.3,-350.32 689.8,-350.34 689.53,-345.35 685.8,-350.55 689.77,-340.33 689.77,-340.33"/>
</g>
<!-- node0x564f6ef89460 -->
<g id="node10" class="node">
<title>node0x564f6ef89460</title>
<polygon fill="pink" stroke="transparent" points="219.5,-218 219.5,-239 412.5,-239 412.5,-218 219.5,-218"/>
<polygon fill="none" stroke="black" points="219.5,-218 219.5,-239 412.5,-239 412.5,-218 219.5,-218"/>
<text text-anchor="start" x="277" y="-224.8" font-family="Times,serif" font-size="14.00"> statement</text>
<polygon fill="none" stroke="black" points="219.5,-195 219.5,-216 268.5,-216 268.5,-195 219.5,-195"/>
<text text-anchor="start" x="222.5" y="-201.8" font-family="Times,serif" font-size="14.00">L:(nil)</text>
<polygon fill="none" stroke="black" points="270.5,-195 270.5,-216 412.5,-216 412.5,-195 270.5,-195"/>
<text text-anchor="start" x="273.5" y="-201.8" font-family="Times,serif" font-size="14.00">R: 0x564f6ef890a0</text>
<polygon fill="none" stroke="black" points="216,-192 216,-242 415,-242 415,-192 216,-192"/>
</g>
<!-- node0x564f6ef890a0 -->
<g id="node11" class="node">
<title>node0x564f6ef890a0</title>
<polygon fill="orchid" stroke="transparent" points="288.5,-124 288.5,-145 394.5,-145 394.5,-124 288.5,-124"/>
<polygon fill="none" stroke="black" points="288.5,-124 288.5,-145 394.5,-145 394.5,-124 288.5,-124"/>
<text text-anchor="start" x="318.5" y="-130.8" font-family="Times,serif" font-size="14.00"> break</text>
<polygon fill="none" stroke="black" points="288.5,-101 288.5,-122 337.5,-122 337.5,-101 288.5,-101"/>
<text text-anchor="start" x="291.5" y="-107.8" font-family="Times,serif" font-size="14.00">L:(nil)</text>
<polygon fill="none" stroke="black" points="339.5,-101 339.5,-122 394.5,-122 394.5,-101 339.5,-101"/>
<text text-anchor="start" x="342.5" y="-107.8" font-family="Times,serif" font-size="14.00">R: (nil)</text>
<polygon fill="none" stroke="black" points="285.5,-98 285.5,-148 397.5,-148 397.5,-98 285.5,-98"/>
</g>
<!-- node0x564f6ef89460&#45;&gt;node0x564f6ef890a0 -->
<g id="edge8" class="edge">
<title>node0x564f6ef89460:rchild&#45;&gt;node0x564f6ef890a0</title>
<path fill="none" stroke="black" stroke-width="2" d="M341.5,-194C341.5,-183.81 341.5,-172.78 341.5,-162.56"/>
<polygon fill="black" stroke="black" stroke-width="2" points="341.5,-152.27 346,-162.27 342,-157.27 342,-162.27 341.5,-162.27 341,-162.27 341,-157.27 337,-162.27 341.5,-152.27 341.5,-152.27"/>
</g>
<!-- node0x564f6ef89420&#45;&gt;node0x564f6ef89460 -->
<g id="edge9" class="edge">
<title>node0x564f6ef89420:lchild&#45;&gt;node0x564f6ef89460</title>
<path fill="none" stroke="black" stroke-width="2" d="M313.5,-299C294.8,-299 296.06,-277.16 301.59,-256.15"/>
<polygon fill="black" stroke="black" stroke-width="2" points="304.48,-246.33 305.98,-257.19 303.55,-251.27 302.14,-256.06 301.66,-255.92 301.18,-255.78 302.59,-250.99 297.35,-254.65 304.48,-246.33 304.48,-246.33"/>
</g>
<!-- node0x564f6ef88f60 -->
<g id="node13" class="node">
<title>node0x564f6ef88f60</title>
<polygon fill="#9acd32" stroke="transparent" points="452.5,-218 452.5,-239 726.5,-239 726.5,-218 452.5,-218"/>
<polygon fill="none" stroke="black" points="452.5,-218 452.5,-239 726.5,-239 726.5,-218 452.5,-218"/>
<text text-anchor="start" x="581" y="-224.8" font-family="Times,serif" font-size="14.00"> =</text>
<polygon fill="none" stroke="black" points="452.5,-195 452.5,-216 585.5,-216 585.5,-195 452.5,-195"/>
<text text-anchor="start" x="455.5" y="-201.8" font-family="Times,serif" font-size="14.00">L:0x564f6ef88f20</text>
<polygon fill="none" stroke="black" points="587.5,-195 587.5,-216 726.5,-216 726.5,-195 587.5,-195"/>
<text text-anchor="start" x="590.5" y="-201.8" font-family="Times,serif" font-size="14.00">R: 0x564f6ef88fe0</text>
<polygon fill="none" stroke="black" points="449.5,-192 449.5,-242 729.5,-242 729.5,-192 449.5,-192"/>
</g>
<!-- node0x564f6ef89420&#45;&gt;node0x564f6ef88f60 -->
<g id="edge10" class="edge">
<title>node0x564f6ef89420:rchild&#45;&gt;node0x564f6ef88f60</title>
<path fill="none" stroke="black" stroke-width="2" d="M593.5,-299C612.3,-299 610.4,-276.96 604.28,-255.87"/>
<polygon fill="black" stroke="black" stroke-width="2" points="601.23,-246.33 608.56,-254.48 603.22,-250.94 604.75,-255.7 604.27,-255.85 603.8,-256.01 602.27,-251.24 599.99,-257.23 601.23,-246.33 601.23,-246.33"/>
</g>
<!-- node0x564f6ef88f20 -->
<g id="node14" class="node">
<title>node0x564f6ef88f20</title>
<polygon fill="orchid" stroke="transparent" points="449.5,-124 449.5,-145 555.5,-145 555.5,-124 449.5,-124"/>
<polygon fill="none" stroke="black" points="449.5,-124 449.5,-145 555.5,-145 555.5,-124 449.5,-124"/>
<text text-anchor="start" x="496" y="-130.8" font-family="Times,serif" font-size="14.00"> x</text>
<polygon fill="none" stroke="black" points="449.5,-101 449.5,-122 498.5,-122 498.5,-101 449.5,-101"/>
<text text-anchor="start" x="452.5" y="-107.8" font-family="Times,serif" font-size="14.00">L:(nil)</text>
<polygon fill="none" stroke="black" points="500.5,-101 500.5,-122 555.5,-122 555.5,-101 500.5,-101"/>
<text text-anchor="start" x="503.5" y="-107.8" font-family="Times,serif" font-size="14.00">R: (nil)</text>
<polygon fill="none" stroke="black" points="446.5,-98 446.5,-148 558.5,-148 558.5,-98 446.5,-98"/>
</g>
<!-- node0x564f6ef88f60&#45;&gt;node0x564f6ef88f20 -->
<g id="edge11" class="edge">
<title>node0x564f6ef88f60:lchild&#45;&gt;node0x564f6ef88f20</title>
<path fill="none" stroke="black" stroke-width="2" d="M518.5,-194C518.5,-183.53 516.78,-172.39 514.46,-162.15"/>
<polygon fill="black" stroke="black" stroke-width="2" points="511.99,-152.28 518.78,-160.88 513.69,-157 514.9,-161.86 514.42,-161.98 513.93,-162.1 512.72,-157.25 510.05,-163.07 511.99,-152.28 511.99,-152.28"/>
</g>
<!-- node0x564f6ef88fe0 -->
<g id="node15" class="node">
<title>node0x564f6ef88fe0</title>
<polygon fill="#9acd32" stroke="transparent" points="595.5,-124 595.5,-145 873.5,-145 873.5,-124 595.5,-124"/>
<polygon fill="none" stroke="black" points="595.5,-124 595.5,-145 873.5,-145 873.5,-124 595.5,-124"/>
<text text-anchor="start" x="726" y="-130.8" font-family="Times,serif" font-size="14.00"> +</text>
<polygon fill="none" stroke="black" points="595.5,-101 595.5,-122 728.5,-122 728.5,-101 595.5,-101"/>
<text text-anchor="start" x="598.5" y="-107.8" font-family="Times,serif" font-size="14.00">L:0x564f6ef88fa0</text>
<polygon fill="none" stroke="black" points="730.5,-101 730.5,-122 873.5,-122 873.5,-101 730.5,-101"/>
<text text-anchor="start" x="733.5" y="-107.8" font-family="Times,serif" font-size="14.00">R: 0x564f6ef89020</text>
<polygon fill="none" stroke="black" points="592.5,-98 592.5,-148 876.5,-148 876.5,-98 592.5,-98"/>
</g>
<!-- node0x564f6ef88f60&#45;&gt;node0x564f6ef88fe0 -->
<g id="edge12" class="edge">
<title>node0x564f6ef88f60:rchild&#45;&gt;node0x564f6ef88fe0</title>
<path fill="none" stroke="black" stroke-width="2" d="M727.5,-205C746.18,-205 747.42,-183.35 744.25,-162.44"/>
<polygon fill="black" stroke="black" stroke-width="2" points="742.4,-152.33 748.63,-161.36 743.8,-157.16 744.7,-162.08 744.2,-162.17 743.71,-162.26 742.81,-157.34 739.78,-162.98 742.4,-152.33 742.4,-152.33"/>
</g>
<!-- node0x564f6ef88fa0 -->
<g id="node16" class="node">
<title>node0x564f6ef88fa0</title>
<polygon fill="orchid" stroke="transparent" points="605.5,-30 605.5,-51 711.5,-51 711.5,-30 605.5,-30"/>
<polygon fill="none" stroke="black" points="605.5,-30 605.5,-51 711.5,-51 711.5,-30 605.5,-30"/>
<text text-anchor="start" x="652" y="-36.8" font-family="Times,serif" font-size="14.00"> x</text>
<polygon fill="none" stroke="black" points="605.5,-7 605.5,-28 654.5,-28 654.5,-7 605.5,-7"/>
<text text-anchor="start" x="608.5" y="-13.8" font-family="Times,serif" font-size="14.00">L:(nil)</text>
<polygon fill="none" stroke="black" points="656.5,-7 656.5,-28 711.5,-28 711.5,-7 656.5,-7"/>
<text text-anchor="start" x="659.5" y="-13.8" font-family="Times,serif" font-size="14.00">R: (nil)</text>
<polygon fill="none" stroke="black" points="602.5,-4 602.5,-54 714.5,-54 714.5,-4 602.5,-4"/>
</g>
<!-- node0x564f6ef88fe0&#45;&gt;node0x564f6ef88fa0 -->
<g id="edge13" class="edge">
<title>node0x564f6ef88fe0:lchild&#45;&gt;node0x564f6ef88fa0</title>
<path fill="none" stroke="black" stroke-width="2" d="M661.5,-100C661.5,-89.8 661.18,-78.77 660.75,-68.55"/>
<polygon fill="black" stroke="black" stroke-width="2" points="660.26,-58.26 665.23,-68.04 661,-63.23 661.23,-68.22 660.73,-68.25 660.23,-68.27 660,-63.28 656.24,-68.46 660.26,-58.26 660.26,-58.26"/>
</g>
<!-- node0x564f6ef89020 -->
<g id="node17" class="node">
<title>node0x564f6ef89020</title>
<polygon fill="lightskyblue" stroke="transparent" points="751.5,-30 751.5,-51 857.5,-51 857.5,-30 751.5,-30"/>
<polygon fill="none" stroke="black" points="751.5,-30 751.5,-51 857.5,-51 857.5,-30 751.5,-30"/>
<text text-anchor="start" x="799.5" y="-36.8" font-family="Times,serif" font-size="14.00">1</text>
<polygon fill="none" stroke="black" points="751.5,-7 751.5,-28 800.5,-28 800.5,-7 751.5,-7"/>
<text text-anchor="start" x="754.5" y="-13.8" font-family="Times,serif" font-size="14.00">L:(nil)</text>
<polygon fill="none" stroke="black" points="802.5,-7 802.5,-28 857.5,-28 857.5,-7 802.5,-7"/>
<text text-anchor="start" x="805.5" y="-13.8" font-family="Times,serif" font-size="14.00">R: (nil)</text>
<polygon fill="none" stroke="black" points="748.5,-4 748.5,-54 860.5,-54 860.5,-4 748.5,-4"/>
</g>
<!-- node0x564f6ef88fe0&#45;&gt;node0x564f6ef89020 -->
<g id="edge14" class="edge">
<title>node0x564f6ef88fe0:rchild&#45;&gt;node0x564f6ef89020</title>
<path fill="none" stroke="black" stroke-width="2" d="M802.5,-100C802.5,-89.8 802.71,-78.78 803,-68.55"/>
<polygon fill="black" stroke="black" stroke-width="2" points="803.33,-58.26 807.51,-68.4 803.67,-63.28 803.51,-68.27 803.01,-68.26 802.51,-68.24 802.67,-63.25 798.51,-68.12 803.33,-58.26 803.33,-58.26"/>
</g>
<!-- node0x564f6ef88ca0 -->
<g id="node20" class="node">
<title>node0x564f6ef88ca0</title>
<polygon fill="lightskyblue" stroke="transparent" points="601.5,-500 601.5,-521 707.5,-521 707.5,-500 601.5,-500"/>
<polygon fill="none" stroke="black" points="601.5,-500 601.5,-521 707.5,-521 707.5,-500 601.5,-500"/>
<text text-anchor="start" x="649.5" y="-506.8" font-family="Times,serif" font-size="14.00">2</text>
<polygon fill="none" stroke="black" points="601.5,-477 601.5,-498 650.5,-498 650.5,-477 601.5,-477"/>
<text text-anchor="start" x="604.5" y="-483.8" font-family="Times,serif" font-size="14.00">L:(nil)</text>
<polygon fill="none" stroke="black" points="652.5,-477 652.5,-498 707.5,-498 707.5,-477 652.5,-477"/>
<text text-anchor="start" x="655.5" y="-483.8" font-family="Times,serif" font-size="14.00">R: (nil)</text>
<polygon fill="none" stroke="black" points="598.5,-474 598.5,-524 710.5,-524 710.5,-474 598.5,-474"/>
</g>
<!-- node0x564f6ef88ce0&#45;&gt;node0x564f6ef88ca0 -->
<g id="edge19" class="edge">
<title>node0x564f6ef88ce0:lchild&#45;&gt;node0x564f6ef88ca0</title>
<path fill="none" stroke="black" stroke-width="2" d="M654.5,-570C654.5,-559.81 654.5,-548.78 654.5,-538.56"/>
<polygon fill="black" stroke="black" stroke-width="2" points="654.5,-528.27 659,-538.27 655,-533.27 655,-538.27 654.5,-538.27 654,-538.27 654,-533.27 650,-538.27 654.5,-528.27 654.5,-528.27"/>
</g>
<!-- node0x564f6ef88d20 -->
<g id="node21" class="node">
<title>node0x564f6ef88d20</title>
<polygon fill="lightskyblue" stroke="transparent" points="747.5,-500 747.5,-521 853.5,-521 853.5,-500 747.5,-500"/>
<polygon fill="none" stroke="black" points="747.5,-500 747.5,-521 853.5,-521 853.5,-500 747.5,-500"/>
<text text-anchor="start" x="795.5" y="-506.8" font-family="Times,serif" font-size="14.00">1</text>
<polygon fill="none" stroke="black" points="747.5,-477 747.5,-498 796.5,-498 796.5,-477 747.5,-477"/>
<text text-anchor="start" x="750.5" y="-483.8" font-family="Times,serif" font-size="14.00">L:(nil)</text>
<polygon fill="none" stroke="black" points="798.5,-477 798.5,-498 853.5,-498 853.5,-477 798.5,-477"/>
<text text-anchor="start" x="801.5" y="-483.8" font-family="Times,serif" font-size="14.00">R: (nil)</text>
<polygon fill="none" stroke="black" points="744.5,-474 744.5,-524 856.5,-524 856.5,-474 744.5,-474"/>
</g>
<!-- node0x564f6ef88ce0&#45;&gt;node0x564f6ef88d20 -->
<g id="edge20" class="edge">
<title>node0x564f6ef88ce0:rchild&#45;&gt;node0x564f6ef88d20</title>
<path fill="none" stroke="black" stroke-width="2" d="M796.5,-570C796.5,-559.79 796.93,-548.76 797.51,-538.54"/>
<polygon fill="black" stroke="black" stroke-width="2" points="798.15,-528.25 802.02,-538.51 798.34,-533.27 798.02,-538.26 797.53,-538.23 797.03,-538.2 797.34,-533.21 793.03,-537.95 798.15,-528.25 798.15,-528.25"/>
</g>
</g>
</svg>
