<?xml version="1.0" encoding="UTF-8" standalone="no"?>
<!DOCTYPE svg PUBLIC "-//W3C//DTD SVG 1.1//EN"
 "http://www.w3.org/Graphics/SVG/1.1/DTD/svg11.dtd">
<!-- Generated by graphviz version 2.43.0 (0)
 -->
<!-- Title: dump_graph Pages: 1 -->
<svg width="580pt" height="442pt"
 viewBox="0.00 0.00 579.50 442.00" xmlns="http://www.w3.org/2000/svg" xmlns:xlink="http://www.w3.org/1999/xlink">
<g id="graph0" class="graph" transform="scale(1 1) rotate(0) translate(4 438)">
<title>dump_graph</title>
<polygon fill="white" stroke="transparent" points="-4,4 -4,-438 575.5,-438 575.5,4 -4,4"/>
<!-- node0x5610525cfac0 -->
<g id="node1" class="node">
<title>node0x5610525cfac0</title>
<polygon fill="pink" stroke="transparent" points="59,-406 59,-427 256,-427 256,-406 59,-406"/>
<polygon fill="none" stroke="black" points="59,-406 59,-427 256,-427 256,-406 59,-406"/>
<text text-anchor="start" x="118.5" y="-412.8" font-family="Times,serif" font-size="14.00"> statement</text>
<polygon fill="none" stroke="black" points="59,-383 59,-404 108,-404 108,-383 59,-383"/>
<text text-anchor="start" x="62" y="-389.8" font-family="Times,serif" font-size="14.00">L:(nil)</text>
<polygon fill="none" stroke="black" points="110,-383 110,-404 256,-404 256,-383 110,-383"/>
<text text-anchor="start" x="113" y="-389.8" font-family="Times,serif" font-size="14.00">R: 0x5610525cf840</text>
<polygon fill="none" stroke="black" points="55.5,-380 55.5,-430 258.5,-430 258.5,-380 55.5,-380"/>
</g>
<!-- node0x5610525cf840 -->
<g id="node2" class="node">
<title>node0x5610525cf840</title>
<polygon fill="#9acd32" stroke="transparent" points="40,-312 40,-333 327,-333 327,-312 40,-312"/>
<polygon fill="none" stroke="black" points="40,-312 40,-333 327,-333 327,-312 40,-312"/>
<text text-anchor="start" x="175" y="-318.8" font-family="Times,serif" font-size="14.00"> =</text>
<polygon fill="none" stroke="black" points="40,-289 40,-310 180,-310 180,-289 40,-289"/>
<text text-anchor="start" x="43" y="-295.8" font-family="Times,serif" font-size="14.00">L:0x5610525cf800</text>
<polygon fill="none" stroke="black" points="182,-289 182,-310 327,-310 327,-289 182,-289"/>
<text text-anchor="start" x="185" y="-295.8" font-family="Times,serif" font-size="14.00">R: 0x5610525cf8c0</text>
<polygon fill="none" stroke="black" points="36.5,-286 36.5,-336 329.5,-336 329.5,-286 36.5,-286"/>
</g>
<!-- node0x5610525cfac0&#45;&gt;node0x5610525cf840 -->
<g id="edge1" class="edge">
<title>node0x5610525cfac0:rchild&#45;&gt;node0x5610525cf840</title>
<path fill="none" stroke="black" stroke-width="2" d="M183,-382C183,-371.81 183,-360.78 183,-350.56"/>
<polygon fill="black" stroke="black" stroke-width="2" points="183,-340.27 187.5,-350.27 183.5,-345.27 183.5,-350.27 183,-350.27 182.5,-350.27 182.5,-345.27 178.5,-350.27 183,-340.27 183,-340.27"/>
</g>
<!-- node0x5610525cf800 -->
<g id="node3" class="node">
<title>node0x5610525cf800</title>
<polygon fill="orchid" stroke="transparent" points="11,-218 11,-239 117,-239 117,-218 11,-218"/>
<polygon fill="none" stroke="black" points="11,-218 11,-239 117,-239 117,-218 11,-218"/>
<text text-anchor="start" x="57.5" y="-224.8" font-family="Times,serif" font-size="14.00"> a</text>
<polygon fill="none" stroke="black" points="11,-195 11,-216 60,-216 60,-195 11,-195"/>
<text text-anchor="start" x="14" y="-201.8" font-family="Times,serif" font-size="14.00">L:(nil)</text>
<polygon fill="none" stroke="black" points="62,-195 62,-216 117,-216 117,-195 62,-195"/>
<text text-anchor="start" x="65" y="-201.8" font-family="Times,serif" font-size="14.00">R: (nil)</text>
<polygon fill="none" stroke="black" points="8,-192 8,-242 120,-242 120,-192 8,-192"/>
</g>
<!-- node0x5610525cf840&#45;&gt;node0x5610525cf800 -->
<g id="edge2" class="edge">
<title>node0x5610525cf840:lchild&#45;&gt;node0x5610525cf800</title>
<path fill="none" stroke="black" stroke-width="2" d="M110,-288C110,-275.96 105.19,-264.38 98.67,-254.23"/>
<polygon fill="black" stroke="black" stroke-width="2" points="92.87,-246.06 102.33,-251.61 96.17,-249.85 99.07,-253.92 98.66,-254.21 98.25,-254.5 95.36,-250.42 94.99,-256.82 92.87,-246.06 92.87,-246.06"/>
</g>
<!-- node0x5610525cf8c0 -->
<g id="node4" class="node">
<title>node0x5610525cf8c0</title>
<polygon fill="#9acd32" stroke="transparent" points="157,-218 157,-239 445,-239 445,-218 157,-218"/>
<polygon fill="none" stroke="black" points="157,-218 157,-239 445,-239 445,-218 157,-218"/>
<text text-anchor="start" x="295" y="-224.8" font-family="Times,serif" font-size="14.00"> *</text>
<polygon fill="none" stroke="black" points="157,-195 157,-216 297,-216 297,-195 157,-195"/>
<text text-anchor="start" x="160" y="-201.8" font-family="Times,serif" font-size="14.00">L:0x5610525cf880</text>
<polygon fill="none" stroke="black" points="299,-195 299,-216 445,-216 445,-195 299,-195"/>
<text text-anchor="start" x="302" y="-201.8" font-family="Times,serif" font-size="14.00">R: 0x5610525cf980</text>
<polygon fill="none" stroke="black" points="154,-192 154,-242 448,-242 448,-192 154,-192"/>
</g>
<!-- node0x5610525cf840&#45;&gt;node0x5610525cf8c0 -->
<g id="edge3" class="edge">
<title>node0x5610525cf840:rchild&#45;&gt;node0x5610525cf8c0</title>
<path fill="none" stroke="black" stroke-width="2" d="M255,-288C255,-275.96 259.81,-264.38 266.33,-254.23"/>
<polygon fill="black" stroke="black" stroke-width="2" points="272.13,-246.06 270.01,-256.82 269.64,-250.42 266.75,-254.5 266.34,-254.21 265.93,-253.92 268.83,-249.85 262.67,-251.61 272.13,-246.06 272.13,-246.06"/>
</g>
<!-- node0x5610525cf880 -->
<g id="node5" class="node">
<title>node0x5610525cf880</title>
<polygon fill="lightskyblue" stroke="transparent" points="128,-124 128,-145 234,-145 234,-124 128,-124"/>
<polygon fill="none" stroke="black" points="128,-124 128,-145 234,-145 234,-124 128,-124"/>
<text text-anchor="start" x="171.5" y="-130.8" font-family="Times,serif" font-size="14.00">14</text>
<polygon fill="none" stroke="black" points="128,-101 128,-122 177,-122 177,-101 128,-101"/>
<text text-anchor="start" x="131" y="-107.8" font-family="Times,serif" font-size="14.00">L:(nil)</text>
<polygon fill="none" stroke="black" points="179,-101 179,-122 234,-122 234,-101 179,-101"/>
<text text-anchor="start" x="182" y="-107.8" font-family="Times,serif" font-size="14.00">R: (nil)</text>
<polygon fill="none" stroke="black" points="125,-98 125,-148 237,-148 237,-98 125,-98"/>
</g>
<!-- node0x5610525cf8c0&#45;&gt;node0x5610525cf880 -->
<g id="edge4" class="edge">
<title>node0x5610525cf8c0:lchild&#45;&gt;node0x5610525cf880</title>
<path fill="none" stroke="black" stroke-width="2" d="M227,-194C227,-181.96 222.19,-170.38 215.67,-160.23"/>
<polygon fill="black" stroke="black" stroke-width="2" points="209.87,-152.06 219.33,-157.61 213.17,-155.85 216.07,-159.92 215.66,-160.21 215.25,-160.5 212.36,-156.42 211.99,-162.82 209.87,-152.06 209.87,-152.06"/>
</g>
<!-- node0x5610525cf980 -->
<g id="node6" class="node">
<title>node0x5610525cf980</title>
<polygon fill="orchid" stroke="transparent" points="274,-124 274,-145 561,-145 561,-124 274,-124"/>
<polygon fill="none" stroke="black" points="274,-124 274,-145 561,-145 561,-124 274,-124"/>
<text text-anchor="start" x="406" y="-130.8" font-family="Times,serif" font-size="14.00"> !=</text>
<polygon fill="none" stroke="black" points="274,-101 274,-122 414,-122 414,-101 274,-101"/>
<text text-anchor="start" x="277" y="-107.8" font-family="Times,serif" font-size="14.00">L:0x5610525cf940</text>
<polygon fill="none" stroke="black" points="416,-101 416,-122 561,-122 561,-101 416,-101"/>
<text text-anchor="start" x="419" y="-107.8" font-family="Times,serif" font-size="14.00">R: 0x5610525cf9c0</text>
<polygon fill="none" stroke="black" points="270.5,-98 270.5,-148 563.5,-148 563.5,-98 270.5,-98"/>
</g>
<!-- node0x5610525cf8c0&#45;&gt;node0x5610525cf980 -->
<g id="edge5" class="edge">
<title>node0x5610525cf8c0:rchild&#45;&gt;node0x5610525cf980</title>
<path fill="none" stroke="black" stroke-width="2" d="M372,-194C372,-182.16 376.62,-170.72 382.89,-160.64"/>
<polygon fill="black" stroke="black" stroke-width="2" points="388.76,-152.16 386.77,-162.95 386.32,-156.56 383.48,-160.67 383.07,-160.39 382.66,-160.1 385.5,-155.99 379.37,-157.83 388.76,-152.16 388.76,-152.16"/>
</g>
<!-- node0x5610525cf940 -->
<g id="node7" class="node">
<title>node0x5610525cf940</title>
<polygon fill="lightskyblue" stroke="transparent" points="290,-30 290,-51 396,-51 396,-30 290,-30"/>
<polygon fill="none" stroke="black" points="290,-30 290,-51 396,-51 396,-30 290,-30"/>
<text text-anchor="start" x="338" y="-36.8" font-family="Times,serif" font-size="14.00">1</text>
<polygon fill="none" stroke="black" points="290,-7 290,-28 339,-28 339,-7 290,-7"/>
<text text-anchor="start" x="293" y="-13.8" font-family="Times,serif" font-size="14.00">L:(nil)</text>
<polygon fill="none" stroke="black" points="341,-7 341,-28 396,-28 396,-7 341,-7"/>
<text text-anchor="start" x="344" y="-13.8" font-family="Times,serif" font-size="14.00">R: (nil)</text>
<polygon fill="none" stroke="black" points="287,-4 287,-54 399,-54 399,-4 287,-4"/>
</g>
<!-- node0x5610525cf980&#45;&gt;node0x5610525cf940 -->
<g id="edge6" class="edge">
<title>node0x5610525cf980:lchild&#45;&gt;node0x5610525cf940</title>
<path fill="none" stroke="black" stroke-width="2" d="M344,-100C344,-89.81 343.89,-78.78 343.75,-68.56"/>
<polygon fill="black" stroke="black" stroke-width="2" points="343.59,-58.27 348.24,-68.2 344.17,-63.26 344.24,-68.26 343.74,-68.27 343.24,-68.27 343.17,-63.28 339.24,-68.34 343.59,-58.27 343.59,-58.27"/>
</g>
<!-- node0x5610525cf9c0 -->
<g id="node8" class="node">
<title>node0x5610525cf9c0</title>
<polygon fill="lightskyblue" stroke="transparent" points="436,-30 436,-51 542,-51 542,-30 436,-30"/>
<polygon fill="none" stroke="black" points="436,-30 436,-51 542,-51 542,-30 436,-30"/>
<text text-anchor="start" x="484" y="-36.8" font-family="Times,serif" font-size="14.00">1</text>
<polygon fill="none" stroke="black" points="436,-7 436,-28 485,-28 485,-7 436,-7"/>
<text text-anchor="start" x="439" y="-13.8" font-family="Times,serif" font-size="14.00">L:(nil)</text>
<polygon fill="none" stroke="black" points="487,-7 487,-28 542,-28 542,-7 487,-7"/>
<text text-anchor="start" x="490" y="-13.8" font-family="Times,serif" font-size="14.00">R: (nil)</text>
<polygon fill="none" stroke="black" points="433,-4 433,-54 545,-54 545,-4 433,-4"/>
</g>
<!-- node0x5610525cf980&#45;&gt;node0x5610525cf9c0 -->
<g id="edge7" class="edge">
<title>node0x5610525cf980:rchild&#45;&gt;node0x5610525cf9c0</title>
<path fill="none" stroke="black" stroke-width="2" d="M489,-100C489,-89.81 489,-78.78 489,-68.56"/>
<polygon fill="black" stroke="black" stroke-width="2" points="489,-58.27 493.5,-68.27 489.5,-63.27 489.5,-68.27 489,-68.27 488.5,-68.27 488.5,-63.27 484.5,-68.27 489,-58.27 489,-58.27"/>
</g>
</g>
</svg>
