<?xml version="1.0" encoding="UTF-8" standalone="no"?>
<!DOCTYPE svg PUBLIC "-//W3C//DTD SVG 1.1//EN"
 "http://www.w3.org/Graphics/SVG/1.1/DTD/svg11.dtd">
<!-- Generated by graphviz version 2.43.0 (0)
 -->
<!-- Title: dump_graph Pages: 1 -->
<svg width="633pt" height="536pt"
 viewBox="0.00 0.00 633.00 536.00" xmlns="http://www.w3.org/2000/svg" xmlns:xlink="http://www.w3.org/1999/xlink">
<g id="graph0" class="graph" transform="scale(1 1) rotate(0) translate(4 532)">
<title>dump_graph</title>
<polygon fill="white" stroke="transparent" points="-4,4 -4,-532 629,-532 629,4 -4,4"/>
<!-- node0x56304531ffb0 -->
<g id="node1" class="node">
<title>node0x56304531ffb0</title>
<polygon fill="lightskyblue" stroke="transparent" points="68,-500 68,-521 263,-521 263,-500 68,-500"/>
<polygon fill="none" stroke="black" points="68,-500 68,-521 263,-521 263,-500 68,-500"/>
<text text-anchor="start" x="147" y="-506.8" font-family="Times,serif" font-size="14.00">1488</text>
<polygon fill="none" stroke="black" points="68,-477 68,-498 117,-498 117,-477 68,-477"/>
<text text-anchor="start" x="71" y="-483.8" font-family="Times,serif" font-size="14.00">L:(nil)</text>
<polygon fill="none" stroke="black" points="119,-477 119,-498 263,-498 263,-477 119,-477"/>
<text text-anchor="start" x="122" y="-483.8" font-family="Times,serif" font-size="14.00">R: 0x56304531fbf0</text>
<polygon fill="none" stroke="black" points="64.5,-474 64.5,-524 265.5,-524 265.5,-474 64.5,-474"/>
</g>
<!-- node0x56304531fbf0 -->
<g id="node2" class="node">
<title>node0x56304531fbf0</title>
<polygon fill="orchid" stroke="transparent" points="51,-406 51,-427 332,-427 332,-406 51,-406"/>
<polygon fill="none" stroke="black" points="51,-406 51,-427 332,-427 332,-406 51,-406"/>
<text text-anchor="start" x="184" y="-412.8" font-family="Times,serif" font-size="14.00"> if</text>
<polygon fill="none" stroke="black" points="51,-383 51,-404 191,-404 191,-383 51,-383"/>
<text text-anchor="start" x="54" y="-389.8" font-family="Times,serif" font-size="14.00">L:0x56304531fc70</text>
<polygon fill="none" stroke="black" points="193,-383 193,-404 332,-404 332,-383 193,-383"/>
<text text-anchor="start" x="196" y="-389.8" font-family="Times,serif" font-size="14.00">R: 0x56304531fff0</text>
<polygon fill="none" stroke="black" points="47.5,-380 47.5,-430 334.5,-430 334.5,-380 47.5,-380"/>
</g>
<!-- node0x56304531ffb0&#45;&gt;node0x56304531fbf0 -->
<g id="edge1" class="edge">
<title>node0x56304531ffb0:rchild&#45;&gt;node0x56304531fbf0</title>
<path fill="none" stroke="black" stroke-width="2" d="M191,-476C191,-465.81 191,-454.78 191,-444.56"/>
<polygon fill="black" stroke="black" stroke-width="2" points="191,-434.27 195.5,-444.27 191.5,-439.27 191.5,-444.27 191,-444.27 190.5,-444.27 190.5,-439.27 186.5,-444.27 191,-434.27 191,-434.27"/>
</g>
<!-- node0x56304531fc70 -->
<g id="node3" class="node">
<title>node0x56304531fc70</title>
<polygon fill="orchid" stroke="transparent" points="19,-312 19,-333 125,-333 125,-312 19,-312"/>
<polygon fill="none" stroke="black" points="19,-312 19,-333 125,-333 125,-312 19,-312"/>
<text text-anchor="start" x="65.5" y="-318.8" font-family="Times,serif" font-size="14.00"> x</text>
<polygon fill="none" stroke="black" points="19,-289 19,-310 68,-310 68,-289 19,-289"/>
<text text-anchor="start" x="22" y="-295.8" font-family="Times,serif" font-size="14.00">L:(nil)</text>
<polygon fill="none" stroke="black" points="70,-289 70,-310 125,-310 125,-289 70,-289"/>
<text text-anchor="start" x="73" y="-295.8" font-family="Times,serif" font-size="14.00">R: (nil)</text>
<polygon fill="none" stroke="black" points="16,-286 16,-336 128,-336 128,-286 16,-286"/>
</g>
<!-- node0x56304531fbf0&#45;&gt;node0x56304531fc70 -->
<g id="edge2" class="edge">
<title>node0x56304531fbf0:lchild&#45;&gt;node0x56304531fc70</title>
<path fill="none" stroke="black" stroke-width="2" d="M50,-393C30.36,-393 37.5,-370.56 48.65,-349.3"/>
<polygon fill="black" stroke="black" stroke-width="2" points="53.62,-340.33 52.71,-351.26 51.63,-344.95 49.21,-349.32 48.78,-349.08 48.34,-348.84 50.76,-344.46 44.84,-346.9 53.62,-340.33 53.62,-340.33"/>
</g>
<!-- node0x56304531fff0 -->
<g id="node4" class="node">
<title>node0x56304531fff0</title>
<polygon fill="lightskyblue" stroke="transparent" points="166,-312 166,-333 461,-333 461,-312 166,-312"/>
<polygon fill="none" stroke="black" points="166,-312 166,-333 461,-333 461,-312 166,-312"/>
<text text-anchor="start" x="295" y="-318.8" font-family="Times,serif" font-size="14.00">1488</text>
<polygon fill="none" stroke="black" points="166,-289 166,-310 311,-310 311,-289 166,-289"/>
<text text-anchor="start" x="169" y="-295.8" font-family="Times,serif" font-size="14.00">L:0x563045320030</text>
<polygon fill="none" stroke="black" points="313,-289 313,-310 461,-310 461,-289 313,-289"/>
<text text-anchor="start" x="316" y="-295.8" font-family="Times,serif" font-size="14.00">R: 0x56304531fd70</text>
<polygon fill="none" stroke="black" points="162.5,-286 162.5,-336 463.5,-336 463.5,-286 162.5,-286"/>
</g>
<!-- node0x56304531fbf0&#45;&gt;node0x56304531fff0 -->
<g id="edge3" class="edge">
<title>node0x56304531fbf0:rchild&#45;&gt;node0x56304531fff0</title>
<path fill="none" stroke="black" stroke-width="2" d="M333,-393C352.52,-393 345.95,-370.56 335.35,-349.3"/>
<polygon fill="black" stroke="black" stroke-width="2" points="330.62,-340.33 339.26,-347.08 333.39,-344.52 335.72,-348.94 335.28,-349.18 334.84,-349.41 332.51,-344.99 331.3,-351.27 330.62,-340.33 330.62,-340.33"/>
</g>
<!-- node0x563045320030 -->
<g id="node5" class="node">
<title>node0x563045320030</title>
<polygon fill="lightskyblue" stroke="transparent" points="58,-218 58,-239 256,-239 256,-218 58,-218"/>
<polygon fill="none" stroke="black" points="58,-218 58,-239 256,-239 256,-218 58,-218"/>
<text text-anchor="start" x="138.5" y="-224.8" font-family="Times,serif" font-size="14.00">1488</text>
<polygon fill="none" stroke="black" points="58,-195 58,-216 107,-216 107,-195 58,-195"/>
<text text-anchor="start" x="61" y="-201.8" font-family="Times,serif" font-size="14.00">L:(nil)</text>
<polygon fill="none" stroke="black" points="109,-195 109,-216 256,-216 256,-195 109,-195"/>
<text text-anchor="start" x="112" y="-201.8" font-family="Times,serif" font-size="14.00">R: 0x56304531fe70</text>
<polygon fill="none" stroke="black" points="55,-192 55,-242 259,-242 259,-192 55,-192"/>
</g>
<!-- node0x56304531fff0&#45;&gt;node0x563045320030 -->
<g id="edge7" class="edge">
<title>node0x56304531fff0:lchild&#45;&gt;node0x563045320030</title>
<path fill="none" stroke="black" stroke-width="2" d="M165,-299C146.3,-299 144.8,-277.35 147.71,-256.44"/>
<polygon fill="black" stroke="black" stroke-width="2" points="149.43,-246.33 152.18,-256.95 149.08,-251.34 148.24,-256.27 147.75,-256.19 147.26,-256.1 148.1,-251.17 143.31,-255.43 149.43,-246.33 149.43,-246.33"/>
</g>
<!-- node0x56304531fd70 -->
<g id="node9" class="node">
<title>node0x56304531fd70</title>
<polygon fill="#9acd32" stroke="transparent" points="322,-218 322,-239 614,-239 614,-218 322,-218"/>
<polygon fill="none" stroke="black" points="322,-218 322,-239 614,-239 614,-218 322,-218"/>
<text text-anchor="start" x="459.5" y="-224.8" font-family="Times,serif" font-size="14.00"> =</text>
<polygon fill="none" stroke="black" points="322,-195 322,-216 464,-216 464,-195 322,-195"/>
<text text-anchor="start" x="325" y="-201.8" font-family="Times,serif" font-size="14.00">L:0x56304531fd30</text>
<polygon fill="none" stroke="black" points="466,-195 466,-216 614,-216 614,-195 466,-195"/>
<text text-anchor="start" x="469" y="-201.8" font-family="Times,serif" font-size="14.00">R: 0x56304531fdb0</text>
<polygon fill="none" stroke="black" points="319,-192 319,-242 617,-242 617,-192 319,-192"/>
</g>
<!-- node0x56304531fff0&#45;&gt;node0x56304531fd70 -->
<g id="edge8" class="edge">
<title>node0x56304531fff0:rchild&#45;&gt;node0x56304531fd70</title>
<path fill="none" stroke="black" stroke-width="2" d="M462,-299C480.75,-299 481.64,-277.16 478.17,-256.15"/>
<polygon fill="black" stroke="black" stroke-width="2" points="476.24,-246.33 482.58,-255.28 477.7,-251.14 478.66,-256.05 478.17,-256.14 477.68,-256.24 476.71,-251.33 473.75,-257.01 476.24,-246.33 476.24,-246.33"/>
</g>
<!-- node0x56304531fe70 -->
<g id="node6" class="node">
<title>node0x56304531fe70</title>
<polygon fill="#9acd32" stroke="transparent" points="11,-124 11,-145 301,-145 301,-124 11,-124"/>
<polygon fill="none" stroke="black" points="11,-124 11,-145 301,-145 301,-124 11,-124"/>
<text text-anchor="start" x="147.5" y="-130.8" font-family="Times,serif" font-size="14.00"> =</text>
<polygon fill="none" stroke="black" points="11,-101 11,-122 152,-122 152,-101 11,-101"/>
<text text-anchor="start" x="14" y="-107.8" font-family="Times,serif" font-size="14.00">L:0x56304531fe30</text>
<polygon fill="none" stroke="black" points="154,-101 154,-122 301,-122 301,-101 154,-101"/>
<text text-anchor="start" x="157" y="-107.8" font-family="Times,serif" font-size="14.00">R: 0x56304531feb0</text>
<polygon fill="none" stroke="black" points="8,-98 8,-148 304,-148 304,-98 8,-98"/>
</g>
<!-- node0x563045320030&#45;&gt;node0x56304531fe70 -->
<g id="edge4" class="edge">
<title>node0x563045320030:rchild&#45;&gt;node0x56304531fe70</title>
<path fill="none" stroke="black" stroke-width="2" d="M183,-194C183,-183.04 180.08,-171.73 176.17,-161.48"/>
<polygon fill="black" stroke="black" stroke-width="2" points="172.17,-152.02 180.21,-159.48 174.58,-156.43 176.53,-161.03 176.07,-161.23 175.61,-161.42 173.66,-156.82 171.92,-162.98 172.17,-152.02 172.17,-152.02"/>
</g>
<!-- node0x56304531fe30 -->
<g id="node7" class="node">
<title>node0x56304531fe30</title>
<polygon fill="orchid" stroke="transparent" points="28,-30 28,-51 134,-51 134,-30 28,-30"/>
<polygon fill="none" stroke="black" points="28,-30 28,-51 134,-51 134,-30 28,-30"/>
<text text-anchor="start" x="64.5" y="-36.8" font-family="Times,serif" font-size="14.00"> size</text>
<polygon fill="none" stroke="black" points="28,-7 28,-28 77,-28 77,-7 28,-7"/>
<text text-anchor="start" x="31" y="-13.8" font-family="Times,serif" font-size="14.00">L:(nil)</text>
<polygon fill="none" stroke="black" points="79,-7 79,-28 134,-28 134,-7 79,-7"/>
<text text-anchor="start" x="82" y="-13.8" font-family="Times,serif" font-size="14.00">R: (nil)</text>
<polygon fill="none" stroke="black" points="25,-4 25,-54 137,-54 137,-4 25,-4"/>
</g>
<!-- node0x56304531fe70&#45;&gt;node0x56304531fe30 -->
<g id="edge5" class="edge">
<title>node0x56304531fe70:lchild&#45;&gt;node0x56304531fe30</title>
<path fill="none" stroke="black" stroke-width="2" d="M81,-100C81,-89.81 81,-78.78 81,-68.56"/>
<polygon fill="black" stroke="black" stroke-width="2" points="81,-58.27 85.5,-68.27 81.5,-63.27 81.5,-68.27 81,-68.27 80.5,-68.27 80.5,-63.27 76.5,-68.27 81,-58.27 81,-58.27"/>
</g>
<!-- node0x56304531feb0 -->
<g id="node8" class="node">
<title>node0x56304531feb0</title>
<polygon fill="orchid" stroke="transparent" points="175,-30 175,-51 281,-51 281,-30 175,-30"/>
<polygon fill="none" stroke="black" points="175,-30 175,-51 281,-51 281,-30 175,-30"/>
<text text-anchor="start" x="221.5" y="-36.8" font-family="Times,serif" font-size="14.00"> x</text>
<polygon fill="none" stroke="black" points="175,-7 175,-28 224,-28 224,-7 175,-7"/>
<text text-anchor="start" x="178" y="-13.8" font-family="Times,serif" font-size="14.00">L:(nil)</text>
<polygon fill="none" stroke="black" points="226,-7 226,-28 281,-28 281,-7 226,-7"/>
<text text-anchor="start" x="229" y="-13.8" font-family="Times,serif" font-size="14.00">R: (nil)</text>
<polygon fill="none" stroke="black" points="172,-4 172,-54 284,-54 284,-4 172,-4"/>
</g>
<!-- node0x56304531fe70&#45;&gt;node0x56304531feb0 -->
<g id="edge6" class="edge">
<title>node0x56304531fe70:rchild&#45;&gt;node0x56304531feb0</title>
<path fill="none" stroke="black" stroke-width="2" d="M228,-100C228,-89.81 228,-78.78 228,-68.56"/>
<polygon fill="black" stroke="black" stroke-width="2" points="228,-58.27 232.5,-68.27 228.5,-63.27 228.5,-68.27 228,-68.27 227.5,-68.27 227.5,-63.27 223.5,-68.27 228,-58.27 228,-58.27"/>
</g>
<!-- node0x56304531fd30 -->
<g id="node10" class="node">
<title>node0x56304531fd30</title>
<polygon fill="orchid" stroke="transparent" points="341,-124 341,-145 447,-145 447,-124 341,-124"/>
<polygon fill="none" stroke="black" points="341,-124 341,-145 447,-145 447,-124 341,-124"/>
<text text-anchor="start" x="387.5" y="-130.8" font-family="Times,serif" font-size="14.00"> x</text>
<polygon fill="none" stroke="black" points="341,-101 341,-122 390,-122 390,-101 341,-101"/>
<text text-anchor="start" x="344" y="-107.8" font-family="Times,serif" font-size="14.00">L:(nil)</text>
<polygon fill="none" stroke="black" points="392,-101 392,-122 447,-122 447,-101 392,-101"/>
<text text-anchor="start" x="395" y="-107.8" font-family="Times,serif" font-size="14.00">R: (nil)</text>
<polygon fill="none" stroke="black" points="338,-98 338,-148 450,-148 450,-98 338,-98"/>
</g>
<!-- node0x56304531fd70&#45;&gt;node0x56304531fd30 -->
<g id="edge9" class="edge">
<title>node0x56304531fd70:lchild&#45;&gt;node0x56304531fd30</title>
<path fill="none" stroke="black" stroke-width="2" d="M393,-194C393,-183.81 393.11,-172.78 393.25,-162.56"/>
<polygon fill="black" stroke="black" stroke-width="2" points="393.41,-152.27 397.76,-162.34 393.83,-157.28 393.76,-162.27 393.26,-162.27 392.76,-162.26 392.83,-157.26 388.76,-162.2 393.41,-152.27 393.41,-152.27"/>
</g>
<!-- node0x56304531fdb0 -->
<g id="node11" class="node">
<title>node0x56304531fdb0</title>
<polygon fill="lightskyblue" stroke="transparent" points="487,-124 487,-145 593,-145 593,-124 487,-124"/>
<polygon fill="none" stroke="black" points="487,-124 487,-145 593,-145 593,-124 487,-124"/>
<text text-anchor="start" x="535" y="-130.8" font-family="Times,serif" font-size="14.00">2</text>
<polygon fill="none" stroke="black" points="487,-101 487,-122 536,-122 536,-101 487,-101"/>
<text text-anchor="start" x="490" y="-107.8" font-family="Times,serif" font-size="14.00">L:(nil)</text>
<polygon fill="none" stroke="black" points="538,-101 538,-122 593,-122 593,-101 538,-101"/>
<text text-anchor="start" x="541" y="-107.8" font-family="Times,serif" font-size="14.00">R: (nil)</text>
<polygon fill="none" stroke="black" points="484,-98 484,-148 596,-148 596,-98 484,-98"/>
</g>
<!-- node0x56304531fd70&#45;&gt;node0x56304531fdb0 -->
<g id="edge10" class="edge">
<title>node0x56304531fd70:rchild&#45;&gt;node0x56304531fdb0</title>
<path fill="none" stroke="black" stroke-width="2" d="M540,-194C540,-183.81 540,-172.78 540,-162.56"/>
<polygon fill="black" stroke="black" stroke-width="2" points="540,-152.27 544.5,-162.27 540.5,-157.27 540.5,-162.27 540,-162.27 539.5,-162.27 539.5,-157.27 535.5,-162.27 540,-152.27 540,-152.27"/>
</g>
</g>
</svg>
