<?xml version="1.0" encoding="UTF-8" standalone="no"?>
<!DOCTYPE svg PUBLIC "-//W3C//DTD SVG 1.1//EN"
 "http://www.w3.org/Graphics/SVG/1.1/DTD/svg11.dtd">
<!-- Generated by graphviz version 2.43.0 (0)
 -->
<!-- Title: dump_graph Pages: 1 -->
<svg width="1493pt" height="818pt"
 viewBox="0.00 0.00 1493.00 818.00" xmlns="http://www.w3.org/2000/svg" xmlns:xlink="http://www.w3.org/1999/xlink">
<g id="graph0" class="graph" transform="scale(1 1) rotate(0) translate(4 814)">
<title>dump_graph</title>
<polygon fill="white" stroke="transparent" points="-4,4 -4,-814 1489,-814 1489,4 -4,4"/>
<!-- node0x55b1d1cc17e0 -->
<g id="node1" class="node">
<title>node0x55b1d1cc17e0</title>
<polygon fill="lightskyblue" stroke="transparent" points="105,-500 105,-521 304,-521 304,-500 105,-500"/>
<polygon fill="none" stroke="black" points="105,-500 105,-521 304,-521 304,-500 105,-500"/>
<text text-anchor="start" x="186" y="-506.8" font-family="Times,serif" font-size="14.00">1488</text>
<polygon fill="none" stroke="black" points="105,-477 105,-498 154,-498 154,-477 105,-477"/>
<text text-anchor="start" x="108" y="-483.8" font-family="Times,serif" font-size="14.00">L:(nil)</text>
<polygon fill="none" stroke="black" points="156,-477 156,-498 304,-498 304,-477 156,-477"/>
<text text-anchor="start" x="159" y="-483.8" font-family="Times,serif" font-size="14.00">R: 0x55b1d1cc14e0</text>
<polygon fill="none" stroke="black" points="101.5,-474 101.5,-524 306.5,-524 306.5,-474 101.5,-474"/>
</g>
<!-- node0x55b1d1cc14e0 -->
<g id="node2" class="node">
<title>node0x55b1d1cc14e0</title>
<polygon fill="#9acd32" stroke="transparent" points="11,-406 11,-427 303,-427 303,-406 11,-406"/>
<polygon fill="none" stroke="black" points="11,-406 11,-427 303,-427 303,-406 11,-406"/>
<text text-anchor="start" x="148.5" y="-412.8" font-family="Times,serif" font-size="14.00"> =</text>
<polygon fill="none" stroke="black" points="11,-383 11,-404 153,-404 153,-383 11,-383"/>
<text text-anchor="start" x="14" y="-389.8" font-family="Times,serif" font-size="14.00">L:0x55b1d1cc14a0</text>
<polygon fill="none" stroke="black" points="155,-383 155,-404 303,-404 303,-383 155,-383"/>
<text text-anchor="start" x="158" y="-389.8" font-family="Times,serif" font-size="14.00">R: 0x55b1d1cc1520</text>
<polygon fill="none" stroke="black" points="8,-380 8,-430 306,-430 306,-380 8,-380"/>
</g>
<!-- node0x55b1d1cc17e0&#45;&gt;node0x55b1d1cc14e0 -->
<g id="edge1" class="edge">
<title>node0x55b1d1cc17e0:rchild&#45;&gt;node0x55b1d1cc14e0</title>
<path fill="none" stroke="black" stroke-width="2" d="M230,-476C230,-462.57 223.48,-450.91 214.34,-441.17"/>
<polygon fill="black" stroke="black" stroke-width="2" points="206.9,-434.1 217.25,-437.73 210.87,-437.18 214.49,-440.63 214.15,-440.99 213.8,-441.35 210.18,-437.91 211.05,-444.25 206.9,-434.1 206.9,-434.1"/>
</g>
<!-- node0x55b1d1cc14a0 -->
<g id="node3" class="node">
<title>node0x55b1d1cc14a0</title>
<polygon fill="orchid" stroke="transparent" points="29,-312 29,-333 135,-333 135,-312 29,-312"/>
<polygon fill="none" stroke="black" points="29,-312 29,-333 135,-333 135,-312 29,-312"/>
<text text-anchor="start" x="75.5" y="-318.8" font-family="Times,serif" font-size="14.00"> x</text>
<polygon fill="none" stroke="black" points="29,-289 29,-310 78,-310 78,-289 29,-289"/>
<text text-anchor="start" x="32" y="-295.8" font-family="Times,serif" font-size="14.00">L:(nil)</text>
<polygon fill="none" stroke="black" points="80,-289 80,-310 135,-310 135,-289 80,-289"/>
<text text-anchor="start" x="83" y="-295.8" font-family="Times,serif" font-size="14.00">R: (nil)</text>
<polygon fill="none" stroke="black" points="26,-286 26,-336 138,-336 138,-286 26,-286"/>
</g>
<!-- node0x55b1d1cc14e0&#45;&gt;node0x55b1d1cc14a0 -->
<g id="edge2" class="edge">
<title>node0x55b1d1cc14e0:lchild&#45;&gt;node0x55b1d1cc14a0</title>
<path fill="none" stroke="black" stroke-width="2" d="M82,-382C82,-371.81 82,-360.78 82,-350.56"/>
<polygon fill="black" stroke="black" stroke-width="2" points="82,-340.27 86.5,-350.27 82.5,-345.27 82.5,-350.27 82,-350.27 81.5,-350.27 81.5,-345.27 77.5,-350.27 82,-340.27 82,-340.27"/>
</g>
<!-- node0x55b1d1cc1520 -->
<g id="node4" class="node">
<title>node0x55b1d1cc1520</title>
<polygon fill="lightskyblue" stroke="transparent" points="176,-312 176,-333 282,-333 282,-312 176,-312"/>
<polygon fill="none" stroke="black" points="176,-312 176,-333 282,-333 282,-312 176,-312"/>
<text text-anchor="start" x="219.5" y="-318.8" font-family="Times,serif" font-size="14.00">23</text>
<polygon fill="none" stroke="black" points="176,-289 176,-310 225,-310 225,-289 176,-289"/>
<text text-anchor="start" x="179" y="-295.8" font-family="Times,serif" font-size="14.00">L:(nil)</text>
<polygon fill="none" stroke="black" points="227,-289 227,-310 282,-310 282,-289 227,-289"/>
<text text-anchor="start" x="230" y="-295.8" font-family="Times,serif" font-size="14.00">R: (nil)</text>
<polygon fill="none" stroke="black" points="173,-286 173,-336 285,-336 285,-286 173,-286"/>
</g>
<!-- node0x55b1d1cc14e0&#45;&gt;node0x55b1d1cc1520 -->
<g id="edge3" class="edge">
<title>node0x55b1d1cc14e0:rchild&#45;&gt;node0x55b1d1cc1520</title>
<path fill="none" stroke="black" stroke-width="2" d="M229,-382C229,-371.81 229,-360.78 229,-350.56"/>
<polygon fill="black" stroke="black" stroke-width="2" points="229,-340.27 233.5,-350.27 229.5,-345.27 229.5,-350.27 229,-350.27 228.5,-350.27 228.5,-345.27 224.5,-350.27 229,-340.27 229,-340.27"/>
</g>
<!-- node0x55b1d1cc16a0 -->
<g id="node5" class="node">
<title>node0x55b1d1cc16a0</title>
<polygon fill="lightskyblue" stroke="transparent" points="344,-594 344,-615 636,-615 636,-594 344,-594"/>
<polygon fill="none" stroke="black" points="344,-594 344,-615 636,-615 636,-594 344,-594"/>
<text text-anchor="start" x="471.5" y="-600.8" font-family="Times,serif" font-size="14.00">1488</text>
<polygon fill="none" stroke="black" points="344,-571 344,-592 486,-592 486,-571 344,-571"/>
<text text-anchor="start" x="347" y="-577.8" font-family="Times,serif" font-size="14.00">L:0x55b1d1cc17e0</text>
<polygon fill="none" stroke="black" points="488,-571 488,-592 636,-592 636,-571 488,-571"/>
<text text-anchor="start" x="491" y="-577.8" font-family="Times,serif" font-size="14.00">R: 0x55b1d1cc0e20</text>
<polygon fill="none" stroke="black" points="341,-568 341,-618 639,-618 639,-568 341,-568"/>
</g>
<!-- node0x55b1d1cc16a0&#45;&gt;node0x55b1d1cc17e0 -->
<g id="edge4" class="edge">
<title>node0x55b1d1cc16a0:lchild&#45;&gt;node0x55b1d1cc17e0</title>
<path fill="none" stroke="black" stroke-width="2" d="M343,-581C303.89,-581 265.98,-556.77 239.66,-534.81"/>
<polygon fill="black" stroke="black" stroke-width="2" points="231.87,-528.1 242.39,-531.22 235.99,-530.99 239.78,-534.25 239.45,-534.63 239.12,-535.01 235.34,-531.75 236.51,-538.04 231.87,-528.1 231.87,-528.1"/>
</g>
<!-- node0x55b1d1cc0e20 -->
<g id="node6" class="node">
<title>node0x55b1d1cc0e20</title>
<polygon fill="orchid" stroke="transparent" points="417,-500 417,-521 708,-521 708,-500 417,-500"/>
<polygon fill="none" stroke="black" points="417,-500 417,-521 708,-521 708,-500 417,-500"/>
<text text-anchor="start" x="541" y="-506.8" font-family="Times,serif" font-size="14.00"> while</text>
<polygon fill="none" stroke="black" points="417,-477 417,-498 558,-498 558,-477 417,-477"/>
<text text-anchor="start" x="420" y="-483.8" font-family="Times,serif" font-size="14.00">L:0x55b1d1cc0ee0</text>
<polygon fill="none" stroke="black" points="560,-477 560,-498 708,-498 708,-477 560,-477"/>
<text text-anchor="start" x="563" y="-483.8" font-family="Times,serif" font-size="14.00">R: 0x55b1d1cc16e0</text>
<polygon fill="none" stroke="black" points="413.5,-474 413.5,-524 710.5,-524 710.5,-474 413.5,-474"/>
</g>
<!-- node0x55b1d1cc16a0&#45;&gt;node0x55b1d1cc0e20 -->
<g id="edge5" class="edge">
<title>node0x55b1d1cc16a0:rchild&#45;&gt;node0x55b1d1cc0e20</title>
<path fill="none" stroke="black" stroke-width="2" d="M562,-570C562,-559.81 562,-548.78 562,-538.56"/>
<polygon fill="black" stroke="black" stroke-width="2" points="562,-528.27 566.5,-538.27 562.5,-533.27 562.5,-538.27 562,-538.27 561.5,-538.27 561.5,-533.27 557.5,-538.27 562,-528.27 562,-528.27"/>
</g>
<!-- node0x55b1d1cc0ee0 -->
<g id="node8" class="node">
<title>node0x55b1d1cc0ee0</title>
<polygon fill="orchid" stroke="transparent" points="343,-406 343,-427 631,-427 631,-406 343,-406"/>
<polygon fill="none" stroke="black" points="343,-406 343,-427 631,-427 631,-406 343,-406"/>
<text text-anchor="start" x="472.5" y="-412.8" font-family="Times,serif" font-size="14.00"> ==</text>
<polygon fill="none" stroke="black" points="343,-383 343,-404 484,-404 484,-383 343,-383"/>
<text text-anchor="start" x="346" y="-389.8" font-family="Times,serif" font-size="14.00">L:0x55b1d1cc0ea0</text>
<polygon fill="none" stroke="black" points="486,-383 486,-404 631,-404 631,-383 486,-383"/>
<text text-anchor="start" x="489" y="-389.8" font-family="Times,serif" font-size="14.00">R: 0x55b1d1cc0f20</text>
<polygon fill="none" stroke="black" points="340,-380 340,-430 634,-430 634,-380 340,-380"/>
</g>
<!-- node0x55b1d1cc0e20&#45;&gt;node0x55b1d1cc0ee0 -->
<g id="edge8" class="edge">
<title>node0x55b1d1cc0e20:lchild&#45;&gt;node0x55b1d1cc0ee0</title>
<path fill="none" stroke="black" stroke-width="2" d="M487,-476C487,-465.81 487,-454.78 487,-444.56"/>
<polygon fill="black" stroke="black" stroke-width="2" points="487,-434.27 491.5,-444.27 487.5,-439.27 487.5,-444.27 487,-444.27 486.5,-444.27 486.5,-439.27 482.5,-444.27 487,-434.27 487,-434.27"/>
</g>
<!-- node0x55b1d1cc16e0 -->
<g id="node10" class="node">
<title>node0x55b1d1cc16e0</title>
<polygon fill="lightskyblue" stroke="transparent" points="727,-406 727,-427 1015,-427 1015,-406 727,-406"/>
<polygon fill="none" stroke="black" points="727,-406 727,-427 1015,-427 1015,-406 727,-406"/>
<text text-anchor="start" x="852.5" y="-412.8" font-family="Times,serif" font-size="14.00">1488</text>
<polygon fill="none" stroke="black" points="727,-383 727,-404 869,-404 869,-383 727,-383"/>
<text text-anchor="start" x="730" y="-389.8" font-family="Times,serif" font-size="14.00">L:0x55b1d1cc1760</text>
<polygon fill="none" stroke="black" points="871,-383 871,-404 1015,-404 1015,-383 871,-383"/>
<text text-anchor="start" x="874" y="-389.8" font-family="Times,serif" font-size="14.00">R: 0x55b1d1cc0fe0</text>
<polygon fill="none" stroke="black" points="724,-380 724,-430 1018,-430 1018,-380 724,-380"/>
</g>
<!-- node0x55b1d1cc0e20&#45;&gt;node0x55b1d1cc16e0 -->
<g id="edge9" class="edge">
<title>node0x55b1d1cc0e20:rchild&#45;&gt;node0x55b1d1cc16e0</title>
<path fill="none" stroke="black" stroke-width="2" d="M709,-487C720.33,-487 718.49,-476.17 728,-470 746.4,-458.06 767.4,-447.3 787.54,-438.15"/>
<polygon fill="black" stroke="black" stroke-width="2" points="796.72,-434.06 789.41,-442.24 792.35,-436.55 787.79,-438.58 787.58,-438.13 787.38,-437.67 791.95,-435.64 785.75,-434.02 796.72,-434.06 796.72,-434.06"/>
</g>
<!-- node0x55b1d1cc0ea0 -->
<g id="node7" class="node">
<title>node0x55b1d1cc0ea0</title>
<polygon fill="orchid" stroke="transparent" points="360,-312 360,-333 466,-333 466,-312 360,-312"/>
<polygon fill="none" stroke="black" points="360,-312 360,-333 466,-333 466,-312 360,-312"/>
<text text-anchor="start" x="406.5" y="-318.8" font-family="Times,serif" font-size="14.00"> x</text>
<polygon fill="none" stroke="black" points="360,-289 360,-310 409,-310 409,-289 360,-289"/>
<text text-anchor="start" x="363" y="-295.8" font-family="Times,serif" font-size="14.00">L:(nil)</text>
<polygon fill="none" stroke="black" points="411,-289 411,-310 466,-310 466,-289 411,-289"/>
<text text-anchor="start" x="414" y="-295.8" font-family="Times,serif" font-size="14.00">R: (nil)</text>
<polygon fill="none" stroke="black" points="357,-286 357,-336 469,-336 469,-286 357,-286"/>
</g>
<!-- node0x55b1d1cc0ee0&#45;&gt;node0x55b1d1cc0ea0 -->
<g id="edge6" class="edge">
<title>node0x55b1d1cc0ee0:lchild&#45;&gt;node0x55b1d1cc0ea0</title>
<path fill="none" stroke="black" stroke-width="2" d="M413,-382C413,-371.81 413,-360.78 413,-350.56"/>
<polygon fill="black" stroke="black" stroke-width="2" points="413,-340.27 417.5,-350.27 413.5,-345.27 413.5,-350.27 413,-350.27 412.5,-350.27 412.5,-345.27 408.5,-350.27 413,-340.27 413,-340.27"/>
</g>
<!-- node0x55b1d1cc0f20 -->
<g id="node9" class="node">
<title>node0x55b1d1cc0f20</title>
<polygon fill="lightskyblue" stroke="transparent" points="506,-312 506,-333 612,-333 612,-312 506,-312"/>
<polygon fill="none" stroke="black" points="506,-312 506,-333 612,-333 612,-312 506,-312"/>
<text text-anchor="start" x="554" y="-318.8" font-family="Times,serif" font-size="14.00">3</text>
<polygon fill="none" stroke="black" points="506,-289 506,-310 555,-310 555,-289 506,-289"/>
<text text-anchor="start" x="509" y="-295.8" font-family="Times,serif" font-size="14.00">L:(nil)</text>
<polygon fill="none" stroke="black" points="557,-289 557,-310 612,-310 612,-289 557,-289"/>
<text text-anchor="start" x="560" y="-295.8" font-family="Times,serif" font-size="14.00">R: (nil)</text>
<polygon fill="none" stroke="black" points="503,-286 503,-336 615,-336 615,-286 503,-286"/>
</g>
<!-- node0x55b1d1cc0ee0&#45;&gt;node0x55b1d1cc0f20 -->
<g id="edge7" class="edge">
<title>node0x55b1d1cc0ee0:rchild&#45;&gt;node0x55b1d1cc0f20</title>
<path fill="none" stroke="black" stroke-width="2" d="M559,-382C559,-371.81 559,-360.78 559,-350.56"/>
<polygon fill="black" stroke="black" stroke-width="2" points="559,-340.27 563.5,-350.27 559.5,-345.27 559.5,-350.27 559,-350.27 558.5,-350.27 558.5,-345.27 554.5,-350.27 559,-340.27 559,-340.27"/>
</g>
<!-- node0x55b1d1cc1760 -->
<g id="node15" class="node">
<title>node0x55b1d1cc1760</title>
<polygon fill="lightskyblue" stroke="transparent" points="652,-312 652,-333 944,-333 944,-312 652,-312"/>
<polygon fill="none" stroke="black" points="652,-312 652,-333 944,-333 944,-312 652,-312"/>
<text text-anchor="start" x="779.5" y="-318.8" font-family="Times,serif" font-size="14.00">1488</text>
<polygon fill="none" stroke="black" points="652,-289 652,-310 794,-310 794,-289 652,-289"/>
<text text-anchor="start" x="655" y="-295.8" font-family="Times,serif" font-size="14.00">L:0x55b1d1cc17a0</text>
<polygon fill="none" stroke="black" points="796,-289 796,-310 944,-310 944,-289 796,-289"/>
<text text-anchor="start" x="799" y="-295.8" font-family="Times,serif" font-size="14.00">R: 0x55b1d1cc12a0</text>
<polygon fill="none" stroke="black" points="649,-286 649,-336 947,-336 947,-286 649,-286"/>
</g>
<!-- node0x55b1d1cc16e0&#45;&gt;node0x55b1d1cc1760 -->
<g id="edge17" class="edge">
<title>node0x55b1d1cc16e0:lchild&#45;&gt;node0x55b1d1cc1760</title>
<path fill="none" stroke="black" stroke-width="2" d="M798,-382C798,-371.81 798,-360.78 798,-350.56"/>
<polygon fill="black" stroke="black" stroke-width="2" points="798,-340.27 802.5,-350.27 798.5,-345.27 798.5,-350.27 798,-350.27 797.5,-350.27 797.5,-345.27 793.5,-350.27 798,-340.27 798,-340.27"/>
</g>
<!-- node0x55b1d1cc0fe0 -->
<g id="node19" class="node">
<title>node0x55b1d1cc0fe0</title>
<polygon fill="orchid" stroke="transparent" points="1038,-312 1038,-333 1330,-333 1330,-312 1038,-312"/>
<polygon fill="none" stroke="black" points="1038,-312 1038,-333 1330,-333 1330,-312 1038,-312"/>
<text text-anchor="start" x="1176.5" y="-318.8" font-family="Times,serif" font-size="14.00"> if</text>
<polygon fill="none" stroke="black" points="1038,-289 1038,-310 1180,-310 1180,-289 1038,-289"/>
<text text-anchor="start" x="1041" y="-295.8" font-family="Times,serif" font-size="14.00">L:0x55b1d1cc1060</text>
<polygon fill="none" stroke="black" points="1182,-289 1182,-310 1330,-310 1330,-289 1182,-289"/>
<text text-anchor="start" x="1185" y="-295.8" font-family="Times,serif" font-size="14.00">R: 0x55b1d1cc1720</text>
<polygon fill="none" stroke="black" points="1035,-286 1035,-336 1333,-336 1333,-286 1035,-286"/>
</g>
<!-- node0x55b1d1cc16e0&#45;&gt;node0x55b1d1cc0fe0 -->
<g id="edge18" class="edge">
<title>node0x55b1d1cc16e0:rchild&#45;&gt;node0x55b1d1cc0fe0</title>
<path fill="none" stroke="black" stroke-width="2" d="M1016,-393C1061.92,-393 1108.53,-368.14 1140.96,-345.96"/>
<polygon fill="black" stroke="black" stroke-width="2" points="1149.31,-340.1 1143.71,-349.53 1145.5,-343.39 1141.41,-346.26 1141.12,-345.85 1140.84,-345.44 1144.93,-342.57 1138.54,-342.17 1149.31,-340.1 1149.31,-340.1"/>
</g>
<!-- node0x55b1d1cc17a0 -->
<g id="node11" class="node">
<title>node0x55b1d1cc17a0</title>
<polygon fill="lightskyblue" stroke="transparent" points="459,-218 459,-239 658,-239 658,-218 459,-218"/>
<polygon fill="none" stroke="black" points="459,-218 459,-239 658,-239 658,-218 459,-218"/>
<text text-anchor="start" x="540" y="-224.8" font-family="Times,serif" font-size="14.00">1488</text>
<polygon fill="none" stroke="black" points="459,-195 459,-216 508,-216 508,-195 459,-195"/>
<text text-anchor="start" x="462" y="-201.8" font-family="Times,serif" font-size="14.00">L:(nil)</text>
<polygon fill="none" stroke="black" points="510,-195 510,-216 658,-216 658,-195 510,-195"/>
<text text-anchor="start" x="513" y="-201.8" font-family="Times,serif" font-size="14.00">R: 0x55b1d1cc13a0</text>
<polygon fill="none" stroke="black" points="455.5,-192 455.5,-242 660.5,-242 660.5,-192 455.5,-192"/>
</g>
<!-- node0x55b1d1cc13a0 -->
<g id="node12" class="node">
<title>node0x55b1d1cc13a0</title>
<polygon fill="#9acd32" stroke="transparent" points="411,-124 411,-145 703,-145 703,-124 411,-124"/>
<polygon fill="none" stroke="black" points="411,-124 411,-145 703,-145 703,-124 411,-124"/>
<text text-anchor="start" x="548.5" y="-130.8" font-family="Times,serif" font-size="14.00"> =</text>
<polygon fill="none" stroke="black" points="411,-101 411,-122 553,-122 553,-101 411,-101"/>
<text text-anchor="start" x="414" y="-107.8" font-family="Times,serif" font-size="14.00">L:0x55b1d1cc1360</text>
<polygon fill="none" stroke="black" points="555,-101 555,-122 703,-122 703,-101 555,-101"/>
<text text-anchor="start" x="558" y="-107.8" font-family="Times,serif" font-size="14.00">R: 0x55b1d1cc13e0</text>
<polygon fill="none" stroke="black" points="408,-98 408,-148 706,-148 706,-98 408,-98"/>
</g>
<!-- node0x55b1d1cc17a0&#45;&gt;node0x55b1d1cc13a0 -->
<g id="edge10" class="edge">
<title>node0x55b1d1cc17a0:rchild&#45;&gt;node0x55b1d1cc13a0</title>
<path fill="none" stroke="black" stroke-width="2" d="M584,-194C584,-183.04 581.08,-171.73 577.17,-161.48"/>
<polygon fill="black" stroke="black" stroke-width="2" points="573.17,-152.02 581.21,-159.48 575.58,-156.43 577.53,-161.03 577.07,-161.23 576.61,-161.42 574.66,-156.82 572.92,-162.98 573.17,-152.02 573.17,-152.02"/>
</g>
<!-- node0x55b1d1cc1360 -->
<g id="node13" class="node">
<title>node0x55b1d1cc1360</title>
<polygon fill="orchid" stroke="transparent" points="429,-30 429,-51 535,-51 535,-30 429,-30"/>
<polygon fill="none" stroke="black" points="429,-30 429,-51 535,-51 535,-30 429,-30"/>
<text text-anchor="start" x="465.5" y="-36.8" font-family="Times,serif" font-size="14.00"> size</text>
<polygon fill="none" stroke="black" points="429,-7 429,-28 478,-28 478,-7 429,-7"/>
<text text-anchor="start" x="432" y="-13.8" font-family="Times,serif" font-size="14.00">L:(nil)</text>
<polygon fill="none" stroke="black" points="480,-7 480,-28 535,-28 535,-7 480,-7"/>
<text text-anchor="start" x="483" y="-13.8" font-family="Times,serif" font-size="14.00">R: (nil)</text>
<polygon fill="none" stroke="black" points="426,-4 426,-54 538,-54 538,-4 426,-4"/>
</g>
<!-- node0x55b1d1cc13a0&#45;&gt;node0x55b1d1cc1360 -->
<g id="edge11" class="edge">
<title>node0x55b1d1cc13a0:lchild&#45;&gt;node0x55b1d1cc1360</title>
<path fill="none" stroke="black" stroke-width="2" d="M482,-100C482,-89.81 482,-78.78 482,-68.56"/>
<polygon fill="black" stroke="black" stroke-width="2" points="482,-58.27 486.5,-68.27 482.5,-63.27 482.5,-68.27 482,-68.27 481.5,-68.27 481.5,-63.27 477.5,-68.27 482,-58.27 482,-58.27"/>
</g>
<!-- node0x55b1d1cc13e0 -->
<g id="node14" class="node">
<title>node0x55b1d1cc13e0</title>
<polygon fill="lightskyblue" stroke="transparent" points="576,-30 576,-51 682,-51 682,-30 576,-30"/>
<polygon fill="none" stroke="black" points="576,-30 576,-51 682,-51 682,-30 576,-30"/>
<text text-anchor="start" x="624" y="-36.8" font-family="Times,serif" font-size="14.00">0</text>
<polygon fill="none" stroke="black" points="576,-7 576,-28 625,-28 625,-7 576,-7"/>
<text text-anchor="start" x="579" y="-13.8" font-family="Times,serif" font-size="14.00">L:(nil)</text>
<polygon fill="none" stroke="black" points="627,-7 627,-28 682,-28 682,-7 627,-7"/>
<text text-anchor="start" x="630" y="-13.8" font-family="Times,serif" font-size="14.00">R: (nil)</text>
<polygon fill="none" stroke="black" points="573,-4 573,-54 685,-54 685,-4 573,-4"/>
</g>
<!-- node0x55b1d1cc13a0&#45;&gt;node0x55b1d1cc13e0 -->
<g id="edge12" class="edge">
<title>node0x55b1d1cc13a0:rchild&#45;&gt;node0x55b1d1cc13e0</title>
<path fill="none" stroke="black" stroke-width="2" d="M629,-100C629,-89.81 629,-78.78 629,-68.56"/>
<polygon fill="black" stroke="black" stroke-width="2" points="629,-58.27 633.5,-68.27 629.5,-63.27 629.5,-68.27 629,-68.27 628.5,-68.27 628.5,-63.27 624.5,-68.27 629,-58.27 629,-58.27"/>
</g>
<!-- node0x55b1d1cc1760&#45;&gt;node0x55b1d1cc17a0 -->
<g id="edge13" class="edge">
<title>node0x55b1d1cc1760:lchild&#45;&gt;node0x55b1d1cc17a0</title>
<path fill="none" stroke="black" stroke-width="2" d="M651,-299C639.67,-299 640.51,-289.48 632,-282 621.22,-272.52 609.5,-262.33 598.63,-252.92"/>
<polygon fill="black" stroke="black" stroke-width="2" points="590.89,-246.24 601.4,-249.37 595,-249.13 598.78,-252.4 598.46,-252.77 598.13,-253.15 594.35,-249.88 595.51,-256.18 590.89,-246.24 590.89,-246.24"/>
</g>
<!-- node0x55b1d1cc12a0 -->
<g id="node16" class="node">
<title>node0x55b1d1cc12a0</title>
<polygon fill="#9acd32" stroke="transparent" points="724,-218 724,-239 1016,-239 1016,-218 724,-218"/>
<polygon fill="none" stroke="black" points="724,-218 724,-239 1016,-239 1016,-218 724,-218"/>
<text text-anchor="start" x="861.5" y="-224.8" font-family="Times,serif" font-size="14.00"> =</text>
<polygon fill="none" stroke="black" points="724,-195 724,-216 866,-216 866,-195 724,-195"/>
<text text-anchor="start" x="727" y="-201.8" font-family="Times,serif" font-size="14.00">L:0x55b1d1cc1260</text>
<polygon fill="none" stroke="black" points="868,-195 868,-216 1016,-216 1016,-195 868,-195"/>
<text text-anchor="start" x="871" y="-201.8" font-family="Times,serif" font-size="14.00">R: 0x55b1d1cc12e0</text>
<polygon fill="none" stroke="black" points="721,-192 721,-242 1019,-242 1019,-192 721,-192"/>
</g>
<!-- node0x55b1d1cc1760&#45;&gt;node0x55b1d1cc12a0 -->
<g id="edge14" class="edge">
<title>node0x55b1d1cc1760:rchild&#45;&gt;node0x55b1d1cc12a0</title>
<path fill="none" stroke="black" stroke-width="2" d="M870,-288C870,-277.81 870,-266.78 870,-256.56"/>
<polygon fill="black" stroke="black" stroke-width="2" points="870,-246.27 874.5,-256.27 870.5,-251.27 870.5,-256.27 870,-256.27 869.5,-256.27 869.5,-251.27 865.5,-256.27 870,-246.27 870,-246.27"/>
</g>
<!-- node0x55b1d1cc1260 -->
<g id="node17" class="node">
<title>node0x55b1d1cc1260</title>
<polygon fill="orchid" stroke="transparent" points="743,-124 743,-145 849,-145 849,-124 743,-124"/>
<polygon fill="none" stroke="black" points="743,-124 743,-145 849,-145 849,-124 743,-124"/>
<text text-anchor="start" x="789.5" y="-130.8" font-family="Times,serif" font-size="14.00"> x</text>
<polygon fill="none" stroke="black" points="743,-101 743,-122 792,-122 792,-101 743,-101"/>
<text text-anchor="start" x="746" y="-107.8" font-family="Times,serif" font-size="14.00">L:(nil)</text>
<polygon fill="none" stroke="black" points="794,-101 794,-122 849,-122 849,-101 794,-101"/>
<text text-anchor="start" x="797" y="-107.8" font-family="Times,serif" font-size="14.00">R: (nil)</text>
<polygon fill="none" stroke="black" points="740,-98 740,-148 852,-148 852,-98 740,-98"/>
</g>
<!-- node0x55b1d1cc12a0&#45;&gt;node0x55b1d1cc1260 -->
<g id="edge15" class="edge">
<title>node0x55b1d1cc12a0:lchild&#45;&gt;node0x55b1d1cc1260</title>
<path fill="none" stroke="black" stroke-width="2" d="M795,-194C795,-183.81 795.11,-172.78 795.25,-162.56"/>
<polygon fill="black" stroke="black" stroke-width="2" points="795.41,-152.27 799.76,-162.34 795.83,-157.28 795.76,-162.27 795.26,-162.27 794.76,-162.26 794.83,-157.26 790.76,-162.2 795.41,-152.27 795.41,-152.27"/>
</g>
<!-- node0x55b1d1cc12e0 -->
<g id="node18" class="node">
<title>node0x55b1d1cc12e0</title>
<polygon fill="lightskyblue" stroke="transparent" points="889,-124 889,-145 995,-145 995,-124 889,-124"/>
<polygon fill="none" stroke="black" points="889,-124 889,-145 995,-145 995,-124 889,-124"/>
<text text-anchor="start" x="937" y="-130.8" font-family="Times,serif" font-size="14.00">2</text>
<polygon fill="none" stroke="black" points="889,-101 889,-122 938,-122 938,-101 889,-101"/>
<text text-anchor="start" x="892" y="-107.8" font-family="Times,serif" font-size="14.00">L:(nil)</text>
<polygon fill="none" stroke="black" points="940,-101 940,-122 995,-122 995,-101 940,-101"/>
<text text-anchor="start" x="943" y="-107.8" font-family="Times,serif" font-size="14.00">R: (nil)</text>
<polygon fill="none" stroke="black" points="886,-98 886,-148 998,-148 998,-98 886,-98"/>
</g>
<!-- node0x55b1d1cc12a0&#45;&gt;node0x55b1d1cc12e0 -->
<g id="edge16" class="edge">
<title>node0x55b1d1cc12a0:rchild&#45;&gt;node0x55b1d1cc12e0</title>
<path fill="none" stroke="black" stroke-width="2" d="M942,-194C942,-183.81 942,-172.78 942,-162.56"/>
<polygon fill="black" stroke="black" stroke-width="2" points="942,-152.27 946.5,-162.27 942.5,-157.27 942.5,-162.27 942,-162.27 941.5,-162.27 941.5,-157.27 937.5,-162.27 942,-152.27 942,-152.27"/>
</g>
<!-- node0x55b1d1cc1060 -->
<g id="node20" class="node">
<title>node0x55b1d1cc1060</title>
<polygon fill="lightskyblue" stroke="transparent" points="1056,-218 1056,-239 1162,-239 1162,-218 1056,-218"/>
<polygon fill="none" stroke="black" points="1056,-218 1056,-239 1162,-239 1162,-218 1056,-218"/>
<text text-anchor="start" x="1104" y="-224.8" font-family="Times,serif" font-size="14.00">1</text>
<polygon fill="none" stroke="black" points="1056,-195 1056,-216 1105,-216 1105,-195 1056,-195"/>
<text text-anchor="start" x="1059" y="-201.8" font-family="Times,serif" font-size="14.00">L:(nil)</text>
<polygon fill="none" stroke="black" points="1107,-195 1107,-216 1162,-216 1162,-195 1107,-195"/>
<text text-anchor="start" x="1110" y="-201.8" font-family="Times,serif" font-size="14.00">R: (nil)</text>
<polygon fill="none" stroke="black" points="1053,-192 1053,-242 1165,-242 1165,-192 1053,-192"/>
</g>
<!-- node0x55b1d1cc0fe0&#45;&gt;node0x55b1d1cc1060 -->
<g id="edge19" class="edge">
<title>node0x55b1d1cc0fe0:lchild&#45;&gt;node0x55b1d1cc1060</title>
<path fill="none" stroke="black" stroke-width="2" d="M1109,-288C1109,-277.81 1109,-266.78 1109,-256.56"/>
<polygon fill="black" stroke="black" stroke-width="2" points="1109,-246.27 1113.5,-256.27 1109.5,-251.27 1109.5,-256.27 1109,-256.27 1108.5,-256.27 1108.5,-251.27 1104.5,-256.27 1109,-246.27 1109,-246.27"/>
</g>
<!-- node0x55b1d1cc1720 -->
<g id="node21" class="node">
<title>node0x55b1d1cc1720</title>
<polygon fill="lightskyblue" stroke="transparent" points="1203,-218 1203,-239 1402,-239 1402,-218 1203,-218"/>
<polygon fill="none" stroke="black" points="1203,-218 1203,-239 1402,-239 1402,-218 1203,-218"/>
<text text-anchor="start" x="1284" y="-224.8" font-family="Times,serif" font-size="14.00">1488</text>
<polygon fill="none" stroke="black" points="1203,-195 1203,-216 1252,-216 1252,-195 1203,-195"/>
<text text-anchor="start" x="1206" y="-201.8" font-family="Times,serif" font-size="14.00">L:(nil)</text>
<polygon fill="none" stroke="black" points="1254,-195 1254,-216 1402,-216 1402,-195 1254,-195"/>
<text text-anchor="start" x="1257" y="-201.8" font-family="Times,serif" font-size="14.00">R: 0x55b1d1cc1160</text>
<polygon fill="none" stroke="black" points="1199.5,-192 1199.5,-242 1404.5,-242 1404.5,-192 1199.5,-192"/>
</g>
<!-- node0x55b1d1cc0fe0&#45;&gt;node0x55b1d1cc1720 -->
<g id="edge20" class="edge">
<title>node0x55b1d1cc0fe0:rchild&#45;&gt;node0x55b1d1cc1720</title>
<path fill="none" stroke="black" stroke-width="2" d="M1256,-288C1256,-275.96 1260.81,-264.38 1267.33,-254.23"/>
<polygon fill="black" stroke="black" stroke-width="2" points="1273.13,-246.06 1271.01,-256.82 1270.64,-250.42 1267.75,-254.5 1267.34,-254.21 1266.93,-253.92 1269.83,-249.85 1263.67,-251.61 1273.13,-246.06 1273.13,-246.06"/>
</g>
<!-- node0x55b1d1cc1160 -->
<g id="node22" class="node">
<title>node0x55b1d1cc1160</title>
<polygon fill="#9acd32" stroke="transparent" points="1182,-124 1182,-145 1474,-145 1474,-124 1182,-124"/>
<polygon fill="none" stroke="black" points="1182,-124 1182,-145 1474,-145 1474,-124 1182,-124"/>
<text text-anchor="start" x="1319.5" y="-130.8" font-family="Times,serif" font-size="14.00"> =</text>
<polygon fill="none" stroke="black" points="1182,-101 1182,-122 1324,-122 1324,-101 1182,-101"/>
<text text-anchor="start" x="1185" y="-107.8" font-family="Times,serif" font-size="14.00">L:0x55b1d1cc1120</text>
<polygon fill="none" stroke="black" points="1326,-101 1326,-122 1474,-122 1474,-101 1326,-101"/>
<text text-anchor="start" x="1329" y="-107.8" font-family="Times,serif" font-size="14.00">R: 0x55b1d1cc11a0</text>
<polygon fill="none" stroke="black" points="1179,-98 1179,-148 1477,-148 1477,-98 1179,-98"/>
</g>
<!-- node0x55b1d1cc1720&#45;&gt;node0x55b1d1cc1160 -->
<g id="edge21" class="edge">
<title>node0x55b1d1cc1720:rchild&#45;&gt;node0x55b1d1cc1160</title>
<path fill="none" stroke="black" stroke-width="2" d="M1328,-194C1328,-183.81 1328,-172.78 1328,-162.56"/>
<polygon fill="black" stroke="black" stroke-width="2" points="1328,-152.27 1332.5,-162.27 1328.5,-157.27 1328.5,-162.27 1328,-162.27 1327.5,-162.27 1327.5,-157.27 1323.5,-162.27 1328,-152.27 1328,-152.27"/>
</g>
<!-- node0x55b1d1cc1120 -->
<g id="node23" class="node">
<title>node0x55b1d1cc1120</title>
<polygon fill="orchid" stroke="transparent" points="1200,-30 1200,-51 1306,-51 1306,-30 1200,-30"/>
<polygon fill="none" stroke="black" points="1200,-30 1200,-51 1306,-51 1306,-30 1200,-30"/>
<text text-anchor="start" x="1246.5" y="-36.8" font-family="Times,serif" font-size="14.00"> x</text>
<polygon fill="none" stroke="black" points="1200,-7 1200,-28 1249,-28 1249,-7 1200,-7"/>
<text text-anchor="start" x="1203" y="-13.8" font-family="Times,serif" font-size="14.00">L:(nil)</text>
<polygon fill="none" stroke="black" points="1251,-7 1251,-28 1306,-28 1306,-7 1251,-7"/>
<text text-anchor="start" x="1254" y="-13.8" font-family="Times,serif" font-size="14.00">R: (nil)</text>
<polygon fill="none" stroke="black" points="1197,-4 1197,-54 1309,-54 1309,-4 1197,-4"/>
</g>
<!-- node0x55b1d1cc1160&#45;&gt;node0x55b1d1cc1120 -->
<g id="edge22" class="edge">
<title>node0x55b1d1cc1160:lchild&#45;&gt;node0x55b1d1cc1120</title>
<path fill="none" stroke="black" stroke-width="2" d="M1253,-100C1253,-89.81 1253,-78.78 1253,-68.56"/>
<polygon fill="black" stroke="black" stroke-width="2" points="1253,-58.27 1257.5,-68.27 1253.5,-63.27 1253.5,-68.27 1253,-68.27 1252.5,-68.27 1252.5,-63.27 1248.5,-68.27 1253,-58.27 1253,-58.27"/>
</g>
<!-- node0x55b1d1cc11a0 -->
<g id="node24" class="node">
<title>node0x55b1d1cc11a0</title>
<polygon fill="lightskyblue" stroke="transparent" points="1347,-30 1347,-51 1453,-51 1453,-30 1347,-30"/>
<polygon fill="none" stroke="black" points="1347,-30 1347,-51 1453,-51 1453,-30 1347,-30"/>
<text text-anchor="start" x="1395" y="-36.8" font-family="Times,serif" font-size="14.00">3</text>
<polygon fill="none" stroke="black" points="1347,-7 1347,-28 1396,-28 1396,-7 1347,-7"/>
<text text-anchor="start" x="1350" y="-13.8" font-family="Times,serif" font-size="14.00">L:(nil)</text>
<polygon fill="none" stroke="black" points="1398,-7 1398,-28 1453,-28 1453,-7 1398,-7"/>
<text text-anchor="start" x="1401" y="-13.8" font-family="Times,serif" font-size="14.00">R: (nil)</text>
<polygon fill="none" stroke="black" points="1344,-4 1344,-54 1456,-54 1456,-4 1344,-4"/>
</g>
<!-- node0x55b1d1cc1160&#45;&gt;node0x55b1d1cc11a0 -->
<g id="edge23" class="edge">
<title>node0x55b1d1cc1160:rchild&#45;&gt;node0x55b1d1cc11a0</title>
<path fill="none" stroke="black" stroke-width="2" d="M1400,-100C1400,-89.81 1400,-78.78 1400,-68.56"/>
<polygon fill="black" stroke="black" stroke-width="2" points="1400,-58.27 1404.5,-68.27 1400.5,-63.27 1400.5,-68.27 1400,-68.27 1399.5,-68.27 1399.5,-63.27 1395.5,-68.27 1400,-58.27 1400,-58.27"/>
</g>
<!-- node0x55b1d1cc1660 -->
<g id="node25" class="node">
<title>node0x55b1d1cc1660</title>
<polygon fill="lightskyblue" stroke="transparent" points="657,-688 657,-709 949,-709 949,-688 657,-688"/>
<polygon fill="none" stroke="black" points="657,-688 657,-709 949,-709 949,-688 657,-688"/>
<text text-anchor="start" x="784.5" y="-694.8" font-family="Times,serif" font-size="14.00">1488</text>
<polygon fill="none" stroke="black" points="657,-665 657,-686 799,-686 799,-665 657,-665"/>
<text text-anchor="start" x="660" y="-671.8" font-family="Times,serif" font-size="14.00">L:0x55b1d1cc16a0</text>
<polygon fill="none" stroke="black" points="801,-665 801,-686 949,-686 949,-665 801,-665"/>
<text text-anchor="start" x="804" y="-671.8" font-family="Times,serif" font-size="14.00">R: 0x55b1d1cc0d60</text>
<polygon fill="none" stroke="black" points="654,-662 654,-712 952,-712 952,-662 654,-662"/>
</g>
<!-- node0x55b1d1cc1660&#45;&gt;node0x55b1d1cc16a0 -->
<g id="edge24" class="edge">
<title>node0x55b1d1cc1660:lchild&#45;&gt;node0x55b1d1cc16a0</title>
<path fill="none" stroke="black" stroke-width="2" d="M656,-675C610.52,-675 564.48,-650.14 532.47,-627.96"/>
<polygon fill="black" stroke="black" stroke-width="2" points="524.23,-622.1 534.98,-624.23 528.59,-624.59 532.67,-627.49 532.38,-627.9 532.09,-628.31 528.01,-625.41 529.77,-631.57 524.23,-622.1 524.23,-622.1"/>
</g>
<!-- node0x55b1d1cc0d60 -->
<g id="node26" class="node">
<title>node0x55b1d1cc0d60</title>
<polygon fill="#9acd32" stroke="transparent" points="729,-594 729,-615 1021,-615 1021,-594 729,-594"/>
<polygon fill="none" stroke="black" points="729,-594 729,-615 1021,-615 1021,-594 729,-594"/>
<text text-anchor="start" x="866.5" y="-600.8" font-family="Times,serif" font-size="14.00"> =</text>
<polygon fill="none" stroke="black" points="729,-571 729,-592 871,-592 871,-571 729,-571"/>
<text text-anchor="start" x="732" y="-577.8" font-family="Times,serif" font-size="14.00">L:0x55b1d1cc0d20</text>
<polygon fill="none" stroke="black" points="873,-571 873,-592 1021,-592 1021,-571 873,-571"/>
<text text-anchor="start" x="876" y="-577.8" font-family="Times,serif" font-size="14.00">R: 0x55b1d1cc0da0</text>
<polygon fill="none" stroke="black" points="726,-568 726,-618 1024,-618 1024,-568 726,-568"/>
</g>
<!-- node0x55b1d1cc1660&#45;&gt;node0x55b1d1cc0d60 -->
<g id="edge25" class="edge">
<title>node0x55b1d1cc1660:rchild&#45;&gt;node0x55b1d1cc0d60</title>
<path fill="none" stroke="black" stroke-width="2" d="M875,-664C875,-653.81 875,-642.78 875,-632.56"/>
<polygon fill="black" stroke="black" stroke-width="2" points="875,-622.27 879.5,-632.27 875.5,-627.27 875.5,-632.27 875,-632.27 874.5,-632.27 874.5,-627.27 870.5,-632.27 875,-622.27 875,-622.27"/>
</g>
<!-- node0x55b1d1cc0d20 -->
<g id="node27" class="node">
<title>node0x55b1d1cc0d20</title>
<polygon fill="orchid" stroke="transparent" points="748,-500 748,-521 854,-521 854,-500 748,-500"/>
<polygon fill="none" stroke="black" points="748,-500 748,-521 854,-521 854,-500 748,-500"/>
<text text-anchor="start" x="794.5" y="-506.8" font-family="Times,serif" font-size="14.00"> x</text>
<polygon fill="none" stroke="black" points="748,-477 748,-498 797,-498 797,-477 748,-477"/>
<text text-anchor="start" x="751" y="-483.8" font-family="Times,serif" font-size="14.00">L:(nil)</text>
<polygon fill="none" stroke="black" points="799,-477 799,-498 854,-498 854,-477 799,-477"/>
<text text-anchor="start" x="802" y="-483.8" font-family="Times,serif" font-size="14.00">R: (nil)</text>
<polygon fill="none" stroke="black" points="745,-474 745,-524 857,-524 857,-474 745,-474"/>
</g>
<!-- node0x55b1d1cc0d60&#45;&gt;node0x55b1d1cc0d20 -->
<g id="edge26" class="edge">
<title>node0x55b1d1cc0d60:lchild&#45;&gt;node0x55b1d1cc0d20</title>
<path fill="none" stroke="black" stroke-width="2" d="M800,-570C800,-559.81 800.11,-548.78 800.25,-538.56"/>
<polygon fill="black" stroke="black" stroke-width="2" points="800.41,-528.27 804.76,-538.34 800.83,-533.28 800.76,-538.27 800.26,-538.27 799.76,-538.26 799.83,-533.26 795.76,-538.2 800.41,-528.27 800.41,-528.27"/>
</g>
<!-- node0x55b1d1cc0da0 -->
<g id="node28" class="node">
<title>node0x55b1d1cc0da0</title>
<polygon fill="lightskyblue" stroke="transparent" points="894,-500 894,-521 1000,-521 1000,-500 894,-500"/>
<polygon fill="none" stroke="black" points="894,-500 894,-521 1000,-521 1000,-500 894,-500"/>
<text text-anchor="start" x="942" y="-506.8" font-family="Times,serif" font-size="14.00">3</text>
<polygon fill="none" stroke="black" points="894,-477 894,-498 943,-498 943,-477 894,-477"/>
<text text-anchor="start" x="897" y="-483.8" font-family="Times,serif" font-size="14.00">L:(nil)</text>
<polygon fill="none" stroke="black" points="945,-477 945,-498 1000,-498 1000,-477 945,-477"/>
<text text-anchor="start" x="948" y="-483.8" font-family="Times,serif" font-size="14.00">R: (nil)</text>
<polygon fill="none" stroke="black" points="891,-474 891,-524 1003,-524 1003,-474 891,-474"/>
</g>
<!-- node0x55b1d1cc0d60&#45;&gt;node0x55b1d1cc0da0 -->
<g id="edge27" class="edge">
<title>node0x55b1d1cc0d60:rchild&#45;&gt;node0x55b1d1cc0da0</title>
<path fill="none" stroke="black" stroke-width="2" d="M947,-570C947,-559.81 947,-548.78 947,-538.56"/>
<polygon fill="black" stroke="black" stroke-width="2" points="947,-528.27 951.5,-538.27 947.5,-533.27 947.5,-538.27 947,-538.27 946.5,-538.27 946.5,-533.27 942.5,-538.27 947,-528.27 947,-528.27"/>
</g>
<!-- node0x55b1d1cc1620 -->
<g id="node29" class="node">
<title>node0x55b1d1cc1620</title>
<polygon fill="lightskyblue" stroke="transparent" points="851,-782 851,-803 1142,-803 1142,-782 851,-782"/>
<polygon fill="none" stroke="black" points="851,-782 851,-803 1142,-803 1142,-782 851,-782"/>
<text text-anchor="start" x="978" y="-788.8" font-family="Times,serif" font-size="14.00">1488</text>
<polygon fill="none" stroke="black" points="851,-759 851,-780 993,-780 993,-759 851,-759"/>
<text text-anchor="start" x="854" y="-765.8" font-family="Times,serif" font-size="14.00">L:0x55b1d1cc1660</text>
<polygon fill="none" stroke="black" points="995,-759 995,-780 1142,-780 1142,-759 995,-759"/>
<text text-anchor="start" x="998" y="-765.8" font-family="Times,serif" font-size="14.00">R: 0x55b1d1cc0c60</text>
<polygon fill="none" stroke="black" points="847.5,-756 847.5,-806 1144.5,-806 1144.5,-756 847.5,-756"/>
</g>
<!-- node0x55b1d1cc1620&#45;&gt;node0x55b1d1cc1660 -->
<g id="edge28" class="edge">
<title>node0x55b1d1cc1620:lchild&#45;&gt;node0x55b1d1cc1660</title>
<path fill="none" stroke="black" stroke-width="2" d="M850,-769C828.39,-769 816.54,-747.16 810.16,-726.15"/>
<polygon fill="black" stroke="black" stroke-width="2" points="807.51,-716.33 814.46,-724.82 809.3,-721.03 810.59,-725.86 810.11,-725.99 809.63,-726.12 808.33,-721.29 805.77,-727.16 807.51,-716.33 807.51,-716.33"/>
</g>
<!-- node0x55b1d1cc0c60 -->
<g id="node30" class="node">
<title>node0x55b1d1cc0c60</title>
<polygon fill="#9acd32" stroke="transparent" points="1044,-688 1044,-709 1333,-709 1333,-688 1044,-688"/>
<polygon fill="none" stroke="black" points="1044,-688 1044,-709 1333,-709 1333,-688 1044,-688"/>
<text text-anchor="start" x="1180" y="-694.8" font-family="Times,serif" font-size="14.00"> =</text>
<polygon fill="none" stroke="black" points="1044,-665 1044,-686 1185,-686 1185,-665 1044,-665"/>
<text text-anchor="start" x="1047" y="-671.8" font-family="Times,serif" font-size="14.00">L:0x55b1d1cc0c20</text>
<polygon fill="none" stroke="black" points="1187,-665 1187,-686 1333,-686 1333,-665 1187,-665"/>
<text text-anchor="start" x="1190" y="-671.8" font-family="Times,serif" font-size="14.00">R: 0x55b1d1cc0ca0</text>
<polygon fill="none" stroke="black" points="1040.5,-662 1040.5,-712 1335.5,-712 1335.5,-662 1040.5,-662"/>
</g>
<!-- node0x55b1d1cc1620&#45;&gt;node0x55b1d1cc0c60 -->
<g id="edge29" class="edge">
<title>node0x55b1d1cc1620:rchild&#45;&gt;node0x55b1d1cc0c60</title>
<path fill="none" stroke="black" stroke-width="2" d="M1143,-769C1164.39,-769 1175.7,-747.16 1181.63,-726.15"/>
<polygon fill="black" stroke="black" stroke-width="2" points="1184.06,-716.33 1186.03,-727.12 1183.34,-721.3 1182.14,-726.16 1181.66,-726.04 1181.17,-725.92 1182.37,-721.06 1177.29,-724.96 1184.06,-716.33 1184.06,-716.33"/>
</g>
<!-- node0x55b1d1cc0c20 -->
<g id="node31" class="node">
<title>node0x55b1d1cc0c20</title>
<polygon fill="orchid" stroke="transparent" points="1061,-594 1061,-615 1167,-615 1167,-594 1061,-594"/>
<polygon fill="none" stroke="black" points="1061,-594 1061,-615 1167,-615 1167,-594 1061,-594"/>
<text text-anchor="start" x="1107.5" y="-600.8" font-family="Times,serif" font-size="14.00"> x</text>
<polygon fill="none" stroke="black" points="1061,-571 1061,-592 1110,-592 1110,-571 1061,-571"/>
<text text-anchor="start" x="1064" y="-577.8" font-family="Times,serif" font-size="14.00">L:(nil)</text>
<polygon fill="none" stroke="black" points="1112,-571 1112,-592 1167,-592 1167,-571 1112,-571"/>
<text text-anchor="start" x="1115" y="-577.8" font-family="Times,serif" font-size="14.00">R: (nil)</text>
<polygon fill="none" stroke="black" points="1058,-568 1058,-618 1170,-618 1170,-568 1058,-568"/>
</g>
<!-- node0x55b1d1cc0c60&#45;&gt;node0x55b1d1cc0c20 -->
<g id="edge30" class="edge">
<title>node0x55b1d1cc0c60:lchild&#45;&gt;node0x55b1d1cc0c20</title>
<path fill="none" stroke="black" stroke-width="2" d="M1114,-664C1114,-653.81 1114,-642.78 1114,-632.56"/>
<polygon fill="black" stroke="black" stroke-width="2" points="1114,-622.27 1118.5,-632.27 1114.5,-627.27 1114.5,-632.27 1114,-632.27 1113.5,-632.27 1113.5,-627.27 1109.5,-632.27 1114,-622.27 1114,-622.27"/>
</g>
<!-- node0x55b1d1cc0ca0 -->
<g id="node32" class="node">
<title>node0x55b1d1cc0ca0</title>
<polygon fill="lightskyblue" stroke="transparent" points="1207,-594 1207,-615 1313,-615 1313,-594 1207,-594"/>
<polygon fill="none" stroke="black" points="1207,-594 1207,-615 1313,-615 1313,-594 1207,-594"/>
<text text-anchor="start" x="1255" y="-600.8" font-family="Times,serif" font-size="14.00">2</text>
<polygon fill="none" stroke="black" points="1207,-571 1207,-592 1256,-592 1256,-571 1207,-571"/>
<text text-anchor="start" x="1210" y="-577.8" font-family="Times,serif" font-size="14.00">L:(nil)</text>
<polygon fill="none" stroke="black" points="1258,-571 1258,-592 1313,-592 1313,-571 1258,-571"/>
<text text-anchor="start" x="1261" y="-577.8" font-family="Times,serif" font-size="14.00">R: (nil)</text>
<polygon fill="none" stroke="black" points="1204,-568 1204,-618 1316,-618 1316,-568 1204,-568"/>
</g>
<!-- node0x55b1d1cc0c60&#45;&gt;node0x55b1d1cc0ca0 -->
<g id="edge31" class="edge">
<title>node0x55b1d1cc0c60:rchild&#45;&gt;node0x55b1d1cc0ca0</title>
<path fill="none" stroke="black" stroke-width="2" d="M1260,-664C1260,-653.81 1260,-642.78 1260,-632.56"/>
<polygon fill="black" stroke="black" stroke-width="2" points="1260,-622.27 1264.5,-632.27 1260.5,-627.27 1260.5,-632.27 1260,-632.27 1259.5,-632.27 1259.5,-627.27 1255.5,-632.27 1260,-622.27 1260,-622.27"/>
</g>
</g>
</svg>
