<?xml version="1.0" encoding="UTF-8" standalone="no"?>
<!DOCTYPE svg PUBLIC "-//W3C//DTD SVG 1.1//EN"
 "http://www.w3.org/Graphics/SVG/1.1/DTD/svg11.dtd">
<!-- Generated by graphviz version 2.43.0 (0)
 -->
<!-- Title: dump_graph Pages: 1 -->
<svg width="592pt" height="348pt"
 viewBox="0.00 0.00 591.50 348.00" xmlns="http://www.w3.org/2000/svg" xmlns:xlink="http://www.w3.org/1999/xlink">
<g id="graph0" class="graph" transform="scale(1 1) rotate(0) translate(4 344)">
<title>dump_graph</title>
<polygon fill="white" stroke="transparent" points="-4,4 -4,-344 587.5,-344 587.5,4 -4,4"/>
<!-- node0x56509b9e3c70 -->
<g id="node1" class="node">
<title>node0x56509b9e3c70</title>
<polygon fill="orchid" stroke="transparent" points="11,-218 11,-239 117,-239 117,-218 11,-218"/>
<polygon fill="none" stroke="black" points="11,-218 11,-239 117,-239 117,-218 11,-218"/>
<text text-anchor="start" x="47.5" y="-224.8" font-family="Times,serif" font-size="14.00"> size</text>
<polygon fill="none" stroke="black" points="11,-195 11,-216 60,-216 60,-195 11,-195"/>
<text text-anchor="start" x="14" y="-201.8" font-family="Times,serif" font-size="14.00">L:(nil)</text>
<polygon fill="none" stroke="black" points="62,-195 62,-216 117,-216 117,-195 62,-195"/>
<text text-anchor="start" x="65" y="-201.8" font-family="Times,serif" font-size="14.00">R: (nil)</text>
<polygon fill="none" stroke="black" points="8,-192 8,-242 120,-242 120,-192 8,-192"/>
</g>
<!-- node0x56509b9e3bf0 -->
<g id="node2" class="node">
<title>node0x56509b9e3bf0</title>
<polygon fill="orchid" stroke="transparent" points="38,-312 38,-333 334,-333 334,-312 38,-312"/>
<polygon fill="none" stroke="black" points="38,-312 38,-333 334,-333 334,-312 38,-312"/>
<text text-anchor="start" x="178.5" y="-318.8" font-family="Times,serif" font-size="14.00"> if</text>
<polygon fill="none" stroke="black" points="38,-289 38,-310 181,-310 181,-289 38,-289"/>
<text text-anchor="start" x="41" y="-295.8" font-family="Times,serif" font-size="14.00">L:0x56509b9e3c70</text>
<polygon fill="none" stroke="black" points="183,-289 183,-310 334,-310 334,-289 183,-289"/>
<text text-anchor="start" x="186" y="-295.8" font-family="Times,serif" font-size="14.00">R: 0x56509b9e3d70</text>
<polygon fill="none" stroke="black" points="35,-286 35,-336 337,-336 337,-286 35,-286"/>
</g>
<!-- node0x56509b9e3bf0&#45;&gt;node0x56509b9e3c70 -->
<g id="edge1" class="edge">
<title>node0x56509b9e3bf0:lchild&#45;&gt;node0x56509b9e3c70</title>
<path fill="none" stroke="black" stroke-width="2" d="M109,-288C109,-276.16 104.38,-264.72 98.11,-254.64"/>
<polygon fill="black" stroke="black" stroke-width="2" points="92.24,-246.16 101.63,-251.83 95.5,-249.99 98.34,-254.1 97.93,-254.39 97.52,-254.67 94.68,-250.56 94.23,-256.95 92.24,-246.16 92.24,-246.16"/>
</g>
<!-- node0x56509b9e3d70 -->
<g id="node3" class="node">
<title>node0x56509b9e3d70</title>
<polygon fill="#9acd32" stroke="transparent" points="157,-218 157,-239 451,-239 451,-218 157,-218"/>
<polygon fill="none" stroke="black" points="157,-218 157,-239 451,-239 451,-218 157,-218"/>
<text text-anchor="start" x="295.5" y="-224.8" font-family="Times,serif" font-size="14.00"> =</text>
<polygon fill="none" stroke="black" points="157,-195 157,-216 302,-216 302,-195 157,-195"/>
<text text-anchor="start" x="160" y="-201.8" font-family="Times,serif" font-size="14.00">L:0x56509b9e3d30</text>
<polygon fill="none" stroke="black" points="304,-195 304,-216 451,-216 451,-195 304,-195"/>
<text text-anchor="start" x="307" y="-201.8" font-family="Times,serif" font-size="14.00">R: 0x56509b9e3df0</text>
<polygon fill="none" stroke="black" points="154,-192 154,-242 454,-242 454,-192 154,-192"/>
</g>
<!-- node0x56509b9e3bf0&#45;&gt;node0x56509b9e3d70 -->
<g id="edge2" class="edge">
<title>node0x56509b9e3bf0:rchild&#45;&gt;node0x56509b9e3d70</title>
<path fill="none" stroke="black" stroke-width="2" d="M259,-288C259,-276.16 263.62,-264.72 269.89,-254.64"/>
<polygon fill="black" stroke="black" stroke-width="2" points="275.76,-246.16 273.77,-256.95 273.32,-250.56 270.48,-254.67 270.07,-254.39 269.66,-254.1 272.5,-249.99 266.37,-251.83 275.76,-246.16 275.76,-246.16"/>
</g>
<!-- node0x56509b9e3d30 -->
<g id="node4" class="node">
<title>node0x56509b9e3d30</title>
<polygon fill="orchid" stroke="transparent" points="129,-124 129,-145 235,-145 235,-124 129,-124"/>
<polygon fill="none" stroke="black" points="129,-124 129,-145 235,-145 235,-124 129,-124"/>
<text text-anchor="start" x="175.5" y="-130.8" font-family="Times,serif" font-size="14.00"> x</text>
<polygon fill="none" stroke="black" points="129,-101 129,-122 178,-122 178,-101 129,-101"/>
<text text-anchor="start" x="132" y="-107.8" font-family="Times,serif" font-size="14.00">L:(nil)</text>
<polygon fill="none" stroke="black" points="180,-101 180,-122 235,-122 235,-101 180,-101"/>
<text text-anchor="start" x="183" y="-107.8" font-family="Times,serif" font-size="14.00">R: (nil)</text>
<polygon fill="none" stroke="black" points="126,-98 126,-148 238,-148 238,-98 126,-98"/>
</g>
<!-- node0x56509b9e3d70&#45;&gt;node0x56509b9e3d30 -->
<g id="edge3" class="edge">
<title>node0x56509b9e3d70:lchild&#45;&gt;node0x56509b9e3d30</title>
<path fill="none" stroke="black" stroke-width="2" d="M229,-194C229,-181.99 224.17,-170.49 217.62,-160.41"/>
<polygon fill="black" stroke="black" stroke-width="2" points="211.77,-152.29 221.26,-157.77 215.09,-156.05 218.02,-160.11 217.61,-160.4 217.21,-160.7 214.28,-156.64 213.96,-163.03 211.77,-152.29 211.77,-152.29"/>
</g>
<!-- node0x56509b9e3df0 -->
<g id="node5" class="node">
<title>node0x56509b9e3df0</title>
<polygon fill="#9acd32" stroke="transparent" points="276,-124 276,-145 573,-145 573,-124 276,-124"/>
<polygon fill="none" stroke="black" points="276,-124 276,-145 573,-145 573,-124 276,-124"/>
<text text-anchor="start" x="419.5" y="-130.8" font-family="Times,serif" font-size="14.00"> &#45;</text>
<polygon fill="none" stroke="black" points="276,-101 276,-122 421,-122 421,-101 276,-101"/>
<text text-anchor="start" x="279" y="-107.8" font-family="Times,serif" font-size="14.00">L:0x56509b9e3db0</text>
<polygon fill="none" stroke="black" points="423,-101 423,-122 573,-122 573,-101 423,-101"/>
<text text-anchor="start" x="426" y="-107.8" font-family="Times,serif" font-size="14.00">R: 0x56509b9e3e30</text>
<polygon fill="none" stroke="black" points="272.5,-98 272.5,-148 575.5,-148 575.5,-98 272.5,-98"/>
</g>
<!-- node0x56509b9e3d70&#45;&gt;node0x56509b9e3df0 -->
<g id="edge4" class="edge">
<title>node0x56509b9e3d70:rchild&#45;&gt;node0x56509b9e3df0</title>
<path fill="none" stroke="black" stroke-width="2" d="M378,-194C378,-181.96 382.81,-170.38 389.33,-160.23"/>
<polygon fill="black" stroke="black" stroke-width="2" points="395.13,-152.06 393.01,-162.82 392.64,-156.42 389.75,-160.5 389.34,-160.21 388.93,-159.92 391.83,-155.85 385.67,-157.61 395.13,-152.06 395.13,-152.06"/>
</g>
<!-- node0x56509b9e3db0 -->
<g id="node6" class="node">
<title>node0x56509b9e3db0</title>
<polygon fill="orchid" stroke="transparent" points="295,-30 295,-51 401,-51 401,-30 295,-30"/>
<polygon fill="none" stroke="black" points="295,-30 295,-51 401,-51 401,-30 295,-30"/>
<text text-anchor="start" x="331.5" y="-36.8" font-family="Times,serif" font-size="14.00"> size</text>
<polygon fill="none" stroke="black" points="295,-7 295,-28 344,-28 344,-7 295,-7"/>
<text text-anchor="start" x="298" y="-13.8" font-family="Times,serif" font-size="14.00">L:(nil)</text>
<polygon fill="none" stroke="black" points="346,-7 346,-28 401,-28 401,-7 346,-7"/>
<text text-anchor="start" x="349" y="-13.8" font-family="Times,serif" font-size="14.00">R: (nil)</text>
<polygon fill="none" stroke="black" points="292,-4 292,-54 404,-54 404,-4 292,-4"/>
</g>
<!-- node0x56509b9e3df0&#45;&gt;node0x56509b9e3db0 -->
<g id="edge5" class="edge">
<title>node0x56509b9e3df0:lchild&#45;&gt;node0x56509b9e3db0</title>
<path fill="none" stroke="black" stroke-width="2" d="M348,-100C348,-89.81 348,-78.78 348,-68.56"/>
<polygon fill="black" stroke="black" stroke-width="2" points="348,-58.27 352.5,-68.27 348.5,-63.27 348.5,-68.27 348,-68.27 347.5,-68.27 347.5,-63.27 343.5,-68.27 348,-58.27 348,-58.27"/>
</g>
<!-- node0x56509b9e3e30 -->
<g id="node7" class="node">
<title>node0x56509b9e3e30</title>
<polygon fill="lightskyblue" stroke="transparent" points="445,-30 445,-51 551,-51 551,-30 445,-30"/>
<polygon fill="none" stroke="black" points="445,-30 445,-51 551,-51 551,-30 445,-30"/>
<text text-anchor="start" x="493" y="-36.8" font-family="Times,serif" font-size="14.00">8</text>
<polygon fill="none" stroke="black" points="445,-7 445,-28 494,-28 494,-7 445,-7"/>
<text text-anchor="start" x="448" y="-13.8" font-family="Times,serif" font-size="14.00">L:(nil)</text>
<polygon fill="none" stroke="black" points="496,-7 496,-28 551,-28 551,-7 496,-7"/>
<text text-anchor="start" x="499" y="-13.8" font-family="Times,serif" font-size="14.00">R: (nil)</text>
<polygon fill="none" stroke="black" points="442,-4 442,-54 554,-54 554,-4 442,-4"/>
</g>
<!-- node0x56509b9e3df0&#45;&gt;node0x56509b9e3e30 -->
<g id="edge6" class="edge">
<title>node0x56509b9e3df0:rchild&#45;&gt;node0x56509b9e3e30</title>
<path fill="none" stroke="black" stroke-width="2" d="M498,-100C498,-89.81 498,-78.78 498,-68.56"/>
<polygon fill="black" stroke="black" stroke-width="2" points="498,-58.27 502.5,-68.27 498.5,-63.27 498.5,-68.27 498,-68.27 497.5,-68.27 497.5,-63.27 493.5,-68.27 498,-58.27 498,-58.27"/>
</g>
</g>
</svg>
